<?xml version="1.0" encoding="utf-8" standalone="no"?>
<!DOCTYPE svg PUBLIC "-//W3C//DTD SVG 1.1//EN"
  "http://www.w3.org/Graphics/SVG/1.1/DTD/svg11.dtd">
<!-- Created with matplotlib (http://matplotlib.org/) -->
<svg height="410pt" version="1.1" viewBox="0 0 523 410" width="523pt" xmlns="http://www.w3.org/2000/svg" xmlns:xlink="http://www.w3.org/1999/xlink">
 <defs>
  <style type="text/css">
*{stroke-linecap:butt;stroke-linejoin:round;}
  </style>
 </defs>
 <g id="figure_1">
  <g id="patch_1">
   <path d="
M0 410.492
L523.443 410.492
L523.443 0
L0 0
z
" style="fill:#ffffff;"/>
  </g>
  <g id="axes_1">
   <g id="patch_2">
    <path d="
M55.3909 368.742
L501.791 368.742
L501.791 23.1417
L55.3909 23.1417
z
" style="fill:#ffffff;"/>
   </g>
   <g id="line2d_1">
    <path clip-path="url(#p291dd02cf4)" d="
M477.73 368.229
L472.521 368.151
L471.479 367.906
L470.438 368.068
L469.396 367.911
L468.355 368.114
L467.313 367.73
L466.271 368.062
L465.23 367.574
L464.188 367.802
L462.106 367.81
L460.023 367.332
L454.817 366.671
L452.735 366.547
L451.694 366.666
L450.653 366.15
L449.612 366.063
L448.571 365.788
L447.53 366.129
L446.489 365.835
L445.448 365.733
L444.407 365.285
L442.326 365.086
L441.285 364.484
L440.244 364.517
L439.204 363.219
L438.163 363.586
L437.122 363.772
L436.082 363.094
L435.041 362.934
L434.001 362.505
L432.96 361.871
L431.92 361.697
L430.88 360.099
L429.839 360.258
L428.799 358.567
L427.759 357.292
L426.719 354.534
L424.638 347.657
L423.598 341.534
L422.558 336.957
L420.478 324.373
L419.438 316.866
L418.398 307.223
L417.358 307.667
L416.318 298.937
L415.278 312.686
L414.238 323.559
L413.199 340.133
L412.159 347.073
L411.119 352.562
L410.08 354.193
L409.04 357.841
L406.961 361.675
L405.921 362.949
L404.882 363.823
L403.842 364.916
L402.803 365.721
L401.763 366.143
L400.724 366.734
L399.685 366.787
L398.645 367.082
L397.606 367.179
L396.567 367.567
L395.528 367.543
L394.489 367.86
L393.449 367.532
L392.41 367.828
L388.254 367.893
L387.216 368.115
L386.177 368.017
L384.099 368.074
L383.06 367.955
L382.022 368.04
L380.983 367.904
L379.944 368.099
L375.79 367.936
L374.752 368.221
L373.713 367.949
L371.636 368.254
L370.598 368.075
L368.521 368.283
L367.483 368.013
L362.293 368.259
L360.217 368.087
L359.179 368.367
L356.065 368.173
L355.028 368.376
L353.99 368.364
L352.952 368.211
L351.914 368.416
L350.877 368.472
L349.839 368.352
L348.802 368.482
L347.764 368.277
L344.652 368.548
L343.614 368.516
L342.577 368.615
L340.503 368.386
L338.428 368.533
L337.391 368.372
L336.354 368.645
L335.317 368.359
L334.28 368.491
L333.243 368.76
L332.206 368.687
L331.169 368.907
L330.132 368.424
L329.095 368.687
L327.022 368.553
L323.912 368.747
L322.875 368.539
L321.838 368.775
L319.765 368.674
L312.511 368.638
L311.475 368.818
L310.439 368.725
L309.402 368.905
L308.366 368.523
L306.294 368.843
L303.187 368.608
L302.151 368.989
L300.079 368.795
L299.043 368.437
L298.008 368.835
L296.972 368.799
L295.936 368.55
L294.901 368.783
L293.865 368.573
L292.83 368.901
L291.794 368.577
L289.724 368.764
L288.688 368.623
L287.653 368.762
L286.618 368.657
L285.582 368.849
L284.547 368.763
L281.442 368.991
L280.407 368.533
L278.337 368.751
L277.302 368.258
L276.267 369.136
L274.198 369.136
L273.163 367.988
L272.128 368.414
L271.093 368.713
L270.059 368.413
L267.99 368.58
L266.955 368.34
L265.921 368.51
L263.852 368.33
L262.817 368.517
L261.783 368.194
L259.715 368.309
L258.68 367.988
L257.646 368.032
L256.612 367.842
L253.51 368.055
L252.476 367.841
L251.442 367.955
L250.408 367.739
L249.375 367.955
L248.341 367.9
L247.307 368.131
L246.273 368.24
L245.24 368.624
L244.206 368.293
L243.172 368.706
L241.105 368.389
L239.039 368.66
L238.005 368.48
L236.972 368.765
L235.939 368.615
L233.872 368.707
L231.806 368.744
L230.773 368.476
L229.74 368.584
L228.707 368.413
L227.674 368.789
L225.608 368.698
L224.575 368.749
L223.542 368.484
L222.509 368.635
L221.477 368.579
L220.444 368.648
L219.411 368.339
L218.379 368.56
L211.152 368.525
L210.12 368.776
L209.087 368.191
L208.055 368.491
L207.023 368.322
L205.991 368.615
L203.927 368.5
L202.895 368.21
L199.799 368.48
L198.768 368.408
L197.736 368.211
L196.704 368.395
L193.609 368.271
L192.578 368.481
L190.515 368.316
L189.484 368.467
L188.452 368.237
L186.39 368.198
L185.358 368.485
L184.327 368.243
L182.265 368.242
L181.234 368.093
L179.172 368.247
L176.079 367.698
L175.048 367.853
L174.018 367.723
L172.987 367.418
L171.956 367.302
L170.926 367.388
L169.895 366.863
L168.865 366.48
L167.834 366.346
L166.804 365.725
L164.743 365.206
L163.713 365.347
L162.682 365.185
L161.652 364.767
L160.622 364.574
L159.592 364.262
L158.562 364.165
L157.532 363.897
L156.502 363.914
L155.472 363.427
L154.442 363.145
L153.412 363.001
L152.382 362.647
L151.352 362.753
L150.323 361.919
L149.293 362.378
L148.263 361.721
L147.234 361.746
L146.204 360.088
L145.175 360.612
L144.145 359.017
L142.086 358.076
L141.057 357.162
L140.028 355.759
L138.999 355.181
L137.969 354.296
L136.94 352.325
L135.911 351.155
L134.882 348.966
L133.853 347.383
L132.824 346.608
L131.795 342.122
L130.766 338.394
L128.709 324.841
L126.651 301.317
L125.623 284.417
L124.594 261.403
L123.566 234.587
L120.48 142.793
L119.452 124.408
L118.423 125.79
L117.395 151.036
L116.367 193.354
L115.339 227.073
L114.311 244.966
L113.283 267.515
L111.227 327.768
L110.199 348.877
L109.171 356.404
L108.143 361.143
L107.115 363.578
L106.087 364.854
L105.06 365.576
L104.032 366.675
L103.004 366.904
L100.949 367.732
L99.9216 367.718
L98.8942 367.903
L97.8668 367.831
L92.7306 368.481
L91.7035 368.237
L90.6764 368.517
L89.6494 368.069
L88.6224 368.469
L87.5955 368.61
L85.5418 368.417
L84.5151 368.649
L82.4617 368.577
L79.3819 368.704
L77.329 368.877
L76.3026 368.548
L75.2763 368.935
L74.25 368.683
L73.2237 369.136
L65.0155 369.136
L65.0155 369.136" style="fill:none;stroke:#0000ff;stroke-linecap:square;"/>
   </g>
   <g id="line2d_2">
    <path clip-path="url(#p291dd02cf4)" d="
M55.3909 368.742
L501.791 368.742" style="fill:none;stroke:#000000;stroke-linecap:square;"/>
   </g>
   <g id="line2d_3">
    <path clip-path="url(#p291dd02cf4)" d="
M114.281 383.768
L114.281 38.1678" style="fill:none;stroke:#808080;stroke-linecap:square;"/>
   </g>
   <g id="line2d_4">
    <path clip-path="url(#p291dd02cf4)" d="
M119.452 383.768
L119.452 38.1678" style="fill:none;stroke:#808080;stroke-linecap:square;"/>
   </g>
   <g id="line2d_5">
    <path clip-path="url(#p291dd02cf4)" d="
M439.853 383.768
L439.853 218.481" style="fill:none;stroke:#808080;stroke-linecap:square;"/>
   </g>
   <g id="line2d_6">
    <path clip-path="url(#p291dd02cf4)" d="
M416.318 383.768
L416.318 218.481" style="fill:none;stroke:#808080;stroke-linecap:square;"/>
   </g>
   <g id="line2d_7">
    <path clip-path="url(#p291dd02cf4)" d="
M477.73 368.419
L476.688 368.662
L472.521 368.705
L471.479 368.623
L470.438 368.323
L469.396 368.567
L467.313 368.174
L466.271 368.274
L464.188 368.12
L463.147 368.19
L462.106 367.963
L461.064 368.058
L460.023 367.672
L458.982 367.451
L457.94 367.395
L456.899 367.465
L455.858 366.975
L454.817 367.16
L452.735 366.856
L451.694 366.944
L450.653 366.704
L448.571 366.754
L446.489 367.052
L444.407 366.837
L443.366 366.808
L441.285 366.357
L440.244 365.969
L437.122 365.878
L436.082 365.404
L435.041 365.399
L432.96 364.502
L431.92 363.959
L430.88 362.69
L429.839 361.62
L428.799 359.658
L427.759 357.442
L425.678 348.742
L424.638 342.751
L422.558 327.42
L421.518 317.773
L420.478 309.522
L419.438 298.741
L418.398 286.655
L417.358 285.989
L416.318 280.964
L415.278 301.119
L414.238 316.923
L413.199 335.11
L412.159 343.267
L411.119 349.311
L410.08 352.021
L409.04 356.233
L408 358.251
L406.961 360.713
L405.921 362.502
L403.842 364.634
L401.763 366.148
L400.724 366.609
L399.685 366.426
L398.645 367.092
L397.606 367.225
L395.528 367.652
L394.489 367.809
L393.449 367.796
L392.41 367.913
L390.332 367.777
L389.293 368.011
L384.099 368.152
L383.06 368.002
L382.022 368.009
L380.983 368.221
L379.944 368.042
L378.906 368.137
L377.867 368.09
L376.828 368.189
L375.79 367.933
L373.713 368.223
L372.675 367.983
L371.636 368.369
L370.598 367.919
L369.56 368.019
L368.521 368.002
L367.483 368.139
L366.445 368.106
L365.407 368.328
L364.369 368.032
L363.331 368.027
L360.217 368.424
L359.179 368.161
L358.141 368.203
L357.103 368.12
L356.065 368.172
L355.028 368.375
L353.99 368.297
L351.914 368.458
L350.877 368.216
L349.839 368.243
L348.802 368.449
L347.764 368.381
L346.727 368.531
L345.689 368.348
L344.652 368.448
L343.614 368.358
L342.577 368.471
L340.503 368.371
L338.428 368.496
L336.354 368.42
L335.317 368.552
L334.28 368.436
L333.243 368.575
L332.206 368.451
L331.169 368.772
L330.132 368.616
L329.095 368.688
L328.058 368.605
L325.985 368.75
L322.875 368.403
L320.802 368.747
L319.765 368.741
L318.729 368.984
L316.656 368.603
L315.62 368.774
L313.547 368.636
L312.511 368.358
L311.475 368.685
L310.439 368.618
L309.402 368.756
L308.366 368.45
L307.33 368.713
L306.294 368.571
L305.258 368.727
L304.222 368.646
L302.151 368.724
L301.115 368.588
L300.079 368.875
L299.043 368.705
L298.008 368.785
L296.972 368.656
L295.936 369.012
L294.901 368.768
L288.688 368.712
L287.653 368.874
L286.618 368.637
L285.582 368.736
L284.547 368.715
L283.512 368.912
L282.477 368.733
L281.442 368.869
L280.407 368.56
L279.372 368.516
L278.337 369.036
L277.302 368.243
L276.267 369.088
L274.198 369.088
L273.163 368.115
L272.128 368.907
L271.093 368.503
L270.059 368.831
L269.024 368.527
L267.99 368.677
L266.955 368.631
L265.921 368.791
L263.852 368.735
L262.817 368.567
L261.783 368.697
L260.749 368.629
L258.68 368.766
L257.646 368.465
L256.612 368.771
L255.578 368.441
L254.544 368.648
L253.51 368.415
L252.476 368.359
L251.442 368.479
L249.375 368.286
L247.307 368.621
L246.273 368.499
L242.139 368.707
L241.105 368.513
L238.005 368.746
L234.905 368.597
L233.872 368.868
L232.839 368.512
L230.773 368.922
L229.74 368.667
L228.707 368.834
L227.674 368.433
L226.641 368.906
L225.608 368.63
L224.575 368.723
L223.542 368.575
L221.477 368.66
L220.444 368.757
L219.411 368.617
L218.379 368.753
L213.217 368.687
L211.152 368.449
L210.12 368.646
L208.055 368.754
L205.991 368.522
L204.959 368.574
L203.927 368.425
L201.863 368.635
L199.799 368.407
L194.641 368.568
L192.578 368.357
L191.546 368.592
L187.421 368.415
L184.327 368.496
L183.296 368.298
L182.265 368.436
L178.141 368.335
L177.11 368.211
L176.079 368.246
L171.956 367.879
L170.926 367.606
L169.895 367.094
L168.865 367.06
L167.834 366.729
L166.804 366.188
L164.743 365.837
L163.713 365.663
L162.682 365.762
L161.652 365.31
L160.622 365.387
L159.592 365.122
L158.562 365.114
L157.532 364.944
L155.472 364.416
L154.442 363.937
L153.412 364.047
L152.382 363.662
L151.352 363.729
L150.323 363.207
L148.263 363.159
L147.234 362.994
L146.204 361.991
L145.175 362.207
L143.116 361.276
L142.086 361.103
L141.057 360.738
L140.028 359.465
L138.999 358.561
L137.969 357.493
L135.911 354.808
L134.882 352.746
L133.853 351.885
L132.824 351.347
L131.795 348.249
L130.766 346.164
L129.738 342.413
L128.709 337.435
L126.651 319.945
L125.623 302.161
L124.594 277.645
L123.566 244.612
L120.48 121.91
L119.452 95.7376
L118.423 95.701
L117.395 129.035
L116.367 177.494
L115.339 209.48
L114.311 228.283
L113.283 255.359
L111.227 325.99
L110.199 347.414
L109.171 355.828
L108.143 360.67
L107.115 363.195
L105.06 365.681
L104.032 366.188
L103.004 366.986
L101.977 367.37
L100.949 367.239
L99.9216 367.629
L96.8395 367.993
L95.8122 368.335
L94.7849 367.929
L93.7577 368.482
L92.7306 368.158
L91.7035 368.406
L90.6764 368.283
L89.6494 368.439
L86.5686 368.579
L85.5418 368.463
L83.4883 368.464
L82.4617 368.282
L81.435 368.88
L80.4084 368.824
L79.3819 368.635
L78.3554 368.627
L77.329 368.876
L76.3026 368.818
L75.2763 368.633
L74.25 369.056
L70.1453 369.088
L65.0155 369.088
L65.0155 369.088" style="fill:none;stroke:#000000;stroke-linecap:square;"/>
   </g>
   <g id="line2d_8">
    <path clip-path="url(#p291dd02cf4)" d="
M477.73 368.593
L476.688 368.902
L474.605 368.439
L473.563 368.651
L472.521 368.459
L471.479 368.793
L470.438 368.531
L469.396 368.781
L466.271 368.576
L465.23 368.527
L464.188 368.285
L463.147 368.399
L460.023 368.146
L457.94 367.966
L456.899 367.57
L455.858 367.544
L454.817 367.631
L453.776 367.4
L452.735 367.332
L451.694 367.413
L450.653 366.971
L449.612 366.739
L448.571 367.07
L446.489 367.108
L445.448 366.77
L443.366 366.677
L442.326 366.577
L441.285 365.885
L440.244 366.191
L439.204 365.976
L438.163 366.052
L437.122 366.44
L434.001 366.749
L432.96 366.395
L431.92 366.49
L430.88 366.037
L429.839 365.367
L427.759 362.701
L426.719 359.494
L425.678 355.495
L424.638 349.527
L422.558 332.179
L420.478 308.938
L419.438 293.386
L418.398 275.273
L417.358 265.934
L416.318 255.457
L415.278 274.103
L414.238 296.735
L413.199 322.298
L412.159 335.106
L411.119 343.452
L410.08 346.425
L409.04 351.495
L408 354.937
L406.961 357.862
L405.921 359.889
L403.842 363.375
L402.803 364.35
L401.763 365.095
L400.724 365.664
L399.685 365.69
L398.645 366.611
L397.606 366.625
L396.567 367.08
L395.528 367.209
L394.489 367.485
L393.449 367.308
L392.41 367.598
L391.371 367.715
L387.216 367.685
L385.138 368.008
L383.06 367.825
L382.022 367.859
L380.983 368.039
L378.906 367.759
L375.79 368.002
L373.713 367.813
L371.636 367.901
L369.56 367.78
L368.521 367.865
L366.445 367.785
L365.407 367.906
L364.369 367.841
L363.331 368.088
L358.141 368.016
L357.103 368.171
L356.065 368.084
L353.99 368.15
L351.914 367.997
L350.877 368.149
L349.839 368.172
L347.764 368.433
L345.689 368.128
L344.652 368.395
L343.614 368.178
L340.503 368.336
L339.465 368.116
L338.428 368.327
L336.354 368.267
L335.317 368.384
L333.243 368.19
L332.206 368.475
L331.169 368.51
L330.132 368.378
L329.095 368.755
L328.058 368.397
L324.948 368.473
L323.912 368.364
L316.656 368.665
L314.583 368.366
L311.475 368.515
L310.439 368.42
L309.402 368.579
L308.366 368.559
L307.33 368.768
L306.294 368.768
L305.258 368.499
L302.151 368.691
L301.115 368.56
L300.079 368.751
L299.043 368.618
L298.008 368.695
L296.972 368.499
L293.865 368.665
L292.83 368.487
L291.794 368.793
L290.759 368.417
L289.724 368.667
L288.688 368.674
L287.653 368.53
L286.618 368.644
L285.582 368.539
L284.547 368.674
L283.512 368.53
L282.477 368.772
L281.442 368.798
L278.337 368.613
L277.302 368.242
L276.267 369.437
L274.198 369.437
L273.163 368.24
L272.128 368.735
L271.093 368.676
L270.059 368.412
L269.024 368.607
L266.955 368.615
L263.852 368.496
L262.817 368.835
L261.783 368.613
L260.749 368.666
L259.715 368.53
L257.646 368.754
L256.612 368.445
L255.578 368.798
L254.544 368.306
L253.51 368.916
L251.442 368.255
L250.408 368.477
L249.375 368.436
L248.341 368.7
L247.307 368.569
L246.273 368.644
L244.206 368.507
L243.172 368.801
L241.105 368.657
L239.039 368.626
L238.005 368.346
L235.939 368.64
L234.905 368.578
L233.872 368.666
L232.839 368.534
L230.773 368.818
L229.74 368.646
L228.707 368.621
L227.674 368.385
L226.641 368.661
L225.608 368.422
L224.575 368.508
L223.542 368.717
L222.509 368.46
L221.477 368.735
L220.444 368.273
L219.411 368.438
L218.379 368.485
L217.346 368.311
L216.314 368.673
L215.281 368.318
L214.249 368.537
L213.217 368.265
L212.184 368.574
L211.152 368.482
L210.12 368.69
L207.023 368.341
L205.991 368.324
L204.959 368.601
L203.927 368.644
L202.895 368.282
L198.768 368.398
L197.736 368.107
L196.704 368.586
L195.673 368.298
L191.546 368.424
L190.515 368.295
L189.484 368.33
L188.452 368.495
L185.358 368.242
L184.327 368.409
L182.265 368.122
L181.234 368.295
L180.203 368.114
L179.172 368.479
L178.141 368.169
L177.11 368.328
L176.079 368.097
L172.987 367.881
L170.926 367.538
L169.895 367.459
L168.865 366.908
L167.834 366.806
L166.804 366.374
L165.773 365.723
L164.743 365.802
L163.713 365.525
L162.682 365.811
L161.652 365.594
L160.622 365.205
L159.592 364.962
L156.502 364.909
L154.442 364.085
L153.412 364.357
L152.382 363.911
L151.352 363.986
L150.323 363.468
L149.293 363.433
L148.263 363.131
L147.234 363.29
L146.204 362.542
L145.175 362.531
L144.145 362.091
L143.116 362.026
L142.086 362.157
L141.057 361.662
L138.999 360.397
L137.969 359.254
L136.94 357.724
L135.911 356.802
L133.853 353.681
L132.824 354.002
L131.795 351.535
L130.766 350.006
L129.738 347.573
L128.709 344.066
L127.68 338.081
L126.651 333.028
L125.623 319.204
L124.594 298.831
L123.566 269.411
L122.537 227.293
L120.48 124.639
L119.452 85.5227
L118.423 72.151
L117.395 100.107
L116.367 157.981
L115.339 194.986
L114.311 212.363
L113.283 235.933
L112.255 274.339
L111.227 316.914
L110.199 343.707
L109.171 354.014
L108.143 359.507
L107.115 362.349
L106.087 364.366
L105.06 365.243
L104.032 366.307
L103.004 366.583
L101.977 367.262
L99.9216 367.496
L98.8942 367.85
L96.8395 368.04
L95.8122 367.854
L94.7849 368.08
L93.7577 368.032
L92.7306 368.519
L91.7035 368.383
L90.6764 368.377
L89.6494 368.218
L88.6224 368.516
L87.5955 368.326
L83.4883 368.655
L82.4617 368.359
L81.435 368.682
L80.4084 368.693
L79.3819 368.526
L78.3554 368.574
L77.329 368.737
L76.3026 368.61
L74.25 368.789
L73.2237 369.437
L65.0155 369.437
L65.0155 369.437" style="fill:none;stroke:#ffa500;stroke-linecap:square;"/>
   </g>
   <g id="line2d_9">
    <path clip-path="url(#p291dd02cf4)" d="
M477.73 368.776
L476.688 368.827
L475.646 368.638
L474.605 368.957
L473.563 368.653
L472.521 368.758
L471.479 368.668
L470.438 368.796
L469.396 368.724
L468.355 368.539
L466.271 368.858
L465.23 368.597
L464.188 368.54
L463.147 368.684
L461.064 368.293
L460.023 368.334
L458.982 368.263
L457.94 368.336
L456.899 368.161
L455.858 368.139
L454.817 367.918
L453.776 367.987
L452.735 367.714
L450.653 367.71
L449.612 367.328
L448.571 367.447
L444.407 366.905
L443.366 366.914
L441.285 366.1
L439.204 365.444
L438.163 365.68
L437.122 366.207
L436.082 366.248
L435.041 366.527
L434.001 366.936
L432.96 366.469
L431.92 366.367
L430.88 365.977
L429.839 365.71
L427.759 363.465
L426.719 360.782
L425.678 357.275
L424.638 351.547
L422.558 334.512
L420.478 312.232
L419.438 297.235
L418.398 277.951
L417.358 265.961
L416.318 250.066
L415.278 266.958
L413.199 318.448
L412.159 332.542
L411.119 341.916
L410.08 344.501
L409.04 350.047
L406.961 357.104
L403.842 362.431
L402.803 363.814
L401.763 364.511
L400.724 365.47
L399.685 365.522
L397.606 366.714
L396.567 366.929
L395.528 367.275
L394.489 367.233
L392.41 367.534
L386.177 367.825
L385.138 367.705
L384.099 367.961
L382.022 367.759
L379.944 367.928
L378.906 367.814
L376.828 367.894
L375.79 367.837
L374.752 367.941
L368.521 367.78
L367.483 368.061
L365.407 367.877
L364.369 368.098
L363.331 367.927
L359.179 367.87
L358.141 368.052
L356.065 367.947
L352.952 368.226
L349.839 368.028
L348.802 368.384
L347.764 368.29
L346.727 368.37
L345.689 368.127
L344.652 368.053
L342.577 368.231
L340.503 368.284
L339.465 368.492
L338.428 368.117
L337.391 368.049
L336.354 368.353
L335.317 368.392
L334.28 368.189
L333.243 368.537
L332.206 368.189
L331.169 368.367
L330.132 368.275
L329.095 368.511
L328.058 368.386
L327.022 368.609
L325.985 368.439
L322.875 368.414
L321.838 368.686
L319.765 368.462
L318.729 368.698
L317.692 368.539
L315.62 368.685
L314.583 368.55
L312.511 368.683
L311.475 368.445
L310.439 368.352
L309.402 368.757
L307.33 368.439
L306.294 368.678
L305.258 368.45
L304.222 368.732
L303.187 368.659
L302.151 368.744
L300.079 368.591
L299.043 368.802
L296.972 368.63
L295.936 368.358
L294.901 368.515
L293.865 368.806
L292.83 368.623
L289.724 368.832
L288.688 368.861
L287.653 368.369
L286.618 368.853
L284.547 368.671
L282.477 368.632
L281.442 368.928
L280.407 368.698
L279.372 368.758
L277.302 368.302
L276.267 369.129
L274.198 369.129
L273.163 368.389
L270.059 368.92
L269.024 368.678
L266.955 368.629
L265.921 368.855
L264.886 368.542
L263.852 368.714
L262.817 368.405
L261.783 368.833
L260.749 368.952
L259.715 368.677
L258.68 368.695
L257.646 368.513
L256.612 368.872
L255.578 368.686
L254.544 368.87
L252.476 368.696
L251.442 368.416
L247.307 368.7
L245.24 368.391
L244.206 368.793
L243.172 368.815
L241.105 368.586
L240.072 368.765
L239.039 368.695
L238.005 368.854
L236.972 368.553
L234.905 368.722
L233.872 368.368
L232.839 368.835
L231.806 368.635
L229.74 368.617
L227.674 368.596
L226.641 368.426
L224.575 368.588
L223.542 368.627
L222.509 368.388
L220.444 368.612
L219.411 368.656
L218.379 368.299
L217.346 368.549
L213.217 368.448
L211.152 368.648
L210.12 368.354
L209.087 368.556
L207.023 368.373
L205.991 368.615
L204.959 368.425
L203.927 368.523
L201.863 368.388
L197.736 368.397
L196.704 368.483
L195.673 368.241
L194.641 368.206
L193.609 368.607
L192.578 368.485
L191.546 368.232
L188.452 368.319
L186.39 368.359
L185.358 368.142
L184.327 368.236
L183.296 368.125
L182.265 368.244
L175.048 368.088
L174.018 367.893
L172.987 367.88
L171.956 367.632
L170.926 367.577
L169.895 367.334
L168.865 366.912
L167.834 366.883
L166.804 366.378
L165.773 366.017
L163.713 365.742
L162.682 365.686
L160.622 365.084
L159.592 365.041
L157.532 365.144
L154.442 364.369
L150.323 363.533
L149.293 363.648
L148.263 363.3
L147.234 363.501
L146.204 362.578
L145.175 362.816
L144.145 362.117
L143.116 361.909
L142.086 362.169
L141.057 361.812
L140.028 361.329
L138.999 360.577
L137.969 359.472
L136.94 358.158
L135.911 357.341
L134.882 355.598
L133.853 354.557
L132.824 353.946
L131.795 351.754
L130.766 350.232
L129.738 347.874
L128.709 344.864
L127.68 339.197
L126.651 334.37
L125.623 322.393
L124.594 303.209
L123.566 275.658
L122.537 232.605
L120.48 128.649
L119.452 86.3882
L118.423 68.22
L117.395 94.4414
L116.367 153.525
L115.339 193.374
L114.311 211.383
L113.283 231.825
L112.255 269.474
L111.227 313.27
L110.199 342.138
L109.171 353.22
L108.143 358.985
L107.115 361.907
L106.087 364.101
L105.06 365.172
L103.004 366.699
L99.9216 367.509
L98.8942 367.577
L97.8668 367.802
L95.8122 367.865
L94.7849 368.178
L91.7035 368.177
L88.6224 368.537
L87.5955 368.492
L86.5686 368.305
L85.5418 368.412
L84.5151 368.399
L83.4883 368.628
L82.4617 368.43
L81.435 368.387
L80.4084 368.586
L78.3554 368.458
L77.329 368.763
L76.3026 368.879
L75.2763 368.866
L74.25 368.686
L73.2237 369.129
L65.0155 369.129
L65.0155 369.129" style="fill:none;stroke:#008000;stroke-linecap:square;"/>
   </g>
   <g id="patch_3">
    <path d="
M55.3909 23.1417
L501.791 23.1417" style="fill:none;stroke:#000000;stroke-linecap:square;stroke-linejoin:miter;"/>
   </g>
   <g id="patch_4">
    <path d="
M501.791 368.742
L501.791 23.1417" style="fill:none;stroke:#000000;stroke-linecap:square;stroke-linejoin:miter;"/>
   </g>
   <g id="patch_5">
    <path d="
M55.3909 368.742
L501.791 368.742" style="fill:none;stroke:#000000;stroke-linecap:square;stroke-linejoin:miter;"/>
   </g>
   <g id="patch_6">
    <path d="
M55.3909 368.742
L55.3909 23.1417" style="fill:none;stroke:#000000;stroke-linecap:square;stroke-linejoin:miter;"/>
   </g>
   <g id="matplotlib.axis_1">
    <g id="xtick_1">
     <g id="line2d_10">
      <defs>
       <path d="
M0 0
L0 -4" id="m93b0483c22" style="stroke:#000000;stroke-width:0.5;"/>
      </defs>
      <g>
       <use style="stroke:#000000;stroke-width:0.5;" x="55.390875" xlink:href="#m93b0483c22" y="368.74175"/>
      </g>
     </g>
     <g id="line2d_11">
      <defs>
       <path d="
M0 0
L0 4" id="m741efc42ff" style="stroke:#000000;stroke-width:0.5;"/>
      </defs>
      <g>
       <use style="stroke:#000000;stroke-width:0.5;" x="55.390875" xlink:href="#m741efc42ff" y="23.14175"/>
      </g>
     </g>
     <g id="text_1">
      <!-- 5300 -->
      <defs>
       <path d="
M40.5781 39.3125
Q47.6562 37.7969 51.625 33
Q55.6094 28.2188 55.6094 21.1875
Q55.6094 10.4062 48.1875 4.48438
Q40.7656 -1.42188 27.0938 -1.42188
Q22.5156 -1.42188 17.6562 -0.515625
Q12.7969 0.390625 7.625 2.20312
L7.625 11.7188
Q11.7188 9.32812 16.5938 8.10938
Q21.4844 6.89062 26.8125 6.89062
Q36.0781 6.89062 40.9375 10.5469
Q45.7969 14.2031 45.7969 21.1875
Q45.7969 27.6406 41.2812 31.2656
Q36.7656 34.9062 28.7188 34.9062
L20.2188 34.9062
L20.2188 43.0156
L29.1094 43.0156
Q36.375 43.0156 40.2344 45.9219
Q44.0938 48.8281 44.0938 54.2969
Q44.0938 59.9062 40.1094 62.9062
Q36.1406 65.9219 28.7188 65.9219
Q24.6562 65.9219 20.0156 65.0312
Q15.375 64.1562 9.8125 62.3125
L9.8125 71.0938
Q15.4375 72.6562 20.3438 73.4375
Q25.25 74.2188 29.5938 74.2188
Q40.8281 74.2188 47.3594 69.1094
Q53.9062 64.0156 53.9062 55.3281
Q53.9062 49.2656 50.4375 45.0938
Q46.9688 40.9219 40.5781 39.3125" id="BitstreamVeraSans-Roman-33"/>
       <path d="
M31.7812 66.4062
Q24.1719 66.4062 20.3281 58.9062
Q16.5 51.4219 16.5 36.375
Q16.5 21.3906 20.3281 13.8906
Q24.1719 6.39062 31.7812 6.39062
Q39.4531 6.39062 43.2812 13.8906
Q47.125 21.3906 47.125 36.375
Q47.125 51.4219 43.2812 58.9062
Q39.4531 66.4062 31.7812 66.4062
M31.7812 74.2188
Q44.0469 74.2188 50.5156 64.5156
Q56.9844 54.8281 56.9844 36.375
Q56.9844 17.9688 50.5156 8.26562
Q44.0469 -1.42188 31.7812 -1.42188
Q19.5312 -1.42188 13.0625 8.26562
Q6.59375 17.9688 6.59375 36.375
Q6.59375 54.8281 13.0625 64.5156
Q19.5312 74.2188 31.7812 74.2188" id="BitstreamVeraSans-Roman-30"/>
       <path d="
M10.7969 72.9062
L49.5156 72.9062
L49.5156 64.5938
L19.8281 64.5938
L19.8281 46.7344
Q21.9688 47.4688 24.1094 47.8281
Q26.2656 48.1875 28.4219 48.1875
Q40.625 48.1875 47.75 41.5
Q54.8906 34.8125 54.8906 23.3906
Q54.8906 11.625 47.5625 5.09375
Q40.2344 -1.42188 26.9062 -1.42188
Q22.3125 -1.42188 17.5469 -0.640625
Q12.7969 0.140625 7.71875 1.70312
L7.71875 11.625
Q12.1094 9.23438 16.7969 8.0625
Q21.4844 6.89062 26.7031 6.89062
Q35.1562 6.89062 40.0781 11.3281
Q45.0156 15.7656 45.0156 23.3906
Q45.0156 31 40.0781 35.4375
Q35.1562 39.8906 26.7031 39.8906
Q22.75 39.8906 18.8125 39.0156
Q14.8906 38.1406 10.7969 36.2812
z
" id="BitstreamVeraSans-Roman-35"/>
      </defs>
      <g transform="translate(40.9824375 381.859875)scale(0.12 -0.12)">
       <use xlink:href="#BitstreamVeraSans-Roman-35"/>
       <use x="63.623046875" xlink:href="#BitstreamVeraSans-Roman-33"/>
       <use x="127.24609375" xlink:href="#BitstreamVeraSans-Roman-30"/>
       <use x="190.869140625" xlink:href="#BitstreamVeraSans-Roman-30"/>
      </g>
     </g>
    </g>
    <g id="xtick_2">
     <g id="line2d_12">
      <g>
       <use style="stroke:#000000;stroke-width:0.5;" x="111.190875" xlink:href="#m93b0483c22" y="368.74175"/>
      </g>
     </g>
     <g id="line2d_13">
      <g>
       <use style="stroke:#000000;stroke-width:0.5;" x="111.190875" xlink:href="#m741efc42ff" y="23.14175"/>
      </g>
     </g>
     <g id="text_2">
      <!-- 5400 -->
      <defs>
       <path d="
M37.7969 64.3125
L12.8906 25.3906
L37.7969 25.3906
z

M35.2031 72.9062
L47.6094 72.9062
L47.6094 25.3906
L58.0156 25.3906
L58.0156 17.1875
L47.6094 17.1875
L47.6094 0
L37.7969 0
L37.7969 17.1875
L4.89062 17.1875
L4.89062 26.7031
z
" id="BitstreamVeraSans-Roman-34"/>
      </defs>
      <g transform="translate(96.7824375 381.859875)scale(0.12 -0.12)">
       <use xlink:href="#BitstreamVeraSans-Roman-35"/>
       <use x="63.623046875" xlink:href="#BitstreamVeraSans-Roman-34"/>
       <use x="127.24609375" xlink:href="#BitstreamVeraSans-Roman-30"/>
       <use x="190.869140625" xlink:href="#BitstreamVeraSans-Roman-30"/>
      </g>
     </g>
    </g>
    <g id="xtick_3">
     <g id="line2d_14">
      <g>
       <use style="stroke:#000000;stroke-width:0.5;" x="166.990875" xlink:href="#m93b0483c22" y="368.74175"/>
      </g>
     </g>
     <g id="line2d_15">
      <g>
       <use style="stroke:#000000;stroke-width:0.5;" x="166.990875" xlink:href="#m741efc42ff" y="23.14175"/>
      </g>
     </g>
     <g id="text_3">
      <!-- 5500 -->
      <g transform="translate(152.5824375 381.859875)scale(0.12 -0.12)">
       <use xlink:href="#BitstreamVeraSans-Roman-35"/>
       <use x="63.623046875" xlink:href="#BitstreamVeraSans-Roman-35"/>
       <use x="127.24609375" xlink:href="#BitstreamVeraSans-Roman-30"/>
       <use x="190.869140625" xlink:href="#BitstreamVeraSans-Roman-30"/>
      </g>
     </g>
    </g>
    <g id="xtick_4">
     <g id="line2d_16">
      <g>
       <use style="stroke:#000000;stroke-width:0.5;" x="222.790875" xlink:href="#m93b0483c22" y="368.74175"/>
      </g>
     </g>
     <g id="line2d_17">
      <g>
       <use style="stroke:#000000;stroke-width:0.5;" x="222.790875" xlink:href="#m741efc42ff" y="23.14175"/>
      </g>
     </g>
     <g id="text_4">
      <!-- 5600 -->
      <defs>
       <path d="
M33.0156 40.375
Q26.375 40.375 22.4844 35.8281
Q18.6094 31.2969 18.6094 23.3906
Q18.6094 15.5312 22.4844 10.9531
Q26.375 6.39062 33.0156 6.39062
Q39.6562 6.39062 43.5312 10.9531
Q47.4062 15.5312 47.4062 23.3906
Q47.4062 31.2969 43.5312 35.8281
Q39.6562 40.375 33.0156 40.375
M52.5938 71.2969
L52.5938 62.3125
Q48.875 64.0625 45.0938 64.9844
Q41.3125 65.9219 37.5938 65.9219
Q27.8281 65.9219 22.6719 59.3281
Q17.5312 52.7344 16.7969 39.4062
Q19.6719 43.6562 24.0156 45.9219
Q28.375 48.1875 33.5938 48.1875
Q44.5781 48.1875 50.9531 41.5156
Q57.3281 34.8594 57.3281 23.3906
Q57.3281 12.1562 50.6875 5.35938
Q44.0469 -1.42188 33.0156 -1.42188
Q20.3594 -1.42188 13.6719 8.26562
Q6.98438 17.9688 6.98438 36.375
Q6.98438 53.6562 15.1875 63.9375
Q23.3906 74.2188 37.2031 74.2188
Q40.9219 74.2188 44.7031 73.4844
Q48.4844 72.75 52.5938 71.2969" id="BitstreamVeraSans-Roman-36"/>
      </defs>
      <g transform="translate(208.3824375 381.859875)scale(0.12 -0.12)">
       <use xlink:href="#BitstreamVeraSans-Roman-35"/>
       <use x="63.623046875" xlink:href="#BitstreamVeraSans-Roman-36"/>
       <use x="127.24609375" xlink:href="#BitstreamVeraSans-Roman-30"/>
       <use x="190.869140625" xlink:href="#BitstreamVeraSans-Roman-30"/>
      </g>
     </g>
    </g>
    <g id="xtick_5">
     <g id="line2d_18">
      <g>
       <use style="stroke:#000000;stroke-width:0.5;" x="278.590875" xlink:href="#m93b0483c22" y="368.74175"/>
      </g>
     </g>
     <g id="line2d_19">
      <g>
       <use style="stroke:#000000;stroke-width:0.5;" x="278.590875" xlink:href="#m741efc42ff" y="23.14175"/>
      </g>
     </g>
     <g id="text_5">
      <!-- 5700 -->
      <defs>
       <path d="
M8.20312 72.9062
L55.0781 72.9062
L55.0781 68.7031
L28.6094 0
L18.3125 0
L43.2188 64.5938
L8.20312 64.5938
z
" id="BitstreamVeraSans-Roman-37"/>
      </defs>
      <g transform="translate(264.1824375 381.859875)scale(0.12 -0.12)">
       <use xlink:href="#BitstreamVeraSans-Roman-35"/>
       <use x="63.623046875" xlink:href="#BitstreamVeraSans-Roman-37"/>
       <use x="127.24609375" xlink:href="#BitstreamVeraSans-Roman-30"/>
       <use x="190.869140625" xlink:href="#BitstreamVeraSans-Roman-30"/>
      </g>
     </g>
    </g>
    <g id="xtick_6">
     <g id="line2d_20">
      <g>
       <use style="stroke:#000000;stroke-width:0.5;" x="334.390875" xlink:href="#m93b0483c22" y="368.74175"/>
      </g>
     </g>
     <g id="line2d_21">
      <g>
       <use style="stroke:#000000;stroke-width:0.5;" x="334.390875" xlink:href="#m741efc42ff" y="23.14175"/>
      </g>
     </g>
     <g id="text_6">
      <!-- 5800 -->
      <defs>
       <path d="
M31.7812 34.625
Q24.75 34.625 20.7188 30.8594
Q16.7031 27.0938 16.7031 20.5156
Q16.7031 13.9219 20.7188 10.1562
Q24.75 6.39062 31.7812 6.39062
Q38.8125 6.39062 42.8594 10.1719
Q46.9219 13.9688 46.9219 20.5156
Q46.9219 27.0938 42.8906 30.8594
Q38.875 34.625 31.7812 34.625
M21.9219 38.8125
Q15.5781 40.375 12.0312 44.7188
Q8.5 49.0781 8.5 55.3281
Q8.5 64.0625 14.7188 69.1406
Q20.9531 74.2188 31.7812 74.2188
Q42.6719 74.2188 48.875 69.1406
Q55.0781 64.0625 55.0781 55.3281
Q55.0781 49.0781 51.5312 44.7188
Q48 40.375 41.7031 38.8125
Q48.8281 37.1562 52.7969 32.3125
Q56.7812 27.4844 56.7812 20.5156
Q56.7812 9.90625 50.3125 4.23438
Q43.8438 -1.42188 31.7812 -1.42188
Q19.7344 -1.42188 13.25 4.23438
Q6.78125 9.90625 6.78125 20.5156
Q6.78125 27.4844 10.7812 32.3125
Q14.7969 37.1562 21.9219 38.8125
M18.3125 54.3906
Q18.3125 48.7344 21.8438 45.5625
Q25.3906 42.3906 31.7812 42.3906
Q38.1406 42.3906 41.7188 45.5625
Q45.3125 48.7344 45.3125 54.3906
Q45.3125 60.0625 41.7188 63.2344
Q38.1406 66.4062 31.7812 66.4062
Q25.3906 66.4062 21.8438 63.2344
Q18.3125 60.0625 18.3125 54.3906" id="BitstreamVeraSans-Roman-38"/>
      </defs>
      <g transform="translate(319.9824375 381.859875)scale(0.12 -0.12)">
       <use xlink:href="#BitstreamVeraSans-Roman-35"/>
       <use x="63.623046875" xlink:href="#BitstreamVeraSans-Roman-38"/>
       <use x="127.24609375" xlink:href="#BitstreamVeraSans-Roman-30"/>
       <use x="190.869140625" xlink:href="#BitstreamVeraSans-Roman-30"/>
      </g>
     </g>
    </g>
    <g id="xtick_7">
     <g id="line2d_22">
      <g>
       <use style="stroke:#000000;stroke-width:0.5;" x="390.190875" xlink:href="#m93b0483c22" y="368.74175"/>
      </g>
     </g>
     <g id="line2d_23">
      <g>
       <use style="stroke:#000000;stroke-width:0.5;" x="390.190875" xlink:href="#m741efc42ff" y="23.14175"/>
      </g>
     </g>
     <g id="text_7">
      <!-- 5900 -->
      <defs>
       <path d="
M10.9844 1.51562
L10.9844 10.5
Q14.7031 8.73438 18.5 7.8125
Q22.3125 6.89062 25.9844 6.89062
Q35.75 6.89062 40.8906 13.4531
Q46.0469 20.0156 46.7812 33.4062
Q43.9531 29.2031 39.5938 26.9531
Q35.25 24.7031 29.9844 24.7031
Q19.0469 24.7031 12.6719 31.3125
Q6.29688 37.9375 6.29688 49.4219
Q6.29688 60.6406 12.9375 67.4219
Q19.5781 74.2188 30.6094 74.2188
Q43.2656 74.2188 49.9219 64.5156
Q56.5938 54.8281 56.5938 36.375
Q56.5938 19.1406 48.4062 8.85938
Q40.2344 -1.42188 26.4219 -1.42188
Q22.7031 -1.42188 18.8906 -0.6875
Q15.0938 0.046875 10.9844 1.51562
M30.6094 32.4219
Q37.25 32.4219 41.125 36.9531
Q45.0156 41.5 45.0156 49.4219
Q45.0156 57.2812 41.125 61.8438
Q37.25 66.4062 30.6094 66.4062
Q23.9688 66.4062 20.0938 61.8438
Q16.2188 57.2812 16.2188 49.4219
Q16.2188 41.5 20.0938 36.9531
Q23.9688 32.4219 30.6094 32.4219" id="BitstreamVeraSans-Roman-39"/>
      </defs>
      <g transform="translate(375.7824375 381.859875)scale(0.12 -0.12)">
       <use xlink:href="#BitstreamVeraSans-Roman-35"/>
       <use x="63.623046875" xlink:href="#BitstreamVeraSans-Roman-39"/>
       <use x="127.24609375" xlink:href="#BitstreamVeraSans-Roman-30"/>
       <use x="190.869140625" xlink:href="#BitstreamVeraSans-Roman-30"/>
      </g>
     </g>
    </g>
    <g id="xtick_8">
     <g id="line2d_24">
      <g>
       <use style="stroke:#000000;stroke-width:0.5;" x="445.990875" xlink:href="#m93b0483c22" y="368.74175"/>
      </g>
     </g>
     <g id="line2d_25">
      <g>
       <use style="stroke:#000000;stroke-width:0.5;" x="445.990875" xlink:href="#m741efc42ff" y="23.14175"/>
      </g>
     </g>
     <g id="text_8">
      <!-- 6000 -->
      <g transform="translate(431.538375 381.859875)scale(0.12 -0.12)">
       <use xlink:href="#BitstreamVeraSans-Roman-36"/>
       <use x="63.623046875" xlink:href="#BitstreamVeraSans-Roman-30"/>
       <use x="127.24609375" xlink:href="#BitstreamVeraSans-Roman-30"/>
       <use x="190.869140625" xlink:href="#BitstreamVeraSans-Roman-30"/>
      </g>
     </g>
    </g>
    <g id="xtick_9">
     <g id="line2d_26">
      <g>
       <use style="stroke:#000000;stroke-width:0.5;" x="501.790875" xlink:href="#m93b0483c22" y="368.74175"/>
      </g>
     </g>
     <g id="line2d_27">
      <g>
       <use style="stroke:#000000;stroke-width:0.5;" x="501.790875" xlink:href="#m741efc42ff" y="23.14175"/>
      </g>
     </g>
     <g id="text_9">
      <!-- 6100 -->
      <defs>
       <path d="
M12.4062 8.29688
L28.5156 8.29688
L28.5156 63.9219
L10.9844 60.4062
L10.9844 69.3906
L28.4219 72.9062
L38.2812 72.9062
L38.2812 8.29688
L54.3906 8.29688
L54.3906 0
L12.4062 0
z
" id="BitstreamVeraSans-Roman-31"/>
      </defs>
      <g transform="translate(487.338375 381.859875)scale(0.12 -0.12)">
       <use xlink:href="#BitstreamVeraSans-Roman-36"/>
       <use x="63.623046875" xlink:href="#BitstreamVeraSans-Roman-31"/>
       <use x="127.24609375" xlink:href="#BitstreamVeraSans-Roman-30"/>
       <use x="190.869140625" xlink:href="#BitstreamVeraSans-Roman-30"/>
      </g>
     </g>
    </g>
    <g id="text_10">
     <!-- Energy (eV) -->
     <defs>
      <path id="BitstreamVeraSans-Roman-20"/>
      <path d="
M54.8906 33.0156
L54.8906 0
L45.9062 0
L45.9062 32.7188
Q45.9062 40.4844 42.875 44.3281
Q39.8438 48.1875 33.7969 48.1875
Q26.5156 48.1875 22.3125 43.5469
Q18.1094 38.9219 18.1094 30.9062
L18.1094 0
L9.07812 0
L9.07812 54.6875
L18.1094 54.6875
L18.1094 46.1875
Q21.3438 51.125 25.7031 53.5625
Q30.0781 56 35.7969 56
Q45.2188 56 50.0469 50.1719
Q54.8906 44.3438 54.8906 33.0156" id="BitstreamVeraSans-Roman-6e"/>
      <path d="
M31 75.875
Q24.4688 64.6562 21.2812 53.6562
Q18.1094 42.6719 18.1094 31.3906
Q18.1094 20.125 21.3125 9.0625
Q24.5156 -2 31 -13.1875
L23.1875 -13.1875
Q15.875 -1.70312 12.2344 9.375
Q8.59375 20.4531 8.59375 31.3906
Q8.59375 42.2812 12.2031 53.3125
Q15.8281 64.3594 23.1875 75.875
z
" id="BitstreamVeraSans-Roman-28"/>
      <path d="
M8.01562 75.875
L15.8281 75.875
Q23.1406 64.3594 26.7812 53.3125
Q30.4219 42.2812 30.4219 31.3906
Q30.4219 20.4531 26.7812 9.375
Q23.1406 -1.70312 15.8281 -13.1875
L8.01562 -13.1875
Q14.5 -2 17.7031 9.0625
Q20.9062 20.125 20.9062 31.3906
Q20.9062 42.6719 17.7031 53.6562
Q14.5 64.6562 8.01562 75.875" id="BitstreamVeraSans-Roman-29"/>
      <path d="
M9.8125 72.9062
L55.9062 72.9062
L55.9062 64.5938
L19.6719 64.5938
L19.6719 43.0156
L54.3906 43.0156
L54.3906 34.7188
L19.6719 34.7188
L19.6719 8.29688
L56.7812 8.29688
L56.7812 0
L9.8125 0
z
" id="BitstreamVeraSans-Roman-45"/>
      <path d="
M28.6094 0
L0.78125 72.9062
L11.0781 72.9062
L34.1875 11.5312
L57.3281 72.9062
L67.5781 72.9062
L39.7969 0
z
" id="BitstreamVeraSans-Roman-56"/>
      <path d="
M32.1719 -5.07812
Q28.375 -14.8438 24.75 -17.8125
Q21.1406 -20.7969 15.0938 -20.7969
L7.90625 -20.7969
L7.90625 -13.2812
L13.1875 -13.2812
Q16.8906 -13.2812 18.9375 -11.5156
Q21 -9.76562 23.4844 -3.21875
L25.0938 0.875
L2.98438 54.6875
L12.5 54.6875
L29.5938 11.9219
L46.6875 54.6875
L56.2031 54.6875
z
" id="BitstreamVeraSans-Roman-79"/>
      <path d="
M56.2031 29.5938
L56.2031 25.2031
L14.8906 25.2031
Q15.4844 15.9219 20.4844 11.0625
Q25.4844 6.20312 34.4219 6.20312
Q39.5938 6.20312 44.4531 7.46875
Q49.3125 8.73438 54.1094 11.2812
L54.1094 2.78125
Q49.2656 0.734375 44.1875 -0.34375
Q39.1094 -1.42188 33.8906 -1.42188
Q20.7969 -1.42188 13.1562 6.1875
Q5.51562 13.8125 5.51562 26.8125
Q5.51562 40.2344 12.7656 48.1094
Q20.0156 56 32.3281 56
Q43.3594 56 49.7812 48.8906
Q56.2031 41.7969 56.2031 29.5938
M47.2188 32.2344
Q47.125 39.5938 43.0938 43.9844
Q39.0625 48.3906 32.4219 48.3906
Q24.9062 48.3906 20.3906 44.1406
Q15.875 39.8906 15.1875 32.1719
z
" id="BitstreamVeraSans-Roman-65"/>
      <path d="
M45.4062 27.9844
Q45.4062 37.75 41.375 43.1094
Q37.3594 48.4844 30.0781 48.4844
Q22.8594 48.4844 18.8281 43.1094
Q14.7969 37.75 14.7969 27.9844
Q14.7969 18.2656 18.8281 12.8906
Q22.8594 7.51562 30.0781 7.51562
Q37.3594 7.51562 41.375 12.8906
Q45.4062 18.2656 45.4062 27.9844
M54.3906 6.78125
Q54.3906 -7.17188 48.1875 -13.9844
Q42 -20.7969 29.2031 -20.7969
Q24.4688 -20.7969 20.2656 -20.0938
Q16.0625 -19.3906 12.1094 -17.9219
L12.1094 -9.1875
Q16.0625 -11.3281 19.9219 -12.3438
Q23.7812 -13.375 27.7812 -13.375
Q36.625 -13.375 41.0156 -8.76562
Q45.4062 -4.15625 45.4062 5.17188
L45.4062 9.625
Q42.625 4.78125 38.2812 2.39062
Q33.9375 0 27.875 0
Q17.8281 0 11.6719 7.65625
Q5.51562 15.3281 5.51562 27.9844
Q5.51562 40.6719 11.6719 48.3281
Q17.8281 56 27.875 56
Q33.9375 56 38.2812 53.6094
Q42.625 51.2188 45.4062 46.3906
L45.4062 54.6875
L54.3906 54.6875
z
" id="BitstreamVeraSans-Roman-67"/>
      <path d="
M41.1094 46.2969
Q39.5938 47.1719 37.8125 47.5781
Q36.0312 48 33.8906 48
Q26.2656 48 22.1875 43.0469
Q18.1094 38.0938 18.1094 28.8125
L18.1094 0
L9.07812 0
L9.07812 54.6875
L18.1094 54.6875
L18.1094 46.1875
Q20.9531 51.1719 25.4844 53.5781
Q30.0312 56 36.5312 56
Q37.4531 56 38.5781 55.875
Q39.7031 55.7656 41.0625 55.5156
z
" id="BitstreamVeraSans-Roman-72"/>
     </defs>
     <g transform="translate(236.738625 400.29725)scale(0.144 -0.144)">
      <use xlink:href="#BitstreamVeraSans-Roman-45"/>
      <use x="63.18359375" xlink:href="#BitstreamVeraSans-Roman-6e"/>
      <use x="126.5625" xlink:href="#BitstreamVeraSans-Roman-65"/>
      <use x="188.0859375" xlink:href="#BitstreamVeraSans-Roman-72"/>
      <use x="227.44921875" xlink:href="#BitstreamVeraSans-Roman-67"/>
      <use x="290.92578125" xlink:href="#BitstreamVeraSans-Roman-79"/>
      <use x="350.10546875" xlink:href="#BitstreamVeraSans-Roman-20"/>
      <use x="381.892578125" xlink:href="#BitstreamVeraSans-Roman-28"/>
      <use x="420.90625" xlink:href="#BitstreamVeraSans-Roman-65"/>
      <use x="482.4296875" xlink:href="#BitstreamVeraSans-Roman-56"/>
      <use x="550.837890625" xlink:href="#BitstreamVeraSans-Roman-29"/>
     </g>
    </g>
   </g>
   <g id="matplotlib.axis_2">
    <g id="ytick_1">
     <g id="line2d_28">
      <defs>
       <path d="
M0 0
L4 0" id="m728421d6d4" style="stroke:#000000;stroke-width:0.5;"/>
      </defs>
      <g>
       <use style="stroke:#000000;stroke-width:0.5;" x="55.390875" xlink:href="#m728421d6d4" y="368.74175"/>
      </g>
     </g>
     <g id="line2d_29">
      <defs>
       <path d="
M0 0
L-4 0" id="mcb0005524f" style="stroke:#000000;stroke-width:0.5;"/>
      </defs>
      <g>
       <use style="stroke:#000000;stroke-width:0.5;" x="501.790875" xlink:href="#mcb0005524f" y="368.74175"/>
      </g>
     </g>
     <g id="text_11">
      <!-- 0.00 -->
      <defs>
       <path d="
M10.6875 12.4062
L21 12.4062
L21 0
L10.6875 0
z
" id="BitstreamVeraSans-Roman-2e"/>
      </defs>
      <g transform="translate(26.26025 372.053)scale(0.12 -0.12)">
       <use xlink:href="#BitstreamVeraSans-Roman-30"/>
       <use x="63.623046875" xlink:href="#BitstreamVeraSans-Roman-2e"/>
       <use x="95.41015625" xlink:href="#BitstreamVeraSans-Roman-30"/>
       <use x="159.033203125" xlink:href="#BitstreamVeraSans-Roman-30"/>
      </g>
     </g>
    </g>
    <g id="ytick_2">
     <g id="line2d_30">
      <g>
       <use style="stroke:#000000;stroke-width:0.5;" x="55.390875" xlink:href="#m728421d6d4" y="310.316936014"/>
      </g>
     </g>
     <g id="line2d_31">
      <g>
       <use style="stroke:#000000;stroke-width:0.5;" x="501.790875" xlink:href="#mcb0005524f" y="310.316936014"/>
      </g>
     </g>
     <g id="text_12">
      <!-- 0.02 -->
      <defs>
       <path d="
M19.1875 8.29688
L53.6094 8.29688
L53.6094 0
L7.32812 0
L7.32812 8.29688
Q12.9375 14.1094 22.625 23.8906
Q32.3281 33.6875 34.8125 36.5312
Q39.5469 41.8438 41.4219 45.5312
Q43.3125 49.2188 43.3125 52.7812
Q43.3125 58.5938 39.2344 62.25
Q35.1562 65.9219 28.6094 65.9219
Q23.9688 65.9219 18.8125 64.3125
Q13.6719 62.7031 7.8125 59.4219
L7.8125 69.3906
Q13.7656 71.7812 18.9375 73
Q24.125 74.2188 28.4219 74.2188
Q39.75 74.2188 46.4844 68.5469
Q53.2188 62.8906 53.2188 53.4219
Q53.2188 48.9219 51.5312 44.8906
Q49.8594 40.875 45.4062 35.4062
Q44.1875 33.9844 37.6406 27.2188
Q31.1094 20.4531 19.1875 8.29688" id="BitstreamVeraSans-Roman-32"/>
      </defs>
      <g transform="translate(26.66525 313.628186014)scale(0.12 -0.12)">
       <use xlink:href="#BitstreamVeraSans-Roman-30"/>
       <use x="63.623046875" xlink:href="#BitstreamVeraSans-Roman-2e"/>
       <use x="95.41015625" xlink:href="#BitstreamVeraSans-Roman-30"/>
       <use x="159.033203125" xlink:href="#BitstreamVeraSans-Roman-32"/>
      </g>
     </g>
    </g>
    <g id="ytick_3">
     <g id="line2d_32">
      <g>
       <use style="stroke:#000000;stroke-width:0.5;" x="55.390875" xlink:href="#m728421d6d4" y="251.892122028"/>
      </g>
     </g>
     <g id="line2d_33">
      <g>
       <use style="stroke:#000000;stroke-width:0.5;" x="501.790875" xlink:href="#mcb0005524f" y="251.892122028"/>
      </g>
     </g>
     <g id="text_13">
      <!-- 0.04 -->
      <g transform="translate(26.1365 255.203372028)scale(0.12 -0.12)">
       <use xlink:href="#BitstreamVeraSans-Roman-30"/>
       <use x="63.623046875" xlink:href="#BitstreamVeraSans-Roman-2e"/>
       <use x="95.41015625" xlink:href="#BitstreamVeraSans-Roman-30"/>
       <use x="159.033203125" xlink:href="#BitstreamVeraSans-Roman-34"/>
      </g>
     </g>
    </g>
    <g id="ytick_4">
     <g id="line2d_34">
      <g>
       <use style="stroke:#000000;stroke-width:0.5;" x="55.390875" xlink:href="#m728421d6d4" y="193.467308041"/>
      </g>
     </g>
     <g id="line2d_35">
      <g>
       <use style="stroke:#000000;stroke-width:0.5;" x="501.790875" xlink:href="#mcb0005524f" y="193.467308041"/>
      </g>
     </g>
     <g id="text_14">
      <!-- 0.06 -->
      <g transform="translate(26.219 196.778558041)scale(0.12 -0.12)">
       <use xlink:href="#BitstreamVeraSans-Roman-30"/>
       <use x="63.623046875" xlink:href="#BitstreamVeraSans-Roman-2e"/>
       <use x="95.41015625" xlink:href="#BitstreamVeraSans-Roman-30"/>
       <use x="159.033203125" xlink:href="#BitstreamVeraSans-Roman-36"/>
      </g>
     </g>
    </g>
    <g id="ytick_5">
     <g id="line2d_36">
      <g>
       <use style="stroke:#000000;stroke-width:0.5;" x="55.390875" xlink:href="#m728421d6d4" y="135.042494055"/>
      </g>
     </g>
     <g id="line2d_37">
      <g>
       <use style="stroke:#000000;stroke-width:0.5;" x="501.790875" xlink:href="#mcb0005524f" y="135.042494055"/>
      </g>
     </g>
     <g id="text_15">
      <!-- 0.08 -->
      <g transform="translate(26.284625 138.353744055)scale(0.12 -0.12)">
       <use xlink:href="#BitstreamVeraSans-Roman-30"/>
       <use x="63.623046875" xlink:href="#BitstreamVeraSans-Roman-2e"/>
       <use x="95.41015625" xlink:href="#BitstreamVeraSans-Roman-30"/>
       <use x="159.033203125" xlink:href="#BitstreamVeraSans-Roman-38"/>
      </g>
     </g>
    </g>
    <g id="ytick_6">
     <g id="line2d_38">
      <g>
       <use style="stroke:#000000;stroke-width:0.5;" x="55.390875" xlink:href="#m728421d6d4" y="76.617680069"/>
      </g>
     </g>
     <g id="line2d_39">
      <g>
       <use style="stroke:#000000;stroke-width:0.5;" x="501.790875" xlink:href="#mcb0005524f" y="76.617680069"/>
      </g>
     </g>
     <g id="text_16">
      <!-- 0.10 -->
      <g transform="translate(26.26025 79.928930069)scale(0.12 -0.12)">
       <use xlink:href="#BitstreamVeraSans-Roman-30"/>
       <use x="63.623046875" xlink:href="#BitstreamVeraSans-Roman-2e"/>
       <use x="95.41015625" xlink:href="#BitstreamVeraSans-Roman-31"/>
       <use x="159.033203125" xlink:href="#BitstreamVeraSans-Roman-30"/>
      </g>
     </g>
    </g>
    <g id="text_17">
     <!-- Counts -->
     <defs>
      <path d="
M8.5 21.5781
L8.5 54.6875
L17.4844 54.6875
L17.4844 21.9219
Q17.4844 14.1562 20.5 10.2656
Q23.5312 6.39062 29.5938 6.39062
Q36.8594 6.39062 41.0781 11.0312
Q45.3125 15.6719 45.3125 23.6875
L45.3125 54.6875
L54.2969 54.6875
L54.2969 0
L45.3125 0
L45.3125 8.40625
Q42.0469 3.42188 37.7188 1
Q33.4062 -1.42188 27.6875 -1.42188
Q18.2656 -1.42188 13.375 4.4375
Q8.5 10.2969 8.5 21.5781" id="BitstreamVeraSans-Roman-75"/>
      <path d="
M30.6094 48.3906
Q23.3906 48.3906 19.1875 42.75
Q14.9844 37.1094 14.9844 27.2969
Q14.9844 17.4844 19.1562 11.8438
Q23.3438 6.20312 30.6094 6.20312
Q37.7969 6.20312 41.9844 11.8594
Q46.1875 17.5312 46.1875 27.2969
Q46.1875 37.0156 41.9844 42.7031
Q37.7969 48.3906 30.6094 48.3906
M30.6094 56
Q42.3281 56 49.0156 48.375
Q55.7188 40.7656 55.7188 27.2969
Q55.7188 13.875 49.0156 6.21875
Q42.3281 -1.42188 30.6094 -1.42188
Q18.8438 -1.42188 12.1719 6.21875
Q5.51562 13.875 5.51562 27.2969
Q5.51562 40.7656 12.1719 48.375
Q18.8438 56 30.6094 56" id="BitstreamVeraSans-Roman-6f"/>
      <path d="
M64.4062 67.2812
L64.4062 56.8906
Q59.4219 61.5312 53.7812 63.8125
Q48.1406 66.1094 41.7969 66.1094
Q29.2969 66.1094 22.6562 58.4688
Q16.0156 50.8281 16.0156 36.375
Q16.0156 21.9688 22.6562 14.3281
Q29.2969 6.6875 41.7969 6.6875
Q48.1406 6.6875 53.7812 8.98438
Q59.4219 11.2812 64.4062 15.9219
L64.4062 5.60938
Q59.2344 2.09375 53.4375 0.328125
Q47.6562 -1.42188 41.2188 -1.42188
Q24.6562 -1.42188 15.125 8.70312
Q5.60938 18.8438 5.60938 36.375
Q5.60938 53.9531 15.125 64.0781
Q24.6562 74.2188 41.2188 74.2188
Q47.75 74.2188 53.5312 72.4844
Q59.3281 70.75 64.4062 67.2812" id="BitstreamVeraSans-Roman-43"/>
      <path d="
M18.3125 70.2188
L18.3125 54.6875
L36.8125 54.6875
L36.8125 47.7031
L18.3125 47.7031
L18.3125 18.0156
Q18.3125 11.3281 20.1406 9.42188
Q21.9688 7.51562 27.5938 7.51562
L36.8125 7.51562
L36.8125 0
L27.5938 0
Q17.1875 0 13.2344 3.875
Q9.28125 7.76562 9.28125 18.0156
L9.28125 47.7031
L2.6875 47.7031
L2.6875 54.6875
L9.28125 54.6875
L9.28125 70.2188
z
" id="BitstreamVeraSans-Roman-74"/>
      <path d="
M44.2812 53.0781
L44.2812 44.5781
Q40.4844 46.5312 36.375 47.5
Q32.2812 48.4844 27.875 48.4844
Q21.1875 48.4844 17.8438 46.4375
Q14.5 44.3906 14.5 40.2812
Q14.5 37.1562 16.8906 35.375
Q19.2812 33.5938 26.5156 31.9844
L29.5938 31.2969
Q39.1562 29.25 43.1875 25.5156
Q47.2188 21.7812 47.2188 15.0938
Q47.2188 7.46875 41.1875 3.01562
Q35.1562 -1.42188 24.6094 -1.42188
Q20.2188 -1.42188 15.4531 -0.5625
Q10.6875 0.296875 5.42188 2
L5.42188 11.2812
Q10.4062 8.6875 15.2344 7.39062
Q20.0625 6.10938 24.8125 6.10938
Q31.1562 6.10938 34.5625 8.28125
Q37.9844 10.4531 37.9844 14.4062
Q37.9844 18.0625 35.5156 20.0156
Q33.0625 21.9688 24.7031 23.7812
L21.5781 24.5156
Q13.2344 26.2656 9.51562 29.9062
Q5.8125 33.5469 5.8125 39.8906
Q5.8125 47.6094 11.2812 51.7969
Q16.75 56 26.8125 56
Q31.7812 56 36.1719 55.2656
Q40.5781 54.5469 44.2812 53.0781" id="BitstreamVeraSans-Roman-73"/>
     </defs>
     <g transform="translate(18.14175 220.319375)rotate(-90.0)scale(0.144 -0.144)">
      <use xlink:href="#BitstreamVeraSans-Roman-43"/>
      <use x="69.82421875" xlink:href="#BitstreamVeraSans-Roman-6f"/>
      <use x="131.005859375" xlink:href="#BitstreamVeraSans-Roman-75"/>
      <use x="194.384765625" xlink:href="#BitstreamVeraSans-Roman-6e"/>
      <use x="257.763671875" xlink:href="#BitstreamVeraSans-Roman-74"/>
      <use x="296.97265625" xlink:href="#BitstreamVeraSans-Roman-73"/>
     </g>
    </g>
   </g>
   <g id="text_18">
    <!-- $K\alpha_2$ -->
    <defs>
     <path d="
M20.125 -1.125
Q15.375 -1.125 11.6875 1.125
Q8.01562 3.375 6 7.17188
Q4 10.9844 4 15.8281
Q4 22.6094 7.78125 29.25
Q11.5781 35.8906 17.8438 40.0312
Q24.125 44.1875 31 44.1875
Q36.0781 44.1875 39.9375 41.5312
Q43.7969 38.875 45.7969 34.4531
Q47.7969 30.0312 47.7969 25
L47.9062 18.3125
Q51.3125 23.0469 53.6875 28.1406
Q56.0625 33.25 57.3281 38.7188
Q57.5156 39.3125 58.1094 39.3125
L59.2812 39.3125
Q60.2031 39.3125 60.2031 38.375
Q60.2031 38.2812 60.1094 38.0938
Q58.9375 33.5 57.1719 29.2656
Q55.4219 25.0469 53.0469 21.0938
Q50.6875 17.1406 47.9062 13.9219
Q47.9062 1.51562 50.7812 1.51562
Q52.6406 1.51562 53.8281 2.60938
Q55.0312 3.71875 55.9375 5.32812
Q56.8438 6.9375 57.0781 6.98438
L58.2969 6.98438
Q59.0781 6.98438 59.0781 6
Q59.0781 3.51562 56.2188 1.1875
Q53.375 -1.125 50.5938 -1.125
Q46.9688 -1.125 44.5781 1.21875
Q42.1875 3.5625 41.3125 7.32812
Q36.625 3.32812 31.1562 1.09375
Q25.6875 -1.125 20.125 -1.125
M20.3125 1.51562
Q31 1.51562 40.8281 10.2969
Q40.7656 10.8906 40.6719 11.7344
Q40.5781 12.5938 40.5781 12.7031
L40.5781 23.4844
Q40.5781 41.6094 30.8125 41.6094
Q24.9531 41.6094 20.5469 36.5938
Q16.1562 31.5938 13.9375 24.625
Q11.7188 17.6719 11.7188 11.9219
Q11.7188 7.5625 13.9375 4.53125
Q16.1562 1.51562 20.3125 1.51562" id="Cmmi10-ae"/>
     <path d="
M4.6875 0
Q3.71875 0 3.71875 1.3125
Q3.76562 1.5625 3.90625 2.17188
Q4.04688 2.78125 4.3125 3.14062
Q4.59375 3.51562 4.98438 3.51562
Q11.0781 3.51562 13.4844 4.20312
Q14.7969 4.64062 15.375 6.89062
L29.1094 61.8125
Q29.2969 62.7969 29.2969 63.1875
Q29.2969 64.2656 28.0781 64.4062
Q26.2188 64.7969 20.9062 64.7969
Q19.9219 64.7969 19.9219 66.1094
Q20.2656 67.3906 20.4531 67.8438
Q20.6562 68.3125 21.5781 68.3125
L48.4844 68.3125
Q49.5156 68.3125 49.5156 67
Q49.4688 66.75 49.3125 66.1562
Q49.1719 65.5781 48.9219 65.1875
Q48.6875 64.7969 48.1875 64.7969
Q42.0938 64.7969 39.7031 64.1094
Q38.375 63.625 37.7969 61.375
L29.6875 29
L68.8906 59.2812
Q69 59.4688 70.1406 60.6094
Q71.2969 61.7656 71.2969 62.8906
Q71.2969 64.7969 67.9219 64.7969
Q66.8906 64.7969 66.8906 66.1094
Q67.0938 66.8906 67.2031 67.3281
Q67.3281 67.7812 67.6406 68.0469
Q67.9688 68.3125 68.6094 68.3125
L87.9844 68.3125
Q88.5312 68.3125 88.7656 67.9219
Q89.0156 67.5312 89.0156 67
Q88.9688 66.75 88.7969 66.1094
Q88.625 65.4844 88.3594 65.1406
Q88.0938 64.7969 87.5938 64.7969
Q80.2812 64.7969 71.5781 58.0156
Q71.5312 57.9531 71.4375 57.9219
Q71.3438 57.9062 71.2344 57.875
Q71.1406 57.8594 71.0938 57.8125
L50.4844 41.7969
L65.4844 6.6875
Q66.8438 4.5 68.4062 4
Q69.9688 3.51562 73.1875 3.51562
Q74.2188 3.51562 74.2188 2.20312
Q73.9219 1.03125 73.625 0.515625
Q73.3438 0 72.5156 0
L49.3125 0
Q48.3906 0 48.3906 1.3125
Q48.5312 2.34375 48.7188 2.92188
Q48.9219 3.51562 49.7031 3.51562
Q52.25 3.51562 54.0312 4.03125
Q55.8125 4.54688 55.8125 6.39062
Q55.8125 7.07812 55.7188 7.42188
L43.3125 36.2812
L28.7188 25
L24.125 6.5
Q23.875 5.28125 23.875 5.07812
Q23.875 4.04688 25.0938 3.90625
Q27 3.51562 32.3281 3.51562
Q33.2969 3.51562 33.2969 2.20312
Q32.9531 0.78125 32.75 0.390625
Q32.5625 0 31.5938 0
z
" id="Cmmi10-4b"/>
     <path d="
M4.98438 0
L4.98438 2.6875
Q4.98438 2.9375 5.17188 3.21875
L20.7031 20.4062
Q24.2188 24.2188 26.4062 26.7969
Q28.6094 29.3906 30.75 32.7656
Q32.9062 36.1406 34.1562 39.625
Q35.4062 43.1094 35.4062 47.0156
Q35.4062 51.125 33.8906 54.8594
Q32.375 58.5938 29.375 60.8438
Q26.375 63.0938 22.125 63.0938
Q17.7812 63.0938 14.3125 60.4688
Q10.8438 57.8594 9.42188 53.7188
Q9.8125 53.8125 10.5 53.8125
Q12.75 53.8125 14.3281 52.2969
Q15.9219 50.7812 15.9219 48.3906
Q15.9219 46.0938 14.3281 44.5
Q12.75 42.9219 10.5 42.9219
Q8.15625 42.9219 6.5625 44.5469
Q4.98438 46.1875 4.98438 48.3906
Q4.98438 52.1562 6.39062 55.4375
Q7.8125 58.7344 10.4688 61.2969
Q13.1406 63.875 16.4844 65.2344
Q19.8281 66.6094 23.5781 66.6094
Q29.2969 66.6094 34.2188 64.1875
Q39.1562 61.7656 42.0312 57.3438
Q44.9219 52.9375 44.9219 47.0156
Q44.9219 42.6719 43.0156 38.7656
Q41.1094 34.8594 38.125 31.6562
Q35.1562 28.4688 30.5156 24.4062
Q25.875 20.3594 24.4219 19
L13.0938 8.10938
L22.7031 8.10938
Q29.7812 8.10938 34.5469 8.21875
Q39.3125 8.34375 39.5938 8.59375
Q40.7656 9.85938 42 17.8281
L44.9219 17.8281
L42.0938 0
z
" id="Cmr10-32"/>
    </defs>
    <g transform="translate(103.1213022 38.1678369565)scale(0.144 -0.144)">
     <use transform="translate(0.0 0.6875)" xlink:href="#Cmmi10-4b"/>
     <use transform="translate(84.912109375 0.6875)" xlink:href="#Cmmi10-ae"/>
     <use transform="translate(148.828125 -24.821875)scale(0.7)" xlink:href="#Cmr10-32"/>
    </g>
   </g>
   <g id="text_19">
    <!-- $K\alpha_1$ -->
    <defs>
     <path d="
M9.28125 0
L9.28125 3.51562
Q21.7812 3.51562 21.7812 6.6875
L21.7812 59.1875
Q16.6094 56.6875 8.6875 56.6875
L8.6875 60.2031
Q20.9531 60.2031 27.2031 66.6094
L28.6094 66.6094
Q28.9531 66.6094 29.2656 66.3281
Q29.5938 66.0625 29.5938 65.7188
L29.5938 6.6875
Q29.5938 3.51562 42.0938 3.51562
L42.0938 0
z
" id="Cmr10-31"/>
    </defs>
    <g transform="translate(119.451786 38.1678369565)scale(0.144 -0.144)">
     <use transform="translate(0.0 0.6875)" xlink:href="#Cmmi10-4b"/>
     <use transform="translate(84.912109375 0.6875)" xlink:href="#Cmmi10-ae"/>
     <use transform="translate(148.828125 -24.821875)scale(0.7)" xlink:href="#Cmr10-31"/>
    </g>
   </g>
   <g id="text_20">
    <!-- $E_F$ -->
    <defs>
     <path d="
M4.6875 0
Q3.71875 0 3.71875 1.3125
Q3.76562 1.5625 3.90625 2.17188
Q4.04688 2.78125 4.3125 3.14062
Q4.59375 3.51562 4.98438 3.51562
Q11.0781 3.51562 13.4844 4.20312
Q14.7969 4.64062 15.375 6.89062
L29.1094 61.8125
Q29.2969 62.7969 29.2969 63.1875
Q29.2969 64.2656 28.0781 64.4062
Q26.2188 64.7969 20.9062 64.7969
Q19.9219 64.7969 19.9219 66.1094
Q19.9688 66.3594 20.1094 66.9688
Q20.2656 67.5781 20.5312 67.9375
Q20.7969 68.3125 21.1875 68.3125
L74.0312 68.3125
Q75 68.3125 75 67
L72.6094 46.2969
Q72.6094 46 72.2656 45.7031
Q71.9219 45.4062 71.5781 45.4062
L70.7031 45.4062
Q69.6719 45.4062 69.6719 46.6875
Q70.3125 51.2188 70.3125 54.1094
Q70.3125 59.0781 68.1562 61.4219
Q66.0156 63.7656 62.7344 64.2812
Q59.4688 64.7969 53.7188 64.7969
L43.0156 64.7969
Q40.2812 64.7969 39.4062 64.3281
Q38.5312 63.875 37.7969 61.375
L31.3906 35.8906
L38.9219 35.8906
Q42.625 35.8906 44.9219 36.2812
Q47.2188 36.6719 48.7344 37.7969
Q50.25 38.9219 51.25 41.0469
Q52.25 43.1719 53.0781 46.6875
Q53.375 47.6094 54.1094 47.6094
L54.9844 47.6094
Q56 47.6094 56 46.2969
L49.9062 21.5781
Q49.4688 20.7031 48.875 20.7031
L48 20.7031
Q47.0156 20.7031 47.0156 22.0156
Q47.2656 23.0469 47.4062 23.7344
Q47.5625 24.4219 47.7812 25.7031
Q48 27 48 27.9844
Q48 30.8594 45.4531 31.6406
Q42.9219 32.4219 38.8125 32.4219
L30.6094 32.4219
L24.125 6.5
Q23.875 5.51562 23.875 5.51562
Q23.875 4.34375 24.6094 4.20312
Q27.2031 3.51562 34.8125 3.51562
Q35.7969 3.51562 35.7969 2.20312
Q35.4531 0.78125 35.25 0.390625
Q35.0625 0 34.0781 0
z
" id="Cmmi10-46"/>
     <path d="
M4.6875 0
Q3.71875 0 3.71875 1.3125
Q3.76562 1.5625 3.90625 2.17188
Q4.04688 2.78125 4.3125 3.14062
Q4.59375 3.51562 4.98438 3.51562
Q11.0781 3.51562 13.4844 4.20312
Q14.7969 4.64062 15.375 6.89062
L29.1094 61.8125
Q29.2969 62.7969 29.2969 63.1875
Q29.2969 64.2656 28.0781 64.4062
Q26.2188 64.7969 20.9062 64.7969
Q19.9219 64.7969 19.9219 66.1094
Q19.9688 66.3594 20.1094 66.9688
Q20.2656 67.5781 20.5312 67.9375
Q20.7969 68.3125 21.1875 68.3125
L75.3906 68.3125
Q76.4219 68.3125 76.4219 67
L74.0312 46.2969
Q74.0312 46.0469 73.6562 45.7188
Q73.2969 45.4062 73 45.4062
L72.125 45.4062
Q71.0938 45.4062 71.0938 46.6875
Q71.6875 51.5625 71.6875 53.9062
Q71.6875 57.9062 70.3125 60.125
Q68.9531 62.3594 66.6719 63.3281
Q64.4062 64.3125 61.6406 64.5469
Q58.8906 64.7969 54.3906 64.7969
L43.0156 64.7969
Q40.2812 64.7969 39.4062 64.3281
Q38.5312 63.875 37.7969 61.375
L31.7812 37.2031
L39.5938 37.2031
Q44.6719 37.2031 47.2656 37.9062
Q49.8594 38.625 51.3594 40.8594
Q52.875 43.1094 54.1094 48
Q54.2031 48.3438 54.4688 48.6094
Q54.7344 48.875 55.0781 48.875
L56 48.875
Q56.9844 48.875 56.9844 47.6094
L50.7812 22.9062
Q50.5938 22.0156 49.8125 22.0156
L48.875 22.0156
Q47.9062 22.0156 47.9062 23.2969
Q48.875 27.2969 48.875 29.2031
Q48.875 32.125 46.2344 32.9062
Q43.6094 33.6875 39.2031 33.6875
L30.9062 33.6875
L24.125 6.5
Q23.6875 5.28125 23.6875 4.29688
Q23.6875 3.51562 27.0938 3.51562
L39.2031 3.51562
Q46.4375 3.51562 50.9219 4.64062
Q55.4219 5.76562 58.375 8.21875
Q61.3281 10.6875 63.4688 14.5
Q65.625 18.3125 68.7031 25.5938
Q68.8906 26.2188 69.5781 26.2188
L70.5156 26.2188
Q70.9062 26.2188 71.1875 25.875
Q71.4844 25.5312 71.4844 25.0938
Q71.4844 24.9062 71.3906 24.7031
L61.0781 0.59375
Q60.8906 0 60.2969 0
z
" id="Cmmi10-45"/>
    </defs>
    <g transform="translate(439.852875 218.480880435)scale(0.144 -0.144)">
     <use transform="translate(0.0 0.6875)" xlink:href="#Cmmi10-45"/>
     <use transform="translate(73.779296875 -24.821875)scale(0.7)" xlink:href="#Cmmi10-46"/>
    </g>
   </g>
   <g id="text_21">
    <!-- $K\beta_{1,3}$ -->
    <defs>
     <path d="
M9.51562 7.71875
Q11.8594 4.29688 15.8125 2.64062
Q19.7812 0.984375 24.3125 0.984375
Q30.125 0.984375 32.5625 5.9375
Q35.0156 10.8906 35.0156 17.1875
Q35.0156 20.0156 34.5 22.8438
Q33.9844 25.6875 32.7656 28.125
Q31.5469 30.5625 29.4219 32.0312
Q27.2969 33.5 24.2188 33.5
L17.5781 33.5
Q16.7031 33.5 16.7031 34.4219
L16.7031 35.2969
Q16.7031 36.0781 17.5781 36.0781
L23.0938 36.5312
Q26.6094 36.5312 28.9219 39.1562
Q31.25 41.7969 32.3281 45.5781
Q33.4062 49.3594 33.4062 52.7812
Q33.4062 57.5625 31.1562 60.6406
Q28.9062 63.7188 24.3125 63.7188
Q20.5156 63.7188 17.0469 62.2812
Q13.5781 60.8438 11.5312 57.9062
Q11.7188 57.9531 11.8594 57.9844
Q12.0156 58.0156 12.2031 58.0156
Q14.4531 58.0156 15.9688 56.4531
Q17.4844 54.8906 17.4844 52.6875
Q17.4844 50.5312 15.9688 48.9688
Q14.4531 47.4062 12.2031 47.4062
Q10.0156 47.4062 8.45312 48.9688
Q6.89062 50.5312 6.89062 52.6875
Q6.89062 56.9844 9.46875 60.1562
Q12.0625 63.3281 16.1406 64.9688
Q20.2188 66.6094 24.3125 66.6094
Q27.3438 66.6094 30.7031 65.7031
Q34.0781 64.7969 36.8125 63.1094
Q39.5469 61.4219 41.2812 58.7812
Q43.0156 56.1562 43.0156 52.7812
Q43.0156 48.5781 41.1406 45.0156
Q39.2656 41.4531 35.9844 38.8594
Q32.7188 36.2812 28.8125 35.0156
Q33.1562 34.1875 37.0625 31.7344
Q40.9688 29.2969 43.3281 25.4844
Q45.7031 21.6875 45.7031 17.2812
Q45.7031 11.7656 42.6719 7.29688
Q39.6562 2.82812 34.7188 0.3125
Q29.7812 -2.20312 24.3125 -2.20312
Q19.625 -2.20312 14.9062 -0.40625
Q10.2031 1.375 7.20312 4.9375
Q4.20312 8.5 4.20312 13.4844
Q4.20312 15.9688 5.85938 17.625
Q7.51562 19.2812 10.0156 19.2812
Q11.625 19.2812 12.9688 18.5312
Q14.3125 17.7812 15.0625 16.4062
Q15.8281 15.0469 15.8281 13.4844
Q15.8281 11.0312 14.1094 9.375
Q12.4062 7.71875 10.0156 7.71875
z
" id="Cmr10-33"/>
     <path d="
M2.6875 -19.3906
Q2.39062 -19.3906 2.14062 -19.0469
Q1.90625 -18.7031 1.90625 -18.4062
L17.2812 43.4062
Q18.6094 48.3906 21.1406 53.0781
Q23.6875 57.7656 27.5156 61.7969
Q31.3438 65.8281 35.9375 68.1719
Q40.5312 70.5156 45.7031 70.5156
Q49.4219 70.5156 52.4219 68.875
Q55.4219 67.2344 57.1562 64.2812
Q58.8906 61.3281 58.8906 57.625
Q58.8906 54.0469 57.5156 50.7969
Q56.1562 47.5625 53.7031 44.75
Q51.2656 41.9375 48.4844 40.1875
Q50.0938 39.1562 51.3594 37.5625
Q52.6406 35.9844 53.4219 34.25
Q54.2031 32.5156 54.6406 30.3906
Q55.0781 28.2656 55.0781 26.4219
Q55.0781 21.2969 52.875 16.3125
Q50.6875 11.3281 46.8906 7.26562
Q43.1094 3.21875 38.2188 0.84375
Q33.3438 -1.51562 28.2188 -1.51562
Q22.6094 -1.51562 18.1094 1.5625
Q13.625 4.64062 11.9219 9.90625
L4.6875 -18.7969
Q4.6875 -19.3906 3.90625 -19.3906
z

M28.4219 1.21875
Q32.9062 1.21875 36.5469 4.17188
Q40.1875 7.125 42.5469 11.5938
Q44.9219 16.0625 46.1562 21.0625
Q47.4062 26.0781 47.4062 30.1719
Q47.4062 35.25 44.4844 38.1875
Q41.0625 36.9219 37.7969 36.9219
Q29.8906 36.9219 29.8906 39.5938
Q29.8906 43.1094 38.9219 43.1094
Q42.1406 43.1094 44.8281 42.0938
Q46.9688 43.75 48.7188 46.9688
Q50.4844 50.2031 51.3906 53.7188
Q52.2969 57.2344 52.2969 60.2969
Q52.2969 63.5781 50.5625 65.75
Q48.8281 67.9219 45.5156 67.9219
Q39.4062 67.9219 34.1562 64.1562
Q28.9062 60.4062 25.2969 54.6562
Q21.6875 48.9219 20.125 42.8281
L14.5938 20.7031
Q14.0625 18.4062 13.9219 15.5781
Q13.9219 9.32812 18.0156 5.26562
Q22.125 1.21875 28.4219 1.21875
M32.9062 39.8906
Q34.4219 39.5 37.8906 39.5
Q39.5938 39.5 41.3125 40.0938
Q41.2188 40.1875 40.9219 40.1875
Q39.8438 40.4844 38.625 40.4844
Q34.0781 40.4844 32.9062 39.8906" id="Cmmi10-af"/>
     <path d="
M9.90625 -18.0156
Q9.90625 -17.5781 10.2969 -17.1875
Q13.9219 -13.7188 15.9219 -9.17188
Q17.9219 -4.64062 17.9219 0.390625
L17.9219 1.60938
Q16.3125 0 13.9219 0
Q11.625 0 10.0156 1.60938
Q8.40625 3.21875 8.40625 5.51562
Q8.40625 7.85938 10.0156 9.42188
Q11.625 10.9844 13.9219 10.9844
Q17.4844 10.9844 19 7.6875
Q20.5156 4.39062 20.5156 0.390625
Q20.5156 -5.17188 18.2812 -10.1719
Q16.0625 -15.1875 12.0156 -19.1875
Q11.625 -19.3906 11.375 -19.3906
Q10.8906 -19.3906 10.3906 -18.9375
Q9.90625 -18.5 9.90625 -18.0156" id="Cmmi10-3b"/>
    </defs>
    <g transform="translate(402.368109 218.480880435)scale(0.144 -0.144)">
     <use transform="translate(0.0 0.484375)" xlink:href="#Cmmi10-4b"/>
     <use transform="translate(84.912109375 0.484375)" xlink:href="#Cmmi10-af"/>
     <use transform="translate(141.40625 -25.025)scale(0.7)" xlink:href="#Cmr10-31"/>
     <use transform="translate(176.40625 -25.025)scale(0.7)" xlink:href="#Cmmi10-3b"/>
     <use transform="translate(197.173828125 -25.025)scale(0.7)" xlink:href="#Cmr10-33"/>
    </g>
   </g>
   <g id="text_22">
    <!-- Cr XES -->
    <defs>
     <path d="
M6.29688 72.9062
L16.8906 72.9062
L35.0156 45.7969
L53.2188 72.9062
L63.8125 72.9062
L40.375 37.8906
L65.375 0
L54.7812 0
L34.2812 31
L13.625 0
L2.98438 0
L29 38.9219
z
" id="BitstreamVeraSans-Roman-58"/>
     <path d="
M53.5156 70.5156
L53.5156 60.8906
Q47.9062 63.5781 42.9219 64.8906
Q37.9375 66.2188 33.2969 66.2188
Q25.25 66.2188 20.875 63.0938
Q16.5 59.9688 16.5 54.2031
Q16.5 49.3594 19.4062 46.8906
Q22.3125 44.4375 30.4219 42.9219
L36.375 41.7031
Q47.4062 39.5938 52.6562 34.2969
Q57.9062 29 57.9062 20.125
Q57.9062 9.51562 50.7969 4.04688
Q43.7031 -1.42188 29.9844 -1.42188
Q24.8125 -1.42188 18.9688 -0.25
Q13.1406 0.921875 6.89062 3.21875
L6.89062 13.375
Q12.8906 10.0156 18.6562 8.29688
Q24.4219 6.59375 29.9844 6.59375
Q38.4219 6.59375 43.0156 9.90625
Q47.6094 13.2344 47.6094 19.3906
Q47.6094 24.75 44.3125 27.7812
Q41.0156 30.8125 33.5 32.3281
L27.4844 33.5
Q16.4531 35.6875 11.5156 40.375
Q6.59375 45.0625 6.59375 53.4219
Q6.59375 63.0938 13.4062 68.6562
Q20.2188 74.2188 32.1719 74.2188
Q37.3125 74.2188 42.625 73.2812
Q47.9531 72.3594 53.5156 70.5156" id="BitstreamVeraSans-Roman-53"/>
    </defs>
    <g transform="translate(254.664375 18.14175)scale(0.144 -0.144)">
     <use xlink:href="#BitstreamVeraSans-Roman-43"/>
     <use x="69.82421875" xlink:href="#BitstreamVeraSans-Roman-72"/>
     <use x="110.9375" xlink:href="#BitstreamVeraSans-Roman-20"/>
     <use x="142.724609375" xlink:href="#BitstreamVeraSans-Roman-58"/>
     <use x="211.23046875" xlink:href="#BitstreamVeraSans-Roman-45"/>
     <use x="274.4140625" xlink:href="#BitstreamVeraSans-Roman-53"/>
    </g>
   </g>
   <g id="legend_1">
    <g id="patch_7">
     <path d="
M327.405 120.81
L494.591 120.81
L494.591 30.3417
L327.405 30.3417
z
" style="fill:#ffffff;stroke:#000000;stroke-linejoin:miter;"/>
    </g>
    <g id="line2d_40">
     <path d="
M337.485 42.0035
L357.645 42.0035" style="fill:none;stroke:#0000ff;stroke-linecap:square;"/>
    </g>
    <g id="line2d_41"/>
    <g id="text_23">
     <!-- TiCr_2um_1.00 -->
     <defs>
      <path d="
M9.42188 54.6875
L18.4062 54.6875
L18.4062 0
L9.42188 0
z

M9.42188 75.9844
L18.4062 75.9844
L18.4062 64.5938
L9.42188 64.5938
z
" id="BitstreamVeraSans-Roman-69"/>
      <path d="
M-0.296875 72.9062
L61.375 72.9062
L61.375 64.5938
L35.5 64.5938
L35.5 0
L25.5938 0
L25.5938 64.5938
L-0.296875 64.5938
z
" id="BitstreamVeraSans-Roman-54"/>
      <path d="
M50.9844 -16.6094
L50.9844 -23.5781
L-0.984375 -23.5781
L-0.984375 -16.6094
z
" id="BitstreamVeraSans-Roman-5f"/>
      <path d="
M52 44.1875
Q55.375 50.25 60.0625 53.125
Q64.75 56 71.0938 56
Q79.6406 56 84.2812 50.0156
Q88.9219 44.0469 88.9219 33.0156
L88.9219 0
L79.8906 0
L79.8906 32.7188
Q79.8906 40.5781 77.0938 44.375
Q74.3125 48.1875 68.6094 48.1875
Q61.625 48.1875 57.5625 43.5469
Q53.5156 38.9219 53.5156 30.9062
L53.5156 0
L44.4844 0
L44.4844 32.7188
Q44.4844 40.625 41.7031 44.4062
Q38.9219 48.1875 33.1094 48.1875
Q26.2188 48.1875 22.1562 43.5312
Q18.1094 38.875 18.1094 30.9062
L18.1094 0
L9.07812 0
L9.07812 54.6875
L18.1094 54.6875
L18.1094 46.1875
Q21.1875 51.2188 25.4844 53.6094
Q29.7812 56 35.6875 56
Q41.6562 56 45.8281 52.9688
Q50 49.9531 52 44.1875" id="BitstreamVeraSans-Roman-6d"/>
     </defs>
     <g transform="translate(373.484625 47.0435)scale(0.144 -0.144)">
      <use xlink:href="#BitstreamVeraSans-Roman-54"/>
      <use x="57.958984375" xlink:href="#BitstreamVeraSans-Roman-69"/>
      <use x="85.7421875" xlink:href="#BitstreamVeraSans-Roman-43"/>
      <use x="155.56640625" xlink:href="#BitstreamVeraSans-Roman-72"/>
      <use x="196.6796875" xlink:href="#BitstreamVeraSans-Roman-5f"/>
      <use x="246.6796875" xlink:href="#BitstreamVeraSans-Roman-32"/>
      <use x="310.302734375" xlink:href="#BitstreamVeraSans-Roman-75"/>
      <use x="373.681640625" xlink:href="#BitstreamVeraSans-Roman-6d"/>
      <use x="471.09375" xlink:href="#BitstreamVeraSans-Roman-5f"/>
      <use x="521.09375" xlink:href="#BitstreamVeraSans-Roman-31"/>
      <use x="584.716796875" xlink:href="#BitstreamVeraSans-Roman-2e"/>
      <use x="616.50390625" xlink:href="#BitstreamVeraSans-Roman-30"/>
      <use x="680.126953125" xlink:href="#BitstreamVeraSans-Roman-30"/>
     </g>
    </g>
    <g id="line2d_42">
     <path d="
M337.485 63.5405
L357.645 63.5405" style="fill:none;stroke:#000000;stroke-linecap:square;"/>
    </g>
    <g id="line2d_43"/>
    <g id="text_24">
     <!-- TiCr_5um_1.00 -->
     <g transform="translate(373.484625 68.5805)scale(0.144 -0.144)">
      <use xlink:href="#BitstreamVeraSans-Roman-54"/>
      <use x="57.958984375" xlink:href="#BitstreamVeraSans-Roman-69"/>
      <use x="85.7421875" xlink:href="#BitstreamVeraSans-Roman-43"/>
      <use x="155.56640625" xlink:href="#BitstreamVeraSans-Roman-72"/>
      <use x="196.6796875" xlink:href="#BitstreamVeraSans-Roman-5f"/>
      <use x="246.6796875" xlink:href="#BitstreamVeraSans-Roman-35"/>
      <use x="310.302734375" xlink:href="#BitstreamVeraSans-Roman-75"/>
      <use x="373.681640625" xlink:href="#BitstreamVeraSans-Roman-6d"/>
      <use x="471.09375" xlink:href="#BitstreamVeraSans-Roman-5f"/>
      <use x="521.09375" xlink:href="#BitstreamVeraSans-Roman-31"/>
      <use x="584.716796875" xlink:href="#BitstreamVeraSans-Roman-2e"/>
      <use x="616.50390625" xlink:href="#BitstreamVeraSans-Roman-30"/>
      <use x="680.126953125" xlink:href="#BitstreamVeraSans-Roman-30"/>
     </g>
    </g>
    <g id="line2d_44">
     <path d="
M337.485 85.0775
L357.645 85.0775" style="fill:none;stroke:#ffa500;stroke-linecap:square;"/>
    </g>
    <g id="line2d_45"/>
    <g id="text_25">
     <!-- TiCr_15um_1.00 -->
     <g transform="translate(373.484625 90.1175)scale(0.144 -0.144)">
      <use xlink:href="#BitstreamVeraSans-Roman-54"/>
      <use x="57.958984375" xlink:href="#BitstreamVeraSans-Roman-69"/>
      <use x="85.7421875" xlink:href="#BitstreamVeraSans-Roman-43"/>
      <use x="155.56640625" xlink:href="#BitstreamVeraSans-Roman-72"/>
      <use x="196.6796875" xlink:href="#BitstreamVeraSans-Roman-5f"/>
      <use x="246.6796875" xlink:href="#BitstreamVeraSans-Roman-31"/>
      <use x="310.302734375" xlink:href="#BitstreamVeraSans-Roman-35"/>
      <use x="373.92578125" xlink:href="#BitstreamVeraSans-Roman-75"/>
      <use x="437.3046875" xlink:href="#BitstreamVeraSans-Roman-6d"/>
      <use x="534.716796875" xlink:href="#BitstreamVeraSans-Roman-5f"/>
      <use x="584.716796875" xlink:href="#BitstreamVeraSans-Roman-31"/>
      <use x="648.33984375" xlink:href="#BitstreamVeraSans-Roman-2e"/>
      <use x="680.126953125" xlink:href="#BitstreamVeraSans-Roman-30"/>
      <use x="743.75" xlink:href="#BitstreamVeraSans-Roman-30"/>
     </g>
    </g>
    <g id="line2d_46">
     <path d="
M337.485 106.614
L357.645 106.614" style="fill:none;stroke:#008000;stroke-linecap:square;"/>
    </g>
    <g id="line2d_47"/>
    <g id="text_26">
     <!-- TiCr_30um_1.00 -->
     <g transform="translate(373.484625 111.6545)scale(0.144 -0.144)">
      <use xlink:href="#BitstreamVeraSans-Roman-54"/>
      <use x="57.958984375" xlink:href="#BitstreamVeraSans-Roman-69"/>
      <use x="85.7421875" xlink:href="#BitstreamVeraSans-Roman-43"/>
      <use x="155.56640625" xlink:href="#BitstreamVeraSans-Roman-72"/>
      <use x="196.6796875" xlink:href="#BitstreamVeraSans-Roman-5f"/>
      <use x="246.6796875" xlink:href="#BitstreamVeraSans-Roman-33"/>
      <use x="310.302734375" xlink:href="#BitstreamVeraSans-Roman-30"/>
      <use x="373.92578125" xlink:href="#BitstreamVeraSans-Roman-75"/>
      <use x="437.3046875" xlink:href="#BitstreamVeraSans-Roman-6d"/>
      <use x="534.716796875" xlink:href="#BitstreamVeraSans-Roman-5f"/>
      <use x="584.716796875" xlink:href="#BitstreamVeraSans-Roman-31"/>
      <use x="648.33984375" xlink:href="#BitstreamVeraSans-Roman-2e"/>
      <use x="680.126953125" xlink:href="#BitstreamVeraSans-Roman-30"/>
      <use x="743.75" xlink:href="#BitstreamVeraSans-Roman-30"/>
     </g>
    </g>
   </g>
  </g>
 </g>
 <defs>
  <clipPath id="p291dd02cf4">
   <rect height="345.6" width="446.4" x="55.390875" y="23.14175"/>
  </clipPath>
 </defs>
</svg>
