<?xml version="1.0" encoding="utf-8" standalone="no"?>
<!DOCTYPE svg PUBLIC "-//W3C//DTD SVG 1.1//EN"
  "http://www.w3.org/Graphics/SVG/1.1/DTD/svg11.dtd">
<!-- Created with matplotlib (http://matplotlib.org/) -->
<svg height="410pt" version="1.1" viewBox="0 0 523 410" width="523pt" xmlns="http://www.w3.org/2000/svg" xmlns:xlink="http://www.w3.org/1999/xlink">
 <defs>
  <style type="text/css">
*{stroke-linecap:butt;stroke-linejoin:round;}
  </style>
 </defs>
 <g id="figure_1">
  <g id="patch_1">
   <path d="
M0 410.492
L523.445 410.492
L523.445 0
L0 0
z
" style="fill:#ffffff;"/>
  </g>
  <g id="axes_1">
   <g id="patch_2">
    <path d="
M55.2671 368.742
L501.667 368.742
L501.667 23.1417
L55.2671 23.1417
z
" style="fill:#ffffff;"/>
   </g>
   <g id="line2d_1">
    <path clip-path="url(#p09a64f714b)" d="
M471.155 369.352
L470.16 369.263
L467.173 369.395
L466.178 369.288
L465.183 369.363
L464.188 369.268
L463.193 369.363
L462.198 369.295
L461.203 369.364
L460.209 369.243
L459.214 369.375
L458.219 369.29
L457.225 369.431
L456.23 369.273
L455.236 369.384
L454.242 369.344
L453.247 369.466
L452.253 369.264
L451.259 369.369
L450.265 369.284
L449.271 369.379
L448.277 369.295
L447.283 369.419
L446.29 369.285
L445.296 369.361
L444.302 369.285
L443.309 369.377
L440.329 369.237
L439.336 369.315
L438.343 369.251
L437.349 369.39
L436.356 369.25
L435.364 369.353
L434.371 369.213
L433.378 369.362
L432.385 369.255
L430.4 369.25
L429.408 369.19
L427.423 369.297
L426.431 369.243
L425.439 369.35
L424.447 369.259
L423.455 369.306
L421.471 369.242
L417.504 369.285
L416.513 369.21
L415.521 369.309
L414.53 369.2
L411.556 369.212
L410.565 369.118
L407.593 369.153
L406.602 368.979
L405.611 369.006
L404.621 368.896
L403.63 368.925
L402.64 368.761
L401.65 368.852
L400.66 368.631
L398.679 368.572
L397.689 369.91
L396.699 368.459
L391.751 368.746
L387.794 368.529
L386.804 368.301
L385.815 368.269
L384.826 367.851
L380.871 366.703
L378.894 366.251
L377.906 365.972
L375.929 364.415
L374.941 363.153
L373.953 361.259
L372.965 358.4
L371.977 354.364
L370.989 348.157
L370.001 340.472
L369.014 331.671
L368.026 327.456
L367.039 337.01
L366.051 350.007
L365.064 357.971
L364.077 362.039
L363.089 364.302
L362.102 365.739
L361.115 366.569
L360.128 367.237
L358.155 368.096
L354.208 368.83
L353.222 368.722
L352.236 368.989
L351.249 368.909
L350.263 369.056
L349.277 368.953
L348.291 369.052
L345.334 368.958
L344.348 369.134
L343.363 368.977
L342.377 369.147
L341.392 368.971
L340.406 369.099
L337.451 368.987
L334.496 368.981
L333.512 368.918
L332.527 368.993
L331.543 368.836
L330.558 369.043
L329.574 369.001
L328.589 369.088
L327.605 368.96
L326.621 369.119
L325.637 369.042
L324.653 369.119
L323.669 369.064
L322.686 369.149
L321.702 369.035
L320.718 369.223
L319.735 369.114
L318.751 369.174
L317.768 369.103
L316.785 369.243
L315.802 369.18
L314.818 369.235
L313.836 369.143
L312.853 369.301
L309.904 369.135
L308.922 369.298
L307.939 369.166
L306.957 369.21
L305.975 369.133
L304.992 369.281
L304.01 369.231
L303.028 369.298
L302.046 369.181
L298.119 369.268
L296.157 369.242
L295.175 369.286
L294.194 369.2
L293.213 369.317
L292.232 369.246
L291.251 369.305
L290.27 369.218
L287.328 369.4
L286.347 369.175
L285.367 369.34
L284.387 369.183
L283.406 369.296
L282.426 369.223
L281.446 369.343
L280.466 368.905
L279.486 368.742
L277.527 368.742
L275.568 369.251
L274.588 369.178
L273.609 369.268
L271.65 369.264
L262.842 369.231
L260.886 369.241
L256.974 369.204
L255.019 369.265
L252.086 369.263
L247.201 369.233
L246.224 369.288
L245.248 369.159
L244.271 369.298
L243.295 369.23
L242.318 369.3
L240.366 369.21
L239.39 369.17
L238.414 369.275
L237.438 369.205
L236.462 369.291
L233.535 369.248
L229.634 369.22
L222.811 369.227
L214.045 368.902
L212.099 369.015
L202.37 368.896
L197.51 368.581
L195.566 368.292
L194.595 367.985
L193.623 367.961
L192.652 368.065
L189.738 367.907
L188.767 367.749
L187.797 367.737
L186.826 367.582
L185.855 367.564
L183.914 367.239
L181.973 366.411
L181.003 365.798
L180.033 364.996
L178.093 362.777
L177.124 361.096
L176.154 360.234
L175.185 360.11
L174.215 359.806
L173.246 359.082
L172.277 357.474
L171.307 354.849
L170.338 350.708
L169.369 344.953
L168.401 335.747
L167.432 321.571
L166.463 297.333
L165.495 260.452
L164.526 205.997
L163.558 136.461
L162.59 90.56
L161.622 133.255
L160.654 190.929
L159.686 231.056
L158.718 291.118
L157.751 333.421
L156.783 350.319
L155.816 357.855
L154.848 361.871
L153.881 364.188
L152.914 365.502
L151.947 366.519
L150.013 367.33
L149.047 367.686
L146.147 368.236
L143.249 368.597
L142.283 368.504
L140.351 368.729
L137.455 368.88
L134.559 368.86
L133.594 368.969
L132.629 368.884
L129.735 369.003
L126.842 368.982
L125.878 369.081
L123.95 368.976
L121.059 369.013
L119.133 368.934
L116.243 369.162
L115.281 369.066
L114.318 369.205
L112.393 369.152
L108.544 369.188
L107.582 369.128
L106.62 369.241
L105.658 369.168
L104.696 369.247
L103.735 369.173
L101.812 369.218
L92.2057 369.171
L91.2457 369.286
L90.2858 369.15
L89.326 369.15
L88.3663 368.742
L80.6931 368.742
L80.6931 368.742" style="fill:none;stroke:#0000ff;stroke-linecap:square;"/>
   </g>
   <g id="line2d_2">
    <path clip-path="url(#p09a64f714b)" d="
M55.2671 368.742
L501.667 368.742" style="fill:none;stroke:#000000;stroke-linecap:square;"/>
   </g>
   <g id="line2d_3">
    <path clip-path="url(#p09a64f714b)" d="
M161.622 383.768
L161.622 38.1678" style="fill:none;stroke:#808080;stroke-linecap:square;"/>
   </g>
   <g id="line2d_4">
    <path clip-path="url(#p09a64f714b)" d="
M159.111 383.768
L159.111 38.1678" style="fill:none;stroke:#808080;stroke-linecap:square;"/>
   </g>
   <g id="line2d_5">
    <path clip-path="url(#p09a64f714b)" d="
M368.026 383.768
L368.026 218.481" style="fill:none;stroke:#808080;stroke-linecap:square;"/>
   </g>
   <g id="line2d_6">
    <path clip-path="url(#p09a64f714b)" d="
M385.603 383.768
L385.603 218.481" style="fill:none;stroke:#808080;stroke-linecap:square;"/>
   </g>
   <g id="line2d_7">
    <path clip-path="url(#p09a64f714b)" d="
M471.155 368.628
L466.178 368.524
L465.183 368.713
L463.193 368.651
L461.203 368.641
L460.209 368.668
L459.214 368.571
L455.236 368.642
L454.242 368.613
L453.247 368.699
L452.253 368.597
L449.271 368.636
L428.415 368.489
L427.423 368.633
L426.431 368.513
L425.439 368.55
L424.447 368.442
L423.455 368.559
L422.463 368.462
L419.487 368.554
L418.496 368.455
L417.504 368.521
L416.513 368.389
L415.521 368.516
L412.547 368.33
L409.574 368.269
L406.602 368.074
L405.611 368.097
L404.621 367.966
L401.65 367.876
L400.66 367.679
L399.669 367.75
L398.679 367.638
L397.689 366.961
L396.699 367.58
L393.73 367.803
L387.794 367.596
L384.826 366.882
L383.838 366.638
L382.849 366.189
L380.871 365.649
L378.894 364.919
L377.906 364.283
L376.918 363.337
L375.929 362.189
L374.941 360.815
L373.953 358.704
L372.965 356.069
L371.977 352.431
L370.989 347.647
L370.001 342.289
L369.014 337.676
L368.026 338.672
L367.039 348.196
L366.051 356.283
L365.064 360.891
L364.077 363.5
L363.089 364.914
L362.102 365.818
L360.128 367.005
L358.155 367.548
L352.236 368.178
L345.334 368.309
L343.363 368.263
L338.436 368.315
L337.451 368.221
L336.466 368.265
L334.496 368.213
L333.512 368.177
L332.527 368.288
L331.543 368.209
L330.558 368.358
L329.574 368.269
L328.589 368.342
L327.605 368.269
L324.653 368.381
L323.669 368.33
L322.686 368.433
L321.702 368.373
L319.735 368.44
L315.802 368.358
L314.818 368.437
L313.836 368.377
L312.853 368.566
L311.87 368.418
L310.887 368.48
L309.904 368.409
L308.922 368.487
L307.939 368.433
L306.957 368.526
L302.046 368.474
L298.119 368.5
L291.251 368.489
L289.289 368.484
L281.446 368.464
L280.466 367.953
L279.486 368.742
L277.527 368.742
L276.547 368.01
L275.568 368.462
L273.609 368.549
L272.629 368.491
L271.65 368.575
L268.713 368.542
L267.735 368.601
L265.777 368.521
L263.82 368.581
L258.93 368.536
L255.996 368.543
L255.019 368.512
L254.041 368.612
L253.064 368.549
L252.086 368.621
L250.132 368.558
L249.155 368.491
L247.201 368.537
L246.224 368.476
L244.271 368.572
L243.295 368.501
L242.318 368.62
L241.342 368.518
L240.366 368.599
L238.414 368.561
L235.486 368.49
L233.535 368.549
L231.585 368.517
L228.659 368.523
L226.709 368.536
L222.811 368.41
L220.862 368.488
L215.993 368.205
L212.099 368.32
L210.152 368.182
L209.179 368.304
L208.206 368.113
L207.233 368.505
L206.26 368.142
L205.288 368.25
L204.315 368.118
L203.343 368.192
L197.51 367.69
L193.623 367.106
L191.681 367.139
L190.709 367.087
L188.767 366.769
L187.797 366.779
L184.885 366.232
L182.944 365.292
L181.003 363.629
L180.033 362.658
L177.124 358.807
L176.154 358.412
L175.185 358.273
L174.215 357.806
L173.246 356.598
L172.277 354.02
L171.307 350.246
L170.338 343.915
L169.369 334.647
L168.401 319.771
L167.432 298.001
L166.463 265.691
L165.495 223.516
L163.558 129.814
L162.59 130.359
L161.622 193.057
L160.654 228.241
L159.686 273.15
L158.718 323.367
L157.751 345.805
L156.783 355.484
L155.816 360.198
L154.848 363.032
L153.881 364.544
L152.914 365.507
L151.947 366.263
L149.047 367.092
L144.215 367.789
L142.283 367.877
L139.385 368.072
L136.489 368.076
L133.594 368.192
L132.629 368.12
L131.664 368.177
L130.7 368.08
L129.735 368.287
L124.914 368.194
L123.95 368.373
L122.987 368.247
L119.133 368.176
L118.17 368.298
L117.206 368.273
L116.243 368.381
L115.281 368.309
L114.318 368.405
L112.393 368.406
L108.544 368.402
L107.582 368.331
L104.696 368.436
L101.812 368.393
L100.851 368.457
L99.89 368.38
L95.0864 368.485
L93.1658 368.424
L89.326 368.449
L88.3663 368.742
L80.6931 368.742
L80.6931 368.742" style="fill:none;stroke:#000000;stroke-linecap:square;"/>
   </g>
   <g id="line2d_8">
    <path clip-path="url(#p09a64f714b)" d="
M471.155 368.625
L470.16 368.676
L469.164 368.625
L467.173 368.675
L466.178 368.527
L463.193 368.668
L462.198 368.562
L459.214 368.62
L458.219 368.529
L457.225 368.687
L455.236 368.594
L452.253 368.612
L440.329 368.625
L439.336 368.716
L437.349 368.626
L435.364 368.565
L431.393 368.524
L429.408 368.607
L428.415 368.45
L427.423 368.638
L424.447 368.539
L421.471 368.563
L420.479 368.449
L419.487 368.616
L418.496 368.464
L415.521 368.679
L414.53 368.493
L411.556 368.501
L410.565 368.367
L407.593 368.357
L404.621 368.094
L403.63 368.123
L401.65 367.925
L400.66 367.976
L398.679 367.787
L397.689 367.274
L396.699 367.633
L392.74 367.976
L391.751 367.883
L390.761 367.963
L388.783 367.835
L387.794 367.847
L383.838 367.008
L382.849 366.669
L381.86 366.549
L380.871 366.268
L379.883 366.149
L378.894 365.834
L376.918 364.538
L375.929 363.563
L374.941 361.986
L373.953 359.781
L372.965 356.618
L371.977 352.137
L370.989 345.926
L369.014 331.403
L368.026 330.579
L366.051 352.448
L365.064 358.79
L364.077 362.092
L363.089 364.02
L362.102 365.294
L360.128 366.725
L359.141 367.087
L357.168 367.59
L356.181 367.665
L354.208 368.044
L351.249 368.162
L347.305 368.2
L346.319 368.417
L345.334 368.215
L340.406 368.367
L339.421 368.255
L336.466 368.235
L333.512 368.152
L332.527 368.27
L331.543 368.141
L329.574 368.363
L327.605 368.258
L323.669 368.36
L322.686 368.244
L318.751 368.363
L310.887 368.467
L309.904 368.331
L308.922 368.466
L307.939 368.413
L306.957 368.502
L305.975 368.403
L304.992 368.539
L304.01 368.423
L303.028 368.475
L302.046 368.409
L301.065 368.509
L296.157 368.483
L295.175 368.544
L294.194 368.476
L293.213 368.557
L292.232 368.47
L291.251 368.557
L290.27 368.464
L289.289 368.543
L288.308 368.465
L287.328 368.523
L286.347 368.423
L283.406 368.553
L281.446 368.536
L280.466 368.223
L279.486 368.742
L277.527 368.742
L276.547 368.227
L275.568 368.525
L267.735 368.567
L266.756 368.434
L265.777 368.542
L264.799 368.492
L263.82 368.594
L261.864 368.488
L255.996 368.496
L248.178 368.576
L247.201 368.454
L246.224 368.608
L245.248 368.626
L243.295 368.536
L240.366 368.523
L239.39 368.481
L238.414 368.561
L237.438 368.465
L236.462 368.583
L232.56 368.474
L231.585 368.567
L230.609 368.43
L226.709 368.489
L225.735 368.423
L223.786 368.502
L219.888 368.353
L218.914 368.363
L217.94 368.202
L212.099 368.2
L210.152 368.277
L209.179 368.279
L208.206 368.157
L207.233 368.657
L206.26 368.222
L205.288 368.218
L204.315 368.098
L201.398 368.148
L196.538 367.767
L194.595 367.415
L193.623 367.308
L191.681 367.379
L184.885 367.017
L181.973 366.235
L181.003 365.498
L180.033 364.579
L178.093 362.213
L177.124 360.381
L176.154 359.844
L174.215 359.659
L173.246 359.005
L172.277 357.789
L171.307 355.599
L170.338 352.164
L169.369 346.988
L168.401 337.761
L167.432 321.795
L166.463 292.945
L165.495 247.334
L163.558 115.429
L162.59 93.0394
L161.622 162.935
L160.654 202.273
L159.686 247.326
L158.718 310.956
L157.751 340.791
L156.783 353.037
L155.816 358.799
L154.848 362.11
L153.881 364.034
L152.914 365.162
L151.947 366.023
L150.013 366.754
L147.113 367.486
L145.181 367.595
L142.283 368.139
L141.317 367.93
L139.385 368.116
L138.42 367.995
L137.455 368.142
L135.524 368.154
L131.664 368.111
L130.7 368.208
L128.771 368.181
L127.807 368.328
L126.842 368.157
L125.878 368.343
L124.914 368.206
L123.95 368.436
L122.987 368.206
L119.133 368.135
L117.206 368.372
L113.355 368.454
L111.43 368.318
L105.658 368.458
L104.696 368.373
L102.774 368.497
L99.89 368.382
L97.9682 368.42
L96.0469 368.423
L89.326 368.455
L88.3663 368.742
L80.6931 368.742
L80.6931 368.742" style="fill:none;stroke:#ffa500;stroke-linecap:square;"/>
   </g>
   <g id="line2d_9">
    <path clip-path="url(#p09a64f714b)" d="
M471.155 368.722
L470.16 368.615
L469.164 368.573
L466.178 368.549
L465.183 368.639
L464.188 368.541
L463.193 368.658
L460.209 368.57
L459.214 368.736
L458.219 368.592
L457.225 368.686
L456.23 368.484
L455.236 368.664
L454.242 368.561
L451.259 368.592
L447.283 368.665
L446.29 368.17
L445.296 368.613
L444.302 368.536
L443.309 368.645
L438.343 368.481
L437.349 368.631
L436.356 368.569
L434.371 368.6
L431.393 368.61
L430.4 368.439
L428.415 368.65
L427.423 368.505
L426.431 368.6
L425.439 368.525
L423.455 368.618
L422.463 368.538
L421.471 368.599
L420.479 368.472
L419.487 368.61
L418.496 368.453
L417.504 368.636
L413.539 368.528
L407.593 368.481
L406.602 368.336
L403.63 368.276
L402.64 368.109
L401.65 368.133
L400.66 368.008
L398.679 368.017
L397.689 368.8
L396.699 367.827
L389.772 368.068
L388.783 367.944
L387.794 367.958
L386.804 367.622
L384.826 367.353
L381.86 366.507
L380.871 366.471
L379.883 366.232
L377.906 366.056
L375.929 364.705
L374.941 363.454
L373.953 361.718
L372.965 358.661
L371.977 354.165
L370.989 347.334
L370.001 338.308
L369.014 327.747
L368.026 322.876
L367.039 334.613
L366.051 348.774
L365.064 356.982
L364.077 361.023
L363.089 363.379
L362.102 364.779
L360.128 366.421
L359.141 366.873
L357.168 367.592
L355.195 367.853
L354.208 367.992
L351.249 368.134
L350.263 368.232
L349.277 368.178
L348.291 368.356
L347.305 368.195
L346.319 368.295
L345.334 368.183
L344.348 368.38
L343.363 368.19
L342.377 368.293
L341.392 368.222
L340.406 368.351
L339.421 368.338
L338.436 368.192
L328.589 368.252
L325.637 368.24
L324.653 368.374
L323.669 368.17
L322.686 368.326
L321.702 368.216
L320.718 368.354
L315.802 368.349
L314.818 368.514
L313.836 368.366
L312.853 368.675
L311.87 368.323
L310.887 368.427
L309.904 368.392
L308.922 368.505
L307.939 368.405
L301.065 368.445
L291.251 368.546
L290.27 368.423
L289.289 368.509
L286.347 368.444
L285.367 368.6
L280.466 368.319
L279.486 368.742
L277.527 368.742
L276.547 368.279
L275.568 368.5
L270.671 368.591
L269.692 368.474
L261.864 368.559
L258.93 368.49
L257.952 368.588
L256.974 368.442
L255.996 368.539
L254.041 368.5
L251.109 368.561
L245.248 368.47
L243.295 368.541
L242.318 368.452
L240.366 368.532
L239.39 368.424
L235.486 368.518
L225.735 368.487
L224.76 368.575
L223.786 368.451
L221.837 368.537
L217.94 368.177
L216.966 368.275
L215.019 368.11
L213.072 368.295
L210.152 368.246
L209.179 368.351
L208.206 368.189
L207.233 368.751
L206.26 368.214
L205.288 368.269
L204.315 368.085
L202.37 368.178
L200.426 368.04
L197.51 367.967
L196.538 367.943
L195.566 367.76
L194.595 367.38
L193.623 367.368
L192.652 367.533
L190.709 367.598
L188.767 367.196
L185.855 367.117
L184.885 367.151
L183.914 367.043
L182.944 366.712
L181.973 366.562
L180.033 365.419
L179.063 364.335
L178.093 363.065
L177.124 361.336
L176.154 360.357
L174.215 360.421
L173.246 360.08
L172.277 359.008
L171.307 357.192
L170.338 354.69
L169.369 351.145
L168.401 345.183
L167.432 334.234
L166.463 313.124
L165.495 275.471
L164.526 212.868
L163.558 126.688
L162.59 68.22
L161.622 134.691
L160.654 185.809
L159.686 220.158
L158.718 293.377
L157.751 335.106
L156.783 350.356
L155.816 357.429
L154.848 361.409
L153.881 363.653
L151.947 365.844
L149.047 366.97
L148.08 367.063
L147.113 367.321
L146.147 367.376
L145.181 367.647
L143.249 367.787
L142.283 368.148
L141.317 367.919
L139.385 368.091
L138.42 368.011
L137.455 368.064
L136.489 367.999
L135.524 368.152
L134.559 368.019
L133.594 368.129
L132.629 368.064
L131.664 368.226
L130.7 368.133
L129.735 368.304
L127.807 368.197
L125.878 368.178
L124.914 368.271
L123.95 368.577
L122.987 368.269
L122.023 368.328
L120.096 368.154
L118.17 368.303
L116.243 368.496
L115.281 368.362
L114.318 368.451
L113.355 368.354
L111.43 368.427
L110.468 368.464
L109.506 368.386
L108.544 368.498
L103.735 368.432
L93.1658 368.436
L91.2457 368.467
L89.326 368.53
L88.3663 368.742
L80.6931 368.742
L80.6931 368.742" style="fill:none;stroke:#008000;stroke-linecap:square;"/>
   </g>
   <g id="line2d_10">
    <path clip-path="url(#p09a64f714b)" d="
M471.155 368.604
L470.16 368.672
L469.164 368.693
L468.169 368.556
L467.173 368.709
L466.178 368.589
L465.183 368.672
L461.203 368.579
L458.219 368.629
L455.236 368.698
L452.253 368.542
L451.259 368.664
L449.271 368.619
L448.277 368.661
L447.283 368.845
L446.29 368.687
L440.329 368.606
L439.336 368.714
L436.356 368.576
L435.364 368.653
L432.385 368.579
L431.393 368.646
L430.4 368.553
L429.408 368.637
L426.431 368.52
L425.439 368.631
L406.602 368.443
L398.679 368.152
L397.689 366.012
L396.699 367.945
L394.72 367.933
L393.73 368.095
L389.772 368.318
L388.783 368.097
L387.794 368.065
L385.815 367.75
L382.849 366.576
L380.871 366.206
L379.883 366.347
L377.906 365.982
L376.918 365.61
L375.929 364.986
L374.941 363.853
L373.953 362.29
L372.965 359.717
L371.977 355.532
L370.989 349.278
L370.001 339.828
L369.014 327.768
L368.026 318.849
L367.039 329.443
L366.051 346.007
L365.064 355.802
L364.077 360.702
L363.089 363.079
L362.102 364.583
L360.128 366.32
L358.155 367.24
L356.181 367.68
L355.195 367.905
L347.305 368.293
L334.496 368.285
L333.512 368.207
L332.527 368.332
L331.543 368.248
L330.558 368.368
L327.605 368.267
L325.637 368.323
L323.669 368.353
L321.702 368.366
L320.718 368.486
L319.735 368.359
L317.768 368.409
L316.785 368.577
L315.802 368.44
L314.818 368.539
L313.836 368.398
L307.939 368.507
L306.957 368.422
L304.992 368.486
L299.101 368.581
L297.138 368.49
L296.157 368.628
L295.175 368.487
L293.213 368.542
L291.251 368.599
L290.27 368.492
L288.308 368.65
L287.328 368.625
L286.347 368.455
L285.367 368.656
L284.387 368.59
L283.406 368.664
L282.426 368.612
L281.446 368.674
L280.466 368.337
L279.486 368.742
L277.527 368.742
L276.547 368.351
L274.588 368.64
L273.609 368.493
L269.692 368.627
L267.735 368.548
L264.799 368.51
L263.82 368.65
L262.842 368.54
L261.864 368.584
L259.908 368.508
L256.974 368.494
L251.109 368.621
L250.132 368.509
L248.178 368.603
L247.201 368.47
L245.248 368.64
L241.342 368.523
L240.366 368.601
L239.39 368.527
L238.414 368.581
L237.438 368.501
L236.462 368.591
L235.486 368.473
L234.511 368.646
L233.535 368.473
L232.56 368.594
L225.735 368.513
L224.76 368.598
L223.786 368.502
L221.837 368.546
L219.888 368.461
L217.94 368.407
L215.993 368.195
L209.179 368.252
L208.206 368.165
L207.233 368.689
L206.26 368.205
L199.454 368.075
L198.482 367.942
L197.51 368.058
L193.623 367.448
L191.681 367.584
L189.738 367.489
L188.767 367.23
L187.797 367.281
L186.826 367.179
L184.885 367.26
L183.914 367.197
L181.973 366.77
L181.003 366.357
L180.033 365.815
L178.093 364.047
L177.124 362.145
L176.154 360.821
L175.185 360.718
L174.215 360.803
L173.246 360.572
L172.277 359.513
L171.307 358.16
L170.338 355.954
L169.369 352.868
L168.401 348.03
L167.432 339.78
L166.463 323.18
L165.495 293.083
L164.526 239.402
L162.59 68.3012
L161.622 100.289
L160.654 174.838
L159.686 200.491
L158.718 270.712
L157.751 325.652
L156.783 346.461
L155.816 355.607
L154.848 360.363
L153.881 363.057
L152.914 364.54
L151.947 365.668
L149.047 366.89
L146.147 367.552
L144.215 367.784
L143.249 367.879
L142.283 368.225
L141.317 367.963
L138.42 368.121
L136.489 368.225
L135.524 368.307
L134.559 368.104
L133.594 368.255
L132.629 368.227
L131.664 368.36
L130.7 368.133
L129.735 368.269
L128.771 368.23
L126.842 368.372
L125.878 368.285
L123.95 368.45
L122.023 368.269
L116.243 368.372
L113.355 368.439
L112.393 368.558
L105.658 368.493
L102.774 368.571
L99.89 368.481
L98.9291 368.6
L97.0075 368.535
L96.0469 368.587
L95.0864 368.501
L93.1658 368.537
L92.2057 368.444
L89.326 368.57
L88.3663 368.742
L80.6931 368.742
L80.6931 368.742" style="fill:none;stroke:#800080;stroke-linecap:square;"/>
   </g>
   <g id="line2d_11">
    <path clip-path="url(#p09a64f714b)" d="
M471.155 368.568
L470.16 368.73
L468.169 368.565
L467.173 368.729
L464.188 368.64
L456.23 368.557
L455.236 368.713
L454.242 368.6
L453.247 368.659
L452.253 368.563
L451.259 368.655
L450.265 368.597
L447.283 368.798
L445.296 368.644
L444.302 368.643
L443.309 368.794
L442.316 368.772
L441.322 368.573
L439.336 368.716
L438.343 368.594
L435.364 368.63
L434.371 368.738
L433.378 368.585
L431.393 368.707
L422.463 368.432
L420.479 368.74
L418.496 368.651
L414.53 368.699
L412.547 368.51
L410.565 368.582
L408.584 368.517
L407.593 368.569
L406.602 368.383
L405.611 368.454
L403.63 368.253
L402.64 368.296
L399.669 368.035
L398.679 368.204
L397.689 367.289
L396.699 368.001
L395.71 367.85
L392.74 368.227
L391.751 368.145
L390.761 368.192
L389.772 368.367
L388.783 368.104
L387.794 368.108
L385.815 367.736
L381.86 366.313
L380.871 366.208
L377.906 366.133
L376.918 365.792
L375.929 365.103
L373.953 362.829
L372.965 360.387
L371.977 356.432
L370.989 350.311
L370.001 341.385
L369.014 329.154
L368.026 318.95
L367.039 326.473
L366.051 343.418
L365.064 354.28
L364.077 360.152
L363.089 362.83
L362.102 364.436
L361.115 365.486
L360.128 366.241
L358.155 367.225
L356.181 367.659
L355.195 367.961
L353.222 367.927
L352.236 367.908
L351.249 368.241
L349.277 368.261
L347.305 368.385
L346.319 368.204
L336.466 368.315
L334.496 368.263
L333.512 368.201
L332.527 368.357
L331.543 368.205
L330.558 368.297
L327.605 368.29
L323.669 368.438
L322.686 368.235
L321.702 368.342
L320.718 368.767
L319.735 368.365
L317.768 368.417
L316.785 368.533
L313.836 368.424
L312.853 368.328
L311.87 368.461
L310.887 368.196
L308.922 368.549
L304.992 368.455
L303.028 368.515
L302.046 368.464
L300.083 368.568
L299.101 368.619
L298.119 368.417
L297.138 368.43
L296.157 368.634
L294.194 368.422
L292.232 368.638
L290.27 368.507
L289.289 368.624
L288.308 368.609
L287.328 368.721
L286.347 368.462
L285.367 368.629
L284.387 368.438
L283.406 368.699
L281.446 368.649
L280.466 368.195
L279.486 368.742
L277.527 368.742
L276.547 368.253
L275.568 368.393
L274.588 368.706
L273.609 368.516
L272.629 368.581
L271.65 368.514
L270.671 368.626
L267.735 368.537
L259.908 368.475
L255.996 368.532
L255.019 368.644
L252.086 368.539
L251.109 368.63
L250.132 368.491
L249.155 368.578
L248.178 368.385
L245.248 368.551
L242.318 368.495
L240.366 368.606
L239.39 368.566
L238.414 368.705
L237.438 368.525
L236.462 368.63
L235.486 368.484
L234.511 368.573
L233.535 368.438
L230.609 368.659
L229.634 368.567
L228.659 368.633
L226.709 368.502
L225.735 368.498
L224.76 368.685
L223.786 368.42
L221.837 368.583
L220.862 368.408
L219.888 368.555
L218.914 368.433
L217.94 368.456
L216.966 368.255
L213.072 368.316
L212.099 368.377
L208.206 368.137
L207.233 368.679
L206.26 368.215
L203.343 368.296
L202.37 368.351
L201.398 368.157
L197.51 368.038
L193.623 367.436
L191.681 367.631
L189.738 367.549
L188.767 367.219
L187.797 367.315
L186.826 367.23
L185.855 367.299
L183.914 367.248
L181.003 366.528
L179.063 365.228
L178.093 364.38
L177.124 362.463
L176.154 361.055
L175.185 360.747
L174.215 360.755
L173.246 360.523
L172.277 359.648
L171.307 358.493
L170.338 356.344
L169.369 353.585
L168.401 349.356
L167.432 341.621
L166.463 326.99
L165.495 300.449
L164.526 251.424
L163.558 173.583
L162.59 82.1301
L161.622 83.9967
L160.654 164.083
L159.686 195.144
L157.751 317.944
L156.783 343.654
L155.816 354.163
L154.848 359.431
L153.881 362.632
L152.914 364.355
L151.947 365.708
L150.98 365.92
L150.013 366.438
L148.08 367.113
L147.113 367.219
L146.147 367.553
L145.181 367.597
L144.215 367.841
L143.249 367.804
L142.283 368.212
L141.317 367.845
L140.351 368.156
L137.455 368.132
L135.524 368.353
L134.559 368.1
L133.594 368.291
L132.629 368.218
L131.664 368.327
L130.7 368.19
L128.771 368.218
L125.878 368.435
L124.914 368.314
L122.987 368.367
L119.133 368.219
L117.206 368.217
L116.243 368.413
L113.355 368.436
L112.393 368.573
L108.544 368.596
L107.582 368.332
L106.62 368.592
L105.658 368.489
L104.696 368.557
L103.735 368.443
L102.774 368.583
L99.89 368.475
L98.9291 368.627
L97.0075 368.403
L96.0469 368.578
L94.1261 368.477
L93.1658 368.553
L91.2457 368.376
L87.4067 368.742
L80.6931 368.742
L80.6931 368.742" style="fill:none;stroke:#ff0000;stroke-linecap:square;"/>
   </g>
   <g id="patch_3">
    <path d="
M55.2671 23.1417
L501.667 23.1417" style="fill:none;stroke:#000000;stroke-linecap:square;stroke-linejoin:miter;"/>
   </g>
   <g id="patch_4">
    <path d="
M501.667 368.742
L501.667 23.1417" style="fill:none;stroke:#000000;stroke-linecap:square;stroke-linejoin:miter;"/>
   </g>
   <g id="patch_5">
    <path d="
M55.2671 368.742
L501.667 368.742" style="fill:none;stroke:#000000;stroke-linecap:square;stroke-linejoin:miter;"/>
   </g>
   <g id="patch_6">
    <path d="
M55.2671 368.742
L55.2671 23.1417" style="fill:none;stroke:#000000;stroke-linecap:square;stroke-linejoin:miter;"/>
   </g>
   <g id="matplotlib.axis_1">
    <g id="xtick_1">
     <g id="line2d_12">
      <defs>
       <path d="
M0 0
L0 -4" id="m93b0483c22" style="stroke:#000000;stroke-width:0.5;"/>
      </defs>
      <g>
       <use style="stroke:#000000;stroke-width:0.5;" x="55.267125" xlink:href="#m93b0483c22" y="368.74175"/>
      </g>
     </g>
     <g id="line2d_13">
      <defs>
       <path d="
M0 0
L0 4" id="m741efc42ff" style="stroke:#000000;stroke-width:0.5;"/>
      </defs>
      <g>
       <use style="stroke:#000000;stroke-width:0.5;" x="55.267125" xlink:href="#m741efc42ff" y="23.14175"/>
      </g>
     </g>
     <g id="text_1">
      <!-- 3900 -->
      <defs>
       <path d="
M40.5781 39.3125
Q47.6562 37.7969 51.625 33
Q55.6094 28.2188 55.6094 21.1875
Q55.6094 10.4062 48.1875 4.48438
Q40.7656 -1.42188 27.0938 -1.42188
Q22.5156 -1.42188 17.6562 -0.515625
Q12.7969 0.390625 7.625 2.20312
L7.625 11.7188
Q11.7188 9.32812 16.5938 8.10938
Q21.4844 6.89062 26.8125 6.89062
Q36.0781 6.89062 40.9375 10.5469
Q45.7969 14.2031 45.7969 21.1875
Q45.7969 27.6406 41.2812 31.2656
Q36.7656 34.9062 28.7188 34.9062
L20.2188 34.9062
L20.2188 43.0156
L29.1094 43.0156
Q36.375 43.0156 40.2344 45.9219
Q44.0938 48.8281 44.0938 54.2969
Q44.0938 59.9062 40.1094 62.9062
Q36.1406 65.9219 28.7188 65.9219
Q24.6562 65.9219 20.0156 65.0312
Q15.375 64.1562 9.8125 62.3125
L9.8125 71.0938
Q15.4375 72.6562 20.3438 73.4375
Q25.25 74.2188 29.5938 74.2188
Q40.8281 74.2188 47.3594 69.1094
Q53.9062 64.0156 53.9062 55.3281
Q53.9062 49.2656 50.4375 45.0938
Q46.9688 40.9219 40.5781 39.3125" id="BitstreamVeraSans-Roman-33"/>
       <path d="
M31.7812 66.4062
Q24.1719 66.4062 20.3281 58.9062
Q16.5 51.4219 16.5 36.375
Q16.5 21.3906 20.3281 13.8906
Q24.1719 6.39062 31.7812 6.39062
Q39.4531 6.39062 43.2812 13.8906
Q47.125 21.3906 47.125 36.375
Q47.125 51.4219 43.2812 58.9062
Q39.4531 66.4062 31.7812 66.4062
M31.7812 74.2188
Q44.0469 74.2188 50.5156 64.5156
Q56.9844 54.8281 56.9844 36.375
Q56.9844 17.9688 50.5156 8.26562
Q44.0469 -1.42188 31.7812 -1.42188
Q19.5312 -1.42188 13.0625 8.26562
Q6.59375 17.9688 6.59375 36.375
Q6.59375 54.8281 13.0625 64.5156
Q19.5312 74.2188 31.7812 74.2188" id="BitstreamVeraSans-Roman-30"/>
       <path d="
M10.9844 1.51562
L10.9844 10.5
Q14.7031 8.73438 18.5 7.8125
Q22.3125 6.89062 25.9844 6.89062
Q35.75 6.89062 40.8906 13.4531
Q46.0469 20.0156 46.7812 33.4062
Q43.9531 29.2031 39.5938 26.9531
Q35.25 24.7031 29.9844 24.7031
Q19.0469 24.7031 12.6719 31.3125
Q6.29688 37.9375 6.29688 49.4219
Q6.29688 60.6406 12.9375 67.4219
Q19.5781 74.2188 30.6094 74.2188
Q43.2656 74.2188 49.9219 64.5156
Q56.5938 54.8281 56.5938 36.375
Q56.5938 19.1406 48.4062 8.85938
Q40.2344 -1.42188 26.4219 -1.42188
Q22.7031 -1.42188 18.8906 -0.6875
Q15.0938 0.046875 10.9844 1.51562
M30.6094 32.4219
Q37.25 32.4219 41.125 36.9531
Q45.0156 41.5 45.0156 49.4219
Q45.0156 57.2812 41.125 61.8438
Q37.25 66.4062 30.6094 66.4062
Q23.9688 66.4062 20.0938 61.8438
Q16.2188 57.2812 16.2188 49.4219
Q16.2188 41.5 20.0938 36.9531
Q23.9688 32.4219 30.6094 32.4219" id="BitstreamVeraSans-Roman-39"/>
      </defs>
      <g transform="translate(40.8530625 381.859875)scale(0.12 -0.12)">
       <use xlink:href="#BitstreamVeraSans-Roman-33"/>
       <use x="63.623046875" xlink:href="#BitstreamVeraSans-Roman-39"/>
       <use x="127.24609375" xlink:href="#BitstreamVeraSans-Roman-30"/>
       <use x="190.869140625" xlink:href="#BitstreamVeraSans-Roman-30"/>
      </g>
     </g>
    </g>
    <g id="xtick_2">
     <g id="line2d_14">
      <g>
       <use style="stroke:#000000;stroke-width:0.5;" x="111.067125" xlink:href="#m93b0483c22" y="368.74175"/>
      </g>
     </g>
     <g id="line2d_15">
      <g>
       <use style="stroke:#000000;stroke-width:0.5;" x="111.067125" xlink:href="#m741efc42ff" y="23.14175"/>
      </g>
     </g>
     <g id="text_2">
      <!-- 4000 -->
      <defs>
       <path d="
M37.7969 64.3125
L12.8906 25.3906
L37.7969 25.3906
z

M35.2031 72.9062
L47.6094 72.9062
L47.6094 25.3906
L58.0156 25.3906
L58.0156 17.1875
L47.6094 17.1875
L47.6094 0
L37.7969 0
L37.7969 17.1875
L4.89062 17.1875
L4.89062 26.7031
z
" id="BitstreamVeraSans-Roman-34"/>
      </defs>
      <g transform="translate(96.489 381.859875)scale(0.12 -0.12)">
       <use xlink:href="#BitstreamVeraSans-Roman-34"/>
       <use x="63.623046875" xlink:href="#BitstreamVeraSans-Roman-30"/>
       <use x="127.24609375" xlink:href="#BitstreamVeraSans-Roman-30"/>
       <use x="190.869140625" xlink:href="#BitstreamVeraSans-Roman-30"/>
      </g>
     </g>
    </g>
    <g id="xtick_3">
     <g id="line2d_16">
      <g>
       <use style="stroke:#000000;stroke-width:0.5;" x="166.867125" xlink:href="#m93b0483c22" y="368.74175"/>
      </g>
     </g>
     <g id="line2d_17">
      <g>
       <use style="stroke:#000000;stroke-width:0.5;" x="166.867125" xlink:href="#m741efc42ff" y="23.14175"/>
      </g>
     </g>
     <g id="text_3">
      <!-- 4100 -->
      <defs>
       <path d="
M12.4062 8.29688
L28.5156 8.29688
L28.5156 63.9219
L10.9844 60.4062
L10.9844 69.3906
L28.4219 72.9062
L38.2812 72.9062
L38.2812 8.29688
L54.3906 8.29688
L54.3906 0
L12.4062 0
z
" id="BitstreamVeraSans-Roman-31"/>
      </defs>
      <g transform="translate(152.289 381.859875)scale(0.12 -0.12)">
       <use xlink:href="#BitstreamVeraSans-Roman-34"/>
       <use x="63.623046875" xlink:href="#BitstreamVeraSans-Roman-31"/>
       <use x="127.24609375" xlink:href="#BitstreamVeraSans-Roman-30"/>
       <use x="190.869140625" xlink:href="#BitstreamVeraSans-Roman-30"/>
      </g>
     </g>
    </g>
    <g id="xtick_4">
     <g id="line2d_18">
      <g>
       <use style="stroke:#000000;stroke-width:0.5;" x="222.667125" xlink:href="#m93b0483c22" y="368.74175"/>
      </g>
     </g>
     <g id="line2d_19">
      <g>
       <use style="stroke:#000000;stroke-width:0.5;" x="222.667125" xlink:href="#m741efc42ff" y="23.14175"/>
      </g>
     </g>
     <g id="text_4">
      <!-- 4200 -->
      <defs>
       <path d="
M19.1875 8.29688
L53.6094 8.29688
L53.6094 0
L7.32812 0
L7.32812 8.29688
Q12.9375 14.1094 22.625 23.8906
Q32.3281 33.6875 34.8125 36.5312
Q39.5469 41.8438 41.4219 45.5312
Q43.3125 49.2188 43.3125 52.7812
Q43.3125 58.5938 39.2344 62.25
Q35.1562 65.9219 28.6094 65.9219
Q23.9688 65.9219 18.8125 64.3125
Q13.6719 62.7031 7.8125 59.4219
L7.8125 69.3906
Q13.7656 71.7812 18.9375 73
Q24.125 74.2188 28.4219 74.2188
Q39.75 74.2188 46.4844 68.5469
Q53.2188 62.8906 53.2188 53.4219
Q53.2188 48.9219 51.5312 44.8906
Q49.8594 40.875 45.4062 35.4062
Q44.1875 33.9844 37.6406 27.2188
Q31.1094 20.4531 19.1875 8.29688" id="BitstreamVeraSans-Roman-32"/>
      </defs>
      <g transform="translate(208.089 381.859875)scale(0.12 -0.12)">
       <use xlink:href="#BitstreamVeraSans-Roman-34"/>
       <use x="63.623046875" xlink:href="#BitstreamVeraSans-Roman-32"/>
       <use x="127.24609375" xlink:href="#BitstreamVeraSans-Roman-30"/>
       <use x="190.869140625" xlink:href="#BitstreamVeraSans-Roman-30"/>
      </g>
     </g>
    </g>
    <g id="xtick_5">
     <g id="line2d_20">
      <g>
       <use style="stroke:#000000;stroke-width:0.5;" x="278.467125" xlink:href="#m93b0483c22" y="368.74175"/>
      </g>
     </g>
     <g id="line2d_21">
      <g>
       <use style="stroke:#000000;stroke-width:0.5;" x="278.467125" xlink:href="#m741efc42ff" y="23.14175"/>
      </g>
     </g>
     <g id="text_5">
      <!-- 4300 -->
      <g transform="translate(263.889 381.859875)scale(0.12 -0.12)">
       <use xlink:href="#BitstreamVeraSans-Roman-34"/>
       <use x="63.623046875" xlink:href="#BitstreamVeraSans-Roman-33"/>
       <use x="127.24609375" xlink:href="#BitstreamVeraSans-Roman-30"/>
       <use x="190.869140625" xlink:href="#BitstreamVeraSans-Roman-30"/>
      </g>
     </g>
    </g>
    <g id="xtick_6">
     <g id="line2d_22">
      <g>
       <use style="stroke:#000000;stroke-width:0.5;" x="334.267125" xlink:href="#m93b0483c22" y="368.74175"/>
      </g>
     </g>
     <g id="line2d_23">
      <g>
       <use style="stroke:#000000;stroke-width:0.5;" x="334.267125" xlink:href="#m741efc42ff" y="23.14175"/>
      </g>
     </g>
     <g id="text_6">
      <!-- 4400 -->
      <g transform="translate(319.689 381.859875)scale(0.12 -0.12)">
       <use xlink:href="#BitstreamVeraSans-Roman-34"/>
       <use x="63.623046875" xlink:href="#BitstreamVeraSans-Roman-34"/>
       <use x="127.24609375" xlink:href="#BitstreamVeraSans-Roman-30"/>
       <use x="190.869140625" xlink:href="#BitstreamVeraSans-Roman-30"/>
      </g>
     </g>
    </g>
    <g id="xtick_7">
     <g id="line2d_24">
      <g>
       <use style="stroke:#000000;stroke-width:0.5;" x="390.067125" xlink:href="#m93b0483c22" y="368.74175"/>
      </g>
     </g>
     <g id="line2d_25">
      <g>
       <use style="stroke:#000000;stroke-width:0.5;" x="390.067125" xlink:href="#m741efc42ff" y="23.14175"/>
      </g>
     </g>
     <g id="text_7">
      <!-- 4500 -->
      <defs>
       <path d="
M10.7969 72.9062
L49.5156 72.9062
L49.5156 64.5938
L19.8281 64.5938
L19.8281 46.7344
Q21.9688 47.4688 24.1094 47.8281
Q26.2656 48.1875 28.4219 48.1875
Q40.625 48.1875 47.75 41.5
Q54.8906 34.8125 54.8906 23.3906
Q54.8906 11.625 47.5625 5.09375
Q40.2344 -1.42188 26.9062 -1.42188
Q22.3125 -1.42188 17.5469 -0.640625
Q12.7969 0.140625 7.71875 1.70312
L7.71875 11.625
Q12.1094 9.23438 16.7969 8.0625
Q21.4844 6.89062 26.7031 6.89062
Q35.1562 6.89062 40.0781 11.3281
Q45.0156 15.7656 45.0156 23.3906
Q45.0156 31 40.0781 35.4375
Q35.1562 39.8906 26.7031 39.8906
Q22.75 39.8906 18.8125 39.0156
Q14.8906 38.1406 10.7969 36.2812
z
" id="BitstreamVeraSans-Roman-35"/>
      </defs>
      <g transform="translate(375.489 381.859875)scale(0.12 -0.12)">
       <use xlink:href="#BitstreamVeraSans-Roman-34"/>
       <use x="63.623046875" xlink:href="#BitstreamVeraSans-Roman-35"/>
       <use x="127.24609375" xlink:href="#BitstreamVeraSans-Roman-30"/>
       <use x="190.869140625" xlink:href="#BitstreamVeraSans-Roman-30"/>
      </g>
     </g>
    </g>
    <g id="xtick_8">
     <g id="line2d_26">
      <g>
       <use style="stroke:#000000;stroke-width:0.5;" x="445.867125" xlink:href="#m93b0483c22" y="368.74175"/>
      </g>
     </g>
     <g id="line2d_27">
      <g>
       <use style="stroke:#000000;stroke-width:0.5;" x="445.867125" xlink:href="#m741efc42ff" y="23.14175"/>
      </g>
     </g>
     <g id="text_8">
      <!-- 4600 -->
      <defs>
       <path d="
M33.0156 40.375
Q26.375 40.375 22.4844 35.8281
Q18.6094 31.2969 18.6094 23.3906
Q18.6094 15.5312 22.4844 10.9531
Q26.375 6.39062 33.0156 6.39062
Q39.6562 6.39062 43.5312 10.9531
Q47.4062 15.5312 47.4062 23.3906
Q47.4062 31.2969 43.5312 35.8281
Q39.6562 40.375 33.0156 40.375
M52.5938 71.2969
L52.5938 62.3125
Q48.875 64.0625 45.0938 64.9844
Q41.3125 65.9219 37.5938 65.9219
Q27.8281 65.9219 22.6719 59.3281
Q17.5312 52.7344 16.7969 39.4062
Q19.6719 43.6562 24.0156 45.9219
Q28.375 48.1875 33.5938 48.1875
Q44.5781 48.1875 50.9531 41.5156
Q57.3281 34.8594 57.3281 23.3906
Q57.3281 12.1562 50.6875 5.35938
Q44.0469 -1.42188 33.0156 -1.42188
Q20.3594 -1.42188 13.6719 8.26562
Q6.98438 17.9688 6.98438 36.375
Q6.98438 53.6562 15.1875 63.9375
Q23.3906 74.2188 37.2031 74.2188
Q40.9219 74.2188 44.7031 73.4844
Q48.4844 72.75 52.5938 71.2969" id="BitstreamVeraSans-Roman-36"/>
      </defs>
      <g transform="translate(431.289 381.859875)scale(0.12 -0.12)">
       <use xlink:href="#BitstreamVeraSans-Roman-34"/>
       <use x="63.623046875" xlink:href="#BitstreamVeraSans-Roman-36"/>
       <use x="127.24609375" xlink:href="#BitstreamVeraSans-Roman-30"/>
       <use x="190.869140625" xlink:href="#BitstreamVeraSans-Roman-30"/>
      </g>
     </g>
    </g>
    <g id="xtick_9">
     <g id="line2d_28">
      <g>
       <use style="stroke:#000000;stroke-width:0.5;" x="501.667125" xlink:href="#m93b0483c22" y="368.74175"/>
      </g>
     </g>
     <g id="line2d_29">
      <g>
       <use style="stroke:#000000;stroke-width:0.5;" x="501.667125" xlink:href="#m741efc42ff" y="23.14175"/>
      </g>
     </g>
     <g id="text_9">
      <!-- 4700 -->
      <defs>
       <path d="
M8.20312 72.9062
L55.0781 72.9062
L55.0781 68.7031
L28.6094 0
L18.3125 0
L43.2188 64.5938
L8.20312 64.5938
z
" id="BitstreamVeraSans-Roman-37"/>
      </defs>
      <g transform="translate(487.089 381.859875)scale(0.12 -0.12)">
       <use xlink:href="#BitstreamVeraSans-Roman-34"/>
       <use x="63.623046875" xlink:href="#BitstreamVeraSans-Roman-37"/>
       <use x="127.24609375" xlink:href="#BitstreamVeraSans-Roman-30"/>
       <use x="190.869140625" xlink:href="#BitstreamVeraSans-Roman-30"/>
      </g>
     </g>
    </g>
    <g id="text_10">
     <!-- Energy (eV) -->
     <defs>
      <path id="BitstreamVeraSans-Roman-20"/>
      <path d="
M54.8906 33.0156
L54.8906 0
L45.9062 0
L45.9062 32.7188
Q45.9062 40.4844 42.875 44.3281
Q39.8438 48.1875 33.7969 48.1875
Q26.5156 48.1875 22.3125 43.5469
Q18.1094 38.9219 18.1094 30.9062
L18.1094 0
L9.07812 0
L9.07812 54.6875
L18.1094 54.6875
L18.1094 46.1875
Q21.3438 51.125 25.7031 53.5625
Q30.0781 56 35.7969 56
Q45.2188 56 50.0469 50.1719
Q54.8906 44.3438 54.8906 33.0156" id="BitstreamVeraSans-Roman-6e"/>
      <path d="
M31 75.875
Q24.4688 64.6562 21.2812 53.6562
Q18.1094 42.6719 18.1094 31.3906
Q18.1094 20.125 21.3125 9.0625
Q24.5156 -2 31 -13.1875
L23.1875 -13.1875
Q15.875 -1.70312 12.2344 9.375
Q8.59375 20.4531 8.59375 31.3906
Q8.59375 42.2812 12.2031 53.3125
Q15.8281 64.3594 23.1875 75.875
z
" id="BitstreamVeraSans-Roman-28"/>
      <path d="
M8.01562 75.875
L15.8281 75.875
Q23.1406 64.3594 26.7812 53.3125
Q30.4219 42.2812 30.4219 31.3906
Q30.4219 20.4531 26.7812 9.375
Q23.1406 -1.70312 15.8281 -13.1875
L8.01562 -13.1875
Q14.5 -2 17.7031 9.0625
Q20.9062 20.125 20.9062 31.3906
Q20.9062 42.6719 17.7031 53.6562
Q14.5 64.6562 8.01562 75.875" id="BitstreamVeraSans-Roman-29"/>
      <path d="
M9.8125 72.9062
L55.9062 72.9062
L55.9062 64.5938
L19.6719 64.5938
L19.6719 43.0156
L54.3906 43.0156
L54.3906 34.7188
L19.6719 34.7188
L19.6719 8.29688
L56.7812 8.29688
L56.7812 0
L9.8125 0
z
" id="BitstreamVeraSans-Roman-45"/>
      <path d="
M28.6094 0
L0.78125 72.9062
L11.0781 72.9062
L34.1875 11.5312
L57.3281 72.9062
L67.5781 72.9062
L39.7969 0
z
" id="BitstreamVeraSans-Roman-56"/>
      <path d="
M32.1719 -5.07812
Q28.375 -14.8438 24.75 -17.8125
Q21.1406 -20.7969 15.0938 -20.7969
L7.90625 -20.7969
L7.90625 -13.2812
L13.1875 -13.2812
Q16.8906 -13.2812 18.9375 -11.5156
Q21 -9.76562 23.4844 -3.21875
L25.0938 0.875
L2.98438 54.6875
L12.5 54.6875
L29.5938 11.9219
L46.6875 54.6875
L56.2031 54.6875
z
" id="BitstreamVeraSans-Roman-79"/>
      <path d="
M56.2031 29.5938
L56.2031 25.2031
L14.8906 25.2031
Q15.4844 15.9219 20.4844 11.0625
Q25.4844 6.20312 34.4219 6.20312
Q39.5938 6.20312 44.4531 7.46875
Q49.3125 8.73438 54.1094 11.2812
L54.1094 2.78125
Q49.2656 0.734375 44.1875 -0.34375
Q39.1094 -1.42188 33.8906 -1.42188
Q20.7969 -1.42188 13.1562 6.1875
Q5.51562 13.8125 5.51562 26.8125
Q5.51562 40.2344 12.7656 48.1094
Q20.0156 56 32.3281 56
Q43.3594 56 49.7812 48.8906
Q56.2031 41.7969 56.2031 29.5938
M47.2188 32.2344
Q47.125 39.5938 43.0938 43.9844
Q39.0625 48.3906 32.4219 48.3906
Q24.9062 48.3906 20.3906 44.1406
Q15.875 39.8906 15.1875 32.1719
z
" id="BitstreamVeraSans-Roman-65"/>
      <path d="
M45.4062 27.9844
Q45.4062 37.75 41.375 43.1094
Q37.3594 48.4844 30.0781 48.4844
Q22.8594 48.4844 18.8281 43.1094
Q14.7969 37.75 14.7969 27.9844
Q14.7969 18.2656 18.8281 12.8906
Q22.8594 7.51562 30.0781 7.51562
Q37.3594 7.51562 41.375 12.8906
Q45.4062 18.2656 45.4062 27.9844
M54.3906 6.78125
Q54.3906 -7.17188 48.1875 -13.9844
Q42 -20.7969 29.2031 -20.7969
Q24.4688 -20.7969 20.2656 -20.0938
Q16.0625 -19.3906 12.1094 -17.9219
L12.1094 -9.1875
Q16.0625 -11.3281 19.9219 -12.3438
Q23.7812 -13.375 27.7812 -13.375
Q36.625 -13.375 41.0156 -8.76562
Q45.4062 -4.15625 45.4062 5.17188
L45.4062 9.625
Q42.625 4.78125 38.2812 2.39062
Q33.9375 0 27.875 0
Q17.8281 0 11.6719 7.65625
Q5.51562 15.3281 5.51562 27.9844
Q5.51562 40.6719 11.6719 48.3281
Q17.8281 56 27.875 56
Q33.9375 56 38.2812 53.6094
Q42.625 51.2188 45.4062 46.3906
L45.4062 54.6875
L54.3906 54.6875
z
" id="BitstreamVeraSans-Roman-67"/>
      <path d="
M41.1094 46.2969
Q39.5938 47.1719 37.8125 47.5781
Q36.0312 48 33.8906 48
Q26.2656 48 22.1875 43.0469
Q18.1094 38.0938 18.1094 28.8125
L18.1094 0
L9.07812 0
L9.07812 54.6875
L18.1094 54.6875
L18.1094 46.1875
Q20.9531 51.1719 25.4844 53.5781
Q30.0312 56 36.5312 56
Q37.4531 56 38.5781 55.875
Q39.7031 55.7656 41.0625 55.5156
z
" id="BitstreamVeraSans-Roman-72"/>
     </defs>
     <g transform="translate(236.614875 400.29725)scale(0.144 -0.144)">
      <use xlink:href="#BitstreamVeraSans-Roman-45"/>
      <use x="63.18359375" xlink:href="#BitstreamVeraSans-Roman-6e"/>
      <use x="126.5625" xlink:href="#BitstreamVeraSans-Roman-65"/>
      <use x="188.0859375" xlink:href="#BitstreamVeraSans-Roman-72"/>
      <use x="227.44921875" xlink:href="#BitstreamVeraSans-Roman-67"/>
      <use x="290.92578125" xlink:href="#BitstreamVeraSans-Roman-79"/>
      <use x="350.10546875" xlink:href="#BitstreamVeraSans-Roman-20"/>
      <use x="381.892578125" xlink:href="#BitstreamVeraSans-Roman-28"/>
      <use x="420.90625" xlink:href="#BitstreamVeraSans-Roman-65"/>
      <use x="482.4296875" xlink:href="#BitstreamVeraSans-Roman-56"/>
      <use x="550.837890625" xlink:href="#BitstreamVeraSans-Roman-29"/>
     </g>
    </g>
   </g>
   <g id="matplotlib.axis_2">
    <g id="ytick_1">
     <g id="line2d_30">
      <defs>
       <path d="
M0 0
L4 0" id="m728421d6d4" style="stroke:#000000;stroke-width:0.5;"/>
      </defs>
      <g>
       <use style="stroke:#000000;stroke-width:0.5;" x="55.267125" xlink:href="#m728421d6d4" y="368.74175"/>
      </g>
     </g>
     <g id="line2d_31">
      <defs>
       <path d="
M0 0
L-4 0" id="mcb0005524f" style="stroke:#000000;stroke-width:0.5;"/>
      </defs>
      <g>
       <use style="stroke:#000000;stroke-width:0.5;" x="501.667125" xlink:href="#mcb0005524f" y="368.74175"/>
      </g>
     </g>
     <g id="text_11">
      <!-- 0.00 -->
      <defs>
       <path d="
M10.6875 12.4062
L21 12.4062
L21 0
L10.6875 0
z
" id="BitstreamVeraSans-Roman-2e"/>
      </defs>
      <g transform="translate(26.1365 372.053)scale(0.12 -0.12)">
       <use xlink:href="#BitstreamVeraSans-Roman-30"/>
       <use x="63.623046875" xlink:href="#BitstreamVeraSans-Roman-2e"/>
       <use x="95.41015625" xlink:href="#BitstreamVeraSans-Roman-30"/>
       <use x="159.033203125" xlink:href="#BitstreamVeraSans-Roman-30"/>
      </g>
     </g>
    </g>
    <g id="ytick_2">
     <g id="line2d_32">
      <g>
       <use style="stroke:#000000;stroke-width:0.5;" x="55.267125" xlink:href="#m728421d6d4" y="279.133577773"/>
      </g>
     </g>
     <g id="line2d_33">
      <g>
       <use style="stroke:#000000;stroke-width:0.5;" x="501.667125" xlink:href="#mcb0005524f" y="279.133577773"/>
      </g>
     </g>
     <g id="text_12">
      <!-- 0.05 -->
      <g transform="translate(26.38775 282.444827773)scale(0.12 -0.12)">
       <use xlink:href="#BitstreamVeraSans-Roman-30"/>
       <use x="63.623046875" xlink:href="#BitstreamVeraSans-Roman-2e"/>
       <use x="95.41015625" xlink:href="#BitstreamVeraSans-Roman-30"/>
       <use x="159.033203125" xlink:href="#BitstreamVeraSans-Roman-35"/>
      </g>
     </g>
    </g>
    <g id="ytick_3">
     <g id="line2d_34">
      <g>
       <use style="stroke:#000000;stroke-width:0.5;" x="55.267125" xlink:href="#m728421d6d4" y="189.525405547"/>
      </g>
     </g>
     <g id="line2d_35">
      <g>
       <use style="stroke:#000000;stroke-width:0.5;" x="501.667125" xlink:href="#mcb0005524f" y="189.525405547"/>
      </g>
     </g>
     <g id="text_13">
      <!-- 0.10 -->
      <g transform="translate(26.1365 192.836655547)scale(0.12 -0.12)">
       <use xlink:href="#BitstreamVeraSans-Roman-30"/>
       <use x="63.623046875" xlink:href="#BitstreamVeraSans-Roman-2e"/>
       <use x="95.41015625" xlink:href="#BitstreamVeraSans-Roman-31"/>
       <use x="159.033203125" xlink:href="#BitstreamVeraSans-Roman-30"/>
      </g>
     </g>
    </g>
    <g id="ytick_4">
     <g id="line2d_36">
      <g>
       <use style="stroke:#000000;stroke-width:0.5;" x="55.267125" xlink:href="#m728421d6d4" y="99.9172333203"/>
      </g>
     </g>
     <g id="line2d_37">
      <g>
       <use style="stroke:#000000;stroke-width:0.5;" x="501.667125" xlink:href="#mcb0005524f" y="99.9172333203"/>
      </g>
     </g>
     <g id="text_14">
      <!-- 0.15 -->
      <g transform="translate(26.38775 103.22848332)scale(0.12 -0.12)">
       <use xlink:href="#BitstreamVeraSans-Roman-30"/>
       <use x="63.623046875" xlink:href="#BitstreamVeraSans-Roman-2e"/>
       <use x="95.41015625" xlink:href="#BitstreamVeraSans-Roman-31"/>
       <use x="159.033203125" xlink:href="#BitstreamVeraSans-Roman-35"/>
      </g>
     </g>
    </g>
    <g id="text_15">
     <!-- Counts -->
     <defs>
      <path d="
M8.5 21.5781
L8.5 54.6875
L17.4844 54.6875
L17.4844 21.9219
Q17.4844 14.1562 20.5 10.2656
Q23.5312 6.39062 29.5938 6.39062
Q36.8594 6.39062 41.0781 11.0312
Q45.3125 15.6719 45.3125 23.6875
L45.3125 54.6875
L54.2969 54.6875
L54.2969 0
L45.3125 0
L45.3125 8.40625
Q42.0469 3.42188 37.7188 1
Q33.4062 -1.42188 27.6875 -1.42188
Q18.2656 -1.42188 13.375 4.4375
Q8.5 10.2969 8.5 21.5781" id="BitstreamVeraSans-Roman-75"/>
      <path d="
M30.6094 48.3906
Q23.3906 48.3906 19.1875 42.75
Q14.9844 37.1094 14.9844 27.2969
Q14.9844 17.4844 19.1562 11.8438
Q23.3438 6.20312 30.6094 6.20312
Q37.7969 6.20312 41.9844 11.8594
Q46.1875 17.5312 46.1875 27.2969
Q46.1875 37.0156 41.9844 42.7031
Q37.7969 48.3906 30.6094 48.3906
M30.6094 56
Q42.3281 56 49.0156 48.375
Q55.7188 40.7656 55.7188 27.2969
Q55.7188 13.875 49.0156 6.21875
Q42.3281 -1.42188 30.6094 -1.42188
Q18.8438 -1.42188 12.1719 6.21875
Q5.51562 13.875 5.51562 27.2969
Q5.51562 40.7656 12.1719 48.375
Q18.8438 56 30.6094 56" id="BitstreamVeraSans-Roman-6f"/>
      <path d="
M64.4062 67.2812
L64.4062 56.8906
Q59.4219 61.5312 53.7812 63.8125
Q48.1406 66.1094 41.7969 66.1094
Q29.2969 66.1094 22.6562 58.4688
Q16.0156 50.8281 16.0156 36.375
Q16.0156 21.9688 22.6562 14.3281
Q29.2969 6.6875 41.7969 6.6875
Q48.1406 6.6875 53.7812 8.98438
Q59.4219 11.2812 64.4062 15.9219
L64.4062 5.60938
Q59.2344 2.09375 53.4375 0.328125
Q47.6562 -1.42188 41.2188 -1.42188
Q24.6562 -1.42188 15.125 8.70312
Q5.60938 18.8438 5.60938 36.375
Q5.60938 53.9531 15.125 64.0781
Q24.6562 74.2188 41.2188 74.2188
Q47.75 74.2188 53.5312 72.4844
Q59.3281 70.75 64.4062 67.2812" id="BitstreamVeraSans-Roman-43"/>
      <path d="
M18.3125 70.2188
L18.3125 54.6875
L36.8125 54.6875
L36.8125 47.7031
L18.3125 47.7031
L18.3125 18.0156
Q18.3125 11.3281 20.1406 9.42188
Q21.9688 7.51562 27.5938 7.51562
L36.8125 7.51562
L36.8125 0
L27.5938 0
Q17.1875 0 13.2344 3.875
Q9.28125 7.76562 9.28125 18.0156
L9.28125 47.7031
L2.6875 47.7031
L2.6875 54.6875
L9.28125 54.6875
L9.28125 70.2188
z
" id="BitstreamVeraSans-Roman-74"/>
      <path d="
M44.2812 53.0781
L44.2812 44.5781
Q40.4844 46.5312 36.375 47.5
Q32.2812 48.4844 27.875 48.4844
Q21.1875 48.4844 17.8438 46.4375
Q14.5 44.3906 14.5 40.2812
Q14.5 37.1562 16.8906 35.375
Q19.2812 33.5938 26.5156 31.9844
L29.5938 31.2969
Q39.1562 29.25 43.1875 25.5156
Q47.2188 21.7812 47.2188 15.0938
Q47.2188 7.46875 41.1875 3.01562
Q35.1562 -1.42188 24.6094 -1.42188
Q20.2188 -1.42188 15.4531 -0.5625
Q10.6875 0.296875 5.42188 2
L5.42188 11.2812
Q10.4062 8.6875 15.2344 7.39062
Q20.0625 6.10938 24.8125 6.10938
Q31.1562 6.10938 34.5625 8.28125
Q37.9844 10.4531 37.9844 14.4062
Q37.9844 18.0625 35.5156 20.0156
Q33.0625 21.9688 24.7031 23.7812
L21.5781 24.5156
Q13.2344 26.2656 9.51562 29.9062
Q5.8125 33.5469 5.8125 39.8906
Q5.8125 47.6094 11.2812 51.7969
Q16.75 56 26.8125 56
Q31.7812 56 36.1719 55.2656
Q40.5781 54.5469 44.2812 53.0781" id="BitstreamVeraSans-Roman-73"/>
     </defs>
     <g transform="translate(18.14175 220.319375)rotate(-90.0)scale(0.144 -0.144)">
      <use xlink:href="#BitstreamVeraSans-Roman-43"/>
      <use x="69.82421875" xlink:href="#BitstreamVeraSans-Roman-6f"/>
      <use x="131.005859375" xlink:href="#BitstreamVeraSans-Roman-75"/>
      <use x="194.384765625" xlink:href="#BitstreamVeraSans-Roman-6e"/>
      <use x="257.763671875" xlink:href="#BitstreamVeraSans-Roman-74"/>
      <use x="296.97265625" xlink:href="#BitstreamVeraSans-Roman-73"/>
     </g>
    </g>
   </g>
   <g id="text_16">
    <!-- $K\alpha_1$ -->
    <defs>
     <path d="
M20.125 -1.125
Q15.375 -1.125 11.6875 1.125
Q8.01562 3.375 6 7.17188
Q4 10.9844 4 15.8281
Q4 22.6094 7.78125 29.25
Q11.5781 35.8906 17.8438 40.0312
Q24.125 44.1875 31 44.1875
Q36.0781 44.1875 39.9375 41.5312
Q43.7969 38.875 45.7969 34.4531
Q47.7969 30.0312 47.7969 25
L47.9062 18.3125
Q51.3125 23.0469 53.6875 28.1406
Q56.0625 33.25 57.3281 38.7188
Q57.5156 39.3125 58.1094 39.3125
L59.2812 39.3125
Q60.2031 39.3125 60.2031 38.375
Q60.2031 38.2812 60.1094 38.0938
Q58.9375 33.5 57.1719 29.2656
Q55.4219 25.0469 53.0469 21.0938
Q50.6875 17.1406 47.9062 13.9219
Q47.9062 1.51562 50.7812 1.51562
Q52.6406 1.51562 53.8281 2.60938
Q55.0312 3.71875 55.9375 5.32812
Q56.8438 6.9375 57.0781 6.98438
L58.2969 6.98438
Q59.0781 6.98438 59.0781 6
Q59.0781 3.51562 56.2188 1.1875
Q53.375 -1.125 50.5938 -1.125
Q46.9688 -1.125 44.5781 1.21875
Q42.1875 3.5625 41.3125 7.32812
Q36.625 3.32812 31.1562 1.09375
Q25.6875 -1.125 20.125 -1.125
M20.3125 1.51562
Q31 1.51562 40.8281 10.2969
Q40.7656 10.8906 40.6719 11.7344
Q40.5781 12.5938 40.5781 12.7031
L40.5781 23.4844
Q40.5781 41.6094 30.8125 41.6094
Q24.9531 41.6094 20.5469 36.5938
Q16.1562 31.5938 13.9375 24.625
Q11.7188 17.6719 11.7188 11.9219
Q11.7188 7.5625 13.9375 4.53125
Q16.1562 1.51562 20.3125 1.51562" id="Cmmi10-ae"/>
     <path d="
M9.28125 0
L9.28125 3.51562
Q21.7812 3.51562 21.7812 6.6875
L21.7812 59.1875
Q16.6094 56.6875 8.6875 56.6875
L8.6875 60.2031
Q20.9531 60.2031 27.2031 66.6094
L28.6094 66.6094
Q28.9531 66.6094 29.2656 66.3281
Q29.5938 66.0625 29.5938 65.7188
L29.5938 6.6875
Q29.5938 3.51562 42.0938 3.51562
L42.0938 0
z
" id="Cmr10-31"/>
     <path d="
M4.6875 0
Q3.71875 0 3.71875 1.3125
Q3.76562 1.5625 3.90625 2.17188
Q4.04688 2.78125 4.3125 3.14062
Q4.59375 3.51562 4.98438 3.51562
Q11.0781 3.51562 13.4844 4.20312
Q14.7969 4.64062 15.375 6.89062
L29.1094 61.8125
Q29.2969 62.7969 29.2969 63.1875
Q29.2969 64.2656 28.0781 64.4062
Q26.2188 64.7969 20.9062 64.7969
Q19.9219 64.7969 19.9219 66.1094
Q20.2656 67.3906 20.4531 67.8438
Q20.6562 68.3125 21.5781 68.3125
L48.4844 68.3125
Q49.5156 68.3125 49.5156 67
Q49.4688 66.75 49.3125 66.1562
Q49.1719 65.5781 48.9219 65.1875
Q48.6875 64.7969 48.1875 64.7969
Q42.0938 64.7969 39.7031 64.1094
Q38.375 63.625 37.7969 61.375
L29.6875 29
L68.8906 59.2812
Q69 59.4688 70.1406 60.6094
Q71.2969 61.7656 71.2969 62.8906
Q71.2969 64.7969 67.9219 64.7969
Q66.8906 64.7969 66.8906 66.1094
Q67.0938 66.8906 67.2031 67.3281
Q67.3281 67.7812 67.6406 68.0469
Q67.9688 68.3125 68.6094 68.3125
L87.9844 68.3125
Q88.5312 68.3125 88.7656 67.9219
Q89.0156 67.5312 89.0156 67
Q88.9688 66.75 88.7969 66.1094
Q88.625 65.4844 88.3594 65.1406
Q88.0938 64.7969 87.5938 64.7969
Q80.2812 64.7969 71.5781 58.0156
Q71.5312 57.9531 71.4375 57.9219
Q71.3438 57.9062 71.2344 57.875
Q71.1406 57.8594 71.0938 57.8125
L50.4844 41.7969
L65.4844 6.6875
Q66.8438 4.5 68.4062 4
Q69.9688 3.51562 73.1875 3.51562
Q74.2188 3.51562 74.2188 2.20312
Q73.9219 1.03125 73.625 0.515625
Q73.3438 0 72.5156 0
L49.3125 0
Q48.3906 0 48.3906 1.3125
Q48.5312 2.34375 48.7188 2.92188
Q48.9219 3.51562 49.7031 3.51562
Q52.25 3.51562 54.0312 4.03125
Q55.8125 4.54688 55.8125 6.39062
Q55.8125 7.07812 55.7188 7.42188
L43.3125 36.2812
L28.7188 25
L24.125 6.5
Q23.875 5.28125 23.875 5.07812
Q23.875 4.04688 25.0938 3.90625
Q27 3.51562 32.3281 3.51562
Q33.2969 3.51562 33.2969 2.20312
Q32.9531 0.78125 32.75 0.390625
Q32.5625 0 31.5938 0
z
" id="Cmmi10-4b"/>
    </defs>
    <g transform="translate(161.621925 38.1678369565)scale(0.144 -0.144)">
     <use transform="translate(0.0 0.6875)" xlink:href="#Cmmi10-4b"/>
     <use transform="translate(84.912109375 0.6875)" xlink:href="#Cmmi10-ae"/>
     <use transform="translate(148.828125 -24.821875)scale(0.7)" xlink:href="#Cmr10-31"/>
    </g>
   </g>
   <g id="text_17">
    <!-- $K\alpha_2$ -->
    <defs>
     <path d="
M4.98438 0
L4.98438 2.6875
Q4.98438 2.9375 5.17188 3.21875
L20.7031 20.4062
Q24.2188 24.2188 26.4062 26.7969
Q28.6094 29.3906 30.75 32.7656
Q32.9062 36.1406 34.1562 39.625
Q35.4062 43.1094 35.4062 47.0156
Q35.4062 51.125 33.8906 54.8594
Q32.375 58.5938 29.375 60.8438
Q26.375 63.0938 22.125 63.0938
Q17.7812 63.0938 14.3125 60.4688
Q10.8438 57.8594 9.42188 53.7188
Q9.8125 53.8125 10.5 53.8125
Q12.75 53.8125 14.3281 52.2969
Q15.9219 50.7812 15.9219 48.3906
Q15.9219 46.0938 14.3281 44.5
Q12.75 42.9219 10.5 42.9219
Q8.15625 42.9219 6.5625 44.5469
Q4.98438 46.1875 4.98438 48.3906
Q4.98438 52.1562 6.39062 55.4375
Q7.8125 58.7344 10.4688 61.2969
Q13.1406 63.875 16.4844 65.2344
Q19.8281 66.6094 23.5781 66.6094
Q29.2969 66.6094 34.2188 64.1875
Q39.1562 61.7656 42.0312 57.3438
Q44.9219 52.9375 44.9219 47.0156
Q44.9219 42.6719 43.0156 38.7656
Q41.1094 34.8594 38.125 31.6562
Q35.1562 28.4688 30.5156 24.4062
Q25.875 20.3594 24.4219 19
L13.0938 8.10938
L22.7031 8.10938
Q29.7812 8.10938 34.5469 8.21875
Q39.3125 8.34375 39.5938 8.59375
Q40.7656 9.85938 42 17.8281
L44.9219 17.8281
L42.0938 0
z
" id="Cmr10-32"/>
    </defs>
    <g transform="translate(147.950925 38.1678369565)scale(0.144 -0.144)">
     <use transform="translate(0.0 0.6875)" xlink:href="#Cmmi10-4b"/>
     <use transform="translate(84.912109375 0.6875)" xlink:href="#Cmmi10-ae"/>
     <use transform="translate(148.828125 -24.821875)scale(0.7)" xlink:href="#Cmr10-32"/>
    </g>
   </g>
   <g id="text_18">
    <!-- $K\beta_{1,3}$ -->
    <defs>
     <path d="
M9.51562 7.71875
Q11.8594 4.29688 15.8125 2.64062
Q19.7812 0.984375 24.3125 0.984375
Q30.125 0.984375 32.5625 5.9375
Q35.0156 10.8906 35.0156 17.1875
Q35.0156 20.0156 34.5 22.8438
Q33.9844 25.6875 32.7656 28.125
Q31.5469 30.5625 29.4219 32.0312
Q27.2969 33.5 24.2188 33.5
L17.5781 33.5
Q16.7031 33.5 16.7031 34.4219
L16.7031 35.2969
Q16.7031 36.0781 17.5781 36.0781
L23.0938 36.5312
Q26.6094 36.5312 28.9219 39.1562
Q31.25 41.7969 32.3281 45.5781
Q33.4062 49.3594 33.4062 52.7812
Q33.4062 57.5625 31.1562 60.6406
Q28.9062 63.7188 24.3125 63.7188
Q20.5156 63.7188 17.0469 62.2812
Q13.5781 60.8438 11.5312 57.9062
Q11.7188 57.9531 11.8594 57.9844
Q12.0156 58.0156 12.2031 58.0156
Q14.4531 58.0156 15.9688 56.4531
Q17.4844 54.8906 17.4844 52.6875
Q17.4844 50.5312 15.9688 48.9688
Q14.4531 47.4062 12.2031 47.4062
Q10.0156 47.4062 8.45312 48.9688
Q6.89062 50.5312 6.89062 52.6875
Q6.89062 56.9844 9.46875 60.1562
Q12.0625 63.3281 16.1406 64.9688
Q20.2188 66.6094 24.3125 66.6094
Q27.3438 66.6094 30.7031 65.7031
Q34.0781 64.7969 36.8125 63.1094
Q39.5469 61.4219 41.2812 58.7812
Q43.0156 56.1562 43.0156 52.7812
Q43.0156 48.5781 41.1406 45.0156
Q39.2656 41.4531 35.9844 38.8594
Q32.7188 36.2812 28.8125 35.0156
Q33.1562 34.1875 37.0625 31.7344
Q40.9688 29.2969 43.3281 25.4844
Q45.7031 21.6875 45.7031 17.2812
Q45.7031 11.7656 42.6719 7.29688
Q39.6562 2.82812 34.7188 0.3125
Q29.7812 -2.20312 24.3125 -2.20312
Q19.625 -2.20312 14.9062 -0.40625
Q10.2031 1.375 7.20312 4.9375
Q4.20312 8.5 4.20312 13.4844
Q4.20312 15.9688 5.85938 17.625
Q7.51562 19.2812 10.0156 19.2812
Q11.625 19.2812 12.9688 18.5312
Q14.3125 17.7812 15.0625 16.4062
Q15.8281 15.0469 15.8281 13.4844
Q15.8281 11.0312 14.1094 9.375
Q12.4062 7.71875 10.0156 7.71875
z
" id="Cmr10-33"/>
     <path d="
M2.6875 -19.3906
Q2.39062 -19.3906 2.14062 -19.0469
Q1.90625 -18.7031 1.90625 -18.4062
L17.2812 43.4062
Q18.6094 48.3906 21.1406 53.0781
Q23.6875 57.7656 27.5156 61.7969
Q31.3438 65.8281 35.9375 68.1719
Q40.5312 70.5156 45.7031 70.5156
Q49.4219 70.5156 52.4219 68.875
Q55.4219 67.2344 57.1562 64.2812
Q58.8906 61.3281 58.8906 57.625
Q58.8906 54.0469 57.5156 50.7969
Q56.1562 47.5625 53.7031 44.75
Q51.2656 41.9375 48.4844 40.1875
Q50.0938 39.1562 51.3594 37.5625
Q52.6406 35.9844 53.4219 34.25
Q54.2031 32.5156 54.6406 30.3906
Q55.0781 28.2656 55.0781 26.4219
Q55.0781 21.2969 52.875 16.3125
Q50.6875 11.3281 46.8906 7.26562
Q43.1094 3.21875 38.2188 0.84375
Q33.3438 -1.51562 28.2188 -1.51562
Q22.6094 -1.51562 18.1094 1.5625
Q13.625 4.64062 11.9219 9.90625
L4.6875 -18.7969
Q4.6875 -19.3906 3.90625 -19.3906
z

M28.4219 1.21875
Q32.9062 1.21875 36.5469 4.17188
Q40.1875 7.125 42.5469 11.5938
Q44.9219 16.0625 46.1562 21.0625
Q47.4062 26.0781 47.4062 30.1719
Q47.4062 35.25 44.4844 38.1875
Q41.0625 36.9219 37.7969 36.9219
Q29.8906 36.9219 29.8906 39.5938
Q29.8906 43.1094 38.9219 43.1094
Q42.1406 43.1094 44.8281 42.0938
Q46.9688 43.75 48.7188 46.9688
Q50.4844 50.2031 51.3906 53.7188
Q52.2969 57.2344 52.2969 60.2969
Q52.2969 63.5781 50.5625 65.75
Q48.8281 67.9219 45.5156 67.9219
Q39.4062 67.9219 34.1562 64.1562
Q28.9062 60.4062 25.2969 54.6562
Q21.6875 48.9219 20.125 42.8281
L14.5938 20.7031
Q14.0625 18.4062 13.9219 15.5781
Q13.9219 9.32812 18.0156 5.26562
Q22.125 1.21875 28.4219 1.21875
M32.9062 39.8906
Q34.4219 39.5 37.8906 39.5
Q39.5938 39.5 41.3125 40.0938
Q41.2188 40.1875 40.9219 40.1875
Q39.8438 40.4844 38.625 40.4844
Q34.0781 40.4844 32.9062 39.8906" id="Cmmi10-af"/>
     <path d="
M9.90625 -18.0156
Q9.90625 -17.5781 10.2969 -17.1875
Q13.9219 -13.7188 15.9219 -9.17188
Q17.9219 -4.64062 17.9219 0.390625
L17.9219 1.60938
Q16.3125 0 13.9219 0
Q11.625 0 10.0156 1.60938
Q8.40625 3.21875 8.40625 5.51562
Q8.40625 7.85938 10.0156 9.42188
Q11.625 10.9844 13.9219 10.9844
Q17.4844 10.9844 19 7.6875
Q20.5156 4.39062 20.5156 0.390625
Q20.5156 -5.17188 18.2812 -10.1719
Q16.0625 -15.1875 12.0156 -19.1875
Q11.625 -19.3906 11.375 -19.3906
Q10.8906 -19.3906 10.3906 -18.9375
Q9.90625 -18.5 9.90625 -18.0156" id="Cmmi10-3b"/>
    </defs>
    <g transform="translate(354.076125 218.480880435)scale(0.144 -0.144)">
     <use transform="translate(0.0 0.484375)" xlink:href="#Cmmi10-4b"/>
     <use transform="translate(84.912109375 0.484375)" xlink:href="#Cmmi10-af"/>
     <use transform="translate(141.40625 -25.025)scale(0.7)" xlink:href="#Cmr10-31"/>
     <use transform="translate(176.40625 -25.025)scale(0.7)" xlink:href="#Cmmi10-3b"/>
     <use transform="translate(197.173828125 -25.025)scale(0.7)" xlink:href="#Cmr10-33"/>
    </g>
   </g>
   <g id="text_19">
    <!-- $E_F$ -->
    <defs>
     <path d="
M4.6875 0
Q3.71875 0 3.71875 1.3125
Q3.76562 1.5625 3.90625 2.17188
Q4.04688 2.78125 4.3125 3.14062
Q4.59375 3.51562 4.98438 3.51562
Q11.0781 3.51562 13.4844 4.20312
Q14.7969 4.64062 15.375 6.89062
L29.1094 61.8125
Q29.2969 62.7969 29.2969 63.1875
Q29.2969 64.2656 28.0781 64.4062
Q26.2188 64.7969 20.9062 64.7969
Q19.9219 64.7969 19.9219 66.1094
Q19.9688 66.3594 20.1094 66.9688
Q20.2656 67.5781 20.5312 67.9375
Q20.7969 68.3125 21.1875 68.3125
L74.0312 68.3125
Q75 68.3125 75 67
L72.6094 46.2969
Q72.6094 46 72.2656 45.7031
Q71.9219 45.4062 71.5781 45.4062
L70.7031 45.4062
Q69.6719 45.4062 69.6719 46.6875
Q70.3125 51.2188 70.3125 54.1094
Q70.3125 59.0781 68.1562 61.4219
Q66.0156 63.7656 62.7344 64.2812
Q59.4688 64.7969 53.7188 64.7969
L43.0156 64.7969
Q40.2812 64.7969 39.4062 64.3281
Q38.5312 63.875 37.7969 61.375
L31.3906 35.8906
L38.9219 35.8906
Q42.625 35.8906 44.9219 36.2812
Q47.2188 36.6719 48.7344 37.7969
Q50.25 38.9219 51.25 41.0469
Q52.25 43.1719 53.0781 46.6875
Q53.375 47.6094 54.1094 47.6094
L54.9844 47.6094
Q56 47.6094 56 46.2969
L49.9062 21.5781
Q49.4688 20.7031 48.875 20.7031
L48 20.7031
Q47.0156 20.7031 47.0156 22.0156
Q47.2656 23.0469 47.4062 23.7344
Q47.5625 24.4219 47.7812 25.7031
Q48 27 48 27.9844
Q48 30.8594 45.4531 31.6406
Q42.9219 32.4219 38.8125 32.4219
L30.6094 32.4219
L24.125 6.5
Q23.875 5.51562 23.875 5.51562
Q23.875 4.34375 24.6094 4.20312
Q27.2031 3.51562 34.8125 3.51562
Q35.7969 3.51562 35.7969 2.20312
Q35.4531 0.78125 35.25 0.390625
Q35.0625 0 34.0781 0
z
" id="Cmmi10-46"/>
     <path d="
M4.6875 0
Q3.71875 0 3.71875 1.3125
Q3.76562 1.5625 3.90625 2.17188
Q4.04688 2.78125 4.3125 3.14062
Q4.59375 3.51562 4.98438 3.51562
Q11.0781 3.51562 13.4844 4.20312
Q14.7969 4.64062 15.375 6.89062
L29.1094 61.8125
Q29.2969 62.7969 29.2969 63.1875
Q29.2969 64.2656 28.0781 64.4062
Q26.2188 64.7969 20.9062 64.7969
Q19.9219 64.7969 19.9219 66.1094
Q19.9688 66.3594 20.1094 66.9688
Q20.2656 67.5781 20.5312 67.9375
Q20.7969 68.3125 21.1875 68.3125
L75.3906 68.3125
Q76.4219 68.3125 76.4219 67
L74.0312 46.2969
Q74.0312 46.0469 73.6562 45.7188
Q73.2969 45.4062 73 45.4062
L72.125 45.4062
Q71.0938 45.4062 71.0938 46.6875
Q71.6875 51.5625 71.6875 53.9062
Q71.6875 57.9062 70.3125 60.125
Q68.9531 62.3594 66.6719 63.3281
Q64.4062 64.3125 61.6406 64.5469
Q58.8906 64.7969 54.3906 64.7969
L43.0156 64.7969
Q40.2812 64.7969 39.4062 64.3281
Q38.5312 63.875 37.7969 61.375
L31.7812 37.2031
L39.5938 37.2031
Q44.6719 37.2031 47.2656 37.9062
Q49.8594 38.625 51.3594 40.8594
Q52.875 43.1094 54.1094 48
Q54.2031 48.3438 54.4688 48.6094
Q54.7344 48.875 55.0781 48.875
L56 48.875
Q56.9844 48.875 56.9844 47.6094
L50.7812 22.9062
Q50.5938 22.0156 49.8125 22.0156
L48.875 22.0156
Q47.9062 22.0156 47.9062 23.2969
Q48.875 27.2969 48.875 29.2031
Q48.875 32.125 46.2344 32.9062
Q43.6094 33.6875 39.2031 33.6875
L30.9062 33.6875
L24.125 6.5
Q23.6875 5.28125 23.6875 4.29688
Q23.6875 3.51562 27.0938 3.51562
L39.2031 3.51562
Q46.4375 3.51562 50.9219 4.64062
Q55.4219 5.76562 58.375 8.21875
Q61.3281 10.6875 63.4688 14.5
Q65.625 18.3125 68.7031 25.5938
Q68.8906 26.2188 69.5781 26.2188
L70.5156 26.2188
Q70.9062 26.2188 71.1875 25.875
Q71.4844 25.5312 71.4844 25.0938
Q71.4844 24.9062 71.3906 24.7031
L61.0781 0.59375
Q60.8906 0 60.2969 0
z
" id="Cmmi10-45"/>
    </defs>
    <g transform="translate(385.603125 218.480880435)scale(0.144 -0.144)">
     <use transform="translate(0.0 0.6875)" xlink:href="#Cmmi10-45"/>
     <use transform="translate(73.779296875 -24.821875)scale(0.7)" xlink:href="#Cmmi10-46"/>
    </g>
   </g>
   <g id="text_20">
    <!-- Sc XES -->
    <defs>
     <path d="
M6.29688 72.9062
L16.8906 72.9062
L35.0156 45.7969
L53.2188 72.9062
L63.8125 72.9062
L40.375 37.8906
L65.375 0
L54.7812 0
L34.2812 31
L13.625 0
L2.98438 0
L29 38.9219
z
" id="BitstreamVeraSans-Roman-58"/>
     <path d="
M53.5156 70.5156
L53.5156 60.8906
Q47.9062 63.5781 42.9219 64.8906
Q37.9375 66.2188 33.2969 66.2188
Q25.25 66.2188 20.875 63.0938
Q16.5 59.9688 16.5 54.2031
Q16.5 49.3594 19.4062 46.8906
Q22.3125 44.4375 30.4219 42.9219
L36.375 41.7031
Q47.4062 39.5938 52.6562 34.2969
Q57.9062 29 57.9062 20.125
Q57.9062 9.51562 50.7969 4.04688
Q43.7031 -1.42188 29.9844 -1.42188
Q24.8125 -1.42188 18.9688 -0.25
Q13.1406 0.921875 6.89062 3.21875
L6.89062 13.375
Q12.8906 10.0156 18.6562 8.29688
Q24.4219 6.59375 29.9844 6.59375
Q38.4219 6.59375 43.0156 9.90625
Q47.6094 13.2344 47.6094 19.3906
Q47.6094 24.75 44.3125 27.7812
Q41.0156 30.8125 33.5 32.3281
L27.4844 33.5
Q16.4531 35.6875 11.5156 40.375
Q6.59375 45.0625 6.59375 53.4219
Q6.59375 63.0938 13.4062 68.6562
Q20.2188 74.2188 32.1719 74.2188
Q37.3125 74.2188 42.625 73.2812
Q47.9531 72.3594 53.5156 70.5156" id="BitstreamVeraSans-Roman-53"/>
     <path d="
M48.7812 52.5938
L48.7812 44.1875
Q44.9688 46.2969 41.1406 47.3438
Q37.3125 48.3906 33.4062 48.3906
Q24.6562 48.3906 19.8125 42.8438
Q14.9844 37.3125 14.9844 27.2969
Q14.9844 17.2812 19.8125 11.7344
Q24.6562 6.20312 33.4062 6.20312
Q37.3125 6.20312 41.1406 7.25
Q44.9688 8.29688 48.7812 10.4062
L48.7812 2.09375
Q45.0156 0.34375 40.9844 -0.53125
Q36.9688 -1.42188 32.4219 -1.42188
Q20.0625 -1.42188 12.7812 6.34375
Q5.51562 14.1094 5.51562 27.2969
Q5.51562 40.6719 12.8594 48.3281
Q20.2188 56 33.0156 56
Q37.1562 56 41.1094 55.1406
Q45.0625 54.2969 48.7812 52.5938" id="BitstreamVeraSans-Roman-63"/>
    </defs>
    <g transform="translate(253.998375 18.14175)scale(0.144 -0.144)">
     <use xlink:href="#BitstreamVeraSans-Roman-53"/>
     <use x="63.4765625" xlink:href="#BitstreamVeraSans-Roman-63"/>
     <use x="118.45703125" xlink:href="#BitstreamVeraSans-Roman-20"/>
     <use x="150.244140625" xlink:href="#BitstreamVeraSans-Roman-58"/>
     <use x="218.75" xlink:href="#BitstreamVeraSans-Roman-45"/>
     <use x="281.93359375" xlink:href="#BitstreamVeraSans-Roman-53"/>
    </g>
   </g>
   <g id="legend_1">
    <g id="patch_7">
     <path d="
M329.684 163.884
L494.467 163.884
L494.467 30.3417
L329.684 30.3417
z
" style="fill:#ffffff;stroke:#000000;stroke-linejoin:miter;"/>
    </g>
    <g id="line2d_38">
     <path d="
M339.764 42.0035
L359.924 42.0035" style="fill:none;stroke:#0000ff;stroke-linecap:square;"/>
    </g>
    <g id="line2d_39"/>
    <g id="text_21">
     <!-- ScV_2um_1.00 -->
     <defs>
      <path d="
M52 44.1875
Q55.375 50.25 60.0625 53.125
Q64.75 56 71.0938 56
Q79.6406 56 84.2812 50.0156
Q88.9219 44.0469 88.9219 33.0156
L88.9219 0
L79.8906 0
L79.8906 32.7188
Q79.8906 40.5781 77.0938 44.375
Q74.3125 48.1875 68.6094 48.1875
Q61.625 48.1875 57.5625 43.5469
Q53.5156 38.9219 53.5156 30.9062
L53.5156 0
L44.4844 0
L44.4844 32.7188
Q44.4844 40.625 41.7031 44.4062
Q38.9219 48.1875 33.1094 48.1875
Q26.2188 48.1875 22.1562 43.5312
Q18.1094 38.875 18.1094 30.9062
L18.1094 0
L9.07812 0
L9.07812 54.6875
L18.1094 54.6875
L18.1094 46.1875
Q21.1875 51.2188 25.4844 53.6094
Q29.7812 56 35.6875 56
Q41.6562 56 45.8281 52.9688
Q50 49.9531 52 44.1875" id="BitstreamVeraSans-Roman-6d"/>
      <path d="
M50.9844 -16.6094
L50.9844 -23.5781
L-0.984375 -23.5781
L-0.984375 -16.6094
z
" id="BitstreamVeraSans-Roman-5f"/>
     </defs>
     <g transform="translate(375.763875 47.0435)scale(0.144 -0.144)">
      <use xlink:href="#BitstreamVeraSans-Roman-53"/>
      <use x="63.4765625" xlink:href="#BitstreamVeraSans-Roman-63"/>
      <use x="118.45703125" xlink:href="#BitstreamVeraSans-Roman-56"/>
      <use x="186.865234375" xlink:href="#BitstreamVeraSans-Roman-5f"/>
      <use x="236.865234375" xlink:href="#BitstreamVeraSans-Roman-32"/>
      <use x="300.48828125" xlink:href="#BitstreamVeraSans-Roman-75"/>
      <use x="363.8671875" xlink:href="#BitstreamVeraSans-Roman-6d"/>
      <use x="461.279296875" xlink:href="#BitstreamVeraSans-Roman-5f"/>
      <use x="511.279296875" xlink:href="#BitstreamVeraSans-Roman-31"/>
      <use x="574.90234375" xlink:href="#BitstreamVeraSans-Roman-2e"/>
      <use x="606.689453125" xlink:href="#BitstreamVeraSans-Roman-30"/>
      <use x="670.3125" xlink:href="#BitstreamVeraSans-Roman-30"/>
     </g>
    </g>
    <g id="line2d_40">
     <path d="
M339.764 63.5405
L359.924 63.5405" style="fill:none;stroke:#000000;stroke-linecap:square;"/>
    </g>
    <g id="line2d_41"/>
    <g id="text_22">
     <!-- ScV_5um_1.00 -->
     <g transform="translate(375.763875 68.5805)scale(0.144 -0.144)">
      <use xlink:href="#BitstreamVeraSans-Roman-53"/>
      <use x="63.4765625" xlink:href="#BitstreamVeraSans-Roman-63"/>
      <use x="118.45703125" xlink:href="#BitstreamVeraSans-Roman-56"/>
      <use x="186.865234375" xlink:href="#BitstreamVeraSans-Roman-5f"/>
      <use x="236.865234375" xlink:href="#BitstreamVeraSans-Roman-35"/>
      <use x="300.48828125" xlink:href="#BitstreamVeraSans-Roman-75"/>
      <use x="363.8671875" xlink:href="#BitstreamVeraSans-Roman-6d"/>
      <use x="461.279296875" xlink:href="#BitstreamVeraSans-Roman-5f"/>
      <use x="511.279296875" xlink:href="#BitstreamVeraSans-Roman-31"/>
      <use x="574.90234375" xlink:href="#BitstreamVeraSans-Roman-2e"/>
      <use x="606.689453125" xlink:href="#BitstreamVeraSans-Roman-30"/>
      <use x="670.3125" xlink:href="#BitstreamVeraSans-Roman-30"/>
     </g>
    </g>
    <g id="line2d_42">
     <path d="
M339.764 85.0775
L359.924 85.0775" style="fill:none;stroke:#ffa500;stroke-linecap:square;"/>
    </g>
    <g id="line2d_43"/>
    <g id="text_23">
     <!-- ScV_10um_1.00 -->
     <g transform="translate(375.763875 90.1175)scale(0.144 -0.144)">
      <use xlink:href="#BitstreamVeraSans-Roman-53"/>
      <use x="63.4765625" xlink:href="#BitstreamVeraSans-Roman-63"/>
      <use x="118.45703125" xlink:href="#BitstreamVeraSans-Roman-56"/>
      <use x="186.865234375" xlink:href="#BitstreamVeraSans-Roman-5f"/>
      <use x="236.865234375" xlink:href="#BitstreamVeraSans-Roman-31"/>
      <use x="300.48828125" xlink:href="#BitstreamVeraSans-Roman-30"/>
      <use x="364.111328125" xlink:href="#BitstreamVeraSans-Roman-75"/>
      <use x="427.490234375" xlink:href="#BitstreamVeraSans-Roman-6d"/>
      <use x="524.90234375" xlink:href="#BitstreamVeraSans-Roman-5f"/>
      <use x="574.90234375" xlink:href="#BitstreamVeraSans-Roman-31"/>
      <use x="638.525390625" xlink:href="#BitstreamVeraSans-Roman-2e"/>
      <use x="670.3125" xlink:href="#BitstreamVeraSans-Roman-30"/>
      <use x="733.935546875" xlink:href="#BitstreamVeraSans-Roman-30"/>
     </g>
    </g>
    <g id="line2d_44">
     <path d="
M339.764 106.614
L359.924 106.614" style="fill:none;stroke:#008000;stroke-linecap:square;"/>
    </g>
    <g id="line2d_45"/>
    <g id="text_24">
     <!-- ScV_20um_1.00 -->
     <g transform="translate(375.763875 111.6545)scale(0.144 -0.144)">
      <use xlink:href="#BitstreamVeraSans-Roman-53"/>
      <use x="63.4765625" xlink:href="#BitstreamVeraSans-Roman-63"/>
      <use x="118.45703125" xlink:href="#BitstreamVeraSans-Roman-56"/>
      <use x="186.865234375" xlink:href="#BitstreamVeraSans-Roman-5f"/>
      <use x="236.865234375" xlink:href="#BitstreamVeraSans-Roman-32"/>
      <use x="300.48828125" xlink:href="#BitstreamVeraSans-Roman-30"/>
      <use x="364.111328125" xlink:href="#BitstreamVeraSans-Roman-75"/>
      <use x="427.490234375" xlink:href="#BitstreamVeraSans-Roman-6d"/>
      <use x="524.90234375" xlink:href="#BitstreamVeraSans-Roman-5f"/>
      <use x="574.90234375" xlink:href="#BitstreamVeraSans-Roman-31"/>
      <use x="638.525390625" xlink:href="#BitstreamVeraSans-Roman-2e"/>
      <use x="670.3125" xlink:href="#BitstreamVeraSans-Roman-30"/>
      <use x="733.935546875" xlink:href="#BitstreamVeraSans-Roman-30"/>
     </g>
    </g>
    <g id="line2d_46">
     <path d="
M339.764 128.151
L359.924 128.151" style="fill:none;stroke:#800080;stroke-linecap:square;"/>
    </g>
    <g id="line2d_47"/>
    <g id="text_25">
     <!-- ScV_40um_1.00 -->
     <g transform="translate(375.763875 133.1915)scale(0.144 -0.144)">
      <use xlink:href="#BitstreamVeraSans-Roman-53"/>
      <use x="63.4765625" xlink:href="#BitstreamVeraSans-Roman-63"/>
      <use x="118.45703125" xlink:href="#BitstreamVeraSans-Roman-56"/>
      <use x="186.865234375" xlink:href="#BitstreamVeraSans-Roman-5f"/>
      <use x="236.865234375" xlink:href="#BitstreamVeraSans-Roman-34"/>
      <use x="300.48828125" xlink:href="#BitstreamVeraSans-Roman-30"/>
      <use x="364.111328125" xlink:href="#BitstreamVeraSans-Roman-75"/>
      <use x="427.490234375" xlink:href="#BitstreamVeraSans-Roman-6d"/>
      <use x="524.90234375" xlink:href="#BitstreamVeraSans-Roman-5f"/>
      <use x="574.90234375" xlink:href="#BitstreamVeraSans-Roman-31"/>
      <use x="638.525390625" xlink:href="#BitstreamVeraSans-Roman-2e"/>
      <use x="670.3125" xlink:href="#BitstreamVeraSans-Roman-30"/>
      <use x="733.935546875" xlink:href="#BitstreamVeraSans-Roman-30"/>
     </g>
    </g>
    <g id="line2d_48">
     <path d="
M339.764 149.688
L359.924 149.688" style="fill:none;stroke:#ff0000;stroke-linecap:square;"/>
    </g>
    <g id="line2d_49"/>
    <g id="text_26">
     <!-- ScV_60um_1.00 -->
     <g transform="translate(375.763875 154.7285)scale(0.144 -0.144)">
      <use xlink:href="#BitstreamVeraSans-Roman-53"/>
      <use x="63.4765625" xlink:href="#BitstreamVeraSans-Roman-63"/>
      <use x="118.45703125" xlink:href="#BitstreamVeraSans-Roman-56"/>
      <use x="186.865234375" xlink:href="#BitstreamVeraSans-Roman-5f"/>
      <use x="236.865234375" xlink:href="#BitstreamVeraSans-Roman-36"/>
      <use x="300.48828125" xlink:href="#BitstreamVeraSans-Roman-30"/>
      <use x="364.111328125" xlink:href="#BitstreamVeraSans-Roman-75"/>
      <use x="427.490234375" xlink:href="#BitstreamVeraSans-Roman-6d"/>
      <use x="524.90234375" xlink:href="#BitstreamVeraSans-Roman-5f"/>
      <use x="574.90234375" xlink:href="#BitstreamVeraSans-Roman-31"/>
      <use x="638.525390625" xlink:href="#BitstreamVeraSans-Roman-2e"/>
      <use x="670.3125" xlink:href="#BitstreamVeraSans-Roman-30"/>
      <use x="733.935546875" xlink:href="#BitstreamVeraSans-Roman-30"/>
     </g>
    </g>
   </g>
  </g>
 </g>
 <defs>
  <clipPath id="p09a64f714b">
   <rect height="345.6" width="446.4" x="55.267125" y="23.14175"/>
  </clipPath>
 </defs>
</svg>
