<?xml version="1.0" encoding="utf-8" standalone="no"?>
<!DOCTYPE svg PUBLIC "-//W3C//DTD SVG 1.1//EN"
  "http://www.w3.org/Graphics/SVG/1.1/DTD/svg11.dtd">
<!-- Created with matplotlib (http://matplotlib.org/) -->
<svg height="410pt" version="1.1" viewBox="0 0 523 410" width="523pt" xmlns="http://www.w3.org/2000/svg" xmlns:xlink="http://www.w3.org/1999/xlink">
 <defs>
  <style type="text/css">
*{stroke-linecap:butt;stroke-linejoin:round;}
  </style>
 </defs>
 <g id="figure_1">
  <g id="patch_1">
   <path d="
M0 410.492
L523.399 410.492
L523.399 0
L0 0
z
" style="fill:#ffffff;"/>
  </g>
  <g id="axes_1">
   <g id="patch_2">
    <path d="
M55.3909 368.742
L501.791 368.742
L501.791 23.1417
L55.3909 23.1417
z
" style="fill:#ffffff;"/>
   </g>
   <g id="line2d_1">
    <path clip-path="url(#p291dd02cf4)" d="
M484.561 369.554
L483.532 369.666
L482.503 369.57
L478.385 369.577
L476.327 369.547
L473.24 369.624
L471.182 369.525
L470.153 369.663
L461.923 369.491
L456.781 369.479
L455.752 369.381
L453.696 369.36
L449.583 369.135
L437.25 368.233
L431.086 368.119
L429.031 367.589
L428.004 367.082
L426.977 366.752
L425.95 366.283
L424.923 366.676
L422.869 366.859
L420.816 366.186
L419.789 365.289
L418.762 364.907
L417.735 363.11
L416.709 362.626
L415.682 360.427
L414.656 359.212
L413.629 356.873
L412.603 354.022
L411.576 350.314
L410.55 344.374
L409.524 331.465
L408.497 314.883
L407.471 283.882
L406.445 264.469
L405.419 266.66
L404.393 302.457
L403.367 323.79
L402.341 339.543
L401.315 345.839
L400.289 353.449
L399.263 356.172
L398.237 359.578
L397.211 361.857
L396.185 363.566
L395.16 364.605
L394.134 365.873
L393.109 366.051
L392.083 366.945
L391.058 367.494
L387.981 368.254
L383.88 368.699
L381.83 368.766
L376.705 368.899
L368.508 368.976
L365.435 368.918
L364.411 368.97
L362.363 368.902
L357.242 369.022
L356.219 369.092
L353.147 369.049
L347.006 369.139
L344.959 369.216
L336.774 369.282
L328.592 369.328
L325.524 369.423
L322.457 369.407
L321.435 369.513
L318.368 369.45
L311.215 369.53
L308.15 369.455
L307.129 369.55
L306.107 369.455
L305.086 369.55
L303.043 369.443
L299.979 369.516
L297.937 369.49
L287.729 369.473
L286.709 369.275
L285.688 368.742
L283.647 368.742
L282.627 369.267
L281.607 369.551
L274.466 369.538
L273.446 369.531
L272.427 369.41
L271.407 369.562
L269.368 369.411
L268.348 369.434
L267.328 369.308
L265.29 369.348
L264.27 369.495
L263.251 369.466
L262.232 369.564
L259.174 369.524
L258.155 369.62
L255.098 369.469
L248.986 369.482
L247.967 369.459
L246.949 369.56
L244.912 369.485
L243.894 369.603
L242.875 369.45
L218.453 369.361
L217.437 369.276
L215.403 369.36
L213.37 369.285
L210.32 369.315
L203.206 369.197
L197.11 368.815
L192.032 368.09
L190.001 368.176
L187.971 368.079
L184.925 368.132
L182.895 367.939
L175.792 367.451
L172.749 367.433
L170.72 367.273
L169.706 367.052
L168.692 367.136
L167.677 367.023
L166.663 367.044
L163.622 366.469
L160.58 365.12
L158.553 363.425
L156.526 360.688
L155.513 359.42
L154.499 359.463
L153.486 358.806
L152.473 359.101
L151.46 357.805
L150.446 356.953
L149.433 354.592
L148.42 350.921
L147.407 344.945
L146.395 337.011
L145.382 322.164
L144.369 300.396
L143.356 260.772
L141.331 117.068
L140.318 73.8665
L139.306 131.206
L138.294 209.714
L137.281 229.833
L136.269 242.661
L135.257 283.467
L134.245 329.798
L133.233 351.354
L132.22 359.606
L131.208 363.647
L130.197 365.932
L129.185 367.116
L127.161 368.408
L123.115 369.219
L122.103 369.15
L121.092 369.299
L111.992 369.469
L109.971 369.575
L108.96 369.629
L106.939 369.568
L105.929 369.655
L104.919 369.531
L98.8575 369.681
L97.8476 369.625
L96.8377 369.702
L95.8279 369.561
L91.7893 369.75
L90.7798 369.642
L88.761 369.71
L86.7424 369.689
L85.7332 368.742
L77.6621 368.742
L77.6621 368.742" style="fill:none;stroke:#0000ff;stroke-linecap:square;"/>
   </g>
   <g id="line2d_2">
    <path clip-path="url(#p291dd02cf4)" d="
M55.3909 368.742
L501.791 368.742" style="fill:none;stroke:#000000;stroke-linecap:square;"/>
   </g>
   <g id="line2d_3">
    <path clip-path="url(#p291dd02cf4)" d="
M140.318 383.768
L140.318 38.1678" style="fill:none;stroke:#808080;stroke-linecap:square;"/>
   </g>
   <g id="line2d_4">
    <path clip-path="url(#p291dd02cf4)" d="
M136.1 383.768
L136.1 38.1678" style="fill:none;stroke:#808080;stroke-linecap:square;"/>
   </g>
   <g id="line2d_5">
    <path clip-path="url(#p291dd02cf4)" d="
M405.419 383.768
L405.419 218.481" style="fill:none;stroke:#808080;stroke-linecap:square;"/>
   </g>
   <g id="line2d_6">
    <path clip-path="url(#p291dd02cf4)" d="
M426.461 383.768
L426.461 218.481" style="fill:none;stroke:#808080;stroke-linecap:square;"/>
   </g>
   <g id="line2d_7">
    <path clip-path="url(#p291dd02cf4)" d="
M484.561 368.219
L483.532 368.34
L480.444 368.243
L478.385 368.356
L477.356 368.236
L475.298 368.236
L461.923 368.191
L458.837 368.067
L456.781 368.109
L455.752 367.979
L454.724 368.048
L453.696 367.885
L452.668 367.941
L449.583 367.564
L448.555 367.6
L438.278 366.836
L431.086 366.711
L430.059 366.493
L429.031 366.404
L428.004 365.972
L426.977 365.824
L425.95 365.415
L424.923 365.693
L422.869 365.389
L421.842 364.884
L420.816 364.53
L419.789 363.254
L418.762 362.873
L417.735 360.945
L416.709 360.351
L415.682 357.866
L414.656 356.328
L413.629 353.56
L412.603 350.257
L411.576 345.896
L410.55 339.967
L408.497 312.824
L407.471 290.426
L406.445 281.028
L405.419 287.706
L404.393 314.674
L403.367 331.851
L402.341 344.062
L401.315 349.106
L400.289 355.515
L399.263 357.802
L398.237 360.665
L397.211 362.456
L396.185 363.802
L394.134 365.595
L393.109 365.755
L392.083 366.327
L390.032 366.996
L384.906 367.611
L383.88 367.666
L382.855 367.6
L380.805 367.742
L376.705 367.763
L375.681 367.883
L373.631 367.858
L371.582 367.891
L365.435 367.802
L358.266 367.828
L356.219 367.932
L332.682 368.195
L327.569 368.174
L324.502 368.239
L323.479 368.295
L322.457 368.185
L321.435 368.314
L320.413 368.128
L319.391 368.267
L314.281 368.289
L313.259 368.394
L312.237 368.265
L306.107 368.28
L305.086 368.375
L304.064 368.268
L303.043 368.319
L302.022 368.229
L299.979 368.332
L293.853 368.323
L289.77 368.393
L286.709 368.037
L285.688 368.742
L283.647 368.742
L282.627 367.986
L281.607 368.266
L278.546 368.229
L275.486 368.263
L274.466 368.274
L272.427 368.106
L271.407 368.15
L270.387 368.047
L269.368 368.077
L267.328 367.822
L266.309 367.782
L265.29 367.991
L264.27 368.004
L262.232 368.299
L259.174 368.291
L258.155 368.324
L257.136 368.169
L256.117 368.319
L254.079 368.288
L253.06 368.336
L252.042 368.23
L248.986 368.262
L247.967 368.158
L246.949 368.312
L245.93 368.201
L243.894 368.284
L242.875 368.216
L241.857 368.321
L240.839 368.186
L239.821 368.182
L238.803 368.34
L235.749 368.226
L232.696 368.233
L231.678 368.103
L230.661 368.279
L229.643 368.203
L227.608 368.266
L226.591 368.172
L223.539 368.287
L221.504 368.167
L200.158 367.924
L195.079 367.408
L194.063 367.228
L193.048 367.181
L192.032 366.949
L191.017 367.088
L187.971 366.984
L186.956 367.044
L185.94 366.984
L184.925 367.038
L181.88 366.759
L173.763 366.266
L172.749 366.281
L169.706 365.777
L168.692 365.968
L167.677 365.731
L166.663 365.791
L165.649 365.521
L164.635 365.42
L163.622 365.07
L161.594 364.14
L159.567 362.48
L158.553 361.42
L156.526 358.49
L155.513 357.275
L154.499 357.692
L153.486 357.09
L152.473 357.432
L151.46 355.795
L150.446 354.681
L149.433 351.674
L148.42 346.84
L147.407 339.069
L146.395 328.221
L145.382 309.169
L144.369 282.605
L143.356 242.439
L141.331 130.842
L140.318 110.453
L138.294 227.176
L136.269 259.494
L134.245 336.405
L133.233 353.373
L132.22 359.943
L131.208 363.396
L130.197 365.146
L129.185 366.19
L128.173 366.824
L127.161 367.297
L126.15 367.593
L122.103 368.09
L118.058 368.104
L117.047 368.268
L116.036 368.057
L115.025 368.263
L113.003 368.264
L109.971 368.331
L108.96 368.397
L107.95 368.198
L100.878 368.404
L99.8675 368.322
L98.8575 368.373
L97.8476 368.259
L95.8279 368.355
L93.8085 368.361
L92.7988 368.493
L89.7703 368.419
L88.761 368.458
L87.7516 368.31
L86.7424 368.393
L85.7332 368.742
L77.6621 368.742
L77.6621 368.742" style="fill:none;stroke:#000000;stroke-linecap:square;"/>
   </g>
   <g id="line2d_8">
    <path clip-path="url(#p291dd02cf4)" d="
M484.561 368.609
L483.532 368.615
L482.503 368.46
L481.473 368.634
L479.415 368.518
L478.385 368.791
L476.327 368.504
L475.298 368.6
L474.269 368.422
L471.182 368.685
L470.153 368.55
L467.066 368.569
L466.037 368.474
L463.98 368.614
L462.951 368.46
L461.923 368.645
L460.894 368.537
L459.866 368.716
L458.837 368.423
L457.809 368.501
L455.752 368.397
L454.724 368.501
L453.696 368.35
L451.639 368.354
L450.611 368.167
L443.416 367.717
L442.388 367.517
L432.113 367.012
L431.086 367.198
L430.059 367.026
L429.031 366.73
L428.004 366.258
L426.977 366.265
L425.95 365.906
L424.923 366.403
L421.842 366.067
L420.816 365.725
L419.789 364.95
L418.762 364.627
L417.735 362.845
L416.709 362.228
L415.682 360.113
L414.656 358.82
L413.629 356.474
L412.603 353.453
L411.576 349.147
L410.55 342.693
L409.524 328.62
L408.497 311.018
L407.471 280.213
L406.445 262.422
L405.419 266.549
L404.393 297.62
L403.367 320.925
L402.341 337.499
L401.315 344.474
L400.289 352.492
L399.263 355.226
L398.237 358.861
L397.211 361.193
L396.185 362.78
L395.16 364.087
L394.134 365.132
L393.109 365.435
L392.083 366.177
L391.058 366.606
L387.981 367.394
L386.956 367.427
L385.931 367.712
L384.906 367.655
L383.88 367.756
L381.83 367.832
L380.805 367.898
L379.78 367.829
L378.755 367.887
L377.73 368.073
L375.681 367.916
L374.656 368.055
L371.582 367.969
L370.557 368.179
L369.533 367.995
L360.314 367.895
L359.29 368.059
L358.266 367.903
L354.171 368.053
L352.123 368.07
L349.053 368.199
L348.029 368.1
L347.006 368.158
L345.982 368.064
L344.959 368.265
L342.912 368.111
L341.889 368.3
L340.866 368.108
L339.843 368.407
L338.82 368.261
L337.797 368.35
L334.728 368.292
L331.659 368.266
L323.479 368.359
L322.457 368.535
L320.413 368.341
L319.391 368.443
L314.281 368.405
L313.259 368.559
L312.237 368.552
L311.215 368.406
L310.193 368.549
L306.107 368.413
L305.086 368.508
L304.064 368.38
L301.001 368.473
L298.958 368.453
L296.916 368.516
L295.895 368.413
L294.874 368.557
L293.853 368.392
L291.812 368.55
L290.791 368.474
L289.77 368.615
L288.75 368.467
L287.729 368.497
L286.709 368.248
L285.688 368.742
L283.647 368.742
L282.627 368.139
L281.607 368.554
L279.566 368.431
L277.526 368.582
L275.486 368.497
L274.466 368.586
L272.427 368.387
L271.407 368.516
L269.368 368.409
L264.27 368.324
L263.251 368.492
L261.212 368.425
L260.193 368.52
L258.155 368.536
L257.136 368.664
L256.117 368.458
L255.098 368.572
L254.079 368.381
L250.004 368.532
L248.986 368.633
L247.967 368.467
L246.949 368.562
L245.93 368.407
L243.894 368.473
L242.875 368.563
L241.857 368.372
L240.839 368.489
L234.731 368.406
L233.714 368.284
L230.661 368.474
L229.643 368.387
L227.608 368.504
L226.591 368.367
L225.573 368.487
L223.539 368.344
L222.522 368.455
L220.487 368.41
L218.453 368.431
L217.437 368.318
L214.386 368.356
L208.287 368.315
L206.254 368.344
L205.238 368.153
L204.222 368.342
L203.206 368.133
L199.142 368.06
L195.079 367.583
L193.048 367.212
L192.032 367.135
L191.017 367.275
L190.001 367.123
L188.986 367.252
L187.971 367.086
L186.956 367.196
L185.94 367.091
L184.925 367.208
L180.865 366.869
L179.851 366.783
L177.821 366.768
L176.807 366.497
L175.792 366.677
L173.763 366.632
L172.749 366.624
L171.734 366.498
L170.72 366.54
L169.706 366.154
L168.692 366.223
L166.663 366.075
L164.635 366.052
L161.594 365.056
L160.58 364.659
L159.567 363.943
L158.553 362.944
L155.513 358.865
L154.499 358.923
L153.486 358.286
L152.473 358.776
L151.46 357.818
L150.446 357.018
L149.433 355.424
L148.42 352.634
L147.407 347.913
L146.395 340.971
L145.382 326.876
L144.369 304.798
L143.356 263.923
L142.344 198.387
L141.331 124.037
L140.318 81.0527
L139.306 136.761
L138.294 212.323
L137.281 232.109
L136.269 242.42
L135.257 283.574
L134.245 329.912
L133.233 350.917
L132.22 358.872
L131.208 362.733
L130.197 365.01
L129.185 366.104
L128.173 366.838
L127.161 367.401
L125.138 367.962
L124.126 367.766
L123.115 368.217
L122.103 368.188
L119.069 368.51
L118.058 368.421
L117.047 368.528
L116.036 368.396
L108.96 368.567
L107.95 368.663
L106.939 368.517
L103.908 368.638
L102.898 368.435
L101.888 368.535
L99.8675 368.471
L98.8575 368.719
L96.8377 368.526
L94.8181 368.783
L92.7988 368.483
L91.7893 368.739
L90.7798 368.54
L88.761 368.629
L87.7516 368.498
L85.7332 368.742
L77.6621 368.742
L77.6621 368.742" style="fill:none;stroke:#ffa500;stroke-linecap:square;"/>
   </g>
   <g id="line2d_9">
    <path clip-path="url(#p291dd02cf4)" d="
M484.561 368.416
L483.532 368.546
L482.503 368.401
L481.473 368.458
L480.444 368.339
L479.415 368.455
L461.923 368.357
L460.894 368.263
L459.866 368.495
L457.809 368.279
L456.781 368.418
L455.752 368.244
L453.696 368.226
L452.668 368.154
L450.611 368.324
L449.583 367.973
L447.527 367.969
L442.388 367.599
L441.36 367.433
L440.333 367.558
L439.305 367.502
L438.278 367.284
L437.25 367.335
L436.223 367.166
L430.059 366.796
L429.031 366.557
L428.004 366.037
L426.977 365.794
L425.95 365.217
L424.923 365.831
L422.869 366.106
L420.816 365.868
L419.789 365.052
L418.762 364.76
L417.735 363.147
L416.709 362.642
L415.682 361.134
L414.656 359.903
L413.629 357.875
L412.603 355.451
L411.576 352.286
L410.55 347.326
L409.524 335.034
L408.497 317.333
L407.471 282.991
L406.445 255.888
L405.419 252.032
L404.393 284.33
L403.367 312.115
L402.341 332.398
L400.289 349.941
L399.263 353.247
L398.237 357.184
L397.211 359.739
L396.185 361.654
L394.134 364.34
L393.109 364.599
L392.083 365.53
L391.058 366.285
L390.032 366.37
L389.007 366.866
L384.906 367.429
L383.88 367.575
L376.705 367.745
L375.681 367.788
L374.656 367.691
L371.582 367.849
L370.557 367.79
L369.533 367.992
L367.484 367.718
L363.387 367.668
L362.363 367.671
L361.338 367.79
L357.242 367.843
L356.219 367.888
L353.147 367.728
L351.1 367.905
L349.053 367.921
L348.029 367.89
L347.006 368.015
L345.982 367.904
L343.935 368.043
L342.912 368.073
L341.889 367.785
L340.866 368.075
L338.82 367.929
L337.797 368.138
L336.774 368.198
L334.728 368.087
L332.682 367.98
L330.637 368.187
L329.614 368.067
L327.569 368.116
L316.324 368.131
L315.302 368.327
L312.237 368.208
L308.15 368.279
L307.129 368.173
L303.043 368.292
L302.022 368.138
L299.979 368.37
L295.895 368.159
L294.874 368.377
L293.853 368.241
L292.832 368.422
L291.812 368.21
L287.729 368.232
L286.709 368.039
L285.688 368.742
L283.647 368.742
L282.627 367.998
L281.607 368.251
L277.526 368.364
L275.486 368.171
L274.466 368.278
L272.427 368.179
L271.407 368.323
L270.387 368.172
L268.348 368.318
L267.328 368.122
L264.27 368.252
L262.232 368.177
L261.212 368.397
L260.193 368.238
L257.136 368.406
L256.117 368.164
L253.06 368.318
L251.023 368.211
L250.004 368.333
L248.986 368.061
L246.949 368.36
L243.894 368.215
L242.875 368.192
L240.839 368.382
L239.821 368.107
L237.785 368.332
L235.749 368.084
L234.731 368.265
L233.714 368.287
L232.696 368.041
L231.678 368.395
L230.661 368.148
L229.643 368.348
L227.608 368.225
L226.591 368.303
L225.573 368.11
L223.539 368.133
L221.504 368.055
L220.487 368.289
L218.453 368.034
L217.437 368.198
L216.42 368.064
L215.403 368.139
L214.386 368.031
L213.37 368.215
L212.353 368.029
L211.336 368
L210.32 368.233
L206.254 367.924
L205.238 368.045
L199.142 367.881
L197.11 367.569
L196.095 367.432
L195.079 367.499
L193.048 367.059
L191.017 366.942
L188.986 367.133
L187.971 366.888
L181.88 366.777
L180.865 366.503
L179.851 366.67
L178.836 366.712
L177.821 366.419
L176.807 366.38
L175.792 366.523
L174.777 366.459
L173.763 366.546
L170.72 366.277
L169.706 366.115
L168.692 366.076
L167.677 366.224
L166.663 366.003
L165.649 365.9
L164.635 366.007
L163.622 365.766
L162.608 365.249
L161.594 365.005
L159.567 364.064
L158.553 363.281
L157.539 362.237
L155.513 359.372
L154.499 359.226
L153.486 358.397
L152.473 359.017
L151.46 358.078
L150.446 357.662
L149.433 355.935
L148.42 353.775
L147.407 349.609
L146.395 344.645
L145.382 333.91
L144.369 316.975
L143.356 281.619
L142.344 218.681
L141.331 137.016
L140.318 72.2635
L139.306 114.713
L138.294 204.596
L137.281 230.157
L136.269 235.738
L135.257 272.078
L134.245 323.536
L133.233 348.433
L132.22 357.672
L131.208 361.937
L130.197 364.513
L129.185 365.623
L128.173 366.442
L127.161 367.089
L124.126 367.872
L122.103 367.821
L121.092 368.073
L120.081 368.007
L119.069 368.208
L118.058 367.994
L117.047 368.157
L116.036 368
L115.025 368.051
L114.014 368.343
L113.003 368.197
L111.992 368.496
L110.982 368.079
L109.971 368.258
L107.95 368.243
L106.939 368.468
L105.929 368.281
L92.7988 368.248
L91.7893 368.459
L90.7798 368.372
L89.7703 368.42
L88.761 368.101
L86.7424 368.349
L85.7332 368.742
L77.6621 368.742
L77.6621 368.742" style="fill:none;stroke:#008000;stroke-linecap:square;"/>
   </g>
   <g id="line2d_10">
    <path clip-path="url(#p291dd02cf4)" d="
M484.561 368.5
L483.532 368.563
L482.503 368.537
L481.473 368.443
L479.415 368.552
L471.182 368.558
L470.153 368.683
L469.124 368.499
L468.095 368.533
L467.066 368.429
L466.037 368.6
L462.951 368.442
L460.894 368.559
L459.866 368.422
L458.837 368.554
L448.555 368.208
L447.527 368.34
L445.471 368.09
L442.388 367.83
L441.36 367.936
L435.195 367.501
L434.168 367.604
L433.14 367.527
L432.113 367.642
L430.059 367.214
L429.031 366.929
L428.004 366.232
L426.977 365.782
L425.95 365.02
L424.923 365.418
L423.896 365.687
L422.869 366.157
L421.842 365.969
L420.816 365.962
L419.789 365.226
L418.762 364.844
L417.735 363.353
L416.709 362.978
L415.682 361.096
L414.656 360.171
L412.603 356.339
L411.576 353.734
L410.55 349.073
L409.524 338.626
L408.497 322.293
L406.445 254.474
L405.419 241.624
L403.367 304.251
L402.341 328.025
L400.289 348.296
L399.263 351.568
L398.237 355.777
L397.211 358.651
L396.185 360.876
L395.16 362.199
L394.134 363.93
L393.109 363.951
L392.083 365.297
L391.058 366.011
L386.956 367.113
L385.931 367.332
L384.906 367.337
L383.88 367.536
L380.805 367.667
L379.78 367.789
L378.755 367.753
L377.73 367.88
L376.705 367.809
L374.656 367.856
L364.411 367.936
L362.363 367.754
L361.338 367.894
L357.242 367.852
L356.219 367.943
L355.195 367.838
L354.171 367.947
L353.147 367.945
L352.123 368.09
L350.076 367.911
L349.053 368.227
L348.029 367.949
L344.959 368.138
L342.912 367.984
L340.866 368.253
L337.797 368.109
L336.774 368.206
L335.751 368.04
L334.728 368.332
L333.705 368.158
L332.682 368.258
L331.659 368.152
L330.637 368.375
L329.614 368.179
L328.592 368.423
L327.569 368.162
L320.413 368.324
L318.368 368.259
L316.324 368.392
L314.281 368.406
L312.237 368.372
L310.193 368.441
L309.172 368.286
L308.15 368.245
L307.129 368.495
L306.107 368.356
L304.064 368.457
L303.043 368.422
L302.022 368.269
L301.001 368.433
L299.979 368.258
L298.958 368.469
L297.937 368.434
L296.916 368.522
L295.895 368.386
L294.874 368.504
L293.853 368.463
L292.832 368.297
L291.812 368.433
L290.791 368.307
L288.75 368.477
L286.709 368.162
L285.688 368.742
L283.647 368.742
L282.627 367.972
L281.607 368.41
L280.587 368.286
L279.566 368.427
L278.546 368.298
L274.466 368.582
L273.446 368.27
L268.348 368.491
L267.328 368.319
L266.309 368.318
L265.29 368.441
L264.27 368.432
L263.251 368.243
L261.212 368.443
L259.174 368.436
L258.155 368.398
L257.136 368.185
L256.117 368.501
L255.098 368.34
L254.079 368.43
L247.967 368.238
L245.93 368.491
L244.912 368.324
L241.857 368.461
L236.767 368.272
L235.749 368.415
L233.714 368.191
L231.678 368.335
L230.661 368.232
L224.556 368.392
L223.539 368.289
L222.522 368.346
L221.504 368.244
L220.487 368.343
L219.47 368.153
L218.453 368.228
L217.437 368.17
L216.42 368.348
L215.403 368.253
L212.353 368.406
L211.336 368.112
L210.32 368.221
L208.287 368.128
L206.254 368.27
L205.238 368.123
L204.222 368.259
L203.206 368.042
L200.158 368.037
L199.142 367.922
L198.126 367.965
L196.095 367.614
L195.079 367.706
L193.048 367.1
L185.94 367.104
L184.925 367.25
L183.91 366.963
L182.895 366.87
L181.88 366.971
L179.851 366.661
L178.836 366.805
L177.821 366.533
L176.807 366.458
L171.734 366.6
L170.72 366.484
L169.706 366.236
L168.692 366.353
L167.677 366.182
L166.663 366.28
L165.649 365.905
L163.622 366.025
L161.594 365.21
L160.58 365.003
L159.567 364.484
L158.553 363.717
L157.539 362.732
L156.526 361.454
L155.513 359.799
L154.499 359.431
L153.486 358.654
L152.473 359.174
L151.46 358.391
L150.446 357.877
L149.433 356.707
L148.42 354.342
L147.407 350.819
L146.395 346.052
L145.382 337.091
L144.369 322.598
L143.356 292.521
L142.344 235.532
L140.318 76.5039
L139.306 91.0629
L138.294 186.864
L137.281 228.667
L136.269 233.474
L135.257 259.693
L134.245 312.751
L133.233 344.561
L132.22 355.876
L131.208 361.225
L130.197 364.1
L129.185 365.628
L127.161 367.214
L125.138 367.576
L124.126 367.892
L122.103 368.093
L120.081 368.101
L119.069 368.222
L118.058 368.139
L116.036 368.304
L113.003 368.249
L111.992 368.488
L109.971 368.359
L107.95 368.489
L104.919 368.484
L103.908 368.553
L102.898 368.421
L101.888 368.533
L99.8675 368.365
L98.8575 368.561
L97.8476 368.644
L95.8279 368.369
L94.8181 368.532
L92.7988 368.471
L91.7893 368.674
L90.7798 368.475
L87.7516 368.474
L86.7424 368.371
L85.7332 368.742
L77.6621 368.742
L77.6621 368.742" style="fill:none;stroke:#800080;stroke-linecap:square;"/>
   </g>
   <g id="line2d_11">
    <path clip-path="url(#p291dd02cf4)" d="
M484.561 368.721
L483.532 368.829
L482.503 368.855
L481.473 368.639
L480.444 368.808
L477.356 368.8
L476.327 368.711
L473.24 368.843
L472.211 368.684
L471.182 368.796
L470.153 369.096
L469.124 368.781
L468.095 368.888
L467.066 368.742
L465.009 368.875
L463.98 368.705
L462.951 368.74
L461.923 368.888
L455.752 368.75
L454.724 368.6
L452.668 368.628
L451.639 368.594
L450.611 368.714
L448.555 368.515
L447.527 368.565
L445.471 368.322
L442.388 368.2
L441.36 368.245
L437.25 367.748
L434.168 367.931
L433.14 367.853
L432.113 367.928
L431.086 367.744
L429.031 367.035
L425.95 365.233
L424.923 365.78
L422.869 366.394
L421.842 366.18
L420.816 366.192
L419.789 365.348
L418.762 364.846
L417.735 363.328
L416.709 363.075
L415.682 361.044
L414.656 360.006
L413.629 358.312
L412.603 355.773
L411.576 352.421
L410.55 347.127
L409.524 333.855
L408.497 313.838
L407.471 275.804
L406.445 249.702
L405.419 251.933
L404.393 287.42
L403.367 314.817
L402.341 333.126
L401.315 341.127
L400.289 350.429
L399.263 353.223
L398.237 357.019
L397.211 359.65
L396.185 361.682
L395.16 362.909
L394.134 364.434
L393.109 364.566
L392.083 365.779
L391.058 366.391
L390.032 366.774
L389.007 366.976
L387.981 367.299
L383.88 367.839
L381.83 368.012
L380.805 367.936
L377.73 368.198
L376.705 368.055
L374.656 368.166
L368.508 368.179
L366.46 368.125
L363.387 368.142
L362.363 368.072
L360.314 368.182
L350.076 368.272
L349.053 368.517
L347.006 368.241
L344.959 368.46
L342.912 368.338
L341.889 368.513
L340.866 368.438
L339.843 368.537
L337.797 368.359
L336.774 368.546
L335.751 368.435
L334.728 368.634
L333.705 368.412
L332.682 368.515
L331.659 368.458
L330.637 368.653
L329.614 368.448
L328.592 368.707
L327.569 368.419
L324.502 368.512
L323.479 368.74
L322.457 368.515
L321.435 368.528
L320.413 368.894
L319.391 368.63
L318.368 368.54
L317.346 368.668
L316.324 368.609
L314.281 368.757
L313.259 368.607
L311.215 368.699
L310.193 368.606
L309.172 368.627
L308.15 368.534
L307.129 368.738
L306.107 368.631
L304.064 368.761
L302.022 368.635
L301.001 368.746
L299.979 368.596
L298.958 368.732
L297.937 368.68
L296.916 368.776
L295.895 368.652
L294.874 368.842
L291.812 368.659
L290.791 368.651
L289.77 368.818
L287.729 368.752
L286.709 368.412
L285.688 368.742
L283.647 368.742
L282.627 368.273
L281.607 368.561
L275.486 368.768
L274.466 368.881
L273.446 368.588
L272.427 368.604
L271.407 368.76
L270.387 368.661
L269.368 368.893
L265.29 368.678
L264.27 368.724
L263.251 368.459
L262.232 368.749
L261.212 368.663
L258.155 368.753
L257.136 368.517
L256.117 368.787
L255.098 368.598
L253.06 368.711
L252.042 368.594
L250.004 368.727
L247.967 368.493
L245.93 368.793
L244.912 368.651
L242.875 368.667
L238.803 368.575
L236.767 368.496
L235.749 368.633
L232.696 368.556
L224.556 368.699
L223.539 368.584
L222.522 368.743
L221.504 368.534
L220.487 368.6
L219.47 368.446
L218.453 368.527
L217.437 368.469
L216.42 368.65
L214.386 368.521
L212.353 368.678
L211.336 368.475
L209.303 368.491
L208.287 368.418
L206.254 368.607
L205.238 368.436
L204.222 368.534
L203.206 368.394
L200.158 368.331
L197.11 368.064
L195.079 367.852
L193.048 367.395
L192.032 367.512
L191.017 367.358
L185.94 367.371
L184.925 367.494
L183.91 367.368
L182.895 367.072
L181.88 367.173
L180.865 367.128
L179.851 366.96
L178.836 367.049
L177.821 366.828
L176.807 366.789
L175.792 366.901
L174.777 366.83
L173.763 367.004
L172.749 366.801
L170.72 366.832
L169.706 366.482
L168.692 366.656
L167.677 366.515
L165.649 366.385
L164.635 366.274
L163.622 366.287
L162.608 365.748
L161.594 365.388
L160.58 365.223
L159.567 364.543
L157.539 362.742
L155.513 359.839
L154.499 359.64
L153.486 358.856
L152.473 359.507
L151.46 358.345
L150.446 357.872
L149.433 356.471
L148.42 353.889
L147.407 349.71
L146.395 344.227
L145.382 333.447
L144.369 315.014
L143.356 278.391
L142.344 213.648
L141.331 129.324
L140.318 68.22
L139.306 114.986
L138.294 202.606
L137.281 227.738
L136.269 235.52
L135.257 272.234
L134.245 322.856
L133.233 348.222
L132.22 357.796
L131.208 362.323
L130.197 364.74
L129.185 366.156
L128.173 366.901
L127.161 367.423
L124.126 368.197
L123.115 368.395
L120.081 368.401
L116.036 368.553
L115.025 368.53
L114.014 368.669
L113.003 368.596
L111.992 368.721
L109.971 368.685
L108.96 368.858
L104.919 368.719
L103.908 368.834
L102.898 368.733
L101.888 368.868
L92.7988 368.716
L91.7893 368.962
L89.7703 368.758
L88.761 368.658
L87.7516 368.784
L86.7424 368.699
L83.715 368.742
L77.6621 368.742
L77.6621 368.742" style="fill:none;stroke:#ff0000;stroke-linecap:square;"/>
   </g>
   <g id="patch_3">
    <path d="
M55.3909 23.1417
L501.791 23.1417" style="fill:none;stroke:#000000;stroke-linecap:square;stroke-linejoin:miter;"/>
   </g>
   <g id="patch_4">
    <path d="
M501.791 368.742
L501.791 23.1417" style="fill:none;stroke:#000000;stroke-linecap:square;stroke-linejoin:miter;"/>
   </g>
   <g id="patch_5">
    <path d="
M55.3909 368.742
L501.791 368.742" style="fill:none;stroke:#000000;stroke-linecap:square;stroke-linejoin:miter;"/>
   </g>
   <g id="patch_6">
    <path d="
M55.3909 368.742
L55.3909 23.1417" style="fill:none;stroke:#000000;stroke-linecap:square;stroke-linejoin:miter;"/>
   </g>
   <g id="matplotlib.axis_1">
    <g id="xtick_1">
     <g id="line2d_12">
      <defs>
       <path d="
M0 0
L0 -4" id="m93b0483c22" style="stroke:#000000;stroke-width:0.5;"/>
      </defs>
      <g>
       <use style="stroke:#000000;stroke-width:0.5;" x="55.390875" xlink:href="#m93b0483c22" y="368.74175"/>
      </g>
     </g>
     <g id="line2d_13">
      <defs>
       <path d="
M0 0
L0 4" id="m741efc42ff" style="stroke:#000000;stroke-width:0.5;"/>
      </defs>
      <g>
       <use style="stroke:#000000;stroke-width:0.5;" x="55.390875" xlink:href="#m741efc42ff" y="23.14175"/>
      </g>
     </g>
     <g id="text_1">
      <!-- 4800 -->
      <defs>
       <path d="
M31.7812 34.625
Q24.75 34.625 20.7188 30.8594
Q16.7031 27.0938 16.7031 20.5156
Q16.7031 13.9219 20.7188 10.1562
Q24.75 6.39062 31.7812 6.39062
Q38.8125 6.39062 42.8594 10.1719
Q46.9219 13.9688 46.9219 20.5156
Q46.9219 27.0938 42.8906 30.8594
Q38.875 34.625 31.7812 34.625
M21.9219 38.8125
Q15.5781 40.375 12.0312 44.7188
Q8.5 49.0781 8.5 55.3281
Q8.5 64.0625 14.7188 69.1406
Q20.9531 74.2188 31.7812 74.2188
Q42.6719 74.2188 48.875 69.1406
Q55.0781 64.0625 55.0781 55.3281
Q55.0781 49.0781 51.5312 44.7188
Q48 40.375 41.7031 38.8125
Q48.8281 37.1562 52.7969 32.3125
Q56.7812 27.4844 56.7812 20.5156
Q56.7812 9.90625 50.3125 4.23438
Q43.8438 -1.42188 31.7812 -1.42188
Q19.7344 -1.42188 13.25 4.23438
Q6.78125 9.90625 6.78125 20.5156
Q6.78125 27.4844 10.7812 32.3125
Q14.7969 37.1562 21.9219 38.8125
M18.3125 54.3906
Q18.3125 48.7344 21.8438 45.5625
Q25.3906 42.3906 31.7812 42.3906
Q38.1406 42.3906 41.7188 45.5625
Q45.3125 48.7344 45.3125 54.3906
Q45.3125 60.0625 41.7188 63.2344
Q38.1406 66.4062 31.7812 66.4062
Q25.3906 66.4062 21.8438 63.2344
Q18.3125 60.0625 18.3125 54.3906" id="BitstreamVeraSans-Roman-38"/>
       <path d="
M31.7812 66.4062
Q24.1719 66.4062 20.3281 58.9062
Q16.5 51.4219 16.5 36.375
Q16.5 21.3906 20.3281 13.8906
Q24.1719 6.39062 31.7812 6.39062
Q39.4531 6.39062 43.2812 13.8906
Q47.125 21.3906 47.125 36.375
Q47.125 51.4219 43.2812 58.9062
Q39.4531 66.4062 31.7812 66.4062
M31.7812 74.2188
Q44.0469 74.2188 50.5156 64.5156
Q56.9844 54.8281 56.9844 36.375
Q56.9844 17.9688 50.5156 8.26562
Q44.0469 -1.42188 31.7812 -1.42188
Q19.5312 -1.42188 13.0625 8.26562
Q6.59375 17.9688 6.59375 36.375
Q6.59375 54.8281 13.0625 64.5156
Q19.5312 74.2188 31.7812 74.2188" id="BitstreamVeraSans-Roman-30"/>
       <path d="
M37.7969 64.3125
L12.8906 25.3906
L37.7969 25.3906
z

M35.2031 72.9062
L47.6094 72.9062
L47.6094 25.3906
L58.0156 25.3906
L58.0156 17.1875
L47.6094 17.1875
L47.6094 0
L37.7969 0
L37.7969 17.1875
L4.89062 17.1875
L4.89062 26.7031
z
" id="BitstreamVeraSans-Roman-34"/>
      </defs>
      <g transform="translate(40.81275 381.859875)scale(0.12 -0.12)">
       <use xlink:href="#BitstreamVeraSans-Roman-34"/>
       <use x="63.623046875" xlink:href="#BitstreamVeraSans-Roman-38"/>
       <use x="127.24609375" xlink:href="#BitstreamVeraSans-Roman-30"/>
       <use x="190.869140625" xlink:href="#BitstreamVeraSans-Roman-30"/>
      </g>
     </g>
    </g>
    <g id="xtick_2">
     <g id="line2d_14">
      <g>
       <use style="stroke:#000000;stroke-width:0.5;" x="111.190875" xlink:href="#m93b0483c22" y="368.74175"/>
      </g>
     </g>
     <g id="line2d_15">
      <g>
       <use style="stroke:#000000;stroke-width:0.5;" x="111.190875" xlink:href="#m741efc42ff" y="23.14175"/>
      </g>
     </g>
     <g id="text_2">
      <!-- 4900 -->
      <defs>
       <path d="
M10.9844 1.51562
L10.9844 10.5
Q14.7031 8.73438 18.5 7.8125
Q22.3125 6.89062 25.9844 6.89062
Q35.75 6.89062 40.8906 13.4531
Q46.0469 20.0156 46.7812 33.4062
Q43.9531 29.2031 39.5938 26.9531
Q35.25 24.7031 29.9844 24.7031
Q19.0469 24.7031 12.6719 31.3125
Q6.29688 37.9375 6.29688 49.4219
Q6.29688 60.6406 12.9375 67.4219
Q19.5781 74.2188 30.6094 74.2188
Q43.2656 74.2188 49.9219 64.5156
Q56.5938 54.8281 56.5938 36.375
Q56.5938 19.1406 48.4062 8.85938
Q40.2344 -1.42188 26.4219 -1.42188
Q22.7031 -1.42188 18.8906 -0.6875
Q15.0938 0.046875 10.9844 1.51562
M30.6094 32.4219
Q37.25 32.4219 41.125 36.9531
Q45.0156 41.5 45.0156 49.4219
Q45.0156 57.2812 41.125 61.8438
Q37.25 66.4062 30.6094 66.4062
Q23.9688 66.4062 20.0938 61.8438
Q16.2188 57.2812 16.2188 49.4219
Q16.2188 41.5 20.0938 36.9531
Q23.9688 32.4219 30.6094 32.4219" id="BitstreamVeraSans-Roman-39"/>
      </defs>
      <g transform="translate(96.61275 381.859875)scale(0.12 -0.12)">
       <use xlink:href="#BitstreamVeraSans-Roman-34"/>
       <use x="63.623046875" xlink:href="#BitstreamVeraSans-Roman-39"/>
       <use x="127.24609375" xlink:href="#BitstreamVeraSans-Roman-30"/>
       <use x="190.869140625" xlink:href="#BitstreamVeraSans-Roman-30"/>
      </g>
     </g>
    </g>
    <g id="xtick_3">
     <g id="line2d_16">
      <g>
       <use style="stroke:#000000;stroke-width:0.5;" x="166.990875" xlink:href="#m93b0483c22" y="368.74175"/>
      </g>
     </g>
     <g id="line2d_17">
      <g>
       <use style="stroke:#000000;stroke-width:0.5;" x="166.990875" xlink:href="#m741efc42ff" y="23.14175"/>
      </g>
     </g>
     <g id="text_3">
      <!-- 5000 -->
      <defs>
       <path d="
M10.7969 72.9062
L49.5156 72.9062
L49.5156 64.5938
L19.8281 64.5938
L19.8281 46.7344
Q21.9688 47.4688 24.1094 47.8281
Q26.2656 48.1875 28.4219 48.1875
Q40.625 48.1875 47.75 41.5
Q54.8906 34.8125 54.8906 23.3906
Q54.8906 11.625 47.5625 5.09375
Q40.2344 -1.42188 26.9062 -1.42188
Q22.3125 -1.42188 17.5469 -0.640625
Q12.7969 0.140625 7.71875 1.70312
L7.71875 11.625
Q12.1094 9.23438 16.7969 8.0625
Q21.4844 6.89062 26.7031 6.89062
Q35.1562 6.89062 40.0781 11.3281
Q45.0156 15.7656 45.0156 23.3906
Q45.0156 31 40.0781 35.4375
Q35.1562 39.8906 26.7031 39.8906
Q22.75 39.8906 18.8125 39.0156
Q14.8906 38.1406 10.7969 36.2812
z
" id="BitstreamVeraSans-Roman-35"/>
      </defs>
      <g transform="translate(152.5824375 381.859875)scale(0.12 -0.12)">
       <use xlink:href="#BitstreamVeraSans-Roman-35"/>
       <use x="63.623046875" xlink:href="#BitstreamVeraSans-Roman-30"/>
       <use x="127.24609375" xlink:href="#BitstreamVeraSans-Roman-30"/>
       <use x="190.869140625" xlink:href="#BitstreamVeraSans-Roman-30"/>
      </g>
     </g>
    </g>
    <g id="xtick_4">
     <g id="line2d_18">
      <g>
       <use style="stroke:#000000;stroke-width:0.5;" x="222.790875" xlink:href="#m93b0483c22" y="368.74175"/>
      </g>
     </g>
     <g id="line2d_19">
      <g>
       <use style="stroke:#000000;stroke-width:0.5;" x="222.790875" xlink:href="#m741efc42ff" y="23.14175"/>
      </g>
     </g>
     <g id="text_4">
      <!-- 5100 -->
      <defs>
       <path d="
M12.4062 8.29688
L28.5156 8.29688
L28.5156 63.9219
L10.9844 60.4062
L10.9844 69.3906
L28.4219 72.9062
L38.2812 72.9062
L38.2812 8.29688
L54.3906 8.29688
L54.3906 0
L12.4062 0
z
" id="BitstreamVeraSans-Roman-31"/>
      </defs>
      <g transform="translate(208.3824375 381.859875)scale(0.12 -0.12)">
       <use xlink:href="#BitstreamVeraSans-Roman-35"/>
       <use x="63.623046875" xlink:href="#BitstreamVeraSans-Roman-31"/>
       <use x="127.24609375" xlink:href="#BitstreamVeraSans-Roman-30"/>
       <use x="190.869140625" xlink:href="#BitstreamVeraSans-Roman-30"/>
      </g>
     </g>
    </g>
    <g id="xtick_5">
     <g id="line2d_20">
      <g>
       <use style="stroke:#000000;stroke-width:0.5;" x="278.590875" xlink:href="#m93b0483c22" y="368.74175"/>
      </g>
     </g>
     <g id="line2d_21">
      <g>
       <use style="stroke:#000000;stroke-width:0.5;" x="278.590875" xlink:href="#m741efc42ff" y="23.14175"/>
      </g>
     </g>
     <g id="text_5">
      <!-- 5200 -->
      <defs>
       <path d="
M19.1875 8.29688
L53.6094 8.29688
L53.6094 0
L7.32812 0
L7.32812 8.29688
Q12.9375 14.1094 22.625 23.8906
Q32.3281 33.6875 34.8125 36.5312
Q39.5469 41.8438 41.4219 45.5312
Q43.3125 49.2188 43.3125 52.7812
Q43.3125 58.5938 39.2344 62.25
Q35.1562 65.9219 28.6094 65.9219
Q23.9688 65.9219 18.8125 64.3125
Q13.6719 62.7031 7.8125 59.4219
L7.8125 69.3906
Q13.7656 71.7812 18.9375 73
Q24.125 74.2188 28.4219 74.2188
Q39.75 74.2188 46.4844 68.5469
Q53.2188 62.8906 53.2188 53.4219
Q53.2188 48.9219 51.5312 44.8906
Q49.8594 40.875 45.4062 35.4062
Q44.1875 33.9844 37.6406 27.2188
Q31.1094 20.4531 19.1875 8.29688" id="BitstreamVeraSans-Roman-32"/>
      </defs>
      <g transform="translate(264.1824375 381.859875)scale(0.12 -0.12)">
       <use xlink:href="#BitstreamVeraSans-Roman-35"/>
       <use x="63.623046875" xlink:href="#BitstreamVeraSans-Roman-32"/>
       <use x="127.24609375" xlink:href="#BitstreamVeraSans-Roman-30"/>
       <use x="190.869140625" xlink:href="#BitstreamVeraSans-Roman-30"/>
      </g>
     </g>
    </g>
    <g id="xtick_6">
     <g id="line2d_22">
      <g>
       <use style="stroke:#000000;stroke-width:0.5;" x="334.390875" xlink:href="#m93b0483c22" y="368.74175"/>
      </g>
     </g>
     <g id="line2d_23">
      <g>
       <use style="stroke:#000000;stroke-width:0.5;" x="334.390875" xlink:href="#m741efc42ff" y="23.14175"/>
      </g>
     </g>
     <g id="text_6">
      <!-- 5300 -->
      <defs>
       <path d="
M40.5781 39.3125
Q47.6562 37.7969 51.625 33
Q55.6094 28.2188 55.6094 21.1875
Q55.6094 10.4062 48.1875 4.48438
Q40.7656 -1.42188 27.0938 -1.42188
Q22.5156 -1.42188 17.6562 -0.515625
Q12.7969 0.390625 7.625 2.20312
L7.625 11.7188
Q11.7188 9.32812 16.5938 8.10938
Q21.4844 6.89062 26.8125 6.89062
Q36.0781 6.89062 40.9375 10.5469
Q45.7969 14.2031 45.7969 21.1875
Q45.7969 27.6406 41.2812 31.2656
Q36.7656 34.9062 28.7188 34.9062
L20.2188 34.9062
L20.2188 43.0156
L29.1094 43.0156
Q36.375 43.0156 40.2344 45.9219
Q44.0938 48.8281 44.0938 54.2969
Q44.0938 59.9062 40.1094 62.9062
Q36.1406 65.9219 28.7188 65.9219
Q24.6562 65.9219 20.0156 65.0312
Q15.375 64.1562 9.8125 62.3125
L9.8125 71.0938
Q15.4375 72.6562 20.3438 73.4375
Q25.25 74.2188 29.5938 74.2188
Q40.8281 74.2188 47.3594 69.1094
Q53.9062 64.0156 53.9062 55.3281
Q53.9062 49.2656 50.4375 45.0938
Q46.9688 40.9219 40.5781 39.3125" id="BitstreamVeraSans-Roman-33"/>
      </defs>
      <g transform="translate(319.9824375 381.859875)scale(0.12 -0.12)">
       <use xlink:href="#BitstreamVeraSans-Roman-35"/>
       <use x="63.623046875" xlink:href="#BitstreamVeraSans-Roman-33"/>
       <use x="127.24609375" xlink:href="#BitstreamVeraSans-Roman-30"/>
       <use x="190.869140625" xlink:href="#BitstreamVeraSans-Roman-30"/>
      </g>
     </g>
    </g>
    <g id="xtick_7">
     <g id="line2d_24">
      <g>
       <use style="stroke:#000000;stroke-width:0.5;" x="390.190875" xlink:href="#m93b0483c22" y="368.74175"/>
      </g>
     </g>
     <g id="line2d_25">
      <g>
       <use style="stroke:#000000;stroke-width:0.5;" x="390.190875" xlink:href="#m741efc42ff" y="23.14175"/>
      </g>
     </g>
     <g id="text_7">
      <!-- 5400 -->
      <g transform="translate(375.7824375 381.859875)scale(0.12 -0.12)">
       <use xlink:href="#BitstreamVeraSans-Roman-35"/>
       <use x="63.623046875" xlink:href="#BitstreamVeraSans-Roman-34"/>
       <use x="127.24609375" xlink:href="#BitstreamVeraSans-Roman-30"/>
       <use x="190.869140625" xlink:href="#BitstreamVeraSans-Roman-30"/>
      </g>
     </g>
    </g>
    <g id="xtick_8">
     <g id="line2d_26">
      <g>
       <use style="stroke:#000000;stroke-width:0.5;" x="445.990875" xlink:href="#m93b0483c22" y="368.74175"/>
      </g>
     </g>
     <g id="line2d_27">
      <g>
       <use style="stroke:#000000;stroke-width:0.5;" x="445.990875" xlink:href="#m741efc42ff" y="23.14175"/>
      </g>
     </g>
     <g id="text_8">
      <!-- 5500 -->
      <g transform="translate(431.5824375 381.859875)scale(0.12 -0.12)">
       <use xlink:href="#BitstreamVeraSans-Roman-35"/>
       <use x="63.623046875" xlink:href="#BitstreamVeraSans-Roman-35"/>
       <use x="127.24609375" xlink:href="#BitstreamVeraSans-Roman-30"/>
       <use x="190.869140625" xlink:href="#BitstreamVeraSans-Roman-30"/>
      </g>
     </g>
    </g>
    <g id="xtick_9">
     <g id="line2d_28">
      <g>
       <use style="stroke:#000000;stroke-width:0.5;" x="501.790875" xlink:href="#m93b0483c22" y="368.74175"/>
      </g>
     </g>
     <g id="line2d_29">
      <g>
       <use style="stroke:#000000;stroke-width:0.5;" x="501.790875" xlink:href="#m741efc42ff" y="23.14175"/>
      </g>
     </g>
     <g id="text_9">
      <!-- 5600 -->
      <defs>
       <path d="
M33.0156 40.375
Q26.375 40.375 22.4844 35.8281
Q18.6094 31.2969 18.6094 23.3906
Q18.6094 15.5312 22.4844 10.9531
Q26.375 6.39062 33.0156 6.39062
Q39.6562 6.39062 43.5312 10.9531
Q47.4062 15.5312 47.4062 23.3906
Q47.4062 31.2969 43.5312 35.8281
Q39.6562 40.375 33.0156 40.375
M52.5938 71.2969
L52.5938 62.3125
Q48.875 64.0625 45.0938 64.9844
Q41.3125 65.9219 37.5938 65.9219
Q27.8281 65.9219 22.6719 59.3281
Q17.5312 52.7344 16.7969 39.4062
Q19.6719 43.6562 24.0156 45.9219
Q28.375 48.1875 33.5938 48.1875
Q44.5781 48.1875 50.9531 41.5156
Q57.3281 34.8594 57.3281 23.3906
Q57.3281 12.1562 50.6875 5.35938
Q44.0469 -1.42188 33.0156 -1.42188
Q20.3594 -1.42188 13.6719 8.26562
Q6.98438 17.9688 6.98438 36.375
Q6.98438 53.6562 15.1875 63.9375
Q23.3906 74.2188 37.2031 74.2188
Q40.9219 74.2188 44.7031 73.4844
Q48.4844 72.75 52.5938 71.2969" id="BitstreamVeraSans-Roman-36"/>
      </defs>
      <g transform="translate(487.3824375 381.859875)scale(0.12 -0.12)">
       <use xlink:href="#BitstreamVeraSans-Roman-35"/>
       <use x="63.623046875" xlink:href="#BitstreamVeraSans-Roman-36"/>
       <use x="127.24609375" xlink:href="#BitstreamVeraSans-Roman-30"/>
       <use x="190.869140625" xlink:href="#BitstreamVeraSans-Roman-30"/>
      </g>
     </g>
    </g>
    <g id="text_10">
     <!-- Energy (eV) -->
     <defs>
      <path id="BitstreamVeraSans-Roman-20"/>
      <path d="
M54.8906 33.0156
L54.8906 0
L45.9062 0
L45.9062 32.7188
Q45.9062 40.4844 42.875 44.3281
Q39.8438 48.1875 33.7969 48.1875
Q26.5156 48.1875 22.3125 43.5469
Q18.1094 38.9219 18.1094 30.9062
L18.1094 0
L9.07812 0
L9.07812 54.6875
L18.1094 54.6875
L18.1094 46.1875
Q21.3438 51.125 25.7031 53.5625
Q30.0781 56 35.7969 56
Q45.2188 56 50.0469 50.1719
Q54.8906 44.3438 54.8906 33.0156" id="BitstreamVeraSans-Roman-6e"/>
      <path d="
M31 75.875
Q24.4688 64.6562 21.2812 53.6562
Q18.1094 42.6719 18.1094 31.3906
Q18.1094 20.125 21.3125 9.0625
Q24.5156 -2 31 -13.1875
L23.1875 -13.1875
Q15.875 -1.70312 12.2344 9.375
Q8.59375 20.4531 8.59375 31.3906
Q8.59375 42.2812 12.2031 53.3125
Q15.8281 64.3594 23.1875 75.875
z
" id="BitstreamVeraSans-Roman-28"/>
      <path d="
M8.01562 75.875
L15.8281 75.875
Q23.1406 64.3594 26.7812 53.3125
Q30.4219 42.2812 30.4219 31.3906
Q30.4219 20.4531 26.7812 9.375
Q23.1406 -1.70312 15.8281 -13.1875
L8.01562 -13.1875
Q14.5 -2 17.7031 9.0625
Q20.9062 20.125 20.9062 31.3906
Q20.9062 42.6719 17.7031 53.6562
Q14.5 64.6562 8.01562 75.875" id="BitstreamVeraSans-Roman-29"/>
      <path d="
M9.8125 72.9062
L55.9062 72.9062
L55.9062 64.5938
L19.6719 64.5938
L19.6719 43.0156
L54.3906 43.0156
L54.3906 34.7188
L19.6719 34.7188
L19.6719 8.29688
L56.7812 8.29688
L56.7812 0
L9.8125 0
z
" id="BitstreamVeraSans-Roman-45"/>
      <path d="
M28.6094 0
L0.78125 72.9062
L11.0781 72.9062
L34.1875 11.5312
L57.3281 72.9062
L67.5781 72.9062
L39.7969 0
z
" id="BitstreamVeraSans-Roman-56"/>
      <path d="
M32.1719 -5.07812
Q28.375 -14.8438 24.75 -17.8125
Q21.1406 -20.7969 15.0938 -20.7969
L7.90625 -20.7969
L7.90625 -13.2812
L13.1875 -13.2812
Q16.8906 -13.2812 18.9375 -11.5156
Q21 -9.76562 23.4844 -3.21875
L25.0938 0.875
L2.98438 54.6875
L12.5 54.6875
L29.5938 11.9219
L46.6875 54.6875
L56.2031 54.6875
z
" id="BitstreamVeraSans-Roman-79"/>
      <path d="
M56.2031 29.5938
L56.2031 25.2031
L14.8906 25.2031
Q15.4844 15.9219 20.4844 11.0625
Q25.4844 6.20312 34.4219 6.20312
Q39.5938 6.20312 44.4531 7.46875
Q49.3125 8.73438 54.1094 11.2812
L54.1094 2.78125
Q49.2656 0.734375 44.1875 -0.34375
Q39.1094 -1.42188 33.8906 -1.42188
Q20.7969 -1.42188 13.1562 6.1875
Q5.51562 13.8125 5.51562 26.8125
Q5.51562 40.2344 12.7656 48.1094
Q20.0156 56 32.3281 56
Q43.3594 56 49.7812 48.8906
Q56.2031 41.7969 56.2031 29.5938
M47.2188 32.2344
Q47.125 39.5938 43.0938 43.9844
Q39.0625 48.3906 32.4219 48.3906
Q24.9062 48.3906 20.3906 44.1406
Q15.875 39.8906 15.1875 32.1719
z
" id="BitstreamVeraSans-Roman-65"/>
      <path d="
M45.4062 27.9844
Q45.4062 37.75 41.375 43.1094
Q37.3594 48.4844 30.0781 48.4844
Q22.8594 48.4844 18.8281 43.1094
Q14.7969 37.75 14.7969 27.9844
Q14.7969 18.2656 18.8281 12.8906
Q22.8594 7.51562 30.0781 7.51562
Q37.3594 7.51562 41.375 12.8906
Q45.4062 18.2656 45.4062 27.9844
M54.3906 6.78125
Q54.3906 -7.17188 48.1875 -13.9844
Q42 -20.7969 29.2031 -20.7969
Q24.4688 -20.7969 20.2656 -20.0938
Q16.0625 -19.3906 12.1094 -17.9219
L12.1094 -9.1875
Q16.0625 -11.3281 19.9219 -12.3438
Q23.7812 -13.375 27.7812 -13.375
Q36.625 -13.375 41.0156 -8.76562
Q45.4062 -4.15625 45.4062 5.17188
L45.4062 9.625
Q42.625 4.78125 38.2812 2.39062
Q33.9375 0 27.875 0
Q17.8281 0 11.6719 7.65625
Q5.51562 15.3281 5.51562 27.9844
Q5.51562 40.6719 11.6719 48.3281
Q17.8281 56 27.875 56
Q33.9375 56 38.2812 53.6094
Q42.625 51.2188 45.4062 46.3906
L45.4062 54.6875
L54.3906 54.6875
z
" id="BitstreamVeraSans-Roman-67"/>
      <path d="
M41.1094 46.2969
Q39.5938 47.1719 37.8125 47.5781
Q36.0312 48 33.8906 48
Q26.2656 48 22.1875 43.0469
Q18.1094 38.0938 18.1094 28.8125
L18.1094 0
L9.07812 0
L9.07812 54.6875
L18.1094 54.6875
L18.1094 46.1875
Q20.9531 51.1719 25.4844 53.5781
Q30.0312 56 36.5312 56
Q37.4531 56 38.5781 55.875
Q39.7031 55.7656 41.0625 55.5156
z
" id="BitstreamVeraSans-Roman-72"/>
     </defs>
     <g transform="translate(236.738625 400.29725)scale(0.144 -0.144)">
      <use xlink:href="#BitstreamVeraSans-Roman-45"/>
      <use x="63.18359375" xlink:href="#BitstreamVeraSans-Roman-6e"/>
      <use x="126.5625" xlink:href="#BitstreamVeraSans-Roman-65"/>
      <use x="188.0859375" xlink:href="#BitstreamVeraSans-Roman-72"/>
      <use x="227.44921875" xlink:href="#BitstreamVeraSans-Roman-67"/>
      <use x="290.92578125" xlink:href="#BitstreamVeraSans-Roman-79"/>
      <use x="350.10546875" xlink:href="#BitstreamVeraSans-Roman-20"/>
      <use x="381.892578125" xlink:href="#BitstreamVeraSans-Roman-28"/>
      <use x="420.90625" xlink:href="#BitstreamVeraSans-Roman-65"/>
      <use x="482.4296875" xlink:href="#BitstreamVeraSans-Roman-56"/>
      <use x="550.837890625" xlink:href="#BitstreamVeraSans-Roman-29"/>
     </g>
    </g>
   </g>
   <g id="matplotlib.axis_2">
    <g id="ytick_1">
     <g id="line2d_30">
      <defs>
       <path d="
M0 0
L4 0" id="m728421d6d4" style="stroke:#000000;stroke-width:0.5;"/>
      </defs>
      <g>
       <use style="stroke:#000000;stroke-width:0.5;" x="55.390875" xlink:href="#m728421d6d4" y="368.74175"/>
      </g>
     </g>
     <g id="line2d_31">
      <defs>
       <path d="
M0 0
L-4 0" id="mcb0005524f" style="stroke:#000000;stroke-width:0.5;"/>
      </defs>
      <g>
       <use style="stroke:#000000;stroke-width:0.5;" x="501.790875" xlink:href="#mcb0005524f" y="368.74175"/>
      </g>
     </g>
     <g id="text_11">
      <!-- 0.00 -->
      <defs>
       <path d="
M10.6875 12.4062
L21 12.4062
L21 0
L10.6875 0
z
" id="BitstreamVeraSans-Roman-2e"/>
      </defs>
      <g transform="translate(26.26025 372.053)scale(0.12 -0.12)">
       <use xlink:href="#BitstreamVeraSans-Roman-30"/>
       <use x="63.623046875" xlink:href="#BitstreamVeraSans-Roman-2e"/>
       <use x="95.41015625" xlink:href="#BitstreamVeraSans-Roman-30"/>
       <use x="159.033203125" xlink:href="#BitstreamVeraSans-Roman-30"/>
      </g>
     </g>
    </g>
    <g id="ytick_2">
     <g id="line2d_32">
      <g>
       <use style="stroke:#000000;stroke-width:0.5;" x="55.390875" xlink:href="#m728421d6d4" y="329.521137072"/>
      </g>
     </g>
     <g id="line2d_33">
      <g>
       <use style="stroke:#000000;stroke-width:0.5;" x="501.790875" xlink:href="#mcb0005524f" y="329.521137072"/>
      </g>
     </g>
     <g id="text_12">
      <!-- 0.02 -->
      <g transform="translate(26.66525 332.832387072)scale(0.12 -0.12)">
       <use xlink:href="#BitstreamVeraSans-Roman-30"/>
       <use x="63.623046875" xlink:href="#BitstreamVeraSans-Roman-2e"/>
       <use x="95.41015625" xlink:href="#BitstreamVeraSans-Roman-30"/>
       <use x="159.033203125" xlink:href="#BitstreamVeraSans-Roman-32"/>
      </g>
     </g>
    </g>
    <g id="ytick_3">
     <g id="line2d_34">
      <g>
       <use style="stroke:#000000;stroke-width:0.5;" x="55.390875" xlink:href="#m728421d6d4" y="290.300524144"/>
      </g>
     </g>
     <g id="line2d_35">
      <g>
       <use style="stroke:#000000;stroke-width:0.5;" x="501.790875" xlink:href="#mcb0005524f" y="290.300524144"/>
      </g>
     </g>
     <g id="text_13">
      <!-- 0.04 -->
      <g transform="translate(26.1365 293.611774144)scale(0.12 -0.12)">
       <use xlink:href="#BitstreamVeraSans-Roman-30"/>
       <use x="63.623046875" xlink:href="#BitstreamVeraSans-Roman-2e"/>
       <use x="95.41015625" xlink:href="#BitstreamVeraSans-Roman-30"/>
       <use x="159.033203125" xlink:href="#BitstreamVeraSans-Roman-34"/>
      </g>
     </g>
    </g>
    <g id="ytick_4">
     <g id="line2d_36">
      <g>
       <use style="stroke:#000000;stroke-width:0.5;" x="55.390875" xlink:href="#m728421d6d4" y="251.079911216"/>
      </g>
     </g>
     <g id="line2d_37">
      <g>
       <use style="stroke:#000000;stroke-width:0.5;" x="501.790875" xlink:href="#mcb0005524f" y="251.079911216"/>
      </g>
     </g>
     <g id="text_14">
      <!-- 0.06 -->
      <g transform="translate(26.219 254.391161216)scale(0.12 -0.12)">
       <use xlink:href="#BitstreamVeraSans-Roman-30"/>
       <use x="63.623046875" xlink:href="#BitstreamVeraSans-Roman-2e"/>
       <use x="95.41015625" xlink:href="#BitstreamVeraSans-Roman-30"/>
       <use x="159.033203125" xlink:href="#BitstreamVeraSans-Roman-36"/>
      </g>
     </g>
    </g>
    <g id="ytick_5">
     <g id="line2d_38">
      <g>
       <use style="stroke:#000000;stroke-width:0.5;" x="55.390875" xlink:href="#m728421d6d4" y="211.859298287"/>
      </g>
     </g>
     <g id="line2d_39">
      <g>
       <use style="stroke:#000000;stroke-width:0.5;" x="501.790875" xlink:href="#mcb0005524f" y="211.859298287"/>
      </g>
     </g>
     <g id="text_15">
      <!-- 0.08 -->
      <g transform="translate(26.284625 215.170548287)scale(0.12 -0.12)">
       <use xlink:href="#BitstreamVeraSans-Roman-30"/>
       <use x="63.623046875" xlink:href="#BitstreamVeraSans-Roman-2e"/>
       <use x="95.41015625" xlink:href="#BitstreamVeraSans-Roman-30"/>
       <use x="159.033203125" xlink:href="#BitstreamVeraSans-Roman-38"/>
      </g>
     </g>
    </g>
    <g id="ytick_6">
     <g id="line2d_40">
      <g>
       <use style="stroke:#000000;stroke-width:0.5;" x="55.390875" xlink:href="#m728421d6d4" y="172.638685359"/>
      </g>
     </g>
     <g id="line2d_41">
      <g>
       <use style="stroke:#000000;stroke-width:0.5;" x="501.790875" xlink:href="#mcb0005524f" y="172.638685359"/>
      </g>
     </g>
     <g id="text_16">
      <!-- 0.10 -->
      <g transform="translate(26.26025 175.949935359)scale(0.12 -0.12)">
       <use xlink:href="#BitstreamVeraSans-Roman-30"/>
       <use x="63.623046875" xlink:href="#BitstreamVeraSans-Roman-2e"/>
       <use x="95.41015625" xlink:href="#BitstreamVeraSans-Roman-31"/>
       <use x="159.033203125" xlink:href="#BitstreamVeraSans-Roman-30"/>
      </g>
     </g>
    </g>
    <g id="ytick_7">
     <g id="line2d_42">
      <g>
       <use style="stroke:#000000;stroke-width:0.5;" x="55.390875" xlink:href="#m728421d6d4" y="133.418072431"/>
      </g>
     </g>
     <g id="line2d_43">
      <g>
       <use style="stroke:#000000;stroke-width:0.5;" x="501.790875" xlink:href="#mcb0005524f" y="133.418072431"/>
      </g>
     </g>
     <g id="text_17">
      <!-- 0.12 -->
      <g transform="translate(26.66525 136.729322431)scale(0.12 -0.12)">
       <use xlink:href="#BitstreamVeraSans-Roman-30"/>
       <use x="63.623046875" xlink:href="#BitstreamVeraSans-Roman-2e"/>
       <use x="95.41015625" xlink:href="#BitstreamVeraSans-Roman-31"/>
       <use x="159.033203125" xlink:href="#BitstreamVeraSans-Roman-32"/>
      </g>
     </g>
    </g>
    <g id="ytick_8">
     <g id="line2d_44">
      <g>
       <use style="stroke:#000000;stroke-width:0.5;" x="55.390875" xlink:href="#m728421d6d4" y="94.1974595029"/>
      </g>
     </g>
     <g id="line2d_45">
      <g>
       <use style="stroke:#000000;stroke-width:0.5;" x="501.790875" xlink:href="#mcb0005524f" y="94.1974595029"/>
      </g>
     </g>
     <g id="text_18">
      <!-- 0.14 -->
      <g transform="translate(26.1365 97.5087095029)scale(0.12 -0.12)">
       <use xlink:href="#BitstreamVeraSans-Roman-30"/>
       <use x="63.623046875" xlink:href="#BitstreamVeraSans-Roman-2e"/>
       <use x="95.41015625" xlink:href="#BitstreamVeraSans-Roman-31"/>
       <use x="159.033203125" xlink:href="#BitstreamVeraSans-Roman-34"/>
      </g>
     </g>
    </g>
    <g id="ytick_9">
     <g id="line2d_46">
      <g>
       <use style="stroke:#000000;stroke-width:0.5;" x="55.390875" xlink:href="#m728421d6d4" y="54.9768465747"/>
      </g>
     </g>
     <g id="line2d_47">
      <g>
       <use style="stroke:#000000;stroke-width:0.5;" x="501.790875" xlink:href="#mcb0005524f" y="54.9768465747"/>
      </g>
     </g>
     <g id="text_19">
      <!-- 0.16 -->
      <g transform="translate(26.219 58.2880965747)scale(0.12 -0.12)">
       <use xlink:href="#BitstreamVeraSans-Roman-30"/>
       <use x="63.623046875" xlink:href="#BitstreamVeraSans-Roman-2e"/>
       <use x="95.41015625" xlink:href="#BitstreamVeraSans-Roman-31"/>
       <use x="159.033203125" xlink:href="#BitstreamVeraSans-Roman-36"/>
      </g>
     </g>
    </g>
    <g id="text_20">
     <!-- Counts -->
     <defs>
      <path d="
M8.5 21.5781
L8.5 54.6875
L17.4844 54.6875
L17.4844 21.9219
Q17.4844 14.1562 20.5 10.2656
Q23.5312 6.39062 29.5938 6.39062
Q36.8594 6.39062 41.0781 11.0312
Q45.3125 15.6719 45.3125 23.6875
L45.3125 54.6875
L54.2969 54.6875
L54.2969 0
L45.3125 0
L45.3125 8.40625
Q42.0469 3.42188 37.7188 1
Q33.4062 -1.42188 27.6875 -1.42188
Q18.2656 -1.42188 13.375 4.4375
Q8.5 10.2969 8.5 21.5781" id="BitstreamVeraSans-Roman-75"/>
      <path d="
M30.6094 48.3906
Q23.3906 48.3906 19.1875 42.75
Q14.9844 37.1094 14.9844 27.2969
Q14.9844 17.4844 19.1562 11.8438
Q23.3438 6.20312 30.6094 6.20312
Q37.7969 6.20312 41.9844 11.8594
Q46.1875 17.5312 46.1875 27.2969
Q46.1875 37.0156 41.9844 42.7031
Q37.7969 48.3906 30.6094 48.3906
M30.6094 56
Q42.3281 56 49.0156 48.375
Q55.7188 40.7656 55.7188 27.2969
Q55.7188 13.875 49.0156 6.21875
Q42.3281 -1.42188 30.6094 -1.42188
Q18.8438 -1.42188 12.1719 6.21875
Q5.51562 13.875 5.51562 27.2969
Q5.51562 40.7656 12.1719 48.375
Q18.8438 56 30.6094 56" id="BitstreamVeraSans-Roman-6f"/>
      <path d="
M64.4062 67.2812
L64.4062 56.8906
Q59.4219 61.5312 53.7812 63.8125
Q48.1406 66.1094 41.7969 66.1094
Q29.2969 66.1094 22.6562 58.4688
Q16.0156 50.8281 16.0156 36.375
Q16.0156 21.9688 22.6562 14.3281
Q29.2969 6.6875 41.7969 6.6875
Q48.1406 6.6875 53.7812 8.98438
Q59.4219 11.2812 64.4062 15.9219
L64.4062 5.60938
Q59.2344 2.09375 53.4375 0.328125
Q47.6562 -1.42188 41.2188 -1.42188
Q24.6562 -1.42188 15.125 8.70312
Q5.60938 18.8438 5.60938 36.375
Q5.60938 53.9531 15.125 64.0781
Q24.6562 74.2188 41.2188 74.2188
Q47.75 74.2188 53.5312 72.4844
Q59.3281 70.75 64.4062 67.2812" id="BitstreamVeraSans-Roman-43"/>
      <path d="
M18.3125 70.2188
L18.3125 54.6875
L36.8125 54.6875
L36.8125 47.7031
L18.3125 47.7031
L18.3125 18.0156
Q18.3125 11.3281 20.1406 9.42188
Q21.9688 7.51562 27.5938 7.51562
L36.8125 7.51562
L36.8125 0
L27.5938 0
Q17.1875 0 13.2344 3.875
Q9.28125 7.76562 9.28125 18.0156
L9.28125 47.7031
L2.6875 47.7031
L2.6875 54.6875
L9.28125 54.6875
L9.28125 70.2188
z
" id="BitstreamVeraSans-Roman-74"/>
      <path d="
M44.2812 53.0781
L44.2812 44.5781
Q40.4844 46.5312 36.375 47.5
Q32.2812 48.4844 27.875 48.4844
Q21.1875 48.4844 17.8438 46.4375
Q14.5 44.3906 14.5 40.2812
Q14.5 37.1562 16.8906 35.375
Q19.2812 33.5938 26.5156 31.9844
L29.5938 31.2969
Q39.1562 29.25 43.1875 25.5156
Q47.2188 21.7812 47.2188 15.0938
Q47.2188 7.46875 41.1875 3.01562
Q35.1562 -1.42188 24.6094 -1.42188
Q20.2188 -1.42188 15.4531 -0.5625
Q10.6875 0.296875 5.42188 2
L5.42188 11.2812
Q10.4062 8.6875 15.2344 7.39062
Q20.0625 6.10938 24.8125 6.10938
Q31.1562 6.10938 34.5625 8.28125
Q37.9844 10.4531 37.9844 14.4062
Q37.9844 18.0625 35.5156 20.0156
Q33.0625 21.9688 24.7031 23.7812
L21.5781 24.5156
Q13.2344 26.2656 9.51562 29.9062
Q5.8125 33.5469 5.8125 39.8906
Q5.8125 47.6094 11.2812 51.7969
Q16.75 56 26.8125 56
Q31.7812 56 36.1719 55.2656
Q40.5781 54.5469 44.2812 53.0781" id="BitstreamVeraSans-Roman-73"/>
     </defs>
     <g transform="translate(18.14175 220.319375)rotate(-90.0)scale(0.144 -0.144)">
      <use xlink:href="#BitstreamVeraSans-Roman-43"/>
      <use x="69.82421875" xlink:href="#BitstreamVeraSans-Roman-6f"/>
      <use x="131.005859375" xlink:href="#BitstreamVeraSans-Roman-75"/>
      <use x="194.384765625" xlink:href="#BitstreamVeraSans-Roman-6e"/>
      <use x="257.763671875" xlink:href="#BitstreamVeraSans-Roman-74"/>
      <use x="296.97265625" xlink:href="#BitstreamVeraSans-Roman-73"/>
     </g>
    </g>
   </g>
   <g id="text_21">
    <!-- $K\alpha_1$ -->
    <defs>
     <path d="
M20.125 -1.125
Q15.375 -1.125 11.6875 1.125
Q8.01562 3.375 6 7.17188
Q4 10.9844 4 15.8281
Q4 22.6094 7.78125 29.25
Q11.5781 35.8906 17.8438 40.0312
Q24.125 44.1875 31 44.1875
Q36.0781 44.1875 39.9375 41.5312
Q43.7969 38.875 45.7969 34.4531
Q47.7969 30.0312 47.7969 25
L47.9062 18.3125
Q51.3125 23.0469 53.6875 28.1406
Q56.0625 33.25 57.3281 38.7188
Q57.5156 39.3125 58.1094 39.3125
L59.2812 39.3125
Q60.2031 39.3125 60.2031 38.375
Q60.2031 38.2812 60.1094 38.0938
Q58.9375 33.5 57.1719 29.2656
Q55.4219 25.0469 53.0469 21.0938
Q50.6875 17.1406 47.9062 13.9219
Q47.9062 1.51562 50.7812 1.51562
Q52.6406 1.51562 53.8281 2.60938
Q55.0312 3.71875 55.9375 5.32812
Q56.8438 6.9375 57.0781 6.98438
L58.2969 6.98438
Q59.0781 6.98438 59.0781 6
Q59.0781 3.51562 56.2188 1.1875
Q53.375 -1.125 50.5938 -1.125
Q46.9688 -1.125 44.5781 1.21875
Q42.1875 3.5625 41.3125 7.32812
Q36.625 3.32812 31.1562 1.09375
Q25.6875 -1.125 20.125 -1.125
M20.3125 1.51562
Q31 1.51562 40.8281 10.2969
Q40.7656 10.8906 40.6719 11.7344
Q40.5781 12.5938 40.5781 12.7031
L40.5781 23.4844
Q40.5781 41.6094 30.8125 41.6094
Q24.9531 41.6094 20.5469 36.5938
Q16.1562 31.5938 13.9375 24.625
Q11.7188 17.6719 11.7188 11.9219
Q11.7188 7.5625 13.9375 4.53125
Q16.1562 1.51562 20.3125 1.51562" id="Cmmi10-ae"/>
     <path d="
M9.28125 0
L9.28125 3.51562
Q21.7812 3.51562 21.7812 6.6875
L21.7812 59.1875
Q16.6094 56.6875 8.6875 56.6875
L8.6875 60.2031
Q20.9531 60.2031 27.2031 66.6094
L28.6094 66.6094
Q28.9531 66.6094 29.2656 66.3281
Q29.5938 66.0625 29.5938 65.7188
L29.5938 6.6875
Q29.5938 3.51562 42.0938 3.51562
L42.0938 0
z
" id="Cmr10-31"/>
     <path d="
M4.6875 0
Q3.71875 0 3.71875 1.3125
Q3.76562 1.5625 3.90625 2.17188
Q4.04688 2.78125 4.3125 3.14062
Q4.59375 3.51562 4.98438 3.51562
Q11.0781 3.51562 13.4844 4.20312
Q14.7969 4.64062 15.375 6.89062
L29.1094 61.8125
Q29.2969 62.7969 29.2969 63.1875
Q29.2969 64.2656 28.0781 64.4062
Q26.2188 64.7969 20.9062 64.7969
Q19.9219 64.7969 19.9219 66.1094
Q20.2656 67.3906 20.4531 67.8438
Q20.6562 68.3125 21.5781 68.3125
L48.4844 68.3125
Q49.5156 68.3125 49.5156 67
Q49.4688 66.75 49.3125 66.1562
Q49.1719 65.5781 48.9219 65.1875
Q48.6875 64.7969 48.1875 64.7969
Q42.0938 64.7969 39.7031 64.1094
Q38.375 63.625 37.7969 61.375
L29.6875 29
L68.8906 59.2812
Q69 59.4688 70.1406 60.6094
Q71.2969 61.7656 71.2969 62.8906
Q71.2969 64.7969 67.9219 64.7969
Q66.8906 64.7969 66.8906 66.1094
Q67.0938 66.8906 67.2031 67.3281
Q67.3281 67.7812 67.6406 68.0469
Q67.9688 68.3125 68.6094 68.3125
L87.9844 68.3125
Q88.5312 68.3125 88.7656 67.9219
Q89.0156 67.5312 89.0156 67
Q88.9688 66.75 88.7969 66.1094
Q88.625 65.4844 88.3594 65.1406
Q88.0938 64.7969 87.5938 64.7969
Q80.2812 64.7969 71.5781 58.0156
Q71.5312 57.9531 71.4375 57.9219
Q71.3438 57.9062 71.2344 57.875
Q71.1406 57.8594 71.0938 57.8125
L50.4844 41.7969
L65.4844 6.6875
Q66.8438 4.5 68.4062 4
Q69.9688 3.51562 73.1875 3.51562
Q74.2188 3.51562 74.2188 2.20312
Q73.9219 1.03125 73.625 0.515625
Q73.3438 0 72.5156 0
L49.3125 0
Q48.3906 0 48.3906 1.3125
Q48.5312 2.34375 48.7188 2.92188
Q48.9219 3.51562 49.7031 3.51562
Q52.25 3.51562 54.0312 4.03125
Q55.8125 4.54688 55.8125 6.39062
Q55.8125 7.07812 55.7188 7.42188
L43.3125 36.2812
L28.7188 25
L24.125 6.5
Q23.875 5.28125 23.875 5.07812
Q23.875 4.04688 25.0938 3.90625
Q27 3.51562 32.3281 3.51562
Q33.2969 3.51562 33.2969 2.20312
Q32.9531 0.78125 32.75 0.390625
Q32.5625 0 31.5938 0
z
" id="Cmmi10-4b"/>
    </defs>
    <g transform="translate(140.318475 38.1678369565)scale(0.144 -0.144)">
     <use transform="translate(0.0 0.6875)" xlink:href="#Cmmi10-4b"/>
     <use transform="translate(84.912109375 0.6875)" xlink:href="#Cmmi10-ae"/>
     <use transform="translate(148.828125 -24.821875)scale(0.7)" xlink:href="#Cmr10-31"/>
    </g>
   </g>
   <g id="text_22">
    <!-- $K\alpha_2$ -->
    <defs>
     <path d="
M4.98438 0
L4.98438 2.6875
Q4.98438 2.9375 5.17188 3.21875
L20.7031 20.4062
Q24.2188 24.2188 26.4062 26.7969
Q28.6094 29.3906 30.75 32.7656
Q32.9062 36.1406 34.1562 39.625
Q35.4062 43.1094 35.4062 47.0156
Q35.4062 51.125 33.8906 54.8594
Q32.375 58.5938 29.375 60.8438
Q26.375 63.0938 22.125 63.0938
Q17.7812 63.0938 14.3125 60.4688
Q10.8438 57.8594 9.42188 53.7188
Q9.8125 53.8125 10.5 53.8125
Q12.75 53.8125 14.3281 52.2969
Q15.9219 50.7812 15.9219 48.3906
Q15.9219 46.0938 14.3281 44.5
Q12.75 42.9219 10.5 42.9219
Q8.15625 42.9219 6.5625 44.5469
Q4.98438 46.1875 4.98438 48.3906
Q4.98438 52.1562 6.39062 55.4375
Q7.8125 58.7344 10.4688 61.2969
Q13.1406 63.875 16.4844 65.2344
Q19.8281 66.6094 23.5781 66.6094
Q29.2969 66.6094 34.2188 64.1875
Q39.1562 61.7656 42.0312 57.3438
Q44.9219 52.9375 44.9219 47.0156
Q44.9219 42.6719 43.0156 38.7656
Q41.1094 34.8594 38.125 31.6562
Q35.1562 28.4688 30.5156 24.4062
Q25.875 20.3594 24.4219 19
L13.0938 8.10938
L22.7031 8.10938
Q29.7812 8.10938 34.5469 8.21875
Q39.3125 8.34375 39.5938 8.59375
Q40.7656 9.85938 42 17.8281
L44.9219 17.8281
L42.0938 0
z
" id="Cmr10-32"/>
    </defs>
    <g transform="translate(124.939995 38.1678369565)scale(0.144 -0.144)">
     <use transform="translate(0.0 0.6875)" xlink:href="#Cmmi10-4b"/>
     <use transform="translate(84.912109375 0.6875)" xlink:href="#Cmmi10-ae"/>
     <use transform="translate(148.828125 -24.821875)scale(0.7)" xlink:href="#Cmr10-32"/>
    </g>
   </g>
   <g id="text_23">
    <!-- $K\beta_{1,3}$ -->
    <defs>
     <path d="
M9.51562 7.71875
Q11.8594 4.29688 15.8125 2.64062
Q19.7812 0.984375 24.3125 0.984375
Q30.125 0.984375 32.5625 5.9375
Q35.0156 10.8906 35.0156 17.1875
Q35.0156 20.0156 34.5 22.8438
Q33.9844 25.6875 32.7656 28.125
Q31.5469 30.5625 29.4219 32.0312
Q27.2969 33.5 24.2188 33.5
L17.5781 33.5
Q16.7031 33.5 16.7031 34.4219
L16.7031 35.2969
Q16.7031 36.0781 17.5781 36.0781
L23.0938 36.5312
Q26.6094 36.5312 28.9219 39.1562
Q31.25 41.7969 32.3281 45.5781
Q33.4062 49.3594 33.4062 52.7812
Q33.4062 57.5625 31.1562 60.6406
Q28.9062 63.7188 24.3125 63.7188
Q20.5156 63.7188 17.0469 62.2812
Q13.5781 60.8438 11.5312 57.9062
Q11.7188 57.9531 11.8594 57.9844
Q12.0156 58.0156 12.2031 58.0156
Q14.4531 58.0156 15.9688 56.4531
Q17.4844 54.8906 17.4844 52.6875
Q17.4844 50.5312 15.9688 48.9688
Q14.4531 47.4062 12.2031 47.4062
Q10.0156 47.4062 8.45312 48.9688
Q6.89062 50.5312 6.89062 52.6875
Q6.89062 56.9844 9.46875 60.1562
Q12.0625 63.3281 16.1406 64.9688
Q20.2188 66.6094 24.3125 66.6094
Q27.3438 66.6094 30.7031 65.7031
Q34.0781 64.7969 36.8125 63.1094
Q39.5469 61.4219 41.2812 58.7812
Q43.0156 56.1562 43.0156 52.7812
Q43.0156 48.5781 41.1406 45.0156
Q39.2656 41.4531 35.9844 38.8594
Q32.7188 36.2812 28.8125 35.0156
Q33.1562 34.1875 37.0625 31.7344
Q40.9688 29.2969 43.3281 25.4844
Q45.7031 21.6875 45.7031 17.2812
Q45.7031 11.7656 42.6719 7.29688
Q39.6562 2.82812 34.7188 0.3125
Q29.7812 -2.20312 24.3125 -2.20312
Q19.625 -2.20312 14.9062 -0.40625
Q10.2031 1.375 7.20312 4.9375
Q4.20312 8.5 4.20312 13.4844
Q4.20312 15.9688 5.85938 17.625
Q7.51562 19.2812 10.0156 19.2812
Q11.625 19.2812 12.9688 18.5312
Q14.3125 17.7812 15.0625 16.4062
Q15.8281 15.0469 15.8281 13.4844
Q15.8281 11.0312 14.1094 9.375
Q12.4062 7.71875 10.0156 7.71875
z
" id="Cmr10-33"/>
     <path d="
M2.6875 -19.3906
Q2.39062 -19.3906 2.14062 -19.0469
Q1.90625 -18.7031 1.90625 -18.4062
L17.2812 43.4062
Q18.6094 48.3906 21.1406 53.0781
Q23.6875 57.7656 27.5156 61.7969
Q31.3438 65.8281 35.9375 68.1719
Q40.5312 70.5156 45.7031 70.5156
Q49.4219 70.5156 52.4219 68.875
Q55.4219 67.2344 57.1562 64.2812
Q58.8906 61.3281 58.8906 57.625
Q58.8906 54.0469 57.5156 50.7969
Q56.1562 47.5625 53.7031 44.75
Q51.2656 41.9375 48.4844 40.1875
Q50.0938 39.1562 51.3594 37.5625
Q52.6406 35.9844 53.4219 34.25
Q54.2031 32.5156 54.6406 30.3906
Q55.0781 28.2656 55.0781 26.4219
Q55.0781 21.2969 52.875 16.3125
Q50.6875 11.3281 46.8906 7.26562
Q43.1094 3.21875 38.2188 0.84375
Q33.3438 -1.51562 28.2188 -1.51562
Q22.6094 -1.51562 18.1094 1.5625
Q13.625 4.64062 11.9219 9.90625
L4.6875 -18.7969
Q4.6875 -19.3906 3.90625 -19.3906
z

M28.4219 1.21875
Q32.9062 1.21875 36.5469 4.17188
Q40.1875 7.125 42.5469 11.5938
Q44.9219 16.0625 46.1562 21.0625
Q47.4062 26.0781 47.4062 30.1719
Q47.4062 35.25 44.4844 38.1875
Q41.0625 36.9219 37.7969 36.9219
Q29.8906 36.9219 29.8906 39.5938
Q29.8906 43.1094 38.9219 43.1094
Q42.1406 43.1094 44.8281 42.0938
Q46.9688 43.75 48.7188 46.9688
Q50.4844 50.2031 51.3906 53.7188
Q52.2969 57.2344 52.2969 60.2969
Q52.2969 63.5781 50.5625 65.75
Q48.8281 67.9219 45.5156 67.9219
Q39.4062 67.9219 34.1562 64.1562
Q28.9062 60.4062 25.2969 54.6562
Q21.6875 48.9219 20.125 42.8281
L14.5938 20.7031
Q14.0625 18.4062 13.9219 15.5781
Q13.9219 9.32812 18.0156 5.26562
Q22.125 1.21875 28.4219 1.21875
M32.9062 39.8906
Q34.4219 39.5 37.8906 39.5
Q39.5938 39.5 41.3125 40.0938
Q41.2188 40.1875 40.9219 40.1875
Q39.8438 40.4844 38.625 40.4844
Q34.0781 40.4844 32.9062 39.8906" id="Cmmi10-af"/>
     <path d="
M9.90625 -18.0156
Q9.90625 -17.5781 10.2969 -17.1875
Q13.9219 -13.7188 15.9219 -9.17188
Q17.9219 -4.64062 17.9219 0.390625
L17.9219 1.60938
Q16.3125 0 13.9219 0
Q11.625 0 10.0156 1.60938
Q8.40625 3.21875 8.40625 5.51562
Q8.40625 7.85938 10.0156 9.42188
Q11.625 10.9844 13.9219 10.9844
Q17.4844 10.9844 19 7.6875
Q20.5156 4.39062 20.5156 0.390625
Q20.5156 -5.17188 18.2812 -10.1719
Q16.0625 -15.1875 12.0156 -19.1875
Q11.625 -19.3906 11.375 -19.3906
Q10.8906 -19.3906 10.3906 -18.9375
Q9.90625 -18.5 9.90625 -18.0156" id="Cmmi10-3b"/>
    </defs>
    <g transform="translate(391.468695 218.480880435)scale(0.144 -0.144)">
     <use transform="translate(0.0 0.484375)" xlink:href="#Cmmi10-4b"/>
     <use transform="translate(84.912109375 0.484375)" xlink:href="#Cmmi10-af"/>
     <use transform="translate(141.40625 -25.025)scale(0.7)" xlink:href="#Cmr10-31"/>
     <use transform="translate(176.40625 -25.025)scale(0.7)" xlink:href="#Cmmi10-3b"/>
     <use transform="translate(197.173828125 -25.025)scale(0.7)" xlink:href="#Cmr10-33"/>
    </g>
   </g>
   <g id="text_24">
    <!-- $E_F$ -->
    <defs>
     <path d="
M4.6875 0
Q3.71875 0 3.71875 1.3125
Q3.76562 1.5625 3.90625 2.17188
Q4.04688 2.78125 4.3125 3.14062
Q4.59375 3.51562 4.98438 3.51562
Q11.0781 3.51562 13.4844 4.20312
Q14.7969 4.64062 15.375 6.89062
L29.1094 61.8125
Q29.2969 62.7969 29.2969 63.1875
Q29.2969 64.2656 28.0781 64.4062
Q26.2188 64.7969 20.9062 64.7969
Q19.9219 64.7969 19.9219 66.1094
Q19.9688 66.3594 20.1094 66.9688
Q20.2656 67.5781 20.5312 67.9375
Q20.7969 68.3125 21.1875 68.3125
L74.0312 68.3125
Q75 68.3125 75 67
L72.6094 46.2969
Q72.6094 46 72.2656 45.7031
Q71.9219 45.4062 71.5781 45.4062
L70.7031 45.4062
Q69.6719 45.4062 69.6719 46.6875
Q70.3125 51.2188 70.3125 54.1094
Q70.3125 59.0781 68.1562 61.4219
Q66.0156 63.7656 62.7344 64.2812
Q59.4688 64.7969 53.7188 64.7969
L43.0156 64.7969
Q40.2812 64.7969 39.4062 64.3281
Q38.5312 63.875 37.7969 61.375
L31.3906 35.8906
L38.9219 35.8906
Q42.625 35.8906 44.9219 36.2812
Q47.2188 36.6719 48.7344 37.7969
Q50.25 38.9219 51.25 41.0469
Q52.25 43.1719 53.0781 46.6875
Q53.375 47.6094 54.1094 47.6094
L54.9844 47.6094
Q56 47.6094 56 46.2969
L49.9062 21.5781
Q49.4688 20.7031 48.875 20.7031
L48 20.7031
Q47.0156 20.7031 47.0156 22.0156
Q47.2656 23.0469 47.4062 23.7344
Q47.5625 24.4219 47.7812 25.7031
Q48 27 48 27.9844
Q48 30.8594 45.4531 31.6406
Q42.9219 32.4219 38.8125 32.4219
L30.6094 32.4219
L24.125 6.5
Q23.875 5.51562 23.875 5.51562
Q23.875 4.34375 24.6094 4.20312
Q27.2031 3.51562 34.8125 3.51562
Q35.7969 3.51562 35.7969 2.20312
Q35.4531 0.78125 35.25 0.390625
Q35.0625 0 34.0781 0
z
" id="Cmmi10-46"/>
     <path d="
M4.6875 0
Q3.71875 0 3.71875 1.3125
Q3.76562 1.5625 3.90625 2.17188
Q4.04688 2.78125 4.3125 3.14062
Q4.59375 3.51562 4.98438 3.51562
Q11.0781 3.51562 13.4844 4.20312
Q14.7969 4.64062 15.375 6.89062
L29.1094 61.8125
Q29.2969 62.7969 29.2969 63.1875
Q29.2969 64.2656 28.0781 64.4062
Q26.2188 64.7969 20.9062 64.7969
Q19.9219 64.7969 19.9219 66.1094
Q19.9688 66.3594 20.1094 66.9688
Q20.2656 67.5781 20.5312 67.9375
Q20.7969 68.3125 21.1875 68.3125
L75.3906 68.3125
Q76.4219 68.3125 76.4219 67
L74.0312 46.2969
Q74.0312 46.0469 73.6562 45.7188
Q73.2969 45.4062 73 45.4062
L72.125 45.4062
Q71.0938 45.4062 71.0938 46.6875
Q71.6875 51.5625 71.6875 53.9062
Q71.6875 57.9062 70.3125 60.125
Q68.9531 62.3594 66.6719 63.3281
Q64.4062 64.3125 61.6406 64.5469
Q58.8906 64.7969 54.3906 64.7969
L43.0156 64.7969
Q40.2812 64.7969 39.4062 64.3281
Q38.5312 63.875 37.7969 61.375
L31.7812 37.2031
L39.5938 37.2031
Q44.6719 37.2031 47.2656 37.9062
Q49.8594 38.625 51.3594 40.8594
Q52.875 43.1094 54.1094 48
Q54.2031 48.3438 54.4688 48.6094
Q54.7344 48.875 55.0781 48.875
L56 48.875
Q56.9844 48.875 56.9844 47.6094
L50.7812 22.9062
Q50.5938 22.0156 49.8125 22.0156
L48.875 22.0156
Q47.9062 22.0156 47.9062 23.2969
Q48.875 27.2969 48.875 29.2031
Q48.875 32.125 46.2344 32.9062
Q43.6094 33.6875 39.2031 33.6875
L30.9062 33.6875
L24.125 6.5
Q23.6875 5.28125 23.6875 4.29688
Q23.6875 3.51562 27.0938 3.51562
L39.2031 3.51562
Q46.4375 3.51562 50.9219 4.64062
Q55.4219 5.76562 58.375 8.21875
Q61.3281 10.6875 63.4688 14.5
Q65.625 18.3125 68.7031 25.5938
Q68.8906 26.2188 69.5781 26.2188
L70.5156 26.2188
Q70.9062 26.2188 71.1875 25.875
Q71.4844 25.5312 71.4844 25.0938
Q71.4844 24.9062 71.3906 24.7031
L61.0781 0.59375
Q60.8906 0 60.2969 0
z
" id="Cmmi10-45"/>
    </defs>
    <g transform="translate(426.460875 218.480880435)scale(0.144 -0.144)">
     <use transform="translate(0.0 0.6875)" xlink:href="#Cmmi10-45"/>
     <use transform="translate(73.779296875 -24.821875)scale(0.7)" xlink:href="#Cmmi10-46"/>
    </g>
   </g>
   <g id="text_25">
    <!-- V XES -->
    <defs>
     <path d="
M6.29688 72.9062
L16.8906 72.9062
L35.0156 45.7969
L53.2188 72.9062
L63.8125 72.9062
L40.375 37.8906
L65.375 0
L54.7812 0
L34.2812 31
L13.625 0
L2.98438 0
L29 38.9219
z
" id="BitstreamVeraSans-Roman-58"/>
     <path d="
M53.5156 70.5156
L53.5156 60.8906
Q47.9062 63.5781 42.9219 64.8906
Q37.9375 66.2188 33.2969 66.2188
Q25.25 66.2188 20.875 63.0938
Q16.5 59.9688 16.5 54.2031
Q16.5 49.3594 19.4062 46.8906
Q22.3125 44.4375 30.4219 42.9219
L36.375 41.7031
Q47.4062 39.5938 52.6562 34.2969
Q57.9062 29 57.9062 20.125
Q57.9062 9.51562 50.7969 4.04688
Q43.7031 -1.42188 29.9844 -1.42188
Q24.8125 -1.42188 18.9688 -0.25
Q13.1406 0.921875 6.89062 3.21875
L6.89062 13.375
Q12.8906 10.0156 18.6562 8.29688
Q24.4219 6.59375 29.9844 6.59375
Q38.4219 6.59375 43.0156 9.90625
Q47.6094 13.2344 47.6094 19.3906
Q47.6094 24.75 44.3125 27.7812
Q41.0156 30.8125 33.5 32.3281
L27.4844 33.5
Q16.4531 35.6875 11.5156 40.375
Q6.59375 45.0625 6.59375 53.4219
Q6.59375 63.0938 13.4062 68.6562
Q20.2188 74.2188 32.1719 74.2188
Q37.3125 74.2188 42.625 73.2812
Q47.9531 72.3594 53.5156 70.5156" id="BitstreamVeraSans-Roman-53"/>
    </defs>
    <g transform="translate(257.726625 18.14175)scale(0.144 -0.144)">
     <use xlink:href="#BitstreamVeraSans-Roman-56"/>
     <use x="68.408203125" xlink:href="#BitstreamVeraSans-Roman-20"/>
     <use x="100.1953125" xlink:href="#BitstreamVeraSans-Roman-58"/>
     <use x="168.701171875" xlink:href="#BitstreamVeraSans-Roman-45"/>
     <use x="231.884765625" xlink:href="#BitstreamVeraSans-Roman-53"/>
    </g>
   </g>
   <g id="legend_1">
    <g id="patch_7">
     <path d="
M329.808 163.884
L494.591 163.884
L494.591 30.3417
L329.808 30.3417
z
" style="fill:#ffffff;stroke:#000000;stroke-linejoin:miter;"/>
    </g>
    <g id="line2d_48">
     <path d="
M339.888 42.0035
L360.048 42.0035" style="fill:none;stroke:#0000ff;stroke-linecap:square;"/>
    </g>
    <g id="line2d_49"/>
    <g id="text_26">
     <!-- ScV_2um_1.00 -->
     <defs>
      <path d="
M52 44.1875
Q55.375 50.25 60.0625 53.125
Q64.75 56 71.0938 56
Q79.6406 56 84.2812 50.0156
Q88.9219 44.0469 88.9219 33.0156
L88.9219 0
L79.8906 0
L79.8906 32.7188
Q79.8906 40.5781 77.0938 44.375
Q74.3125 48.1875 68.6094 48.1875
Q61.625 48.1875 57.5625 43.5469
Q53.5156 38.9219 53.5156 30.9062
L53.5156 0
L44.4844 0
L44.4844 32.7188
Q44.4844 40.625 41.7031 44.4062
Q38.9219 48.1875 33.1094 48.1875
Q26.2188 48.1875 22.1562 43.5312
Q18.1094 38.875 18.1094 30.9062
L18.1094 0
L9.07812 0
L9.07812 54.6875
L18.1094 54.6875
L18.1094 46.1875
Q21.1875 51.2188 25.4844 53.6094
Q29.7812 56 35.6875 56
Q41.6562 56 45.8281 52.9688
Q50 49.9531 52 44.1875" id="BitstreamVeraSans-Roman-6d"/>
      <path d="
M50.9844 -16.6094
L50.9844 -23.5781
L-0.984375 -23.5781
L-0.984375 -16.6094
z
" id="BitstreamVeraSans-Roman-5f"/>
      <path d="
M48.7812 52.5938
L48.7812 44.1875
Q44.9688 46.2969 41.1406 47.3438
Q37.3125 48.3906 33.4062 48.3906
Q24.6562 48.3906 19.8125 42.8438
Q14.9844 37.3125 14.9844 27.2969
Q14.9844 17.2812 19.8125 11.7344
Q24.6562 6.20312 33.4062 6.20312
Q37.3125 6.20312 41.1406 7.25
Q44.9688 8.29688 48.7812 10.4062
L48.7812 2.09375
Q45.0156 0.34375 40.9844 -0.53125
Q36.9688 -1.42188 32.4219 -1.42188
Q20.0625 -1.42188 12.7812 6.34375
Q5.51562 14.1094 5.51562 27.2969
Q5.51562 40.6719 12.8594 48.3281
Q20.2188 56 33.0156 56
Q37.1562 56 41.1094 55.1406
Q45.0625 54.2969 48.7812 52.5938" id="BitstreamVeraSans-Roman-63"/>
     </defs>
     <g transform="translate(375.887625 47.0435)scale(0.144 -0.144)">
      <use xlink:href="#BitstreamVeraSans-Roman-53"/>
      <use x="63.4765625" xlink:href="#BitstreamVeraSans-Roman-63"/>
      <use x="118.45703125" xlink:href="#BitstreamVeraSans-Roman-56"/>
      <use x="186.865234375" xlink:href="#BitstreamVeraSans-Roman-5f"/>
      <use x="236.865234375" xlink:href="#BitstreamVeraSans-Roman-32"/>
      <use x="300.48828125" xlink:href="#BitstreamVeraSans-Roman-75"/>
      <use x="363.8671875" xlink:href="#BitstreamVeraSans-Roman-6d"/>
      <use x="461.279296875" xlink:href="#BitstreamVeraSans-Roman-5f"/>
      <use x="511.279296875" xlink:href="#BitstreamVeraSans-Roman-31"/>
      <use x="574.90234375" xlink:href="#BitstreamVeraSans-Roman-2e"/>
      <use x="606.689453125" xlink:href="#BitstreamVeraSans-Roman-30"/>
      <use x="670.3125" xlink:href="#BitstreamVeraSans-Roman-30"/>
     </g>
    </g>
    <g id="line2d_50">
     <path d="
M339.888 63.5405
L360.048 63.5405" style="fill:none;stroke:#000000;stroke-linecap:square;"/>
    </g>
    <g id="line2d_51"/>
    <g id="text_27">
     <!-- ScV_5um_1.00 -->
     <g transform="translate(375.887625 68.5805)scale(0.144 -0.144)">
      <use xlink:href="#BitstreamVeraSans-Roman-53"/>
      <use x="63.4765625" xlink:href="#BitstreamVeraSans-Roman-63"/>
      <use x="118.45703125" xlink:href="#BitstreamVeraSans-Roman-56"/>
      <use x="186.865234375" xlink:href="#BitstreamVeraSans-Roman-5f"/>
      <use x="236.865234375" xlink:href="#BitstreamVeraSans-Roman-35"/>
      <use x="300.48828125" xlink:href="#BitstreamVeraSans-Roman-75"/>
      <use x="363.8671875" xlink:href="#BitstreamVeraSans-Roman-6d"/>
      <use x="461.279296875" xlink:href="#BitstreamVeraSans-Roman-5f"/>
      <use x="511.279296875" xlink:href="#BitstreamVeraSans-Roman-31"/>
      <use x="574.90234375" xlink:href="#BitstreamVeraSans-Roman-2e"/>
      <use x="606.689453125" xlink:href="#BitstreamVeraSans-Roman-30"/>
      <use x="670.3125" xlink:href="#BitstreamVeraSans-Roman-30"/>
     </g>
    </g>
    <g id="line2d_52">
     <path d="
M339.888 85.0775
L360.048 85.0775" style="fill:none;stroke:#ffa500;stroke-linecap:square;"/>
    </g>
    <g id="line2d_53"/>
    <g id="text_28">
     <!-- ScV_10um_1.00 -->
     <g transform="translate(375.887625 90.1175)scale(0.144 -0.144)">
      <use xlink:href="#BitstreamVeraSans-Roman-53"/>
      <use x="63.4765625" xlink:href="#BitstreamVeraSans-Roman-63"/>
      <use x="118.45703125" xlink:href="#BitstreamVeraSans-Roman-56"/>
      <use x="186.865234375" xlink:href="#BitstreamVeraSans-Roman-5f"/>
      <use x="236.865234375" xlink:href="#BitstreamVeraSans-Roman-31"/>
      <use x="300.48828125" xlink:href="#BitstreamVeraSans-Roman-30"/>
      <use x="364.111328125" xlink:href="#BitstreamVeraSans-Roman-75"/>
      <use x="427.490234375" xlink:href="#BitstreamVeraSans-Roman-6d"/>
      <use x="524.90234375" xlink:href="#BitstreamVeraSans-Roman-5f"/>
      <use x="574.90234375" xlink:href="#BitstreamVeraSans-Roman-31"/>
      <use x="638.525390625" xlink:href="#BitstreamVeraSans-Roman-2e"/>
      <use x="670.3125" xlink:href="#BitstreamVeraSans-Roman-30"/>
      <use x="733.935546875" xlink:href="#BitstreamVeraSans-Roman-30"/>
     </g>
    </g>
    <g id="line2d_54">
     <path d="
M339.888 106.614
L360.048 106.614" style="fill:none;stroke:#008000;stroke-linecap:square;"/>
    </g>
    <g id="line2d_55"/>
    <g id="text_29">
     <!-- ScV_20um_1.00 -->
     <g transform="translate(375.887625 111.6545)scale(0.144 -0.144)">
      <use xlink:href="#BitstreamVeraSans-Roman-53"/>
      <use x="63.4765625" xlink:href="#BitstreamVeraSans-Roman-63"/>
      <use x="118.45703125" xlink:href="#BitstreamVeraSans-Roman-56"/>
      <use x="186.865234375" xlink:href="#BitstreamVeraSans-Roman-5f"/>
      <use x="236.865234375" xlink:href="#BitstreamVeraSans-Roman-32"/>
      <use x="300.48828125" xlink:href="#BitstreamVeraSans-Roman-30"/>
      <use x="364.111328125" xlink:href="#BitstreamVeraSans-Roman-75"/>
      <use x="427.490234375" xlink:href="#BitstreamVeraSans-Roman-6d"/>
      <use x="524.90234375" xlink:href="#BitstreamVeraSans-Roman-5f"/>
      <use x="574.90234375" xlink:href="#BitstreamVeraSans-Roman-31"/>
      <use x="638.525390625" xlink:href="#BitstreamVeraSans-Roman-2e"/>
      <use x="670.3125" xlink:href="#BitstreamVeraSans-Roman-30"/>
      <use x="733.935546875" xlink:href="#BitstreamVeraSans-Roman-30"/>
     </g>
    </g>
    <g id="line2d_56">
     <path d="
M339.888 128.151
L360.048 128.151" style="fill:none;stroke:#800080;stroke-linecap:square;"/>
    </g>
    <g id="line2d_57"/>
    <g id="text_30">
     <!-- ScV_40um_1.00 -->
     <g transform="translate(375.887625 133.1915)scale(0.144 -0.144)">
      <use xlink:href="#BitstreamVeraSans-Roman-53"/>
      <use x="63.4765625" xlink:href="#BitstreamVeraSans-Roman-63"/>
      <use x="118.45703125" xlink:href="#BitstreamVeraSans-Roman-56"/>
      <use x="186.865234375" xlink:href="#BitstreamVeraSans-Roman-5f"/>
      <use x="236.865234375" xlink:href="#BitstreamVeraSans-Roman-34"/>
      <use x="300.48828125" xlink:href="#BitstreamVeraSans-Roman-30"/>
      <use x="364.111328125" xlink:href="#BitstreamVeraSans-Roman-75"/>
      <use x="427.490234375" xlink:href="#BitstreamVeraSans-Roman-6d"/>
      <use x="524.90234375" xlink:href="#BitstreamVeraSans-Roman-5f"/>
      <use x="574.90234375" xlink:href="#BitstreamVeraSans-Roman-31"/>
      <use x="638.525390625" xlink:href="#BitstreamVeraSans-Roman-2e"/>
      <use x="670.3125" xlink:href="#BitstreamVeraSans-Roman-30"/>
      <use x="733.935546875" xlink:href="#BitstreamVeraSans-Roman-30"/>
     </g>
    </g>
    <g id="line2d_58">
     <path d="
M339.888 149.688
L360.048 149.688" style="fill:none;stroke:#ff0000;stroke-linecap:square;"/>
    </g>
    <g id="line2d_59"/>
    <g id="text_31">
     <!-- ScV_60um_1.00 -->
     <g transform="translate(375.887625 154.7285)scale(0.144 -0.144)">
      <use xlink:href="#BitstreamVeraSans-Roman-53"/>
      <use x="63.4765625" xlink:href="#BitstreamVeraSans-Roman-63"/>
      <use x="118.45703125" xlink:href="#BitstreamVeraSans-Roman-56"/>
      <use x="186.865234375" xlink:href="#BitstreamVeraSans-Roman-5f"/>
      <use x="236.865234375" xlink:href="#BitstreamVeraSans-Roman-36"/>
      <use x="300.48828125" xlink:href="#BitstreamVeraSans-Roman-30"/>
      <use x="364.111328125" xlink:href="#BitstreamVeraSans-Roman-75"/>
      <use x="427.490234375" xlink:href="#BitstreamVeraSans-Roman-6d"/>
      <use x="524.90234375" xlink:href="#BitstreamVeraSans-Roman-5f"/>
      <use x="574.90234375" xlink:href="#BitstreamVeraSans-Roman-31"/>
      <use x="638.525390625" xlink:href="#BitstreamVeraSans-Roman-2e"/>
      <use x="670.3125" xlink:href="#BitstreamVeraSans-Roman-30"/>
      <use x="733.935546875" xlink:href="#BitstreamVeraSans-Roman-30"/>
     </g>
    </g>
   </g>
  </g>
 </g>
 <defs>
  <clipPath id="p291dd02cf4">
   <rect height="345.6" width="446.4" x="55.390875" y="23.14175"/>
  </clipPath>
 </defs>
</svg>
