<?xml version="1.0" encoding="utf-8" standalone="no"?>
<!DOCTYPE svg PUBLIC "-//W3C//DTD SVG 1.1//EN"
  "http://www.w3.org/Graphics/SVG/1.1/DTD/svg11.dtd">
<!-- Created with matplotlib (http://matplotlib.org/) -->
<svg height="410pt" version="1.1" viewBox="0 0 523 410" width="523pt" xmlns="http://www.w3.org/2000/svg" xmlns:xlink="http://www.w3.org/1999/xlink">
 <defs>
  <style type="text/css">
*{stroke-linecap:butt;stroke-linejoin:round;}
  </style>
 </defs>
 <g id="figure_1">
  <g id="patch_1">
   <path d="
M0 410.492
L523.443 410.492
L523.443 0
L0 0
z
" style="fill:#ffffff;"/>
  </g>
  <g id="axes_1">
   <g id="patch_2">
    <path d="
M55.3909 368.742
L501.791 368.742
L501.791 23.1417
L55.3909 23.1417
z
" style="fill:#ffffff;"/>
   </g>
   <g id="line2d_1">
    <path clip-path="url(#p291dd02cf4)" d="
M477.664 367.834
L472.455 367.757
L471.413 367.511
L470.372 367.674
L469.33 367.517
L468.289 367.72
L467.247 367.336
L466.206 367.668
L465.164 367.18
L464.123 367.407
L462.04 367.415
L459.958 366.938
L454.752 366.277
L452.67 366.153
L451.629 366.271
L450.588 365.756
L449.547 365.669
L448.506 365.394
L447.465 365.735
L446.424 365.441
L445.383 365.339
L444.343 364.891
L442.261 364.692
L441.221 364.09
L440.18 364.123
L439.139 362.825
L438.099 363.192
L437.058 363.378
L436.018 362.7
L434.977 362.54
L433.937 362.111
L432.897 361.478
L431.856 361.304
L430.816 359.705
L429.776 359.864
L428.735 358.174
L427.695 356.898
L426.655 354.14
L424.575 347.264
L423.535 341.141
L422.495 336.565
L420.415 323.981
L419.375 316.475
L418.335 306.832
L417.295 307.277
L416.255 298.547
L415.215 312.295
L414.175 323.168
L413.136 339.74
L412.096 346.68
L411.056 352.169
L410.017 353.799
L408.977 357.447
L406.898 361.281
L405.859 362.555
L404.819 363.429
L403.78 364.521
L402.74 365.326
L401.701 365.748
L400.662 366.339
L399.623 366.393
L398.583 366.688
L397.544 366.784
L396.505 367.172
L395.466 367.149
L394.427 367.466
L393.388 367.138
L392.349 367.434
L388.193 367.498
L387.154 367.721
L386.115 367.623
L384.038 367.68
L382.999 367.561
L381.96 367.646
L380.922 367.51
L379.883 367.704
L375.729 367.542
L374.691 367.827
L373.652 367.554
L371.576 367.859
L370.537 367.68
L368.461 367.888
L367.423 367.618
L362.233 367.865
L360.157 367.693
L359.119 367.972
L356.005 367.778
L354.968 367.982
L353.93 367.969
L352.892 367.817
L351.855 368.022
L350.817 368.077
L349.78 367.958
L348.742 368.088
L347.705 367.883
L344.593 368.154
L343.555 368.121
L342.518 368.221
L340.444 367.991
L338.369 368.139
L337.332 367.978
L336.295 368.25
L335.258 367.965
L334.221 368.097
L333.184 368.365
L332.147 368.293
L331.11 368.512
L330.074 368.03
L329.037 368.292
L326.963 368.159
L323.854 368.353
L322.817 368.144
L321.78 368.381
L319.707 368.279
L312.453 368.244
L311.417 368.424
L310.381 368.331
L309.345 368.511
L308.309 368.129
L306.237 368.449
L303.13 368.214
L302.094 368.594
L300.022 368.401
L298.987 368.043
L297.951 368.44
L296.915 368.405
L295.88 368.156
L294.844 368.389
L293.809 368.179
L292.773 368.507
L291.738 368.183
L289.667 368.369
L288.632 368.229
L287.597 368.368
L286.562 368.263
L285.526 368.454
L284.491 368.368
L281.386 368.597
L280.351 368.138
L278.281 368.356
L277.246 367.864
L276.212 368.742
L274.142 368.742
L273.107 367.593
L272.073 368.019
L271.038 368.319
L270.004 368.018
L267.935 368.185
L266.9 367.946
L265.866 368.116
L263.797 367.936
L262.763 368.123
L261.728 367.8
L259.66 367.914
L258.626 367.593
L257.592 367.637
L256.558 367.447
L253.456 367.66
L252.422 367.447
L251.388 367.56
L250.354 367.344
L249.32 367.56
L248.287 367.506
L247.253 367.736
L246.219 367.846
L245.186 368.229
L244.152 367.898
L243.119 368.312
L241.052 367.995
L238.985 368.266
L237.952 368.085
L236.918 368.371
L235.885 368.22
L233.819 368.313
L231.753 368.349
L230.72 368.081
L229.687 368.19
L228.654 368.019
L227.621 368.394
L225.555 368.304
L224.522 368.355
L223.489 368.09
L222.457 368.241
L221.424 368.185
L220.392 368.253
L219.359 367.945
L218.326 368.166
L211.1 368.131
L210.068 368.382
L209.035 367.796
L208.003 368.097
L206.971 367.928
L205.939 368.221
L203.875 368.105
L202.843 367.816
L199.748 368.085
L198.716 368.014
L197.685 367.817
L196.653 368
L193.558 367.877
L192.527 368.086
L190.464 367.922
L189.433 368.073
L188.401 367.842
L186.339 367.803
L185.308 368.091
L184.277 367.848
L182.214 367.847
L181.183 367.699
L179.122 367.853
L176.029 367.304
L174.998 367.459
L173.968 367.328
L172.937 367.024
L171.906 366.908
L170.876 366.994
L169.845 366.469
L168.815 366.086
L167.784 365.952
L166.754 365.331
L164.693 364.812
L163.663 364.952
L162.633 364.791
L161.603 364.373
L160.573 364.18
L159.543 363.867
L158.513 363.771
L157.483 363.503
L156.453 363.52
L155.423 363.033
L154.393 362.751
L153.363 362.607
L152.333 362.253
L151.304 362.359
L150.274 361.525
L149.244 361.984
L148.215 361.327
L147.185 361.352
L146.156 359.694
L145.126 360.219
L144.097 358.624
L142.038 357.682
L141.009 356.768
L139.98 355.366
L138.95 354.787
L137.921 353.902
L136.892 351.931
L135.863 350.762
L134.834 348.573
L133.805 346.99
L132.776 346.215
L131.747 341.729
L130.719 338.002
L128.661 324.45
L126.604 300.927
L125.575 284.029
L124.547 261.016
L123.518 234.201
L120.433 142.414
L119.405 124.031
L118.376 125.412
L117.348 150.657
L116.32 192.972
L115.292 226.688
L114.264 244.58
L113.236 267.127
L111.18 327.376
L110.152 348.483
L109.124 356.01
L108.096 360.749
L107.068 363.184
L106.041 364.46
L105.013 365.182
L103.986 366.281
L102.958 366.509
L100.903 367.338
L99.8755 367.323
L98.8481 367.508
L97.8208 367.437
L92.6848 368.086
L91.6578 367.843
L90.6308 368.123
L89.6038 367.674
L88.5769 368.075
L87.5501 368.215
L85.4965 368.022
L84.4698 368.254
L82.4165 368.183
L79.3369 368.309
L77.2841 368.483
L76.2578 368.153
L75.2315 368.541
L74.2052 368.289
L73.1791 368.742
L64.9713 368.742
L64.9713 368.742" style="fill:none;stroke:#0000ff;stroke-linecap:square;"/>
   </g>
   <g id="line2d_2">
    <path clip-path="url(#p291dd02cf4)" d="
M55.3909 368.742
L501.791 368.742" style="fill:none;stroke:#000000;stroke-linecap:square;"/>
   </g>
   <g id="line2d_3">
    <path clip-path="url(#p291dd02cf4)" d="
M119.405 383.768
L119.405 38.1678" style="fill:none;stroke:#808080;stroke-linecap:square;"/>
   </g>
   <g id="line2d_4">
    <path clip-path="url(#p291dd02cf4)" d="
M114.265 383.768
L114.265 38.1678" style="fill:none;stroke:#808080;stroke-linecap:square;"/>
   </g>
   <g id="line2d_5">
    <path clip-path="url(#p291dd02cf4)" d="
M416.255 383.768
L416.255 218.481" style="fill:none;stroke:#808080;stroke-linecap:square;"/>
   </g>
   <g id="line2d_6">
    <path clip-path="url(#p291dd02cf4)" d="
M439.853 383.768
L439.853 218.481" style="fill:none;stroke:#808080;stroke-linecap:square;"/>
   </g>
   <g id="line2d_7">
    <path clip-path="url(#p291dd02cf4)" d="
M477.664 368.074
L476.622 368.317
L472.455 368.36
L471.413 368.277
L470.372 367.979
L469.33 368.222
L467.247 367.83
L466.206 367.93
L464.123 367.775
L463.082 367.846
L462.04 367.619
L460.999 367.714
L459.958 367.328
L458.916 367.108
L457.875 367.052
L456.834 367.122
L455.793 366.632
L454.752 366.817
L452.67 366.514
L451.629 366.602
L450.588 366.362
L448.506 366.412
L446.424 366.71
L444.343 366.494
L443.302 366.466
L441.221 366.015
L440.18 365.628
L437.058 365.538
L436.018 365.064
L434.977 365.059
L432.897 364.163
L431.856 363.621
L430.816 362.354
L429.776 361.286
L428.735 359.327
L427.695 357.114
L425.615 348.428
L424.575 342.446
L422.495 327.14
L421.455 317.508
L420.415 309.27
L419.375 298.506
L418.335 286.439
L417.295 285.774
L416.255 280.757
L415.215 300.88
L414.175 316.659
L413.136 334.817
L412.096 342.962
L411.056 348.996
L410.017 351.703
L408.977 355.907
L407.938 357.923
L406.898 360.381
L405.859 362.166
L403.78 364.295
L401.701 365.807
L400.662 366.267
L399.623 366.084
L398.583 366.749
L397.544 366.882
L395.466 367.308
L394.427 367.465
L393.388 367.452
L392.349 367.569
L390.271 367.433
L389.232 367.667
L384.038 367.807
L382.999 367.658
L381.96 367.665
L380.922 367.877
L379.883 367.698
L378.845 367.793
L377.806 367.746
L376.768 367.844
L375.729 367.589
L373.652 367.879
L372.614 367.639
L371.576 368.024
L370.537 367.575
L369.499 367.675
L368.461 367.658
L367.423 367.795
L366.385 367.762
L365.347 367.984
L364.309 367.688
L363.271 367.683
L360.157 368.08
L359.119 367.817
L358.081 367.859
L357.043 367.776
L356.005 367.828
L354.968 368.031
L353.93 367.952
L351.855 368.113
L350.817 367.872
L349.78 367.898
L348.742 368.105
L347.705 368.036
L346.667 368.186
L345.63 368.003
L344.593 368.103
L343.555 368.013
L342.518 368.126
L340.444 368.027
L338.369 368.151
L336.295 368.075
L335.258 368.207
L334.221 368.091
L333.184 368.23
L332.147 368.107
L331.11 368.427
L330.074 368.271
L329.037 368.343
L328 368.26
L325.927 368.404
L322.817 368.058
L320.744 368.402
L319.707 368.396
L318.671 368.638
L316.598 368.258
L315.562 368.428
L313.49 368.291
L312.453 368.013
L311.417 368.339
L310.381 368.273
L309.345 368.41
L308.309 368.105
L307.273 368.368
L306.237 368.226
L305.201 368.382
L304.165 368.301
L302.094 368.378
L301.058 368.243
L300.022 368.53
L298.987 368.359
L297.951 368.44
L296.915 368.311
L295.88 368.666
L294.844 368.423
L288.632 368.366
L287.597 368.529
L286.562 368.292
L285.526 368.39
L284.491 368.37
L283.456 368.566
L282.421 368.388
L281.386 368.523
L280.351 368.215
L279.316 368.171
L278.281 368.691
L277.246 367.899
L276.212 368.742
L274.142 368.742
L273.107 367.771
L272.073 368.561
L271.038 368.158
L270.004 368.486
L268.969 368.183
L267.935 368.332
L266.9 368.286
L265.866 368.446
L263.797 368.389
L262.763 368.223
L261.728 368.352
L260.694 368.284
L258.626 368.421
L257.592 368.12
L256.558 368.426
L255.524 368.096
L254.49 368.303
L253.456 368.07
L252.422 368.015
L251.388 368.134
L249.32 367.942
L247.253 368.276
L246.219 368.154
L242.085 368.361
L241.052 368.168
L237.952 368.401
L234.852 368.252
L233.819 368.522
L232.786 368.167
L230.72 368.577
L229.687 368.322
L228.654 368.488
L227.621 368.088
L226.588 368.56
L225.555 368.285
L224.522 368.378
L223.489 368.23
L221.424 368.315
L220.392 368.411
L219.359 368.272
L218.326 368.408
L213.164 368.342
L211.1 368.104
L210.068 368.301
L208.003 368.409
L205.939 368.178
L204.907 368.229
L203.875 368.081
L201.812 368.29
L199.748 368.063
L194.59 368.223
L192.527 368.013
L191.495 368.247
L187.37 368.071
L184.277 368.151
L183.245 367.954
L182.214 368.091
L178.091 367.991
L177.06 367.867
L176.029 367.901
L171.906 367.535
L170.876 367.262
L169.845 366.751
L168.815 366.717
L167.784 366.387
L166.754 365.847
L164.693 365.496
L163.663 365.323
L162.633 365.422
L161.603 364.97
L160.573 365.047
L159.543 364.783
L158.513 364.774
L157.483 364.604
L155.423 364.077
L154.393 363.599
L153.363 363.709
L152.333 363.325
L151.304 363.391
L150.274 362.871
L148.215 362.822
L147.185 362.658
L146.156 361.657
L145.126 361.872
L143.067 360.942
L142.038 360.77
L141.009 360.406
L139.98 359.134
L138.95 358.231
L137.921 357.165
L135.863 354.485
L134.834 352.426
L133.805 351.566
L132.776 351.029
L131.747 347.936
L130.719 345.854
L129.69 342.109
L128.661 337.139
L126.604 319.676
L125.575 301.92
L124.547 277.443
L123.518 244.462
L120.433 121.954
L119.405 95.8224
L118.376 95.7859
L117.348 129.067
L116.32 177.45
L115.292 209.386
L114.264 228.159
L113.236 255.192
L111.18 325.712
L110.152 347.103
L109.124 355.503
L108.096 360.337
L107.068 362.858
L105.013 365.34
L103.986 365.846
L102.958 366.644
L101.93 367.027
L100.903 366.896
L99.8755 367.286
L96.7935 367.649
L95.7663 367.991
L94.7391 367.585
L93.7119 368.138
L92.6848 367.813
L91.6578 368.061
L90.6308 367.939
L89.6038 368.094
L86.5233 368.234
L85.4965 368.119
L83.4431 368.119
L82.4165 367.938
L81.3899 368.534
L80.3634 368.478
L79.3369 368.29
L78.3105 368.282
L77.2841 368.53
L76.2578 368.472
L75.2315 368.288
L74.2052 368.71
L70.1008 368.742
L64.9713 368.742
L64.9713 368.742" style="fill:none;stroke:#000000;stroke-linecap:square;"/>
   </g>
   <g id="line2d_8">
    <path clip-path="url(#p291dd02cf4)" d="
M477.664 367.906
L476.622 368.212
L474.538 367.754
L473.497 367.964
L472.455 367.773
L471.413 368.105
L470.372 367.845
L469.33 368.093
L466.206 367.889
L465.164 367.841
L464.123 367.602
L463.082 367.714
L459.958 367.464
L457.875 367.286
L456.834 366.895
L455.793 366.869
L454.752 366.955
L453.711 366.726
L452.67 366.659
L451.629 366.739
L450.588 366.302
L449.547 366.072
L448.506 366.399
L446.424 366.437
L445.383 366.103
L443.302 366.011
L442.261 365.912
L441.221 365.227
L440.18 365.53
L439.139 365.317
L438.099 365.392
L437.058 365.776
L433.937 366.082
L432.897 365.732
L431.856 365.826
L430.816 365.377
L429.776 364.715
L427.695 362.078
L426.655 358.904
L425.615 354.948
L424.575 349.043
L422.495 331.88
L420.415 308.887
L419.375 293.501
L418.335 275.58
L417.295 266.341
L416.255 255.975
L415.215 274.423
L414.175 296.814
L413.136 322.105
L412.096 334.776
L411.056 343.033
L410.017 345.974
L408.977 350.99
L407.938 354.396
L406.898 357.289
L405.859 359.295
L403.78 362.744
L402.74 363.709
L401.701 364.446
L400.662 365.008
L399.623 365.034
L398.583 365.946
L397.544 365.959
L396.505 366.409
L395.466 366.537
L394.427 366.81
L393.388 366.635
L392.349 366.922
L391.31 367.038
L387.154 367.008
L385.076 367.327
L382.999 367.147
L381.96 367.18
L380.922 367.358
L378.845 367.081
L375.729 367.322
L373.652 367.135
L371.576 367.222
L369.499 367.102
L368.461 367.186
L366.385 367.107
L365.347 367.226
L364.309 367.162
L363.271 367.407
L358.081 367.336
L357.043 367.489
L356.005 367.403
L353.93 367.468
L351.855 367.316
L350.817 367.467
L349.78 367.49
L347.705 367.748
L345.63 367.446
L344.593 367.711
L343.555 367.495
L340.444 367.652
L339.406 367.434
L338.369 367.643
L336.295 367.583
L335.258 367.699
L333.184 367.508
L332.147 367.79
L331.11 367.824
L330.074 367.694
L329.037 368.067
L328 367.713
L324.89 367.788
L323.854 367.68
L316.598 367.978
L314.526 367.682
L311.417 367.829
L310.381 367.735
L309.345 367.892
L308.309 367.873
L307.273 368.08
L306.237 368.079
L305.201 367.814
L302.094 368.003
L301.058 367.874
L300.022 368.063
L298.987 367.931
L297.951 368.008
L296.915 367.814
L293.809 367.978
L292.773 367.801
L291.738 368.104
L290.703 367.733
L289.667 367.979
L288.632 367.987
L287.597 367.844
L286.562 367.957
L285.526 367.853
L284.491 367.987
L283.456 367.844
L282.421 368.084
L281.386 368.109
L278.281 367.926
L277.246 367.559
L276.212 368.742
L274.142 368.742
L273.107 367.558
L272.073 368.047
L271.038 367.988
L270.004 367.727
L268.969 367.92
L266.9 367.929
L263.797 367.811
L262.763 368.146
L261.728 367.926
L260.694 367.979
L259.66 367.844
L257.592 368.066
L256.558 367.76
L255.524 368.109
L254.49 367.622
L253.456 368.226
L251.388 367.572
L250.354 367.792
L249.32 367.751
L248.287 368.013
L247.253 367.882
L246.219 367.956
L244.152 367.821
L243.119 368.112
L241.052 367.97
L238.985 367.939
L237.952 367.662
L235.885 367.953
L234.852 367.891
L233.819 367.978
L232.786 367.848
L230.72 368.129
L229.687 367.959
L228.654 367.934
L227.621 367.701
L226.588 367.973
L225.555 367.737
L224.522 367.823
L223.489 368.029
L222.457 367.775
L221.424 368.047
L220.392 367.59
L219.359 367.753
L218.326 367.8
L217.294 367.627
L216.261 367.986
L215.229 367.634
L214.197 367.851
L213.164 367.582
L212.132 367.888
L211.1 367.797
L210.068 368.002
L206.971 367.657
L205.939 367.64
L204.907 367.914
L203.875 367.957
L202.843 367.599
L198.716 367.713
L197.685 367.425
L196.653 367.9
L195.621 367.615
L191.495 367.739
L190.464 367.611
L189.433 367.647
L188.401 367.81
L185.308 367.56
L184.277 367.724
L182.214 367.44
L181.183 367.611
L180.152 367.432
L179.122 367.794
L178.091 367.487
L177.06 367.644
L176.029 367.415
L172.937 367.202
L170.876 366.863
L169.845 366.785
L168.815 366.239
L167.784 366.139
L166.754 365.711
L165.724 365.067
L164.693 365.145
L163.663 364.871
L162.633 365.154
L161.603 364.94
L160.573 364.554
L159.543 364.314
L156.453 364.262
L154.393 363.446
L153.363 363.715
L152.333 363.274
L151.304 363.348
L150.274 362.836
L149.244 362.801
L148.215 362.503
L147.185 362.659
L146.156 361.92
L145.126 361.909
L144.097 361.474
L143.067 361.41
L142.038 361.539
L141.009 361.049
L138.95 359.798
L137.921 358.667
L136.892 357.153
L135.863 356.241
L133.805 353.153
L132.776 353.471
L131.747 351.03
L130.719 349.517
L129.69 347.11
L128.661 343.64
L127.632 337.719
L126.604 332.72
L125.575 319.044
L124.547 298.888
L123.518 269.781
L122.49 228.112
L120.433 126.552
L119.405 87.8516
L118.376 74.6223
L117.348 102.281
L116.32 159.538
L115.292 196.149
L114.264 213.34
L113.236 236.66
L112.208 274.657
L111.18 316.778
L110.152 343.285
L109.124 353.482
L108.096 358.917
L107.068 361.729
L106.041 363.725
L105.013 364.592
L103.986 365.645
L102.958 365.918
L101.93 366.59
L99.8755 366.821
L98.8481 367.172
L96.7935 367.36
L95.7663 367.175
L94.7391 367.399
L93.7119 367.352
L92.6848 367.833
L91.6578 367.698
L90.6308 367.692
L89.6038 367.535
L88.5769 367.831
L87.5501 367.642
L83.4431 367.968
L82.4165 367.675
L81.3899 367.995
L80.3634 368.006
L79.3369 367.84
L78.3105 367.888
L77.2841 368.049
L76.2578 367.923
L74.2052 368.1
L73.1791 368.742
L64.9713 368.742
L64.9713 368.742" style="fill:none;stroke:#ffa500;stroke-linecap:square;"/>
   </g>
   <g id="line2d_9">
    <path clip-path="url(#p291dd02cf4)" d="
M477.664 368.389
L476.622 368.44
L475.58 368.252
L474.538 368.57
L473.497 368.267
L472.455 368.371
L471.413 368.282
L470.372 368.41
L469.33 368.338
L468.289 368.153
L466.206 368.472
L465.164 368.211
L464.123 368.154
L463.082 368.297
L460.999 367.907
L459.958 367.948
L458.916 367.877
L457.875 367.95
L456.834 367.776
L455.793 367.753
L454.752 367.532
L453.711 367.602
L452.67 367.329
L450.588 367.325
L449.547 366.944
L448.506 367.062
L444.343 366.521
L443.302 366.53
L441.221 365.717
L439.139 365.061
L438.099 365.297
L437.058 365.824
L436.018 365.865
L434.977 366.143
L433.937 366.552
L432.897 366.086
L431.856 365.984
L430.816 365.594
L429.776 365.328
L427.695 363.085
L426.655 360.406
L425.615 356.903
L424.575 351.182
L422.495 334.17
L420.415 311.919
L419.375 296.941
L418.335 277.681
L417.295 265.706
L416.255 249.832
L415.215 266.702
L413.136 318.126
L412.096 332.202
L411.056 341.564
L410.017 344.146
L408.977 349.685
L406.898 356.732
L403.78 362.052
L402.74 363.433
L401.701 364.13
L400.662 365.088
L399.623 365.14
L397.544 366.33
L396.505 366.545
L395.466 366.89
L394.427 366.848
L392.349 367.149
L386.115 367.44
L385.076 367.32
L384.038 367.576
L381.96 367.374
L379.883 367.542
L378.845 367.428
L376.768 367.508
L375.729 367.451
L374.691 367.555
L368.461 367.395
L367.423 367.675
L365.347 367.491
L364.309 367.712
L363.271 367.541
L359.119 367.485
L358.081 367.666
L356.005 367.561
L352.892 367.84
L349.78 367.643
L348.742 367.998
L347.705 367.904
L346.667 367.984
L345.63 367.741
L344.593 367.668
L342.518 367.845
L340.444 367.898
L339.406 368.105
L338.369 367.732
L337.332 367.663
L336.295 367.967
L335.258 368.005
L334.221 367.803
L333.184 368.151
L332.147 367.803
L331.11 367.981
L330.074 367.889
L329.037 368.125
L328 367.999
L326.963 368.223
L325.927 368.053
L322.817 368.028
L321.78 368.299
L319.707 368.076
L318.671 368.311
L317.635 368.152
L315.562 368.299
L314.526 368.164
L312.453 368.296
L311.417 368.059
L310.381 367.966
L309.345 368.37
L307.273 368.053
L306.237 368.291
L305.201 368.064
L304.165 368.346
L303.13 368.272
L302.094 368.357
L300.022 368.204
L298.987 368.416
L296.915 368.243
L295.88 367.972
L294.844 368.129
L293.809 368.42
L292.773 368.236
L289.667 368.446
L288.632 368.474
L287.597 367.982
L286.562 368.466
L284.491 368.285
L282.421 368.245
L281.386 368.541
L280.351 368.311
L279.316 368.371
L277.246 367.916
L276.212 368.742
L274.142 368.742
L273.107 368.003
L270.004 368.533
L268.969 368.291
L266.9 368.242
L265.866 368.468
L264.831 368.155
L263.797 368.328
L262.763 368.019
L261.728 368.447
L260.694 368.565
L259.66 368.29
L258.626 368.308
L257.592 368.127
L256.558 368.485
L255.524 368.299
L254.49 368.483
L252.422 368.309
L251.388 368.03
L247.253 368.314
L245.186 368.005
L244.152 368.406
L243.119 368.428
L241.052 368.2
L240.018 368.379
L238.985 368.308
L237.952 368.467
L236.918 368.166
L234.852 368.335
L233.819 367.982
L232.786 368.449
L231.753 368.249
L229.687 368.231
L227.621 368.21
L226.588 368.04
L224.522 368.202
L223.489 368.24
L222.457 368.002
L220.392 368.226
L219.359 368.269
L218.326 367.913
L217.294 368.163
L213.164 368.062
L211.1 368.262
L210.068 367.968
L209.035 368.17
L206.971 367.986
L205.939 368.228
L204.907 368.039
L203.875 368.136
L201.812 368.002
L197.685 368.011
L196.653 368.097
L195.621 367.855
L194.59 367.82
L193.558 368.22
L192.527 368.099
L191.495 367.846
L188.401 367.933
L186.339 367.973
L185.308 367.756
L184.277 367.85
L183.245 367.739
L182.214 367.858
L174.998 367.702
L173.968 367.508
L172.937 367.495
L171.906 367.247
L170.876 367.192
L169.845 366.949
L168.815 366.528
L167.784 366.499
L166.754 365.994
L165.724 365.634
L163.663 365.36
L162.633 365.303
L160.573 364.702
L159.543 364.659
L157.483 364.762
L154.393 363.988
L150.274 363.154
L149.244 363.268
L148.215 362.921
L147.185 363.121
L146.156 362.2
L145.126 362.437
L144.097 361.739
L143.067 361.531
L142.038 361.79
L141.009 361.435
L139.98 360.952
L138.95 360.201
L137.921 359.098
L136.892 357.785
L135.863 356.969
L134.834 355.228
L133.805 354.189
L132.776 353.578
L131.747 351.389
L130.719 349.869
L129.69 347.514
L128.661 344.509
L127.632 338.848
L126.604 334.028
L125.575 322.066
L124.547 302.906
L123.518 275.391
L122.49 232.394
L120.433 128.571
L119.405 86.3648
L118.376 68.22
L117.348 94.4076
L116.32 153.415
L115.292 193.213
L114.264 211.199
L113.236 231.615
L112.208 269.215
L111.18 312.955
L110.152 341.786
L109.124 352.853
L108.096 358.611
L107.068 361.529
L106.041 363.72
L105.013 364.791
L102.958 366.315
L99.8755 367.124
L98.8481 367.192
L97.8208 367.416
L95.7663 367.48
L94.7391 367.792
L91.6578 367.792
L88.5769 368.151
L87.5501 368.105
L86.5233 367.919
L85.4965 368.026
L84.4698 368.013
L83.4431 368.242
L82.4165 368.044
L81.3899 368.001
L80.3634 368.199
L78.3105 368.072
L77.2841 368.377
L76.2578 368.492
L75.2315 368.479
L74.2052 368.299
L73.1791 368.742
L64.9713 368.742
L64.9713 368.742" style="fill:none;stroke:#008000;stroke-linecap:square;"/>
   </g>
   <g id="patch_3">
    <path d="
M55.3909 23.1417
L501.791 23.1417" style="fill:none;stroke:#000000;stroke-linecap:square;stroke-linejoin:miter;"/>
   </g>
   <g id="patch_4">
    <path d="
M501.791 368.742
L501.791 23.1417" style="fill:none;stroke:#000000;stroke-linecap:square;stroke-linejoin:miter;"/>
   </g>
   <g id="patch_5">
    <path d="
M55.3909 368.742
L501.791 368.742" style="fill:none;stroke:#000000;stroke-linecap:square;stroke-linejoin:miter;"/>
   </g>
   <g id="patch_6">
    <path d="
M55.3909 368.742
L55.3909 23.1417" style="fill:none;stroke:#000000;stroke-linecap:square;stroke-linejoin:miter;"/>
   </g>
   <g id="matplotlib.axis_1">
    <g id="xtick_1">
     <g id="line2d_10">
      <defs>
       <path d="
M0 0
L0 -4" id="m93b0483c22" style="stroke:#000000;stroke-width:0.5;"/>
      </defs>
      <g>
       <use style="stroke:#000000;stroke-width:0.5;" x="55.390875" xlink:href="#m93b0483c22" y="368.74175"/>
      </g>
     </g>
     <g id="line2d_11">
      <defs>
       <path d="
M0 0
L0 4" id="m741efc42ff" style="stroke:#000000;stroke-width:0.5;"/>
      </defs>
      <g>
       <use style="stroke:#000000;stroke-width:0.5;" x="55.390875" xlink:href="#m741efc42ff" y="23.14175"/>
      </g>
     </g>
     <g id="text_1">
      <!-- 5300 -->
      <defs>
       <path d="
M40.5781 39.3125
Q47.6562 37.7969 51.625 33
Q55.6094 28.2188 55.6094 21.1875
Q55.6094 10.4062 48.1875 4.48438
Q40.7656 -1.42188 27.0938 -1.42188
Q22.5156 -1.42188 17.6562 -0.515625
Q12.7969 0.390625 7.625 2.20312
L7.625 11.7188
Q11.7188 9.32812 16.5938 8.10938
Q21.4844 6.89062 26.8125 6.89062
Q36.0781 6.89062 40.9375 10.5469
Q45.7969 14.2031 45.7969 21.1875
Q45.7969 27.6406 41.2812 31.2656
Q36.7656 34.9062 28.7188 34.9062
L20.2188 34.9062
L20.2188 43.0156
L29.1094 43.0156
Q36.375 43.0156 40.2344 45.9219
Q44.0938 48.8281 44.0938 54.2969
Q44.0938 59.9062 40.1094 62.9062
Q36.1406 65.9219 28.7188 65.9219
Q24.6562 65.9219 20.0156 65.0312
Q15.375 64.1562 9.8125 62.3125
L9.8125 71.0938
Q15.4375 72.6562 20.3438 73.4375
Q25.25 74.2188 29.5938 74.2188
Q40.8281 74.2188 47.3594 69.1094
Q53.9062 64.0156 53.9062 55.3281
Q53.9062 49.2656 50.4375 45.0938
Q46.9688 40.9219 40.5781 39.3125" id="BitstreamVeraSans-Roman-33"/>
       <path d="
M31.7812 66.4062
Q24.1719 66.4062 20.3281 58.9062
Q16.5 51.4219 16.5 36.375
Q16.5 21.3906 20.3281 13.8906
Q24.1719 6.39062 31.7812 6.39062
Q39.4531 6.39062 43.2812 13.8906
Q47.125 21.3906 47.125 36.375
Q47.125 51.4219 43.2812 58.9062
Q39.4531 66.4062 31.7812 66.4062
M31.7812 74.2188
Q44.0469 74.2188 50.5156 64.5156
Q56.9844 54.8281 56.9844 36.375
Q56.9844 17.9688 50.5156 8.26562
Q44.0469 -1.42188 31.7812 -1.42188
Q19.5312 -1.42188 13.0625 8.26562
Q6.59375 17.9688 6.59375 36.375
Q6.59375 54.8281 13.0625 64.5156
Q19.5312 74.2188 31.7812 74.2188" id="BitstreamVeraSans-Roman-30"/>
       <path d="
M10.7969 72.9062
L49.5156 72.9062
L49.5156 64.5938
L19.8281 64.5938
L19.8281 46.7344
Q21.9688 47.4688 24.1094 47.8281
Q26.2656 48.1875 28.4219 48.1875
Q40.625 48.1875 47.75 41.5
Q54.8906 34.8125 54.8906 23.3906
Q54.8906 11.625 47.5625 5.09375
Q40.2344 -1.42188 26.9062 -1.42188
Q22.3125 -1.42188 17.5469 -0.640625
Q12.7969 0.140625 7.71875 1.70312
L7.71875 11.625
Q12.1094 9.23438 16.7969 8.0625
Q21.4844 6.89062 26.7031 6.89062
Q35.1562 6.89062 40.0781 11.3281
Q45.0156 15.7656 45.0156 23.3906
Q45.0156 31 40.0781 35.4375
Q35.1562 39.8906 26.7031 39.8906
Q22.75 39.8906 18.8125 39.0156
Q14.8906 38.1406 10.7969 36.2812
z
" id="BitstreamVeraSans-Roman-35"/>
      </defs>
      <g transform="translate(40.9824375 381.859875)scale(0.12 -0.12)">
       <use xlink:href="#BitstreamVeraSans-Roman-35"/>
       <use x="63.623046875" xlink:href="#BitstreamVeraSans-Roman-33"/>
       <use x="127.24609375" xlink:href="#BitstreamVeraSans-Roman-30"/>
       <use x="190.869140625" xlink:href="#BitstreamVeraSans-Roman-30"/>
      </g>
     </g>
    </g>
    <g id="xtick_2">
     <g id="line2d_12">
      <g>
       <use style="stroke:#000000;stroke-width:0.5;" x="111.190875" xlink:href="#m93b0483c22" y="368.74175"/>
      </g>
     </g>
     <g id="line2d_13">
      <g>
       <use style="stroke:#000000;stroke-width:0.5;" x="111.190875" xlink:href="#m741efc42ff" y="23.14175"/>
      </g>
     </g>
     <g id="text_2">
      <!-- 5400 -->
      <defs>
       <path d="
M37.7969 64.3125
L12.8906 25.3906
L37.7969 25.3906
z

M35.2031 72.9062
L47.6094 72.9062
L47.6094 25.3906
L58.0156 25.3906
L58.0156 17.1875
L47.6094 17.1875
L47.6094 0
L37.7969 0
L37.7969 17.1875
L4.89062 17.1875
L4.89062 26.7031
z
" id="BitstreamVeraSans-Roman-34"/>
      </defs>
      <g transform="translate(96.7824375 381.859875)scale(0.12 -0.12)">
       <use xlink:href="#BitstreamVeraSans-Roman-35"/>
       <use x="63.623046875" xlink:href="#BitstreamVeraSans-Roman-34"/>
       <use x="127.24609375" xlink:href="#BitstreamVeraSans-Roman-30"/>
       <use x="190.869140625" xlink:href="#BitstreamVeraSans-Roman-30"/>
      </g>
     </g>
    </g>
    <g id="xtick_3">
     <g id="line2d_14">
      <g>
       <use style="stroke:#000000;stroke-width:0.5;" x="166.990875" xlink:href="#m93b0483c22" y="368.74175"/>
      </g>
     </g>
     <g id="line2d_15">
      <g>
       <use style="stroke:#000000;stroke-width:0.5;" x="166.990875" xlink:href="#m741efc42ff" y="23.14175"/>
      </g>
     </g>
     <g id="text_3">
      <!-- 5500 -->
      <g transform="translate(152.5824375 381.859875)scale(0.12 -0.12)">
       <use xlink:href="#BitstreamVeraSans-Roman-35"/>
       <use x="63.623046875" xlink:href="#BitstreamVeraSans-Roman-35"/>
       <use x="127.24609375" xlink:href="#BitstreamVeraSans-Roman-30"/>
       <use x="190.869140625" xlink:href="#BitstreamVeraSans-Roman-30"/>
      </g>
     </g>
    </g>
    <g id="xtick_4">
     <g id="line2d_16">
      <g>
       <use style="stroke:#000000;stroke-width:0.5;" x="222.790875" xlink:href="#m93b0483c22" y="368.74175"/>
      </g>
     </g>
     <g id="line2d_17">
      <g>
       <use style="stroke:#000000;stroke-width:0.5;" x="222.790875" xlink:href="#m741efc42ff" y="23.14175"/>
      </g>
     </g>
     <g id="text_4">
      <!-- 5600 -->
      <defs>
       <path d="
M33.0156 40.375
Q26.375 40.375 22.4844 35.8281
Q18.6094 31.2969 18.6094 23.3906
Q18.6094 15.5312 22.4844 10.9531
Q26.375 6.39062 33.0156 6.39062
Q39.6562 6.39062 43.5312 10.9531
Q47.4062 15.5312 47.4062 23.3906
Q47.4062 31.2969 43.5312 35.8281
Q39.6562 40.375 33.0156 40.375
M52.5938 71.2969
L52.5938 62.3125
Q48.875 64.0625 45.0938 64.9844
Q41.3125 65.9219 37.5938 65.9219
Q27.8281 65.9219 22.6719 59.3281
Q17.5312 52.7344 16.7969 39.4062
Q19.6719 43.6562 24.0156 45.9219
Q28.375 48.1875 33.5938 48.1875
Q44.5781 48.1875 50.9531 41.5156
Q57.3281 34.8594 57.3281 23.3906
Q57.3281 12.1562 50.6875 5.35938
Q44.0469 -1.42188 33.0156 -1.42188
Q20.3594 -1.42188 13.6719 8.26562
Q6.98438 17.9688 6.98438 36.375
Q6.98438 53.6562 15.1875 63.9375
Q23.3906 74.2188 37.2031 74.2188
Q40.9219 74.2188 44.7031 73.4844
Q48.4844 72.75 52.5938 71.2969" id="BitstreamVeraSans-Roman-36"/>
      </defs>
      <g transform="translate(208.3824375 381.859875)scale(0.12 -0.12)">
       <use xlink:href="#BitstreamVeraSans-Roman-35"/>
       <use x="63.623046875" xlink:href="#BitstreamVeraSans-Roman-36"/>
       <use x="127.24609375" xlink:href="#BitstreamVeraSans-Roman-30"/>
       <use x="190.869140625" xlink:href="#BitstreamVeraSans-Roman-30"/>
      </g>
     </g>
    </g>
    <g id="xtick_5">
     <g id="line2d_18">
      <g>
       <use style="stroke:#000000;stroke-width:0.5;" x="278.590875" xlink:href="#m93b0483c22" y="368.74175"/>
      </g>
     </g>
     <g id="line2d_19">
      <g>
       <use style="stroke:#000000;stroke-width:0.5;" x="278.590875" xlink:href="#m741efc42ff" y="23.14175"/>
      </g>
     </g>
     <g id="text_5">
      <!-- 5700 -->
      <defs>
       <path d="
M8.20312 72.9062
L55.0781 72.9062
L55.0781 68.7031
L28.6094 0
L18.3125 0
L43.2188 64.5938
L8.20312 64.5938
z
" id="BitstreamVeraSans-Roman-37"/>
      </defs>
      <g transform="translate(264.1824375 381.859875)scale(0.12 -0.12)">
       <use xlink:href="#BitstreamVeraSans-Roman-35"/>
       <use x="63.623046875" xlink:href="#BitstreamVeraSans-Roman-37"/>
       <use x="127.24609375" xlink:href="#BitstreamVeraSans-Roman-30"/>
       <use x="190.869140625" xlink:href="#BitstreamVeraSans-Roman-30"/>
      </g>
     </g>
    </g>
    <g id="xtick_6">
     <g id="line2d_20">
      <g>
       <use style="stroke:#000000;stroke-width:0.5;" x="334.390875" xlink:href="#m93b0483c22" y="368.74175"/>
      </g>
     </g>
     <g id="line2d_21">
      <g>
       <use style="stroke:#000000;stroke-width:0.5;" x="334.390875" xlink:href="#m741efc42ff" y="23.14175"/>
      </g>
     </g>
     <g id="text_6">
      <!-- 5800 -->
      <defs>
       <path d="
M31.7812 34.625
Q24.75 34.625 20.7188 30.8594
Q16.7031 27.0938 16.7031 20.5156
Q16.7031 13.9219 20.7188 10.1562
Q24.75 6.39062 31.7812 6.39062
Q38.8125 6.39062 42.8594 10.1719
Q46.9219 13.9688 46.9219 20.5156
Q46.9219 27.0938 42.8906 30.8594
Q38.875 34.625 31.7812 34.625
M21.9219 38.8125
Q15.5781 40.375 12.0312 44.7188
Q8.5 49.0781 8.5 55.3281
Q8.5 64.0625 14.7188 69.1406
Q20.9531 74.2188 31.7812 74.2188
Q42.6719 74.2188 48.875 69.1406
Q55.0781 64.0625 55.0781 55.3281
Q55.0781 49.0781 51.5312 44.7188
Q48 40.375 41.7031 38.8125
Q48.8281 37.1562 52.7969 32.3125
Q56.7812 27.4844 56.7812 20.5156
Q56.7812 9.90625 50.3125 4.23438
Q43.8438 -1.42188 31.7812 -1.42188
Q19.7344 -1.42188 13.25 4.23438
Q6.78125 9.90625 6.78125 20.5156
Q6.78125 27.4844 10.7812 32.3125
Q14.7969 37.1562 21.9219 38.8125
M18.3125 54.3906
Q18.3125 48.7344 21.8438 45.5625
Q25.3906 42.3906 31.7812 42.3906
Q38.1406 42.3906 41.7188 45.5625
Q45.3125 48.7344 45.3125 54.3906
Q45.3125 60.0625 41.7188 63.2344
Q38.1406 66.4062 31.7812 66.4062
Q25.3906 66.4062 21.8438 63.2344
Q18.3125 60.0625 18.3125 54.3906" id="BitstreamVeraSans-Roman-38"/>
      </defs>
      <g transform="translate(319.9824375 381.859875)scale(0.12 -0.12)">
       <use xlink:href="#BitstreamVeraSans-Roman-35"/>
       <use x="63.623046875" xlink:href="#BitstreamVeraSans-Roman-38"/>
       <use x="127.24609375" xlink:href="#BitstreamVeraSans-Roman-30"/>
       <use x="190.869140625" xlink:href="#BitstreamVeraSans-Roman-30"/>
      </g>
     </g>
    </g>
    <g id="xtick_7">
     <g id="line2d_22">
      <g>
       <use style="stroke:#000000;stroke-width:0.5;" x="390.190875" xlink:href="#m93b0483c22" y="368.74175"/>
      </g>
     </g>
     <g id="line2d_23">
      <g>
       <use style="stroke:#000000;stroke-width:0.5;" x="390.190875" xlink:href="#m741efc42ff" y="23.14175"/>
      </g>
     </g>
     <g id="text_7">
      <!-- 5900 -->
      <defs>
       <path d="
M10.9844 1.51562
L10.9844 10.5
Q14.7031 8.73438 18.5 7.8125
Q22.3125 6.89062 25.9844 6.89062
Q35.75 6.89062 40.8906 13.4531
Q46.0469 20.0156 46.7812 33.4062
Q43.9531 29.2031 39.5938 26.9531
Q35.25 24.7031 29.9844 24.7031
Q19.0469 24.7031 12.6719 31.3125
Q6.29688 37.9375 6.29688 49.4219
Q6.29688 60.6406 12.9375 67.4219
Q19.5781 74.2188 30.6094 74.2188
Q43.2656 74.2188 49.9219 64.5156
Q56.5938 54.8281 56.5938 36.375
Q56.5938 19.1406 48.4062 8.85938
Q40.2344 -1.42188 26.4219 -1.42188
Q22.7031 -1.42188 18.8906 -0.6875
Q15.0938 0.046875 10.9844 1.51562
M30.6094 32.4219
Q37.25 32.4219 41.125 36.9531
Q45.0156 41.5 45.0156 49.4219
Q45.0156 57.2812 41.125 61.8438
Q37.25 66.4062 30.6094 66.4062
Q23.9688 66.4062 20.0938 61.8438
Q16.2188 57.2812 16.2188 49.4219
Q16.2188 41.5 20.0938 36.9531
Q23.9688 32.4219 30.6094 32.4219" id="BitstreamVeraSans-Roman-39"/>
      </defs>
      <g transform="translate(375.7824375 381.859875)scale(0.12 -0.12)">
       <use xlink:href="#BitstreamVeraSans-Roman-35"/>
       <use x="63.623046875" xlink:href="#BitstreamVeraSans-Roman-39"/>
       <use x="127.24609375" xlink:href="#BitstreamVeraSans-Roman-30"/>
       <use x="190.869140625" xlink:href="#BitstreamVeraSans-Roman-30"/>
      </g>
     </g>
    </g>
    <g id="xtick_8">
     <g id="line2d_24">
      <g>
       <use style="stroke:#000000;stroke-width:0.5;" x="445.990875" xlink:href="#m93b0483c22" y="368.74175"/>
      </g>
     </g>
     <g id="line2d_25">
      <g>
       <use style="stroke:#000000;stroke-width:0.5;" x="445.990875" xlink:href="#m741efc42ff" y="23.14175"/>
      </g>
     </g>
     <g id="text_8">
      <!-- 6000 -->
      <g transform="translate(431.538375 381.859875)scale(0.12 -0.12)">
       <use xlink:href="#BitstreamVeraSans-Roman-36"/>
       <use x="63.623046875" xlink:href="#BitstreamVeraSans-Roman-30"/>
       <use x="127.24609375" xlink:href="#BitstreamVeraSans-Roman-30"/>
       <use x="190.869140625" xlink:href="#BitstreamVeraSans-Roman-30"/>
      </g>
     </g>
    </g>
    <g id="xtick_9">
     <g id="line2d_26">
      <g>
       <use style="stroke:#000000;stroke-width:0.5;" x="501.790875" xlink:href="#m93b0483c22" y="368.74175"/>
      </g>
     </g>
     <g id="line2d_27">
      <g>
       <use style="stroke:#000000;stroke-width:0.5;" x="501.790875" xlink:href="#m741efc42ff" y="23.14175"/>
      </g>
     </g>
     <g id="text_9">
      <!-- 6100 -->
      <defs>
       <path d="
M12.4062 8.29688
L28.5156 8.29688
L28.5156 63.9219
L10.9844 60.4062
L10.9844 69.3906
L28.4219 72.9062
L38.2812 72.9062
L38.2812 8.29688
L54.3906 8.29688
L54.3906 0
L12.4062 0
z
" id="BitstreamVeraSans-Roman-31"/>
      </defs>
      <g transform="translate(487.338375 381.859875)scale(0.12 -0.12)">
       <use xlink:href="#BitstreamVeraSans-Roman-36"/>
       <use x="63.623046875" xlink:href="#BitstreamVeraSans-Roman-31"/>
       <use x="127.24609375" xlink:href="#BitstreamVeraSans-Roman-30"/>
       <use x="190.869140625" xlink:href="#BitstreamVeraSans-Roman-30"/>
      </g>
     </g>
    </g>
    <g id="text_10">
     <!-- Energy (eV) -->
     <defs>
      <path id="BitstreamVeraSans-Roman-20"/>
      <path d="
M54.8906 33.0156
L54.8906 0
L45.9062 0
L45.9062 32.7188
Q45.9062 40.4844 42.875 44.3281
Q39.8438 48.1875 33.7969 48.1875
Q26.5156 48.1875 22.3125 43.5469
Q18.1094 38.9219 18.1094 30.9062
L18.1094 0
L9.07812 0
L9.07812 54.6875
L18.1094 54.6875
L18.1094 46.1875
Q21.3438 51.125 25.7031 53.5625
Q30.0781 56 35.7969 56
Q45.2188 56 50.0469 50.1719
Q54.8906 44.3438 54.8906 33.0156" id="BitstreamVeraSans-Roman-6e"/>
      <path d="
M31 75.875
Q24.4688 64.6562 21.2812 53.6562
Q18.1094 42.6719 18.1094 31.3906
Q18.1094 20.125 21.3125 9.0625
Q24.5156 -2 31 -13.1875
L23.1875 -13.1875
Q15.875 -1.70312 12.2344 9.375
Q8.59375 20.4531 8.59375 31.3906
Q8.59375 42.2812 12.2031 53.3125
Q15.8281 64.3594 23.1875 75.875
z
" id="BitstreamVeraSans-Roman-28"/>
      <path d="
M8.01562 75.875
L15.8281 75.875
Q23.1406 64.3594 26.7812 53.3125
Q30.4219 42.2812 30.4219 31.3906
Q30.4219 20.4531 26.7812 9.375
Q23.1406 -1.70312 15.8281 -13.1875
L8.01562 -13.1875
Q14.5 -2 17.7031 9.0625
Q20.9062 20.125 20.9062 31.3906
Q20.9062 42.6719 17.7031 53.6562
Q14.5 64.6562 8.01562 75.875" id="BitstreamVeraSans-Roman-29"/>
      <path d="
M9.8125 72.9062
L55.9062 72.9062
L55.9062 64.5938
L19.6719 64.5938
L19.6719 43.0156
L54.3906 43.0156
L54.3906 34.7188
L19.6719 34.7188
L19.6719 8.29688
L56.7812 8.29688
L56.7812 0
L9.8125 0
z
" id="BitstreamVeraSans-Roman-45"/>
      <path d="
M28.6094 0
L0.78125 72.9062
L11.0781 72.9062
L34.1875 11.5312
L57.3281 72.9062
L67.5781 72.9062
L39.7969 0
z
" id="BitstreamVeraSans-Roman-56"/>
      <path d="
M32.1719 -5.07812
Q28.375 -14.8438 24.75 -17.8125
Q21.1406 -20.7969 15.0938 -20.7969
L7.90625 -20.7969
L7.90625 -13.2812
L13.1875 -13.2812
Q16.8906 -13.2812 18.9375 -11.5156
Q21 -9.76562 23.4844 -3.21875
L25.0938 0.875
L2.98438 54.6875
L12.5 54.6875
L29.5938 11.9219
L46.6875 54.6875
L56.2031 54.6875
z
" id="BitstreamVeraSans-Roman-79"/>
      <path d="
M56.2031 29.5938
L56.2031 25.2031
L14.8906 25.2031
Q15.4844 15.9219 20.4844 11.0625
Q25.4844 6.20312 34.4219 6.20312
Q39.5938 6.20312 44.4531 7.46875
Q49.3125 8.73438 54.1094 11.2812
L54.1094 2.78125
Q49.2656 0.734375 44.1875 -0.34375
Q39.1094 -1.42188 33.8906 -1.42188
Q20.7969 -1.42188 13.1562 6.1875
Q5.51562 13.8125 5.51562 26.8125
Q5.51562 40.2344 12.7656 48.1094
Q20.0156 56 32.3281 56
Q43.3594 56 49.7812 48.8906
Q56.2031 41.7969 56.2031 29.5938
M47.2188 32.2344
Q47.125 39.5938 43.0938 43.9844
Q39.0625 48.3906 32.4219 48.3906
Q24.9062 48.3906 20.3906 44.1406
Q15.875 39.8906 15.1875 32.1719
z
" id="BitstreamVeraSans-Roman-65"/>
      <path d="
M45.4062 27.9844
Q45.4062 37.75 41.375 43.1094
Q37.3594 48.4844 30.0781 48.4844
Q22.8594 48.4844 18.8281 43.1094
Q14.7969 37.75 14.7969 27.9844
Q14.7969 18.2656 18.8281 12.8906
Q22.8594 7.51562 30.0781 7.51562
Q37.3594 7.51562 41.375 12.8906
Q45.4062 18.2656 45.4062 27.9844
M54.3906 6.78125
Q54.3906 -7.17188 48.1875 -13.9844
Q42 -20.7969 29.2031 -20.7969
Q24.4688 -20.7969 20.2656 -20.0938
Q16.0625 -19.3906 12.1094 -17.9219
L12.1094 -9.1875
Q16.0625 -11.3281 19.9219 -12.3438
Q23.7812 -13.375 27.7812 -13.375
Q36.625 -13.375 41.0156 -8.76562
Q45.4062 -4.15625 45.4062 5.17188
L45.4062 9.625
Q42.625 4.78125 38.2812 2.39062
Q33.9375 0 27.875 0
Q17.8281 0 11.6719 7.65625
Q5.51562 15.3281 5.51562 27.9844
Q5.51562 40.6719 11.6719 48.3281
Q17.8281 56 27.875 56
Q33.9375 56 38.2812 53.6094
Q42.625 51.2188 45.4062 46.3906
L45.4062 54.6875
L54.3906 54.6875
z
" id="BitstreamVeraSans-Roman-67"/>
      <path d="
M41.1094 46.2969
Q39.5938 47.1719 37.8125 47.5781
Q36.0312 48 33.8906 48
Q26.2656 48 22.1875 43.0469
Q18.1094 38.0938 18.1094 28.8125
L18.1094 0
L9.07812 0
L9.07812 54.6875
L18.1094 54.6875
L18.1094 46.1875
Q20.9531 51.1719 25.4844 53.5781
Q30.0312 56 36.5312 56
Q37.4531 56 38.5781 55.875
Q39.7031 55.7656 41.0625 55.5156
z
" id="BitstreamVeraSans-Roman-72"/>
     </defs>
     <g transform="translate(236.738625 400.29725)scale(0.144 -0.144)">
      <use xlink:href="#BitstreamVeraSans-Roman-45"/>
      <use x="63.18359375" xlink:href="#BitstreamVeraSans-Roman-6e"/>
      <use x="126.5625" xlink:href="#BitstreamVeraSans-Roman-65"/>
      <use x="188.0859375" xlink:href="#BitstreamVeraSans-Roman-72"/>
      <use x="227.44921875" xlink:href="#BitstreamVeraSans-Roman-67"/>
      <use x="290.92578125" xlink:href="#BitstreamVeraSans-Roman-79"/>
      <use x="350.10546875" xlink:href="#BitstreamVeraSans-Roman-20"/>
      <use x="381.892578125" xlink:href="#BitstreamVeraSans-Roman-28"/>
      <use x="420.90625" xlink:href="#BitstreamVeraSans-Roman-65"/>
      <use x="482.4296875" xlink:href="#BitstreamVeraSans-Roman-56"/>
      <use x="550.837890625" xlink:href="#BitstreamVeraSans-Roman-29"/>
     </g>
    </g>
   </g>
   <g id="matplotlib.axis_2">
    <g id="ytick_1">
     <g id="line2d_28">
      <defs>
       <path d="
M0 0
L4 0" id="m728421d6d4" style="stroke:#000000;stroke-width:0.5;"/>
      </defs>
      <g>
       <use style="stroke:#000000;stroke-width:0.5;" x="55.390875" xlink:href="#m728421d6d4" y="368.74175"/>
      </g>
     </g>
     <g id="line2d_29">
      <defs>
       <path d="
M0 0
L-4 0" id="mcb0005524f" style="stroke:#000000;stroke-width:0.5;"/>
      </defs>
      <g>
       <use style="stroke:#000000;stroke-width:0.5;" x="501.790875" xlink:href="#mcb0005524f" y="368.74175"/>
      </g>
     </g>
     <g id="text_11">
      <!-- 0.00 -->
      <defs>
       <path d="
M10.6875 12.4062
L21 12.4062
L21 0
L10.6875 0
z
" id="BitstreamVeraSans-Roman-2e"/>
      </defs>
      <g transform="translate(26.26025 372.053)scale(0.12 -0.12)">
       <use xlink:href="#BitstreamVeraSans-Roman-30"/>
       <use x="63.623046875" xlink:href="#BitstreamVeraSans-Roman-2e"/>
       <use x="95.41015625" xlink:href="#BitstreamVeraSans-Roman-30"/>
       <use x="159.033203125" xlink:href="#BitstreamVeraSans-Roman-30"/>
      </g>
     </g>
    </g>
    <g id="ytick_2">
     <g id="line2d_30">
      <g>
       <use style="stroke:#000000;stroke-width:0.5;" x="55.390875" xlink:href="#m728421d6d4" y="310.542891014"/>
      </g>
     </g>
     <g id="line2d_31">
      <g>
       <use style="stroke:#000000;stroke-width:0.5;" x="501.790875" xlink:href="#mcb0005524f" y="310.542891014"/>
      </g>
     </g>
     <g id="text_12">
      <!-- 0.02 -->
      <defs>
       <path d="
M19.1875 8.29688
L53.6094 8.29688
L53.6094 0
L7.32812 0
L7.32812 8.29688
Q12.9375 14.1094 22.625 23.8906
Q32.3281 33.6875 34.8125 36.5312
Q39.5469 41.8438 41.4219 45.5312
Q43.3125 49.2188 43.3125 52.7812
Q43.3125 58.5938 39.2344 62.25
Q35.1562 65.9219 28.6094 65.9219
Q23.9688 65.9219 18.8125 64.3125
Q13.6719 62.7031 7.8125 59.4219
L7.8125 69.3906
Q13.7656 71.7812 18.9375 73
Q24.125 74.2188 28.4219 74.2188
Q39.75 74.2188 46.4844 68.5469
Q53.2188 62.8906 53.2188 53.4219
Q53.2188 48.9219 51.5312 44.8906
Q49.8594 40.875 45.4062 35.4062
Q44.1875 33.9844 37.6406 27.2188
Q31.1094 20.4531 19.1875 8.29688" id="BitstreamVeraSans-Roman-32"/>
      </defs>
      <g transform="translate(26.66525 313.854141014)scale(0.12 -0.12)">
       <use xlink:href="#BitstreamVeraSans-Roman-30"/>
       <use x="63.623046875" xlink:href="#BitstreamVeraSans-Roman-2e"/>
       <use x="95.41015625" xlink:href="#BitstreamVeraSans-Roman-30"/>
       <use x="159.033203125" xlink:href="#BitstreamVeraSans-Roman-32"/>
      </g>
     </g>
    </g>
    <g id="ytick_3">
     <g id="line2d_32">
      <g>
       <use style="stroke:#000000;stroke-width:0.5;" x="55.390875" xlink:href="#m728421d6d4" y="252.344032027"/>
      </g>
     </g>
     <g id="line2d_33">
      <g>
       <use style="stroke:#000000;stroke-width:0.5;" x="501.790875" xlink:href="#mcb0005524f" y="252.344032027"/>
      </g>
     </g>
     <g id="text_13">
      <!-- 0.04 -->
      <g transform="translate(26.1365 255.655282027)scale(0.12 -0.12)">
       <use xlink:href="#BitstreamVeraSans-Roman-30"/>
       <use x="63.623046875" xlink:href="#BitstreamVeraSans-Roman-2e"/>
       <use x="95.41015625" xlink:href="#BitstreamVeraSans-Roman-30"/>
       <use x="159.033203125" xlink:href="#BitstreamVeraSans-Roman-34"/>
      </g>
     </g>
    </g>
    <g id="ytick_4">
     <g id="line2d_34">
      <g>
       <use style="stroke:#000000;stroke-width:0.5;" x="55.390875" xlink:href="#m728421d6d4" y="194.145173041"/>
      </g>
     </g>
     <g id="line2d_35">
      <g>
       <use style="stroke:#000000;stroke-width:0.5;" x="501.790875" xlink:href="#mcb0005524f" y="194.145173041"/>
      </g>
     </g>
     <g id="text_14">
      <!-- 0.06 -->
      <g transform="translate(26.219 197.456423041)scale(0.12 -0.12)">
       <use xlink:href="#BitstreamVeraSans-Roman-30"/>
       <use x="63.623046875" xlink:href="#BitstreamVeraSans-Roman-2e"/>
       <use x="95.41015625" xlink:href="#BitstreamVeraSans-Roman-30"/>
       <use x="159.033203125" xlink:href="#BitstreamVeraSans-Roman-36"/>
      </g>
     </g>
    </g>
    <g id="ytick_5">
     <g id="line2d_36">
      <g>
       <use style="stroke:#000000;stroke-width:0.5;" x="55.390875" xlink:href="#m728421d6d4" y="135.946314054"/>
      </g>
     </g>
     <g id="line2d_37">
      <g>
       <use style="stroke:#000000;stroke-width:0.5;" x="501.790875" xlink:href="#mcb0005524f" y="135.946314054"/>
      </g>
     </g>
     <g id="text_15">
      <!-- 0.08 -->
      <g transform="translate(26.284625 139.257564054)scale(0.12 -0.12)">
       <use xlink:href="#BitstreamVeraSans-Roman-30"/>
       <use x="63.623046875" xlink:href="#BitstreamVeraSans-Roman-2e"/>
       <use x="95.41015625" xlink:href="#BitstreamVeraSans-Roman-30"/>
       <use x="159.033203125" xlink:href="#BitstreamVeraSans-Roman-38"/>
      </g>
     </g>
    </g>
    <g id="ytick_6">
     <g id="line2d_38">
      <g>
       <use style="stroke:#000000;stroke-width:0.5;" x="55.390875" xlink:href="#m728421d6d4" y="77.7474550681"/>
      </g>
     </g>
     <g id="line2d_39">
      <g>
       <use style="stroke:#000000;stroke-width:0.5;" x="501.790875" xlink:href="#mcb0005524f" y="77.7474550681"/>
      </g>
     </g>
     <g id="text_16">
      <!-- 0.10 -->
      <g transform="translate(26.26025 81.0587050681)scale(0.12 -0.12)">
       <use xlink:href="#BitstreamVeraSans-Roman-30"/>
       <use x="63.623046875" xlink:href="#BitstreamVeraSans-Roman-2e"/>
       <use x="95.41015625" xlink:href="#BitstreamVeraSans-Roman-31"/>
       <use x="159.033203125" xlink:href="#BitstreamVeraSans-Roman-30"/>
      </g>
     </g>
    </g>
    <g id="text_17">
     <!-- Counts -->
     <defs>
      <path d="
M8.5 21.5781
L8.5 54.6875
L17.4844 54.6875
L17.4844 21.9219
Q17.4844 14.1562 20.5 10.2656
Q23.5312 6.39062 29.5938 6.39062
Q36.8594 6.39062 41.0781 11.0312
Q45.3125 15.6719 45.3125 23.6875
L45.3125 54.6875
L54.2969 54.6875
L54.2969 0
L45.3125 0
L45.3125 8.40625
Q42.0469 3.42188 37.7188 1
Q33.4062 -1.42188 27.6875 -1.42188
Q18.2656 -1.42188 13.375 4.4375
Q8.5 10.2969 8.5 21.5781" id="BitstreamVeraSans-Roman-75"/>
      <path d="
M30.6094 48.3906
Q23.3906 48.3906 19.1875 42.75
Q14.9844 37.1094 14.9844 27.2969
Q14.9844 17.4844 19.1562 11.8438
Q23.3438 6.20312 30.6094 6.20312
Q37.7969 6.20312 41.9844 11.8594
Q46.1875 17.5312 46.1875 27.2969
Q46.1875 37.0156 41.9844 42.7031
Q37.7969 48.3906 30.6094 48.3906
M30.6094 56
Q42.3281 56 49.0156 48.375
Q55.7188 40.7656 55.7188 27.2969
Q55.7188 13.875 49.0156 6.21875
Q42.3281 -1.42188 30.6094 -1.42188
Q18.8438 -1.42188 12.1719 6.21875
Q5.51562 13.875 5.51562 27.2969
Q5.51562 40.7656 12.1719 48.375
Q18.8438 56 30.6094 56" id="BitstreamVeraSans-Roman-6f"/>
      <path d="
M64.4062 67.2812
L64.4062 56.8906
Q59.4219 61.5312 53.7812 63.8125
Q48.1406 66.1094 41.7969 66.1094
Q29.2969 66.1094 22.6562 58.4688
Q16.0156 50.8281 16.0156 36.375
Q16.0156 21.9688 22.6562 14.3281
Q29.2969 6.6875 41.7969 6.6875
Q48.1406 6.6875 53.7812 8.98438
Q59.4219 11.2812 64.4062 15.9219
L64.4062 5.60938
Q59.2344 2.09375 53.4375 0.328125
Q47.6562 -1.42188 41.2188 -1.42188
Q24.6562 -1.42188 15.125 8.70312
Q5.60938 18.8438 5.60938 36.375
Q5.60938 53.9531 15.125 64.0781
Q24.6562 74.2188 41.2188 74.2188
Q47.75 74.2188 53.5312 72.4844
Q59.3281 70.75 64.4062 67.2812" id="BitstreamVeraSans-Roman-43"/>
      <path d="
M18.3125 70.2188
L18.3125 54.6875
L36.8125 54.6875
L36.8125 47.7031
L18.3125 47.7031
L18.3125 18.0156
Q18.3125 11.3281 20.1406 9.42188
Q21.9688 7.51562 27.5938 7.51562
L36.8125 7.51562
L36.8125 0
L27.5938 0
Q17.1875 0 13.2344 3.875
Q9.28125 7.76562 9.28125 18.0156
L9.28125 47.7031
L2.6875 47.7031
L2.6875 54.6875
L9.28125 54.6875
L9.28125 70.2188
z
" id="BitstreamVeraSans-Roman-74"/>
      <path d="
M44.2812 53.0781
L44.2812 44.5781
Q40.4844 46.5312 36.375 47.5
Q32.2812 48.4844 27.875 48.4844
Q21.1875 48.4844 17.8438 46.4375
Q14.5 44.3906 14.5 40.2812
Q14.5 37.1562 16.8906 35.375
Q19.2812 33.5938 26.5156 31.9844
L29.5938 31.2969
Q39.1562 29.25 43.1875 25.5156
Q47.2188 21.7812 47.2188 15.0938
Q47.2188 7.46875 41.1875 3.01562
Q35.1562 -1.42188 24.6094 -1.42188
Q20.2188 -1.42188 15.4531 -0.5625
Q10.6875 0.296875 5.42188 2
L5.42188 11.2812
Q10.4062 8.6875 15.2344 7.39062
Q20.0625 6.10938 24.8125 6.10938
Q31.1562 6.10938 34.5625 8.28125
Q37.9844 10.4531 37.9844 14.4062
Q37.9844 18.0625 35.5156 20.0156
Q33.0625 21.9688 24.7031 23.7812
L21.5781 24.5156
Q13.2344 26.2656 9.51562 29.9062
Q5.8125 33.5469 5.8125 39.8906
Q5.8125 47.6094 11.2812 51.7969
Q16.75 56 26.8125 56
Q31.7812 56 36.1719 55.2656
Q40.5781 54.5469 44.2812 53.0781" id="BitstreamVeraSans-Roman-73"/>
     </defs>
     <g transform="translate(18.14175 220.319375)rotate(-90.0)scale(0.144 -0.144)">
      <use xlink:href="#BitstreamVeraSans-Roman-43"/>
      <use x="69.82421875" xlink:href="#BitstreamVeraSans-Roman-6f"/>
      <use x="131.005859375" xlink:href="#BitstreamVeraSans-Roman-75"/>
      <use x="194.384765625" xlink:href="#BitstreamVeraSans-Roman-6e"/>
      <use x="257.763671875" xlink:href="#BitstreamVeraSans-Roman-74"/>
      <use x="296.97265625" xlink:href="#BitstreamVeraSans-Roman-73"/>
     </g>
    </g>
   </g>
   <g id="text_18">
    <!-- $K\alpha_1$ -->
    <defs>
     <path d="
M20.125 -1.125
Q15.375 -1.125 11.6875 1.125
Q8.01562 3.375 6 7.17188
Q4 10.9844 4 15.8281
Q4 22.6094 7.78125 29.25
Q11.5781 35.8906 17.8438 40.0312
Q24.125 44.1875 31 44.1875
Q36.0781 44.1875 39.9375 41.5312
Q43.7969 38.875 45.7969 34.4531
Q47.7969 30.0312 47.7969 25
L47.9062 18.3125
Q51.3125 23.0469 53.6875 28.1406
Q56.0625 33.25 57.3281 38.7188
Q57.5156 39.3125 58.1094 39.3125
L59.2812 39.3125
Q60.2031 39.3125 60.2031 38.375
Q60.2031 38.2812 60.1094 38.0938
Q58.9375 33.5 57.1719 29.2656
Q55.4219 25.0469 53.0469 21.0938
Q50.6875 17.1406 47.9062 13.9219
Q47.9062 1.51562 50.7812 1.51562
Q52.6406 1.51562 53.8281 2.60938
Q55.0312 3.71875 55.9375 5.32812
Q56.8438 6.9375 57.0781 6.98438
L58.2969 6.98438
Q59.0781 6.98438 59.0781 6
Q59.0781 3.51562 56.2188 1.1875
Q53.375 -1.125 50.5938 -1.125
Q46.9688 -1.125 44.5781 1.21875
Q42.1875 3.5625 41.3125 7.32812
Q36.625 3.32812 31.1562 1.09375
Q25.6875 -1.125 20.125 -1.125
M20.3125 1.51562
Q31 1.51562 40.8281 10.2969
Q40.7656 10.8906 40.6719 11.7344
Q40.5781 12.5938 40.5781 12.7031
L40.5781 23.4844
Q40.5781 41.6094 30.8125 41.6094
Q24.9531 41.6094 20.5469 36.5938
Q16.1562 31.5938 13.9375 24.625
Q11.7188 17.6719 11.7188 11.9219
Q11.7188 7.5625 13.9375 4.53125
Q16.1562 1.51562 20.3125 1.51562" id="Cmmi10-ae"/>
     <path d="
M9.28125 0
L9.28125 3.51562
Q21.7812 3.51562 21.7812 6.6875
L21.7812 59.1875
Q16.6094 56.6875 8.6875 56.6875
L8.6875 60.2031
Q20.9531 60.2031 27.2031 66.6094
L28.6094 66.6094
Q28.9531 66.6094 29.2656 66.3281
Q29.5938 66.0625 29.5938 65.7188
L29.5938 6.6875
Q29.5938 3.51562 42.0938 3.51562
L42.0938 0
z
" id="Cmr10-31"/>
     <path d="
M4.6875 0
Q3.71875 0 3.71875 1.3125
Q3.76562 1.5625 3.90625 2.17188
Q4.04688 2.78125 4.3125 3.14062
Q4.59375 3.51562 4.98438 3.51562
Q11.0781 3.51562 13.4844 4.20312
Q14.7969 4.64062 15.375 6.89062
L29.1094 61.8125
Q29.2969 62.7969 29.2969 63.1875
Q29.2969 64.2656 28.0781 64.4062
Q26.2188 64.7969 20.9062 64.7969
Q19.9219 64.7969 19.9219 66.1094
Q20.2656 67.3906 20.4531 67.8438
Q20.6562 68.3125 21.5781 68.3125
L48.4844 68.3125
Q49.5156 68.3125 49.5156 67
Q49.4688 66.75 49.3125 66.1562
Q49.1719 65.5781 48.9219 65.1875
Q48.6875 64.7969 48.1875 64.7969
Q42.0938 64.7969 39.7031 64.1094
Q38.375 63.625 37.7969 61.375
L29.6875 29
L68.8906 59.2812
Q69 59.4688 70.1406 60.6094
Q71.2969 61.7656 71.2969 62.8906
Q71.2969 64.7969 67.9219 64.7969
Q66.8906 64.7969 66.8906 66.1094
Q67.0938 66.8906 67.2031 67.3281
Q67.3281 67.7812 67.6406 68.0469
Q67.9688 68.3125 68.6094 68.3125
L87.9844 68.3125
Q88.5312 68.3125 88.7656 67.9219
Q89.0156 67.5312 89.0156 67
Q88.9688 66.75 88.7969 66.1094
Q88.625 65.4844 88.3594 65.1406
Q88.0938 64.7969 87.5938 64.7969
Q80.2812 64.7969 71.5781 58.0156
Q71.5312 57.9531 71.4375 57.9219
Q71.3438 57.9062 71.2344 57.875
Q71.1406 57.8594 71.0938 57.8125
L50.4844 41.7969
L65.4844 6.6875
Q66.8438 4.5 68.4062 4
Q69.9688 3.51562 73.1875 3.51562
Q74.2188 3.51562 74.2188 2.20312
Q73.9219 1.03125 73.625 0.515625
Q73.3438 0 72.5156 0
L49.3125 0
Q48.3906 0 48.3906 1.3125
Q48.5312 2.34375 48.7188 2.92188
Q48.9219 3.51562 49.7031 3.51562
Q52.25 3.51562 54.0312 4.03125
Q55.8125 4.54688 55.8125 6.39062
Q55.8125 7.07812 55.7188 7.42188
L43.3125 36.2812
L28.7188 25
L24.125 6.5
Q23.875 5.28125 23.875 5.07812
Q23.875 4.04688 25.0938 3.90625
Q27 3.51562 32.3281 3.51562
Q33.2969 3.51562 33.2969 2.20312
Q32.9531 0.78125 32.75 0.390625
Q32.5625 0 31.5938 0
z
" id="Cmmi10-4b"/>
    </defs>
    <g transform="translate(119.404635 38.1678369565)scale(0.144 -0.144)">
     <use transform="translate(0.0 0.6875)" xlink:href="#Cmmi10-4b"/>
     <use transform="translate(84.912109375 0.6875)" xlink:href="#Cmmi10-ae"/>
     <use transform="translate(148.828125 -24.821875)scale(0.7)" xlink:href="#Cmr10-31"/>
    </g>
   </g>
   <g id="text_19">
    <!-- $K\alpha_2$ -->
    <defs>
     <path d="
M4.98438 0
L4.98438 2.6875
Q4.98438 2.9375 5.17188 3.21875
L20.7031 20.4062
Q24.2188 24.2188 26.4062 26.7969
Q28.6094 29.3906 30.75 32.7656
Q32.9062 36.1406 34.1562 39.625
Q35.4062 43.1094 35.4062 47.0156
Q35.4062 51.125 33.8906 54.8594
Q32.375 58.5938 29.375 60.8438
Q26.375 63.0938 22.125 63.0938
Q17.7812 63.0938 14.3125 60.4688
Q10.8438 57.8594 9.42188 53.7188
Q9.8125 53.8125 10.5 53.8125
Q12.75 53.8125 14.3281 52.2969
Q15.9219 50.7812 15.9219 48.3906
Q15.9219 46.0938 14.3281 44.5
Q12.75 42.9219 10.5 42.9219
Q8.15625 42.9219 6.5625 44.5469
Q4.98438 46.1875 4.98438 48.3906
Q4.98438 52.1562 6.39062 55.4375
Q7.8125 58.7344 10.4688 61.2969
Q13.1406 63.875 16.4844 65.2344
Q19.8281 66.6094 23.5781 66.6094
Q29.2969 66.6094 34.2188 64.1875
Q39.1562 61.7656 42.0312 57.3438
Q44.9219 52.9375 44.9219 47.0156
Q44.9219 42.6719 43.0156 38.7656
Q41.1094 34.8594 38.125 31.6562
Q35.1562 28.4688 30.5156 24.4062
Q25.875 20.3594 24.4219 19
L13.0938 8.10938
L22.7031 8.10938
Q29.7812 8.10938 34.5469 8.21875
Q39.3125 8.34375 39.5938 8.59375
Q40.7656 9.85938 42 17.8281
L44.9219 17.8281
L42.0938 0
z
" id="Cmr10-32"/>
    </defs>
    <g transform="translate(103.104897 38.1678369565)scale(0.144 -0.144)">
     <use transform="translate(0.0 0.6875)" xlink:href="#Cmmi10-4b"/>
     <use transform="translate(84.912109375 0.6875)" xlink:href="#Cmmi10-ae"/>
     <use transform="translate(148.828125 -24.821875)scale(0.7)" xlink:href="#Cmr10-32"/>
    </g>
   </g>
   <g id="text_20">
    <!-- $K\beta_{1,3}$ -->
    <defs>
     <path d="
M9.51562 7.71875
Q11.8594 4.29688 15.8125 2.64062
Q19.7812 0.984375 24.3125 0.984375
Q30.125 0.984375 32.5625 5.9375
Q35.0156 10.8906 35.0156 17.1875
Q35.0156 20.0156 34.5 22.8438
Q33.9844 25.6875 32.7656 28.125
Q31.5469 30.5625 29.4219 32.0312
Q27.2969 33.5 24.2188 33.5
L17.5781 33.5
Q16.7031 33.5 16.7031 34.4219
L16.7031 35.2969
Q16.7031 36.0781 17.5781 36.0781
L23.0938 36.5312
Q26.6094 36.5312 28.9219 39.1562
Q31.25 41.7969 32.3281 45.5781
Q33.4062 49.3594 33.4062 52.7812
Q33.4062 57.5625 31.1562 60.6406
Q28.9062 63.7188 24.3125 63.7188
Q20.5156 63.7188 17.0469 62.2812
Q13.5781 60.8438 11.5312 57.9062
Q11.7188 57.9531 11.8594 57.9844
Q12.0156 58.0156 12.2031 58.0156
Q14.4531 58.0156 15.9688 56.4531
Q17.4844 54.8906 17.4844 52.6875
Q17.4844 50.5312 15.9688 48.9688
Q14.4531 47.4062 12.2031 47.4062
Q10.0156 47.4062 8.45312 48.9688
Q6.89062 50.5312 6.89062 52.6875
Q6.89062 56.9844 9.46875 60.1562
Q12.0625 63.3281 16.1406 64.9688
Q20.2188 66.6094 24.3125 66.6094
Q27.3438 66.6094 30.7031 65.7031
Q34.0781 64.7969 36.8125 63.1094
Q39.5469 61.4219 41.2812 58.7812
Q43.0156 56.1562 43.0156 52.7812
Q43.0156 48.5781 41.1406 45.0156
Q39.2656 41.4531 35.9844 38.8594
Q32.7188 36.2812 28.8125 35.0156
Q33.1562 34.1875 37.0625 31.7344
Q40.9688 29.2969 43.3281 25.4844
Q45.7031 21.6875 45.7031 17.2812
Q45.7031 11.7656 42.6719 7.29688
Q39.6562 2.82812 34.7188 0.3125
Q29.7812 -2.20312 24.3125 -2.20312
Q19.625 -2.20312 14.9062 -0.40625
Q10.2031 1.375 7.20312 4.9375
Q4.20312 8.5 4.20312 13.4844
Q4.20312 15.9688 5.85938 17.625
Q7.51562 19.2812 10.0156 19.2812
Q11.625 19.2812 12.9688 18.5312
Q14.3125 17.7812 15.0625 16.4062
Q15.8281 15.0469 15.8281 13.4844
Q15.8281 11.0312 14.1094 9.375
Q12.4062 7.71875 10.0156 7.71875
z
" id="Cmr10-33"/>
     <path d="
M2.6875 -19.3906
Q2.39062 -19.3906 2.14062 -19.0469
Q1.90625 -18.7031 1.90625 -18.4062
L17.2812 43.4062
Q18.6094 48.3906 21.1406 53.0781
Q23.6875 57.7656 27.5156 61.7969
Q31.3438 65.8281 35.9375 68.1719
Q40.5312 70.5156 45.7031 70.5156
Q49.4219 70.5156 52.4219 68.875
Q55.4219 67.2344 57.1562 64.2812
Q58.8906 61.3281 58.8906 57.625
Q58.8906 54.0469 57.5156 50.7969
Q56.1562 47.5625 53.7031 44.75
Q51.2656 41.9375 48.4844 40.1875
Q50.0938 39.1562 51.3594 37.5625
Q52.6406 35.9844 53.4219 34.25
Q54.2031 32.5156 54.6406 30.3906
Q55.0781 28.2656 55.0781 26.4219
Q55.0781 21.2969 52.875 16.3125
Q50.6875 11.3281 46.8906 7.26562
Q43.1094 3.21875 38.2188 0.84375
Q33.3438 -1.51562 28.2188 -1.51562
Q22.6094 -1.51562 18.1094 1.5625
Q13.625 4.64062 11.9219 9.90625
L4.6875 -18.7969
Q4.6875 -19.3906 3.90625 -19.3906
z

M28.4219 1.21875
Q32.9062 1.21875 36.5469 4.17188
Q40.1875 7.125 42.5469 11.5938
Q44.9219 16.0625 46.1562 21.0625
Q47.4062 26.0781 47.4062 30.1719
Q47.4062 35.25 44.4844 38.1875
Q41.0625 36.9219 37.7969 36.9219
Q29.8906 36.9219 29.8906 39.5938
Q29.8906 43.1094 38.9219 43.1094
Q42.1406 43.1094 44.8281 42.0938
Q46.9688 43.75 48.7188 46.9688
Q50.4844 50.2031 51.3906 53.7188
Q52.2969 57.2344 52.2969 60.2969
Q52.2969 63.5781 50.5625 65.75
Q48.8281 67.9219 45.5156 67.9219
Q39.4062 67.9219 34.1562 64.1562
Q28.9062 60.4062 25.2969 54.6562
Q21.6875 48.9219 20.125 42.8281
L14.5938 20.7031
Q14.0625 18.4062 13.9219 15.5781
Q13.9219 9.32812 18.0156 5.26562
Q22.125 1.21875 28.4219 1.21875
M32.9062 39.8906
Q34.4219 39.5 37.8906 39.5
Q39.5938 39.5 41.3125 40.0938
Q41.2188 40.1875 40.9219 40.1875
Q39.8438 40.4844 38.625 40.4844
Q34.0781 40.4844 32.9062 39.8906" id="Cmmi10-af"/>
     <path d="
M9.90625 -18.0156
Q9.90625 -17.5781 10.2969 -17.1875
Q13.9219 -13.7188 15.9219 -9.17188
Q17.9219 -4.64062 17.9219 0.390625
L17.9219 1.60938
Q16.3125 0 13.9219 0
Q11.625 0 10.0156 1.60938
Q8.40625 3.21875 8.40625 5.51562
Q8.40625 7.85938 10.0156 9.42188
Q11.625 10.9844 13.9219 10.9844
Q17.4844 10.9844 19 7.6875
Q20.5156 4.39062 20.5156 0.390625
Q20.5156 -5.17188 18.2812 -10.1719
Q16.0625 -15.1875 12.0156 -19.1875
Q11.625 -19.3906 11.375 -19.3906
Q10.8906 -19.3906 10.3906 -18.9375
Q9.90625 -18.5 9.90625 -18.0156" id="Cmmi10-3b"/>
    </defs>
    <g transform="translate(402.305055 218.480880435)scale(0.144 -0.144)">
     <use transform="translate(0.0 0.484375)" xlink:href="#Cmmi10-4b"/>
     <use transform="translate(84.912109375 0.484375)" xlink:href="#Cmmi10-af"/>
     <use transform="translate(141.40625 -25.025)scale(0.7)" xlink:href="#Cmr10-31"/>
     <use transform="translate(176.40625 -25.025)scale(0.7)" xlink:href="#Cmmi10-3b"/>
     <use transform="translate(197.173828125 -25.025)scale(0.7)" xlink:href="#Cmr10-33"/>
    </g>
   </g>
   <g id="text_21">
    <!-- $E_F$ -->
    <defs>
     <path d="
M4.6875 0
Q3.71875 0 3.71875 1.3125
Q3.76562 1.5625 3.90625 2.17188
Q4.04688 2.78125 4.3125 3.14062
Q4.59375 3.51562 4.98438 3.51562
Q11.0781 3.51562 13.4844 4.20312
Q14.7969 4.64062 15.375 6.89062
L29.1094 61.8125
Q29.2969 62.7969 29.2969 63.1875
Q29.2969 64.2656 28.0781 64.4062
Q26.2188 64.7969 20.9062 64.7969
Q19.9219 64.7969 19.9219 66.1094
Q19.9688 66.3594 20.1094 66.9688
Q20.2656 67.5781 20.5312 67.9375
Q20.7969 68.3125 21.1875 68.3125
L74.0312 68.3125
Q75 68.3125 75 67
L72.6094 46.2969
Q72.6094 46 72.2656 45.7031
Q71.9219 45.4062 71.5781 45.4062
L70.7031 45.4062
Q69.6719 45.4062 69.6719 46.6875
Q70.3125 51.2188 70.3125 54.1094
Q70.3125 59.0781 68.1562 61.4219
Q66.0156 63.7656 62.7344 64.2812
Q59.4688 64.7969 53.7188 64.7969
L43.0156 64.7969
Q40.2812 64.7969 39.4062 64.3281
Q38.5312 63.875 37.7969 61.375
L31.3906 35.8906
L38.9219 35.8906
Q42.625 35.8906 44.9219 36.2812
Q47.2188 36.6719 48.7344 37.7969
Q50.25 38.9219 51.25 41.0469
Q52.25 43.1719 53.0781 46.6875
Q53.375 47.6094 54.1094 47.6094
L54.9844 47.6094
Q56 47.6094 56 46.2969
L49.9062 21.5781
Q49.4688 20.7031 48.875 20.7031
L48 20.7031
Q47.0156 20.7031 47.0156 22.0156
Q47.2656 23.0469 47.4062 23.7344
Q47.5625 24.4219 47.7812 25.7031
Q48 27 48 27.9844
Q48 30.8594 45.4531 31.6406
Q42.9219 32.4219 38.8125 32.4219
L30.6094 32.4219
L24.125 6.5
Q23.875 5.51562 23.875 5.51562
Q23.875 4.34375 24.6094 4.20312
Q27.2031 3.51562 34.8125 3.51562
Q35.7969 3.51562 35.7969 2.20312
Q35.4531 0.78125 35.25 0.390625
Q35.0625 0 34.0781 0
z
" id="Cmmi10-46"/>
     <path d="
M4.6875 0
Q3.71875 0 3.71875 1.3125
Q3.76562 1.5625 3.90625 2.17188
Q4.04688 2.78125 4.3125 3.14062
Q4.59375 3.51562 4.98438 3.51562
Q11.0781 3.51562 13.4844 4.20312
Q14.7969 4.64062 15.375 6.89062
L29.1094 61.8125
Q29.2969 62.7969 29.2969 63.1875
Q29.2969 64.2656 28.0781 64.4062
Q26.2188 64.7969 20.9062 64.7969
Q19.9219 64.7969 19.9219 66.1094
Q19.9688 66.3594 20.1094 66.9688
Q20.2656 67.5781 20.5312 67.9375
Q20.7969 68.3125 21.1875 68.3125
L75.3906 68.3125
Q76.4219 68.3125 76.4219 67
L74.0312 46.2969
Q74.0312 46.0469 73.6562 45.7188
Q73.2969 45.4062 73 45.4062
L72.125 45.4062
Q71.0938 45.4062 71.0938 46.6875
Q71.6875 51.5625 71.6875 53.9062
Q71.6875 57.9062 70.3125 60.125
Q68.9531 62.3594 66.6719 63.3281
Q64.4062 64.3125 61.6406 64.5469
Q58.8906 64.7969 54.3906 64.7969
L43.0156 64.7969
Q40.2812 64.7969 39.4062 64.3281
Q38.5312 63.875 37.7969 61.375
L31.7812 37.2031
L39.5938 37.2031
Q44.6719 37.2031 47.2656 37.9062
Q49.8594 38.625 51.3594 40.8594
Q52.875 43.1094 54.1094 48
Q54.2031 48.3438 54.4688 48.6094
Q54.7344 48.875 55.0781 48.875
L56 48.875
Q56.9844 48.875 56.9844 47.6094
L50.7812 22.9062
Q50.5938 22.0156 49.8125 22.0156
L48.875 22.0156
Q47.9062 22.0156 47.9062 23.2969
Q48.875 27.2969 48.875 29.2031
Q48.875 32.125 46.2344 32.9062
Q43.6094 33.6875 39.2031 33.6875
L30.9062 33.6875
L24.125 6.5
Q23.6875 5.28125 23.6875 4.29688
Q23.6875 3.51562 27.0938 3.51562
L39.2031 3.51562
Q46.4375 3.51562 50.9219 4.64062
Q55.4219 5.76562 58.375 8.21875
Q61.3281 10.6875 63.4688 14.5
Q65.625 18.3125 68.7031 25.5938
Q68.8906 26.2188 69.5781 26.2188
L70.5156 26.2188
Q70.9062 26.2188 71.1875 25.875
Q71.4844 25.5312 71.4844 25.0938
Q71.4844 24.9062 71.3906 24.7031
L61.0781 0.59375
Q60.8906 0 60.2969 0
z
" id="Cmmi10-45"/>
    </defs>
    <g transform="translate(439.852875 218.480880435)scale(0.144 -0.144)">
     <use transform="translate(0.0 0.6875)" xlink:href="#Cmmi10-45"/>
     <use transform="translate(73.779296875 -24.821875)scale(0.7)" xlink:href="#Cmmi10-46"/>
    </g>
   </g>
   <g id="text_22">
    <!-- Cr XES -->
    <defs>
     <path d="
M6.29688 72.9062
L16.8906 72.9062
L35.0156 45.7969
L53.2188 72.9062
L63.8125 72.9062
L40.375 37.8906
L65.375 0
L54.7812 0
L34.2812 31
L13.625 0
L2.98438 0
L29 38.9219
z
" id="BitstreamVeraSans-Roman-58"/>
     <path d="
M53.5156 70.5156
L53.5156 60.8906
Q47.9062 63.5781 42.9219 64.8906
Q37.9375 66.2188 33.2969 66.2188
Q25.25 66.2188 20.875 63.0938
Q16.5 59.9688 16.5 54.2031
Q16.5 49.3594 19.4062 46.8906
Q22.3125 44.4375 30.4219 42.9219
L36.375 41.7031
Q47.4062 39.5938 52.6562 34.2969
Q57.9062 29 57.9062 20.125
Q57.9062 9.51562 50.7969 4.04688
Q43.7031 -1.42188 29.9844 -1.42188
Q24.8125 -1.42188 18.9688 -0.25
Q13.1406 0.921875 6.89062 3.21875
L6.89062 13.375
Q12.8906 10.0156 18.6562 8.29688
Q24.4219 6.59375 29.9844 6.59375
Q38.4219 6.59375 43.0156 9.90625
Q47.6094 13.2344 47.6094 19.3906
Q47.6094 24.75 44.3125 27.7812
Q41.0156 30.8125 33.5 32.3281
L27.4844 33.5
Q16.4531 35.6875 11.5156 40.375
Q6.59375 45.0625 6.59375 53.4219
Q6.59375 63.0938 13.4062 68.6562
Q20.2188 74.2188 32.1719 74.2188
Q37.3125 74.2188 42.625 73.2812
Q47.9531 72.3594 53.5156 70.5156" id="BitstreamVeraSans-Roman-53"/>
    </defs>
    <g transform="translate(254.664375 18.14175)scale(0.144 -0.144)">
     <use xlink:href="#BitstreamVeraSans-Roman-43"/>
     <use x="69.82421875" xlink:href="#BitstreamVeraSans-Roman-72"/>
     <use x="110.9375" xlink:href="#BitstreamVeraSans-Roman-20"/>
     <use x="142.724609375" xlink:href="#BitstreamVeraSans-Roman-58"/>
     <use x="211.23046875" xlink:href="#BitstreamVeraSans-Roman-45"/>
     <use x="274.4140625" xlink:href="#BitstreamVeraSans-Roman-53"/>
    </g>
   </g>
   <g id="legend_1">
    <g id="patch_7">
     <path d="
M327.405 120.81
L494.591 120.81
L494.591 30.3417
L327.405 30.3417
z
" style="fill:#ffffff;stroke:#000000;stroke-linejoin:miter;"/>
    </g>
    <g id="line2d_40">
     <path d="
M337.485 42.0035
L357.645 42.0035" style="fill:none;stroke:#0000ff;stroke-linecap:square;"/>
    </g>
    <g id="line2d_41"/>
    <g id="text_23">
     <!-- TiCr_2um_1.00 -->
     <defs>
      <path d="
M9.42188 54.6875
L18.4062 54.6875
L18.4062 0
L9.42188 0
z

M9.42188 75.9844
L18.4062 75.9844
L18.4062 64.5938
L9.42188 64.5938
z
" id="BitstreamVeraSans-Roman-69"/>
      <path d="
M-0.296875 72.9062
L61.375 72.9062
L61.375 64.5938
L35.5 64.5938
L35.5 0
L25.5938 0
L25.5938 64.5938
L-0.296875 64.5938
z
" id="BitstreamVeraSans-Roman-54"/>
      <path d="
M50.9844 -16.6094
L50.9844 -23.5781
L-0.984375 -23.5781
L-0.984375 -16.6094
z
" id="BitstreamVeraSans-Roman-5f"/>
      <path d="
M52 44.1875
Q55.375 50.25 60.0625 53.125
Q64.75 56 71.0938 56
Q79.6406 56 84.2812 50.0156
Q88.9219 44.0469 88.9219 33.0156
L88.9219 0
L79.8906 0
L79.8906 32.7188
Q79.8906 40.5781 77.0938 44.375
Q74.3125 48.1875 68.6094 48.1875
Q61.625 48.1875 57.5625 43.5469
Q53.5156 38.9219 53.5156 30.9062
L53.5156 0
L44.4844 0
L44.4844 32.7188
Q44.4844 40.625 41.7031 44.4062
Q38.9219 48.1875 33.1094 48.1875
Q26.2188 48.1875 22.1562 43.5312
Q18.1094 38.875 18.1094 30.9062
L18.1094 0
L9.07812 0
L9.07812 54.6875
L18.1094 54.6875
L18.1094 46.1875
Q21.1875 51.2188 25.4844 53.6094
Q29.7812 56 35.6875 56
Q41.6562 56 45.8281 52.9688
Q50 49.9531 52 44.1875" id="BitstreamVeraSans-Roman-6d"/>
     </defs>
     <g transform="translate(373.484625 47.0435)scale(0.144 -0.144)">
      <use xlink:href="#BitstreamVeraSans-Roman-54"/>
      <use x="57.958984375" xlink:href="#BitstreamVeraSans-Roman-69"/>
      <use x="85.7421875" xlink:href="#BitstreamVeraSans-Roman-43"/>
      <use x="155.56640625" xlink:href="#BitstreamVeraSans-Roman-72"/>
      <use x="196.6796875" xlink:href="#BitstreamVeraSans-Roman-5f"/>
      <use x="246.6796875" xlink:href="#BitstreamVeraSans-Roman-32"/>
      <use x="310.302734375" xlink:href="#BitstreamVeraSans-Roman-75"/>
      <use x="373.681640625" xlink:href="#BitstreamVeraSans-Roman-6d"/>
      <use x="471.09375" xlink:href="#BitstreamVeraSans-Roman-5f"/>
      <use x="521.09375" xlink:href="#BitstreamVeraSans-Roman-31"/>
      <use x="584.716796875" xlink:href="#BitstreamVeraSans-Roman-2e"/>
      <use x="616.50390625" xlink:href="#BitstreamVeraSans-Roman-30"/>
      <use x="680.126953125" xlink:href="#BitstreamVeraSans-Roman-30"/>
     </g>
    </g>
    <g id="line2d_42">
     <path d="
M337.485 63.5405
L357.645 63.5405" style="fill:none;stroke:#000000;stroke-linecap:square;"/>
    </g>
    <g id="line2d_43"/>
    <g id="text_24">
     <!-- TiCr_5um_1.00 -->
     <g transform="translate(373.484625 68.5805)scale(0.144 -0.144)">
      <use xlink:href="#BitstreamVeraSans-Roman-54"/>
      <use x="57.958984375" xlink:href="#BitstreamVeraSans-Roman-69"/>
      <use x="85.7421875" xlink:href="#BitstreamVeraSans-Roman-43"/>
      <use x="155.56640625" xlink:href="#BitstreamVeraSans-Roman-72"/>
      <use x="196.6796875" xlink:href="#BitstreamVeraSans-Roman-5f"/>
      <use x="246.6796875" xlink:href="#BitstreamVeraSans-Roman-35"/>
      <use x="310.302734375" xlink:href="#BitstreamVeraSans-Roman-75"/>
      <use x="373.681640625" xlink:href="#BitstreamVeraSans-Roman-6d"/>
      <use x="471.09375" xlink:href="#BitstreamVeraSans-Roman-5f"/>
      <use x="521.09375" xlink:href="#BitstreamVeraSans-Roman-31"/>
      <use x="584.716796875" xlink:href="#BitstreamVeraSans-Roman-2e"/>
      <use x="616.50390625" xlink:href="#BitstreamVeraSans-Roman-30"/>
      <use x="680.126953125" xlink:href="#BitstreamVeraSans-Roman-30"/>
     </g>
    </g>
    <g id="line2d_44">
     <path d="
M337.485 85.0775
L357.645 85.0775" style="fill:none;stroke:#ffa500;stroke-linecap:square;"/>
    </g>
    <g id="line2d_45"/>
    <g id="text_25">
     <!-- TiCr_15um_1.00 -->
     <g transform="translate(373.484625 90.1175)scale(0.144 -0.144)">
      <use xlink:href="#BitstreamVeraSans-Roman-54"/>
      <use x="57.958984375" xlink:href="#BitstreamVeraSans-Roman-69"/>
      <use x="85.7421875" xlink:href="#BitstreamVeraSans-Roman-43"/>
      <use x="155.56640625" xlink:href="#BitstreamVeraSans-Roman-72"/>
      <use x="196.6796875" xlink:href="#BitstreamVeraSans-Roman-5f"/>
      <use x="246.6796875" xlink:href="#BitstreamVeraSans-Roman-31"/>
      <use x="310.302734375" xlink:href="#BitstreamVeraSans-Roman-35"/>
      <use x="373.92578125" xlink:href="#BitstreamVeraSans-Roman-75"/>
      <use x="437.3046875" xlink:href="#BitstreamVeraSans-Roman-6d"/>
      <use x="534.716796875" xlink:href="#BitstreamVeraSans-Roman-5f"/>
      <use x="584.716796875" xlink:href="#BitstreamVeraSans-Roman-31"/>
      <use x="648.33984375" xlink:href="#BitstreamVeraSans-Roman-2e"/>
      <use x="680.126953125" xlink:href="#BitstreamVeraSans-Roman-30"/>
      <use x="743.75" xlink:href="#BitstreamVeraSans-Roman-30"/>
     </g>
    </g>
    <g id="line2d_46">
     <path d="
M337.485 106.614
L357.645 106.614" style="fill:none;stroke:#008000;stroke-linecap:square;"/>
    </g>
    <g id="line2d_47"/>
    <g id="text_26">
     <!-- TiCr_30um_1.00 -->
     <g transform="translate(373.484625 111.6545)scale(0.144 -0.144)">
      <use xlink:href="#BitstreamVeraSans-Roman-54"/>
      <use x="57.958984375" xlink:href="#BitstreamVeraSans-Roman-69"/>
      <use x="85.7421875" xlink:href="#BitstreamVeraSans-Roman-43"/>
      <use x="155.56640625" xlink:href="#BitstreamVeraSans-Roman-72"/>
      <use x="196.6796875" xlink:href="#BitstreamVeraSans-Roman-5f"/>
      <use x="246.6796875" xlink:href="#BitstreamVeraSans-Roman-33"/>
      <use x="310.302734375" xlink:href="#BitstreamVeraSans-Roman-30"/>
      <use x="373.92578125" xlink:href="#BitstreamVeraSans-Roman-75"/>
      <use x="437.3046875" xlink:href="#BitstreamVeraSans-Roman-6d"/>
      <use x="534.716796875" xlink:href="#BitstreamVeraSans-Roman-5f"/>
      <use x="584.716796875" xlink:href="#BitstreamVeraSans-Roman-31"/>
      <use x="648.33984375" xlink:href="#BitstreamVeraSans-Roman-2e"/>
      <use x="680.126953125" xlink:href="#BitstreamVeraSans-Roman-30"/>
      <use x="743.75" xlink:href="#BitstreamVeraSans-Roman-30"/>
     </g>
    </g>
   </g>
  </g>
 </g>
 <defs>
  <clipPath id="p291dd02cf4">
   <rect height="345.6" width="446.4" x="55.390875" y="23.14175"/>
  </clipPath>
 </defs>
</svg>
